<svg width="554" height="599" viewBox="0 0 554 599" fill="none" xmlns="http://www.w3.org/2000/svg">
<g id="coconerd">
<path id="Polygon 1" d="M55 313.5L115 282.756L115 344.244L55 313.5Z" fill="#C4C4C4"/>
<rect id="Rectangle 1" x="108" y="141" width="350" height="230" fill="#C4C4C4"/>
<path id="Hey There, I am Coconerd. and prepare you to protect our Earth. Are you ready to answer for my questions ?" d="M137.598 184V171.203H135.154V176.45H131.533V171.203H129.081V184H131.533V178.454H135.154V184H137.598ZM144.664 184.176C145.584 184.176 146.381 183.997 147.055 183.64C147.729 183.282 148.221 182.884 148.531 182.444L147.31 181.126C147.028 181.489 146.662 181.762 146.211 181.943C145.76 182.125 145.294 182.216 144.813 182.216C144.474 182.216 144.16 182.163 143.873 182.058C143.586 181.952 143.331 181.803 143.108 181.609C142.892 181.422 142.719 181.214 142.59 180.985C142.461 180.751 142.355 180.443 142.273 180.062V180.036H148.725V178.999C148.725 178.302 148.628 177.666 148.435 177.092C148.241 176.512 147.96 176.017 147.591 175.606C147.216 175.196 146.759 174.88 146.22 174.657C145.687 174.429 145.077 174.314 144.392 174.314C143.729 174.314 143.117 174.435 142.555 174.675C141.992 174.915 141.506 175.252 141.096 175.686C140.686 176.119 140.366 176.638 140.138 177.241C139.909 177.839 139.795 178.501 139.795 179.228V179.579C139.795 180.218 139.909 180.818 140.138 181.381C140.372 181.938 140.703 182.421 141.131 182.831C141.559 183.247 142.071 183.575 142.669 183.815C143.267 184.056 143.932 184.176 144.664 184.176ZM144.374 176.292C144.685 176.292 144.957 176.342 145.191 176.441C145.432 176.535 145.634 176.664 145.798 176.828C145.962 176.998 146.091 177.197 146.185 177.426C146.278 177.654 146.325 177.897 146.325 178.155V178.349H142.317C142.376 178.038 142.464 177.757 142.581 177.505C142.698 177.253 142.845 177.036 143.021 176.854C143.19 176.673 143.39 176.535 143.618 176.441C143.847 176.342 144.099 176.292 144.374 176.292ZM152.363 187.841C152.855 187.841 153.28 187.759 153.638 187.595C154.001 187.431 154.309 187.229 154.561 186.988C154.812 186.748 155.021 186.487 155.185 186.206C155.354 185.925 155.492 185.664 155.598 185.424L160.423 174.49H157.725L155.554 180.08L155.193 181.029L154.93 180.062L152.75 174.49H150.078L154.104 183.596L153.541 184.642C153.471 184.771 153.409 184.87 153.356 184.94C153.31 185.011 153.233 185.116 153.128 185.257C153.022 185.397 152.894 185.526 152.741 185.644C152.595 185.767 152.425 185.828 152.231 185.828C152.138 185.828 152.012 185.822 151.854 185.811C151.701 185.805 151.575 185.802 151.476 185.802L151.177 187.665C151.388 187.724 151.578 187.768 151.748 187.797C151.924 187.826 152.129 187.841 152.363 187.841ZM181.798 173.216V171.203H171.479V173.216H175.373V184H177.852V173.216H181.798ZM185.735 175.8V170.5H183.292V184H185.735V177.136C185.829 177.013 185.932 176.901 186.043 176.802C186.16 176.702 186.289 176.617 186.43 176.547C186.582 176.465 186.752 176.403 186.939 176.362C187.127 176.321 187.329 176.301 187.546 176.301C187.827 176.301 188.079 176.339 188.302 176.415C188.524 176.485 188.715 176.597 188.873 176.749C189.031 176.901 189.151 177.101 189.233 177.347C189.321 177.593 189.365 177.886 189.365 178.226V184H191.809V178.243C191.809 177.546 191.724 176.951 191.554 176.459C191.39 175.961 191.158 175.554 190.859 175.237C190.561 174.921 190.203 174.689 189.787 174.543C189.371 174.391 188.914 174.314 188.416 174.314C188.076 174.314 187.754 174.364 187.449 174.464C187.145 174.563 186.866 174.704 186.614 174.886C186.45 175.003 186.292 175.141 186.14 175.299C185.993 175.451 185.858 175.618 185.735 175.8ZM198.717 184.176C199.637 184.176 200.434 183.997 201.107 183.64C201.781 183.282 202.273 182.884 202.584 182.444L201.362 181.126C201.081 181.489 200.715 181.762 200.264 181.943C199.812 182.125 199.347 182.216 198.866 182.216C198.526 182.216 198.213 182.163 197.926 182.058C197.639 181.952 197.384 181.803 197.161 181.609C196.944 181.422 196.771 181.214 196.643 180.985C196.514 180.751 196.408 180.443 196.326 180.062V180.036H202.777V178.999C202.777 178.302 202.681 177.666 202.487 177.092C202.294 176.512 202.013 176.017 201.644 175.606C201.269 175.196 200.812 174.88 200.272 174.657C199.739 174.429 199.13 174.314 198.444 174.314C197.782 174.314 197.17 174.435 196.607 174.675C196.045 174.915 195.559 175.252 195.148 175.686C194.738 176.119 194.419 176.638 194.19 177.241C193.962 177.839 193.848 178.501 193.848 179.228V179.579C193.848 180.218 193.962 180.818 194.19 181.381C194.425 181.938 194.756 182.421 195.184 182.831C195.611 183.247 196.124 183.575 196.722 183.815C197.319 184.056 197.984 184.176 198.717 184.176ZM198.427 176.292C198.737 176.292 199.01 176.342 199.244 176.441C199.484 176.535 199.687 176.664 199.851 176.828C200.015 176.998 200.144 177.197 200.237 177.426C200.331 177.654 200.378 177.897 200.378 178.155V178.349H196.37C196.429 178.038 196.517 177.757 196.634 177.505C196.751 177.253 196.897 177.036 197.073 176.854C197.243 176.673 197.442 176.535 197.671 176.441C197.899 176.342 198.151 176.292 198.427 176.292ZM211.742 174.314C211.104 174.314 210.515 174.47 209.976 174.78C209.437 175.085 208.974 175.507 208.587 176.046L208.569 175.835L208.473 174.49H206.196V184H208.64V178.287C208.751 178.018 208.892 177.783 209.062 177.584C209.231 177.385 209.437 177.221 209.677 177.092C209.876 176.98 210.102 176.898 210.354 176.846C210.611 176.787 210.898 176.758 211.215 176.758C211.52 176.758 211.839 176.778 212.173 176.819C212.513 176.854 212.844 176.91 213.166 176.986L213.526 174.552C213.333 174.493 213.078 174.44 212.762 174.394C212.451 174.341 212.111 174.314 211.742 174.314ZM220.338 184.176C221.258 184.176 222.055 183.997 222.729 183.64C223.402 183.282 223.895 182.884 224.205 182.444L222.983 181.126C222.702 181.489 222.336 181.762 221.885 181.943C221.434 182.125 220.968 182.216 220.487 182.216C220.147 182.216 219.834 182.163 219.547 182.058C219.26 181.952 219.005 181.803 218.782 181.609C218.565 181.422 218.393 181.214 218.264 180.985C218.135 180.751 218.029 180.443 217.947 180.062V180.036H224.398V178.999C224.398 178.302 224.302 177.666 224.108 177.092C223.915 176.512 223.634 176.017 223.265 175.606C222.89 175.196 222.433 174.88 221.894 174.657C221.36 174.429 220.751 174.314 220.065 174.314C219.403 174.314 218.791 174.435 218.229 174.675C217.666 174.915 217.18 175.252 216.77 175.686C216.359 176.119 216.04 176.638 215.812 177.241C215.583 177.839 215.469 178.501 215.469 179.228V179.579C215.469 180.218 215.583 180.818 215.812 181.381C216.046 181.938 216.377 182.421 216.805 182.831C217.232 183.247 217.745 183.575 218.343 183.815C218.94 184.056 219.605 184.176 220.338 184.176ZM220.048 176.292C220.358 176.292 220.631 176.342 220.865 176.441C221.105 176.535 221.308 176.664 221.472 176.828C221.636 176.998 221.765 177.197 221.858 177.426C221.952 177.654 221.999 177.897 221.999 178.155V178.349H217.991C218.05 178.038 218.138 177.757 218.255 177.505C218.372 177.253 218.519 177.036 218.694 176.854C218.864 176.673 219.063 176.535 219.292 176.441C219.521 176.342 219.772 176.292 220.048 176.292ZM231.535 183.807L231.544 181.864H229.25V183.921C229.25 184.565 229.174 185.116 229.021 185.573C228.869 186.036 228.682 186.479 228.459 186.9L229.751 187.568C230.278 187.1 230.706 186.522 231.034 185.837C231.368 185.151 231.535 184.475 231.535 183.807ZM129.696 195.203V197.198H132.131V206.014H129.696V208H137.097V206.014H134.601V197.198H137.097V195.203H129.696ZM156.802 208H159.28V207.851C159.157 207.61 159.063 207.323 158.999 206.989C158.935 206.655 158.902 206.233 158.902 205.724V201.646C158.902 201.095 158.8 200.611 158.595 200.195C158.39 199.773 158.105 199.425 157.742 199.149C157.379 198.874 156.948 198.666 156.45 198.525C155.958 198.385 155.425 198.314 154.851 198.314C154.212 198.314 153.644 198.396 153.146 198.561C152.653 198.719 152.237 198.936 151.897 199.211C151.552 199.486 151.288 199.806 151.106 200.169C150.931 200.532 150.843 200.916 150.843 201.32H153.286C153.286 201.15 153.31 200.995 153.356 200.854C153.409 200.714 153.488 200.594 153.594 200.494C153.711 200.383 153.863 200.298 154.051 200.239C154.238 200.175 154.461 200.143 154.719 200.143C155.012 200.143 155.267 200.181 155.483 200.257C155.706 200.327 155.891 200.43 156.037 200.564C156.178 200.693 156.283 200.849 156.354 201.03C156.424 201.206 156.459 201.405 156.459 201.628V202.19H155.097C154.394 202.19 153.77 202.255 153.225 202.384C152.686 202.507 152.231 202.688 151.862 202.929C151.452 203.192 151.145 203.529 150.939 203.939C150.734 204.344 150.632 204.81 150.632 205.337C150.632 205.747 150.714 206.128 150.878 206.479C151.042 206.825 151.271 207.124 151.563 207.376C151.856 207.628 152.205 207.824 152.609 207.965C153.02 208.105 153.468 208.176 153.954 208.176C154.253 208.176 154.531 208.146 154.789 208.088C155.047 208.035 155.284 207.959 155.501 207.859C155.712 207.766 155.905 207.654 156.081 207.525C156.257 207.396 156.412 207.259 156.547 207.112C156.576 207.282 156.611 207.443 156.652 207.596C156.693 207.748 156.743 207.883 156.802 208ZM154.473 206.286C154.244 206.286 154.042 206.26 153.866 206.207C153.696 206.148 153.553 206.072 153.436 205.979C153.318 205.879 153.228 205.759 153.163 205.618C153.104 205.472 153.075 205.313 153.075 205.144C153.075 204.927 153.116 204.728 153.198 204.546C153.28 204.358 153.406 204.197 153.576 204.062C153.746 203.934 153.966 203.834 154.235 203.764C154.505 203.688 154.83 203.649 155.211 203.649H156.459V205.284C156.389 205.407 156.292 205.53 156.169 205.653C156.046 205.771 155.899 205.876 155.729 205.97C155.56 206.063 155.369 206.14 155.158 206.198C154.947 206.257 154.719 206.286 154.473 206.286ZM163.191 198.49H161.091V208H163.314V200.881C163.344 200.805 163.376 200.734 163.411 200.67C163.446 200.605 163.487 200.55 163.534 200.503C163.599 200.438 163.672 200.389 163.754 200.354C163.836 200.318 163.93 200.301 164.035 200.301C164.129 200.301 164.217 200.315 164.299 200.345C164.381 200.368 164.454 200.412 164.519 200.477C164.577 200.541 164.624 200.632 164.659 200.749C164.694 200.866 164.712 201.016 164.712 201.197V208H166.865V200.986C166.865 200.916 166.865 200.86 166.865 200.819C166.865 200.778 166.865 200.752 166.865 200.74C166.895 200.676 166.93 200.62 166.971 200.573C167.012 200.521 167.059 200.474 167.111 200.433C167.176 200.392 167.243 200.359 167.313 200.336C167.39 200.312 167.475 200.301 167.568 200.301C167.656 200.301 167.741 200.315 167.823 200.345C167.911 200.368 167.987 200.412 168.052 200.477C168.116 200.547 168.166 200.641 168.201 200.758C168.242 200.875 168.263 201.024 168.263 201.206V208H170.486V201.215C170.486 200.688 170.434 200.242 170.328 199.879C170.229 199.51 170.088 199.208 169.906 198.974C169.719 198.745 169.499 198.578 169.247 198.473C169.001 198.367 168.734 198.314 168.447 198.314C168.219 198.314 168.008 198.344 167.814 198.402C167.621 198.461 167.448 198.543 167.296 198.648C167.173 198.73 167.059 198.83 166.953 198.947C166.854 199.059 166.763 199.185 166.681 199.325C166.628 199.179 166.563 199.05 166.487 198.938C166.417 198.821 166.332 198.722 166.232 198.64C166.104 198.528 165.951 198.446 165.775 198.394C165.6 198.341 165.4 198.314 165.178 198.314C164.721 198.314 164.331 198.435 164.009 198.675C163.692 198.909 163.443 199.231 163.262 199.642L163.191 198.49ZM192.09 203.992H189.62C189.597 204.379 189.532 204.71 189.427 204.985C189.321 205.261 189.178 205.486 188.996 205.662C188.814 205.838 188.595 205.967 188.337 206.049C188.079 206.131 187.789 206.172 187.467 206.172C187.227 206.172 187.007 206.146 186.808 206.093C186.614 206.034 186.438 205.946 186.28 205.829C186.134 205.724 186.002 205.592 185.885 205.434C185.773 205.275 185.677 205.094 185.595 204.889C185.478 204.59 185.39 204.241 185.331 203.843C185.278 203.438 185.252 202.981 185.252 202.472V200.731C185.252 200.356 185.27 200.008 185.305 199.686C185.34 199.357 185.396 199.059 185.472 198.789C185.571 198.443 185.703 198.142 185.867 197.884C186.037 197.62 186.242 197.418 186.482 197.277C186.623 197.195 186.775 197.134 186.939 197.093C187.109 197.052 187.291 197.031 187.484 197.031C187.848 197.031 188.158 197.081 188.416 197.181C188.68 197.274 188.899 197.415 189.075 197.603C189.245 197.796 189.374 198.036 189.462 198.323C189.556 198.61 189.614 198.944 189.638 199.325H192.099C192.04 198.657 191.899 198.057 191.677 197.523C191.454 196.99 191.149 196.539 190.763 196.17C190.376 195.801 189.907 195.517 189.356 195.317C188.812 195.118 188.188 195.019 187.484 195.019C187.01 195.019 186.564 195.08 186.148 195.203C185.738 195.32 185.36 195.49 185.015 195.713C184.628 195.977 184.282 196.299 183.978 196.68C183.673 197.061 183.427 197.494 183.239 197.98C183.075 198.379 182.952 198.812 182.87 199.281C182.788 199.744 182.747 200.233 182.747 200.749V202.472C182.747 203.022 182.791 203.544 182.879 204.036C182.973 204.528 183.104 204.979 183.274 205.39C183.45 205.8 183.664 206.175 183.916 206.515C184.174 206.854 184.467 207.145 184.795 207.385C185.152 207.643 185.554 207.842 185.999 207.982C186.45 208.117 186.939 208.185 187.467 208.185C188.135 208.185 188.744 208.088 189.295 207.895C189.846 207.695 190.32 207.414 190.719 207.051C191.117 206.688 191.434 206.248 191.668 205.732C191.908 205.217 192.049 204.637 192.09 203.992ZM193.769 203.157V203.342C193.769 204.039 193.868 204.684 194.067 205.275C194.267 205.861 194.56 206.371 194.946 206.805C195.327 207.238 195.796 207.578 196.353 207.824C196.915 208.064 197.554 208.185 198.269 208.185C198.978 208.185 199.61 208.064 200.167 207.824C200.724 207.578 201.192 207.238 201.573 206.805C201.954 206.371 202.244 205.861 202.443 205.275C202.643 204.684 202.742 204.039 202.742 203.342V203.157C202.742 202.466 202.643 201.827 202.443 201.241C202.244 200.649 201.954 200.137 201.573 199.703C201.187 199.27 200.715 198.93 200.158 198.684C199.602 198.438 198.966 198.314 198.251 198.314C197.536 198.314 196.9 198.438 196.344 198.684C195.793 198.93 195.327 199.27 194.946 199.703C194.56 200.137 194.267 200.649 194.067 201.241C193.868 201.827 193.769 202.466 193.769 203.157ZM196.212 203.342V203.157C196.212 202.771 196.25 202.404 196.326 202.059C196.402 201.713 196.522 201.408 196.687 201.145C196.851 200.881 197.062 200.673 197.319 200.521C197.577 200.368 197.888 200.292 198.251 200.292C198.62 200.292 198.934 200.368 199.191 200.521C199.449 200.673 199.66 200.881 199.824 201.145C199.982 201.408 200.1 201.713 200.176 202.059C200.252 202.404 200.29 202.771 200.29 203.157V203.342C200.29 203.74 200.252 204.115 200.176 204.467C200.1 204.812 199.982 205.114 199.824 205.372C199.66 205.636 199.449 205.844 199.191 205.996C198.934 206.148 198.626 206.225 198.269 206.225C197.899 206.225 197.583 206.148 197.319 205.996C197.062 205.844 196.851 205.636 196.687 205.372C196.522 205.114 196.402 204.812 196.326 204.467C196.25 204.115 196.212 203.74 196.212 203.342ZM209.123 206.225C208.73 206.225 208.405 206.146 208.147 205.987C207.896 205.829 207.696 205.618 207.55 205.354C207.397 205.097 207.292 204.798 207.233 204.458C207.175 204.112 207.146 203.755 207.146 203.386V203.122C207.146 202.759 207.175 202.407 207.233 202.067C207.298 201.728 207.406 201.426 207.559 201.162C207.705 200.898 207.904 200.688 208.156 200.529C208.408 200.371 208.728 200.292 209.114 200.292C209.378 200.292 209.621 200.339 209.844 200.433C210.066 200.521 210.257 200.641 210.415 200.793C210.573 200.945 210.693 201.127 210.775 201.338C210.857 201.549 210.893 201.771 210.881 202.006H213.184C213.195 201.443 213.102 200.937 212.902 200.485C212.703 200.028 212.425 199.639 212.067 199.316C211.704 199 211.273 198.754 210.775 198.578C210.277 198.402 209.735 198.314 209.149 198.314C208.417 198.314 207.772 198.44 207.216 198.692C206.665 198.944 206.202 199.287 205.827 199.721C205.452 200.154 205.171 200.664 204.983 201.25C204.796 201.83 204.702 202.454 204.702 203.122V203.386C204.702 204.054 204.796 204.681 204.983 205.267C205.177 205.847 205.461 206.354 205.836 206.787C206.205 207.221 206.668 207.563 207.225 207.815C207.781 208.062 208.429 208.185 209.167 208.185C209.712 208.185 210.228 208.1 210.714 207.93C211.206 207.754 211.637 207.514 212.006 207.209C212.375 206.904 212.665 206.541 212.876 206.119C213.093 205.697 213.195 205.24 213.184 204.748H210.881C210.893 204.971 210.852 205.173 210.758 205.354C210.67 205.536 210.544 205.691 210.38 205.82C210.216 205.949 210.025 206.049 209.809 206.119C209.592 206.189 209.363 206.225 209.123 206.225ZM215.39 203.157V203.342C215.39 204.039 215.489 204.684 215.688 205.275C215.888 205.861 216.181 206.371 216.567 206.805C216.948 207.238 217.417 207.578 217.974 207.824C218.536 208.064 219.175 208.185 219.89 208.185C220.599 208.185 221.231 208.064 221.788 207.824C222.345 207.578 222.813 207.238 223.194 206.805C223.575 206.371 223.865 205.861 224.064 205.275C224.264 204.684 224.363 204.039 224.363 203.342V203.157C224.363 202.466 224.264 201.827 224.064 201.241C223.865 200.649 223.575 200.137 223.194 199.703C222.808 199.27 222.336 198.93 221.779 198.684C221.223 198.438 220.587 198.314 219.872 198.314C219.157 198.314 218.521 198.438 217.965 198.684C217.414 198.93 216.948 199.27 216.567 199.703C216.181 200.137 215.888 200.649 215.688 201.241C215.489 201.827 215.39 202.466 215.39 203.157ZM217.833 203.342V203.157C217.833 202.771 217.871 202.404 217.947 202.059C218.023 201.713 218.144 201.408 218.308 201.145C218.472 200.881 218.683 200.673 218.94 200.521C219.198 200.368 219.509 200.292 219.872 200.292C220.241 200.292 220.555 200.368 220.812 200.521C221.07 200.673 221.281 200.881 221.445 201.145C221.604 201.408 221.721 201.713 221.797 202.059C221.873 202.404 221.911 202.771 221.911 203.157V203.342C221.911 203.74 221.873 204.115 221.797 204.467C221.721 204.812 221.604 205.114 221.445 205.372C221.281 205.636 221.07 205.844 220.812 205.996C220.555 206.148 220.247 206.225 219.89 206.225C219.521 206.225 219.204 206.148 218.94 205.996C218.683 205.844 218.472 205.636 218.308 205.372C218.144 205.114 218.023 204.812 217.947 204.467C217.871 204.115 217.833 203.74 217.833 203.342ZM226.534 208H228.986V201.241C229.068 201.112 229.159 200.995 229.259 200.89C229.358 200.784 229.47 200.693 229.593 200.617C229.745 200.512 229.918 200.433 230.111 200.38C230.311 200.327 230.527 200.301 230.762 200.301C231.043 200.301 231.295 200.33 231.518 200.389C231.74 200.441 231.931 200.538 232.089 200.679C232.247 200.819 232.367 201.013 232.449 201.259C232.537 201.499 232.581 201.807 232.581 202.182V208H235.024V202.146C235.024 201.455 234.942 200.869 234.778 200.389C234.62 199.902 234.397 199.504 234.11 199.193C233.817 198.889 233.472 198.666 233.073 198.525C232.675 198.385 232.235 198.314 231.755 198.314C231.38 198.314 231.025 198.367 230.691 198.473C230.357 198.578 230.05 198.73 229.769 198.93C229.604 199.047 229.449 199.179 229.303 199.325C229.156 199.472 229.021 199.633 228.898 199.809L228.749 198.49H226.534V208ZM241.959 208.176C242.879 208.176 243.676 207.997 244.35 207.64C245.023 207.282 245.516 206.884 245.826 206.444L244.604 205.126C244.323 205.489 243.957 205.762 243.506 205.943C243.055 206.125 242.589 206.216 242.108 206.216C241.769 206.216 241.455 206.163 241.168 206.058C240.881 205.952 240.626 205.803 240.403 205.609C240.187 205.422 240.014 205.214 239.885 204.985C239.756 204.751 239.65 204.443 239.568 204.062V204.036H246.02V202.999C246.02 202.302 245.923 201.666 245.729 201.092C245.536 200.512 245.255 200.017 244.886 199.606C244.511 199.196 244.054 198.88 243.515 198.657C242.981 198.429 242.372 198.314 241.687 198.314C241.024 198.314 240.412 198.435 239.85 198.675C239.287 198.915 238.801 199.252 238.391 199.686C237.98 200.119 237.661 200.638 237.433 201.241C237.204 201.839 237.09 202.501 237.09 203.228V203.579C237.09 204.218 237.204 204.818 237.433 205.381C237.667 205.938 237.998 206.421 238.426 206.831C238.854 207.247 239.366 207.575 239.964 207.815C240.562 208.056 241.227 208.176 241.959 208.176ZM241.669 200.292C241.979 200.292 242.252 200.342 242.486 200.441C242.727 200.535 242.929 200.664 243.093 200.828C243.257 200.998 243.386 201.197 243.479 201.426C243.573 201.654 243.62 201.897 243.62 202.155V202.349H239.612C239.671 202.038 239.759 201.757 239.876 201.505C239.993 201.253 240.14 201.036 240.315 200.854C240.485 200.673 240.685 200.535 240.913 200.441C241.142 200.342 241.394 200.292 241.669 200.292ZM254.984 198.314C254.346 198.314 253.757 198.47 253.218 198.78C252.679 199.085 252.216 199.507 251.829 200.046L251.812 199.835L251.715 198.49H249.438V208H251.882V202.287C251.993 202.018 252.134 201.783 252.304 201.584C252.474 201.385 252.679 201.221 252.919 201.092C253.118 200.98 253.344 200.898 253.596 200.846C253.854 200.787 254.141 200.758 254.457 200.758C254.762 200.758 255.081 200.778 255.415 200.819C255.755 200.854 256.086 200.91 256.408 200.986L256.769 198.552C256.575 198.493 256.32 198.44 256.004 198.394C255.693 198.341 255.354 198.314 254.984 198.314ZM258.711 203.175V203.359C258.711 204.051 258.796 204.692 258.966 205.284C259.136 205.87 259.382 206.377 259.704 206.805C260.021 207.232 260.407 207.569 260.864 207.815C261.327 208.056 261.849 208.176 262.429 208.176C262.962 208.176 263.431 208.073 263.835 207.868C264.239 207.663 264.591 207.376 264.89 207.007L265.013 208H267.219V194.5H264.767V199.343C264.474 199.015 264.137 198.763 263.756 198.587C263.381 198.405 262.944 198.314 262.446 198.314C261.854 198.314 261.327 198.432 260.864 198.666C260.407 198.9 260.018 199.231 259.695 199.659C259.373 200.087 259.127 200.6 258.957 201.197C258.793 201.795 258.711 202.454 258.711 203.175ZM261.154 203.359V203.175C261.154 202.776 261.189 202.404 261.26 202.059C261.33 201.707 261.441 201.399 261.594 201.136C261.746 200.878 261.942 200.676 262.183 200.529C262.429 200.377 262.725 200.301 263.07 200.301C263.486 200.301 263.832 200.392 264.107 200.573C264.383 200.749 264.603 200.998 264.767 201.32V205.17C264.603 205.486 264.38 205.735 264.099 205.917C263.823 206.099 263.475 206.189 263.053 206.189C262.707 206.189 262.414 206.116 262.174 205.97C261.934 205.823 261.737 205.621 261.585 205.363C261.433 205.111 261.321 204.815 261.251 204.476C261.187 204.13 261.154 203.758 261.154 203.359ZM272.246 206.585C272.246 207.036 272.398 207.414 272.703 207.719C273.008 208.023 273.421 208.176 273.942 208.176C274.458 208.176 274.868 208.026 275.173 207.728C275.483 207.423 275.639 207.042 275.639 206.585C275.639 206.128 275.486 205.744 275.182 205.434C274.883 205.123 274.47 204.968 273.942 204.968C273.409 204.968 272.993 205.126 272.694 205.442C272.396 205.753 272.246 206.134 272.246 206.585ZM135.181 232H137.659V231.851C137.536 231.61 137.442 231.323 137.378 230.989C137.313 230.655 137.281 230.233 137.281 229.724V225.646C137.281 225.095 137.179 224.611 136.974 224.195C136.769 223.773 136.484 223.425 136.121 223.149C135.758 222.874 135.327 222.666 134.829 222.525C134.337 222.385 133.804 222.314 133.229 222.314C132.591 222.314 132.022 222.396 131.524 222.561C131.032 222.719 130.616 222.936 130.276 223.211C129.931 223.486 129.667 223.806 129.485 224.169C129.31 224.532 129.222 224.916 129.222 225.32H131.665C131.665 225.15 131.688 224.995 131.735 224.854C131.788 224.714 131.867 224.594 131.973 224.494C132.09 224.383 132.242 224.298 132.43 224.239C132.617 224.175 132.84 224.143 133.098 224.143C133.391 224.143 133.646 224.181 133.862 224.257C134.085 224.327 134.27 224.43 134.416 224.564C134.557 224.693 134.662 224.849 134.732 225.03C134.803 225.206 134.838 225.405 134.838 225.628V226.19H133.476C132.772 226.19 132.148 226.255 131.604 226.384C131.064 226.507 130.61 226.688 130.241 226.929C129.831 227.192 129.523 227.529 129.318 227.939C129.113 228.344 129.011 228.81 129.011 229.337C129.011 229.747 129.093 230.128 129.257 230.479C129.421 230.825 129.649 231.124 129.942 231.376C130.235 231.628 130.584 231.824 130.988 231.965C131.398 232.105 131.847 232.176 132.333 232.176C132.632 232.176 132.91 232.146 133.168 232.088C133.426 232.035 133.663 231.959 133.88 231.859C134.091 231.766 134.284 231.654 134.46 231.525C134.636 231.396 134.791 231.259 134.926 231.112C134.955 231.282 134.99 231.443 135.031 231.596C135.072 231.748 135.122 231.883 135.181 232ZM132.852 230.286C132.623 230.286 132.421 230.26 132.245 230.207C132.075 230.148 131.932 230.072 131.814 229.979C131.697 229.879 131.606 229.759 131.542 229.618C131.483 229.472 131.454 229.313 131.454 229.144C131.454 228.927 131.495 228.728 131.577 228.546C131.659 228.358 131.785 228.197 131.955 228.062C132.125 227.934 132.345 227.834 132.614 227.764C132.884 227.688 133.209 227.649 133.59 227.649H134.838V229.284C134.768 229.407 134.671 229.53 134.548 229.653C134.425 229.771 134.278 229.876 134.108 229.97C133.938 230.063 133.748 230.14 133.537 230.198C133.326 230.257 133.098 230.286 132.852 230.286ZM140.05 232H142.502V225.241C142.584 225.112 142.675 224.995 142.774 224.89C142.874 224.784 142.985 224.693 143.108 224.617C143.261 224.512 143.434 224.433 143.627 224.38C143.826 224.327 144.043 224.301 144.277 224.301C144.559 224.301 144.811 224.33 145.033 224.389C145.256 224.441 145.446 224.538 145.604 224.679C145.763 224.819 145.883 225.013 145.965 225.259C146.053 225.499 146.097 225.807 146.097 226.182V232H148.54V226.146C148.54 225.455 148.458 224.869 148.294 224.389C148.136 223.902 147.913 223.504 147.626 223.193C147.333 222.889 146.987 222.666 146.589 222.525C146.19 222.385 145.751 222.314 145.271 222.314C144.896 222.314 144.541 222.367 144.207 222.473C143.873 222.578 143.565 222.73 143.284 222.93C143.12 223.047 142.965 223.179 142.818 223.325C142.672 223.472 142.537 223.633 142.414 223.809L142.265 222.49H140.05V232ZM150.605 227.175V227.359C150.605 228.051 150.69 228.692 150.86 229.284C151.03 229.87 151.276 230.377 151.599 230.805C151.915 231.232 152.302 231.569 152.759 231.815C153.222 232.056 153.743 232.176 154.323 232.176C154.856 232.176 155.325 232.073 155.729 231.868C156.134 231.663 156.485 231.376 156.784 231.007L156.907 232H159.113V218.5H156.661V223.343C156.368 223.015 156.031 222.763 155.65 222.587C155.275 222.405 154.839 222.314 154.341 222.314C153.749 222.314 153.222 222.432 152.759 222.666C152.302 222.9 151.912 223.231 151.59 223.659C151.268 224.087 151.021 224.6 150.852 225.197C150.688 225.795 150.605 226.454 150.605 227.175ZM153.049 227.359V227.175C153.049 226.776 153.084 226.404 153.154 226.059C153.225 225.707 153.336 225.399 153.488 225.136C153.641 224.878 153.837 224.676 154.077 224.529C154.323 224.377 154.619 224.301 154.965 224.301C155.381 224.301 155.727 224.392 156.002 224.573C156.277 224.749 156.497 224.998 156.661 225.32V229.17C156.497 229.486 156.274 229.735 155.993 229.917C155.718 230.099 155.369 230.189 154.947 230.189C154.602 230.189 154.309 230.116 154.068 229.97C153.828 229.823 153.632 229.621 153.479 229.363C153.327 229.111 153.216 228.815 153.146 228.476C153.081 228.13 153.049 227.758 153.049 227.359ZM172.517 235.656H174.96V231.174C175.071 231.297 175.188 231.408 175.312 231.508C175.435 231.607 175.563 231.698 175.698 231.78C175.927 231.909 176.173 232.006 176.437 232.07C176.706 232.141 176.999 232.176 177.315 232.176C177.913 232.176 178.443 232.053 178.906 231.807C179.369 231.561 179.759 231.221 180.075 230.787C180.386 230.359 180.62 229.85 180.778 229.258C180.942 228.666 181.024 228.024 181.024 227.333V227.148C181.024 226.428 180.942 225.771 180.778 225.18C180.62 224.582 180.383 224.069 180.066 223.642C179.75 223.22 179.36 222.895 178.897 222.666C178.435 222.432 177.901 222.314 177.298 222.314C177.005 222.314 176.729 222.347 176.472 222.411C176.22 222.47 175.988 222.555 175.777 222.666C175.602 222.76 175.438 222.871 175.285 223C175.133 223.123 174.992 223.264 174.863 223.422L174.775 222.49H172.517V235.656ZM178.581 227.148V227.333C178.581 227.726 178.546 228.098 178.476 228.449C178.405 228.795 178.294 229.1 178.142 229.363C177.989 229.627 177.79 229.835 177.544 229.987C177.304 230.14 177.011 230.216 176.665 230.216C176.448 230.216 176.252 230.195 176.076 230.154C175.9 230.107 175.745 230.043 175.61 229.961C175.47 229.873 175.344 229.768 175.232 229.645C175.127 229.521 175.036 229.384 174.96 229.231V225.259C175.042 225.095 175.139 224.951 175.25 224.828C175.367 224.705 175.502 224.603 175.654 224.521C175.789 224.45 175.938 224.397 176.103 224.362C176.267 224.321 176.448 224.301 176.647 224.301C176.993 224.301 177.286 224.374 177.526 224.521C177.772 224.667 177.975 224.866 178.133 225.118C178.285 225.376 178.396 225.681 178.467 226.032C178.543 226.378 178.581 226.75 178.581 227.148ZM190.121 222.314C189.482 222.314 188.894 222.47 188.354 222.78C187.815 223.085 187.353 223.507 186.966 224.046L186.948 223.835L186.852 222.49H184.575V232H187.019V226.287C187.13 226.018 187.271 225.783 187.44 225.584C187.61 225.385 187.815 225.221 188.056 225.092C188.255 224.98 188.48 224.898 188.732 224.846C188.99 224.787 189.277 224.758 189.594 224.758C189.898 224.758 190.218 224.778 190.552 224.819C190.892 224.854 191.223 224.91 191.545 224.986L191.905 222.552C191.712 222.493 191.457 222.44 191.141 222.394C190.83 222.341 190.49 222.314 190.121 222.314ZM198.717 232.176C199.637 232.176 200.434 231.997 201.107 231.64C201.781 231.282 202.273 230.884 202.584 230.444L201.362 229.126C201.081 229.489 200.715 229.762 200.264 229.943C199.812 230.125 199.347 230.216 198.866 230.216C198.526 230.216 198.213 230.163 197.926 230.058C197.639 229.952 197.384 229.803 197.161 229.609C196.944 229.422 196.771 229.214 196.643 228.985C196.514 228.751 196.408 228.443 196.326 228.062V228.036H202.777V226.999C202.777 226.302 202.681 225.666 202.487 225.092C202.294 224.512 202.013 224.017 201.644 223.606C201.269 223.196 200.812 222.88 200.272 222.657C199.739 222.429 199.13 222.314 198.444 222.314C197.782 222.314 197.17 222.435 196.607 222.675C196.045 222.915 195.559 223.252 195.148 223.686C194.738 224.119 194.419 224.638 194.19 225.241C193.962 225.839 193.848 226.501 193.848 227.228V227.579C193.848 228.218 193.962 228.818 194.19 229.381C194.425 229.938 194.756 230.421 195.184 230.831C195.611 231.247 196.124 231.575 196.722 231.815C197.319 232.056 197.984 232.176 198.717 232.176ZM198.427 224.292C198.737 224.292 199.01 224.342 199.244 224.441C199.484 224.535 199.687 224.664 199.851 224.828C200.015 224.998 200.144 225.197 200.237 225.426C200.331 225.654 200.378 225.897 200.378 226.155V226.349H196.37C196.429 226.038 196.517 225.757 196.634 225.505C196.751 225.253 196.897 225.036 197.073 224.854C197.243 224.673 197.442 224.535 197.671 224.441C197.899 224.342 198.151 224.292 198.427 224.292ZM204.948 235.656H207.392V231.174C207.503 231.297 207.62 231.408 207.743 231.508C207.866 231.607 207.995 231.698 208.13 231.78C208.358 231.909 208.604 232.006 208.868 232.07C209.138 232.141 209.431 232.176 209.747 232.176C210.345 232.176 210.875 232.053 211.338 231.807C211.801 231.561 212.19 231.221 212.507 230.787C212.817 230.359 213.052 229.85 213.21 229.258C213.374 228.666 213.456 228.024 213.456 227.333V227.148C213.456 226.428 213.374 225.771 213.21 225.18C213.052 224.582 212.814 224.069 212.498 223.642C212.182 223.22 211.792 222.895 211.329 222.666C210.866 222.432 210.333 222.314 209.729 222.314C209.437 222.314 209.161 222.347 208.903 222.411C208.651 222.47 208.42 222.555 208.209 222.666C208.033 222.76 207.869 222.871 207.717 223C207.564 223.123 207.424 223.264 207.295 223.422L207.207 222.49H204.948V235.656ZM211.013 227.148V227.333C211.013 227.726 210.978 228.098 210.907 228.449C210.837 228.795 210.726 229.1 210.573 229.363C210.421 229.627 210.222 229.835 209.976 229.987C209.735 230.14 209.442 230.216 209.097 230.216C208.88 230.216 208.684 230.195 208.508 230.154C208.332 230.107 208.177 230.043 208.042 229.961C207.901 229.873 207.775 229.768 207.664 229.645C207.559 229.521 207.468 229.384 207.392 229.231V225.259C207.474 225.095 207.57 224.951 207.682 224.828C207.799 224.705 207.934 224.603 208.086 224.521C208.221 224.45 208.37 224.397 208.534 224.362C208.698 224.321 208.88 224.301 209.079 224.301C209.425 224.301 209.718 224.374 209.958 224.521C210.204 224.667 210.406 224.866 210.564 225.118C210.717 225.376 210.828 225.681 210.898 226.032C210.975 226.378 211.013 226.75 211.013 227.148ZM221.665 232H224.144V231.851C224.021 231.61 223.927 231.323 223.862 230.989C223.798 230.655 223.766 230.233 223.766 229.724V225.646C223.766 225.095 223.663 224.611 223.458 224.195C223.253 223.773 222.969 223.425 222.605 223.149C222.242 222.874 221.812 222.666 221.313 222.525C220.821 222.385 220.288 222.314 219.714 222.314C219.075 222.314 218.507 222.396 218.009 222.561C217.517 222.719 217.101 222.936 216.761 223.211C216.415 223.486 216.151 223.806 215.97 224.169C215.794 224.532 215.706 224.916 215.706 225.32H218.149C218.149 225.15 218.173 224.995 218.22 224.854C218.272 224.714 218.352 224.594 218.457 224.494C218.574 224.383 218.727 224.298 218.914 224.239C219.102 224.175 219.324 224.143 219.582 224.143C219.875 224.143 220.13 224.181 220.347 224.257C220.569 224.327 220.754 224.43 220.9 224.564C221.041 224.693 221.146 224.849 221.217 225.03C221.287 225.206 221.322 225.405 221.322 225.628V226.19H219.96C219.257 226.19 218.633 226.255 218.088 226.384C217.549 226.507 217.095 226.688 216.726 226.929C216.315 227.192 216.008 227.529 215.803 227.939C215.598 228.344 215.495 228.81 215.495 229.337C215.495 229.747 215.577 230.128 215.741 230.479C215.905 230.825 216.134 231.124 216.427 231.376C216.72 231.628 217.068 231.824 217.473 231.965C217.883 232.105 218.331 232.176 218.817 232.176C219.116 232.176 219.395 232.146 219.652 232.088C219.91 232.035 220.147 231.959 220.364 231.859C220.575 231.766 220.769 231.654 220.944 231.525C221.12 231.396 221.275 231.259 221.41 231.112C221.439 231.282 221.475 231.443 221.516 231.596C221.557 231.748 221.606 231.883 221.665 232ZM219.336 230.286C219.107 230.286 218.905 230.26 218.729 230.207C218.56 230.148 218.416 230.072 218.299 229.979C218.182 229.879 218.091 229.759 218.026 229.618C217.968 229.472 217.938 229.313 217.938 229.144C217.938 228.927 217.979 228.728 218.062 228.546C218.144 228.358 218.27 228.197 218.439 228.062C218.609 227.934 218.829 227.834 219.099 227.764C219.368 227.688 219.693 227.649 220.074 227.649H221.322V229.284C221.252 229.407 221.155 229.53 221.032 229.653C220.909 229.771 220.763 229.876 220.593 229.97C220.423 230.063 220.232 230.14 220.021 230.198C219.811 230.257 219.582 230.286 219.336 230.286ZM233.363 222.314C232.725 222.314 232.136 222.47 231.597 222.78C231.058 223.085 230.595 223.507 230.208 224.046L230.19 223.835L230.094 222.49H227.817V232H230.261V226.287C230.372 226.018 230.513 225.783 230.683 225.584C230.853 225.385 231.058 225.221 231.298 225.092C231.497 224.98 231.723 224.898 231.975 224.846C232.232 224.787 232.52 224.758 232.836 224.758C233.141 224.758 233.46 224.778 233.794 224.819C234.134 224.854 234.465 224.91 234.787 224.986L235.147 222.552C234.954 222.493 234.699 222.44 234.383 222.394C234.072 222.341 233.732 222.314 233.363 222.314ZM241.959 232.176C242.879 232.176 243.676 231.997 244.35 231.64C245.023 231.282 245.516 230.884 245.826 230.444L244.604 229.126C244.323 229.489 243.957 229.762 243.506 229.943C243.055 230.125 242.589 230.216 242.108 230.216C241.769 230.216 241.455 230.163 241.168 230.058C240.881 229.952 240.626 229.803 240.403 229.609C240.187 229.422 240.014 229.214 239.885 228.985C239.756 228.751 239.65 228.443 239.568 228.062V228.036H246.02V226.999C246.02 226.302 245.923 225.666 245.729 225.092C245.536 224.512 245.255 224.017 244.886 223.606C244.511 223.196 244.054 222.88 243.515 222.657C242.981 222.429 242.372 222.314 241.687 222.314C241.024 222.314 240.412 222.435 239.85 222.675C239.287 222.915 238.801 223.252 238.391 223.686C237.98 224.119 237.661 224.638 237.433 225.241C237.204 225.839 237.09 226.501 237.09 227.228V227.579C237.09 228.218 237.204 228.818 237.433 229.381C237.667 229.938 237.998 230.421 238.426 230.831C238.854 231.247 239.366 231.575 239.964 231.815C240.562 232.056 241.227 232.176 241.959 232.176ZM241.669 224.292C241.979 224.292 242.252 224.342 242.486 224.441C242.727 224.535 242.929 224.664 243.093 224.828C243.257 224.998 243.386 225.197 243.479 225.426C243.573 225.654 243.62 225.897 243.62 226.155V226.349H239.612C239.671 226.038 239.759 225.757 239.876 225.505C239.993 225.253 240.14 225.036 240.315 224.854C240.485 224.673 240.685 224.535 240.913 224.441C241.142 224.342 241.394 224.292 241.669 224.292ZM260.469 235.841C260.961 235.841 261.386 235.759 261.743 235.595C262.106 235.431 262.414 235.229 262.666 234.988C262.918 234.748 263.126 234.487 263.29 234.206C263.46 233.925 263.598 233.664 263.703 233.424L268.528 222.49H265.83L263.659 228.08L263.299 229.029L263.035 228.062L260.855 222.49H258.184L262.209 231.596L261.646 232.642C261.576 232.771 261.515 232.87 261.462 232.94C261.415 233.011 261.339 233.116 261.233 233.257C261.128 233.397 260.999 233.526 260.847 233.644C260.7 233.767 260.53 233.828 260.337 233.828C260.243 233.828 260.117 233.822 259.959 233.811C259.807 233.805 259.681 233.802 259.581 233.802L259.282 235.665C259.493 235.724 259.684 235.768 259.854 235.797C260.029 235.826 260.234 235.841 260.469 235.841ZM269.442 227.157V227.342C269.442 228.039 269.542 228.684 269.741 229.275C269.94 229.861 270.233 230.371 270.62 230.805C271.001 231.238 271.47 231.578 272.026 231.824C272.589 232.064 273.228 232.185 273.942 232.185C274.651 232.185 275.284 232.064 275.841 231.824C276.397 231.578 276.866 231.238 277.247 230.805C277.628 230.371 277.918 229.861 278.117 229.275C278.316 228.684 278.416 228.039 278.416 227.342V227.157C278.416 226.466 278.316 225.827 278.117 225.241C277.918 224.649 277.628 224.137 277.247 223.703C276.86 223.27 276.389 222.93 275.832 222.684C275.275 222.438 274.64 222.314 273.925 222.314C273.21 222.314 272.574 222.438 272.018 222.684C271.467 222.93 271.001 223.27 270.62 223.703C270.233 224.137 269.94 224.649 269.741 225.241C269.542 225.827 269.442 226.466 269.442 227.157ZM271.886 227.342V227.157C271.886 226.771 271.924 226.404 272 226.059C272.076 225.713 272.196 225.408 272.36 225.145C272.524 224.881 272.735 224.673 272.993 224.521C273.251 224.368 273.562 224.292 273.925 224.292C274.294 224.292 274.607 224.368 274.865 224.521C275.123 224.673 275.334 224.881 275.498 225.145C275.656 225.408 275.773 225.713 275.85 226.059C275.926 226.404 275.964 226.771 275.964 227.157V227.342C275.964 227.74 275.926 228.115 275.85 228.467C275.773 228.812 275.656 229.114 275.498 229.372C275.334 229.636 275.123 229.844 274.865 229.996C274.607 230.148 274.3 230.225 273.942 230.225C273.573 230.225 273.257 230.148 272.993 229.996C272.735 229.844 272.524 229.636 272.36 229.372C272.196 229.114 272.076 228.812 272 228.467C271.924 228.115 271.886 227.74 271.886 227.342ZM286.792 232H289.007V222.49H286.555V229.161C286.479 229.313 286.388 229.451 286.282 229.574C286.177 229.697 286.057 229.803 285.922 229.891C285.764 229.99 285.579 230.066 285.368 230.119C285.163 230.172 284.932 230.198 284.674 230.198C284.387 230.198 284.144 230.163 283.944 230.093C283.745 230.022 283.584 229.905 283.461 229.741C283.338 229.583 283.247 229.372 283.188 229.108C283.136 228.845 283.109 228.52 283.109 228.133V222.49H280.666V228.115C280.666 228.836 280.745 229.454 280.903 229.97C281.067 230.479 281.296 230.898 281.589 231.227C281.882 231.561 282.233 231.804 282.644 231.956C283.054 232.108 283.505 232.185 283.997 232.185C284.536 232.185 285.031 232.05 285.482 231.78C285.939 231.511 286.329 231.139 286.651 230.664L286.792 232ZM306.69 220.161H304.247V222.49H302.076V224.292H304.247V228.616C304.247 229.243 304.329 229.782 304.493 230.233C304.657 230.679 304.892 231.045 305.196 231.332C305.495 231.625 305.855 231.842 306.277 231.982C306.705 232.117 307.18 232.185 307.701 232.185C307.971 232.185 308.243 232.17 308.519 232.141C308.8 232.117 309.069 232.082 309.327 232.035C309.585 231.988 309.828 231.93 310.057 231.859C310.285 231.783 310.484 231.695 310.654 231.596L310.417 229.917C310.306 229.946 310.171 229.976 310.013 230.005C309.86 230.034 309.696 230.061 309.521 230.084C309.339 230.113 309.148 230.137 308.949 230.154C308.756 230.172 308.565 230.181 308.378 230.181C308.12 230.181 307.886 230.151 307.675 230.093C307.47 230.034 307.294 229.935 307.147 229.794C307.001 229.659 306.887 229.478 306.805 229.249C306.729 229.015 306.69 228.725 306.69 228.379V224.292H310.241V222.49H306.69V220.161ZM312.685 227.157V227.342C312.685 228.039 312.784 228.684 312.983 229.275C313.183 229.861 313.476 230.371 313.862 230.805C314.243 231.238 314.712 231.578 315.269 231.824C315.831 232.064 316.47 232.185 317.185 232.185C317.894 232.185 318.526 232.064 319.083 231.824C319.64 231.578 320.108 231.238 320.489 230.805C320.87 230.371 321.16 229.861 321.359 229.275C321.559 228.684 321.658 228.039 321.658 227.342V227.157C321.658 226.466 321.559 225.827 321.359 225.241C321.16 224.649 320.87 224.137 320.489 223.703C320.103 223.27 319.631 222.93 319.074 222.684C318.518 222.438 317.882 222.314 317.167 222.314C316.452 222.314 315.816 222.438 315.26 222.684C314.709 222.93 314.243 223.27 313.862 223.703C313.476 224.137 313.183 224.649 312.983 225.241C312.784 225.827 312.685 226.466 312.685 227.157ZM315.128 227.342V227.157C315.128 226.771 315.166 226.404 315.242 226.059C315.318 225.713 315.438 225.408 315.603 225.145C315.767 224.881 315.978 224.673 316.235 224.521C316.493 224.368 316.804 224.292 317.167 224.292C317.536 224.292 317.85 224.368 318.107 224.521C318.365 224.673 318.576 224.881 318.74 225.145C318.898 225.408 319.016 225.713 319.092 226.059C319.168 226.404 319.206 226.771 319.206 227.157V227.342C319.206 227.74 319.168 228.115 319.092 228.467C319.016 228.812 318.898 229.114 318.74 229.372C318.576 229.636 318.365 229.844 318.107 229.996C317.85 230.148 317.542 230.225 317.185 230.225C316.815 230.225 316.499 230.148 316.235 229.996C315.978 229.844 315.767 229.636 315.603 229.372C315.438 229.114 315.318 228.812 315.242 228.467C315.166 228.115 315.128 227.74 315.128 227.342ZM334.675 235.656H337.118V231.174C337.229 231.297 337.347 231.408 337.47 231.508C337.593 231.607 337.722 231.698 337.856 231.78C338.085 231.909 338.331 232.006 338.595 232.07C338.864 232.141 339.157 232.176 339.474 232.176C340.071 232.176 340.602 232.053 341.064 231.807C341.527 231.561 341.917 231.221 342.233 230.787C342.544 230.359 342.778 229.85 342.937 229.258C343.101 228.666 343.183 228.024 343.183 227.333V227.148C343.183 226.428 343.101 225.771 342.937 225.18C342.778 224.582 342.541 224.069 342.225 223.642C341.908 223.22 341.519 222.895 341.056 222.666C340.593 222.432 340.06 222.314 339.456 222.314C339.163 222.314 338.888 222.347 338.63 222.411C338.378 222.47 338.146 222.555 337.936 222.666C337.76 222.76 337.596 222.871 337.443 223C337.291 223.123 337.15 223.264 337.021 223.422L336.934 222.49H334.675V235.656ZM340.739 227.148V227.333C340.739 227.726 340.704 228.098 340.634 228.449C340.563 228.795 340.452 229.1 340.3 229.363C340.147 229.627 339.948 229.835 339.702 229.987C339.462 230.14 339.169 230.216 338.823 230.216C338.606 230.216 338.41 230.195 338.234 230.154C338.059 230.107 337.903 230.043 337.769 229.961C337.628 229.873 337.502 229.768 337.391 229.645C337.285 229.521 337.194 229.384 337.118 229.231V225.259C337.2 225.095 337.297 224.951 337.408 224.828C337.525 224.705 337.66 224.603 337.812 224.521C337.947 224.45 338.097 224.397 338.261 224.362C338.425 224.321 338.606 224.301 338.806 224.301C339.151 224.301 339.444 224.374 339.685 224.521C339.931 224.667 340.133 224.866 340.291 225.118C340.443 225.376 340.555 225.681 340.625 226.032C340.701 226.378 340.739 226.75 340.739 227.148ZM352.279 222.314C351.641 222.314 351.052 222.47 350.513 222.78C349.974 223.085 349.511 223.507 349.124 224.046L349.106 223.835L349.01 222.49H346.733V232H349.177V226.287C349.288 226.018 349.429 225.783 349.599 225.584C349.769 225.385 349.974 225.221 350.214 225.092C350.413 224.98 350.639 224.898 350.891 224.846C351.148 224.787 351.436 224.758 351.752 224.758C352.057 224.758 352.376 224.778 352.71 224.819C353.05 224.854 353.381 224.91 353.703 224.986L354.063 222.552C353.87 222.493 353.615 222.44 353.299 222.394C352.988 222.341 352.648 222.314 352.279 222.314ZM355.927 227.157V227.342C355.927 228.039 356.026 228.684 356.226 229.275C356.425 229.861 356.718 230.371 357.104 230.805C357.485 231.238 357.954 231.578 358.511 231.824C359.073 232.064 359.712 232.185 360.427 232.185C361.136 232.185 361.769 232.064 362.325 231.824C362.882 231.578 363.351 231.238 363.731 230.805C364.112 230.371 364.402 229.861 364.602 229.275C364.801 228.684 364.9 228.039 364.9 227.342V227.157C364.9 226.466 364.801 225.827 364.602 225.241C364.402 224.649 364.112 224.137 363.731 223.703C363.345 223.27 362.873 222.93 362.316 222.684C361.76 222.438 361.124 222.314 360.409 222.314C359.694 222.314 359.059 222.438 358.502 222.684C357.951 222.93 357.485 223.27 357.104 223.703C356.718 224.137 356.425 224.649 356.226 225.241C356.026 225.827 355.927 226.466 355.927 227.157ZM358.37 227.342V227.157C358.37 226.771 358.408 226.404 358.484 226.059C358.561 225.713 358.681 225.408 358.845 225.145C359.009 224.881 359.22 224.673 359.478 224.521C359.735 224.368 360.046 224.292 360.409 224.292C360.778 224.292 361.092 224.368 361.35 224.521C361.607 224.673 361.818 224.881 361.982 225.145C362.141 225.408 362.258 225.713 362.334 226.059C362.41 226.404 362.448 226.771 362.448 227.157V227.342C362.448 227.74 362.41 228.115 362.334 228.467C362.258 228.812 362.141 229.114 361.982 229.372C361.818 229.636 361.607 229.844 361.35 229.996C361.092 230.148 360.784 230.225 360.427 230.225C360.058 230.225 359.741 230.148 359.478 229.996C359.22 229.844 359.009 229.636 358.845 229.372C358.681 229.114 358.561 228.812 358.484 228.467C358.408 228.115 358.37 227.74 358.37 227.342ZM371.554 220.161H369.11V222.49H366.939V224.292H369.11V228.616C369.11 229.243 369.192 229.782 369.356 230.233C369.521 230.679 369.755 231.045 370.06 231.332C370.358 231.625 370.719 231.842 371.141 231.982C371.568 232.117 372.043 232.185 372.564 232.185C372.834 232.185 373.106 232.17 373.382 232.141C373.663 232.117 373.933 232.082 374.19 232.035C374.448 231.988 374.691 231.93 374.92 231.859C375.148 231.783 375.348 231.695 375.518 231.596L375.28 229.917C375.169 229.946 375.034 229.976 374.876 230.005C374.724 230.034 374.56 230.061 374.384 230.084C374.202 230.113 374.012 230.137 373.812 230.154C373.619 230.172 373.429 230.181 373.241 230.181C372.983 230.181 372.749 230.151 372.538 230.093C372.333 230.034 372.157 229.935 372.011 229.794C371.864 229.659 371.75 229.478 371.668 229.249C371.592 229.015 371.554 228.725 371.554 228.379V224.292H375.104V222.49H371.554V220.161ZM382.496 232.176C383.416 232.176 384.213 231.997 384.887 231.64C385.561 231.282 386.053 230.884 386.363 230.444L385.142 229.126C384.86 229.489 384.494 229.762 384.043 229.943C383.592 230.125 383.126 230.216 382.646 230.216C382.306 230.216 381.992 230.163 381.705 230.058C381.418 229.952 381.163 229.803 380.94 229.609C380.724 229.422 380.551 229.214 380.422 228.985C380.293 228.751 380.188 228.443 380.105 228.062V228.036H386.557V226.999C386.557 226.302 386.46 225.666 386.267 225.092C386.073 224.512 385.792 224.017 385.423 223.606C385.048 223.196 384.591 222.88 384.052 222.657C383.519 222.429 382.909 222.314 382.224 222.314C381.562 222.314 380.949 222.435 380.387 222.675C379.824 222.915 379.338 223.252 378.928 223.686C378.518 224.119 378.198 224.638 377.97 225.241C377.741 225.839 377.627 226.501 377.627 227.228V227.579C377.627 228.218 377.741 228.818 377.97 229.381C378.204 229.938 378.535 230.421 378.963 230.831C379.391 231.247 379.903 231.575 380.501 231.815C381.099 232.056 381.764 232.176 382.496 232.176ZM382.206 224.292C382.517 224.292 382.789 224.342 383.023 224.441C383.264 224.535 383.466 224.664 383.63 224.828C383.794 224.998 383.923 225.197 384.017 225.426C384.11 225.654 384.157 225.897 384.157 226.155V226.349H380.149C380.208 226.038 380.296 225.757 380.413 225.505C380.53 225.253 380.677 225.036 380.853 224.854C381.022 224.673 381.222 224.535 381.45 224.441C381.679 224.342 381.931 224.292 382.206 224.292ZM392.902 230.225C392.51 230.225 392.185 230.146 391.927 229.987C391.675 229.829 391.476 229.618 391.329 229.354C391.177 229.097 391.071 228.798 391.013 228.458C390.954 228.112 390.925 227.755 390.925 227.386V227.122C390.925 226.759 390.954 226.407 391.013 226.067C391.077 225.728 391.186 225.426 391.338 225.162C391.484 224.898 391.684 224.688 391.936 224.529C392.188 224.371 392.507 224.292 392.894 224.292C393.157 224.292 393.4 224.339 393.623 224.433C393.846 224.521 394.036 224.641 394.194 224.793C394.353 224.945 394.473 225.127 394.555 225.338C394.637 225.549 394.672 225.771 394.66 226.006H396.963C396.975 225.443 396.881 224.937 396.682 224.485C396.482 224.028 396.204 223.639 395.847 223.316C395.483 223 395.053 222.754 394.555 222.578C394.057 222.402 393.515 222.314 392.929 222.314C392.196 222.314 391.552 222.44 390.995 222.692C390.444 222.944 389.981 223.287 389.606 223.721C389.231 224.154 388.95 224.664 388.763 225.25C388.575 225.83 388.481 226.454 388.481 227.122V227.386C388.481 228.054 388.575 228.681 388.763 229.267C388.956 229.847 389.24 230.354 389.615 230.787C389.984 231.221 390.447 231.563 391.004 231.815C391.561 232.062 392.208 232.185 392.946 232.185C393.491 232.185 394.007 232.1 394.493 231.93C394.985 231.754 395.416 231.514 395.785 231.209C396.154 230.904 396.444 230.541 396.655 230.119C396.872 229.697 396.975 229.24 396.963 228.748H394.66C394.672 228.971 394.631 229.173 394.537 229.354C394.449 229.536 394.323 229.691 394.159 229.82C393.995 229.949 393.805 230.049 393.588 230.119C393.371 230.189 393.143 230.225 392.902 230.225ZM403.985 220.161H401.542V222.49H399.371V224.292H401.542V228.616C401.542 229.243 401.624 229.782 401.788 230.233C401.952 230.679 402.187 231.045 402.491 231.332C402.79 231.625 403.15 231.842 403.572 231.982C404 232.117 404.475 232.185 404.996 232.185C405.266 232.185 405.538 232.17 405.813 232.141C406.095 232.117 406.364 232.082 406.622 232.035C406.88 231.988 407.123 231.93 407.352 231.859C407.58 231.783 407.779 231.695 407.949 231.596L407.712 229.917C407.601 229.946 407.466 229.976 407.308 230.005C407.155 230.034 406.991 230.061 406.815 230.084C406.634 230.113 406.443 230.137 406.244 230.154C406.051 230.172 405.86 230.181 405.673 230.181C405.415 230.181 405.181 230.151 404.97 230.093C404.765 230.034 404.589 229.935 404.442 229.794C404.296 229.659 404.182 229.478 404.1 229.249C404.023 229.015 403.985 228.725 403.985 228.379V224.292H407.536V222.49H403.985V220.161ZM128.905 251.157V251.342C128.905 252.039 129.005 252.684 129.204 253.275C129.403 253.861 129.696 254.371 130.083 254.805C130.464 255.238 130.933 255.578 131.489 255.824C132.052 256.064 132.69 256.185 133.405 256.185C134.114 256.185 134.747 256.064 135.304 255.824C135.86 255.578 136.329 255.238 136.71 254.805C137.091 254.371 137.381 253.861 137.58 253.275C137.779 252.684 137.879 252.039 137.879 251.342V251.157C137.879 250.466 137.779 249.827 137.58 249.241C137.381 248.649 137.091 248.137 136.71 247.703C136.323 247.27 135.852 246.93 135.295 246.684C134.738 246.438 134.103 246.314 133.388 246.314C132.673 246.314 132.037 246.438 131.48 246.684C130.93 246.93 130.464 247.27 130.083 247.703C129.696 248.137 129.403 248.649 129.204 249.241C129.005 249.827 128.905 250.466 128.905 251.157ZM131.349 251.342V251.157C131.349 250.771 131.387 250.404 131.463 250.059C131.539 249.713 131.659 249.408 131.823 249.145C131.987 248.881 132.198 248.673 132.456 248.521C132.714 248.368 133.024 248.292 133.388 248.292C133.757 248.292 134.07 248.368 134.328 248.521C134.586 248.673 134.797 248.881 134.961 249.145C135.119 249.408 135.236 249.713 135.312 250.059C135.389 250.404 135.427 250.771 135.427 251.157V251.342C135.427 251.74 135.389 252.115 135.312 252.467C135.236 252.812 135.119 253.114 134.961 253.372C134.797 253.636 134.586 253.844 134.328 253.996C134.07 254.148 133.763 254.225 133.405 254.225C133.036 254.225 132.72 254.148 132.456 253.996C132.198 253.844 131.987 253.636 131.823 253.372C131.659 253.114 131.539 252.812 131.463 252.467C131.387 252.115 131.349 251.74 131.349 251.342ZM146.255 256H148.47V246.49H146.018V253.161C145.941 253.313 145.851 253.451 145.745 253.574C145.64 253.697 145.52 253.803 145.385 253.891C145.227 253.99 145.042 254.066 144.831 254.119C144.626 254.172 144.395 254.198 144.137 254.198C143.85 254.198 143.606 254.163 143.407 254.093C143.208 254.022 143.047 253.905 142.924 253.741C142.801 253.583 142.71 253.372 142.651 253.108C142.599 252.845 142.572 252.52 142.572 252.133V246.49H140.129V252.115C140.129 252.836 140.208 253.454 140.366 253.97C140.53 254.479 140.759 254.898 141.052 255.227C141.345 255.561 141.696 255.804 142.106 255.956C142.517 256.108 142.968 256.185 143.46 256.185C143.999 256.185 144.494 256.05 144.945 255.78C145.402 255.511 145.792 255.139 146.114 254.664L146.255 256ZM157.689 246.314C157.051 246.314 156.462 246.47 155.923 246.78C155.384 247.085 154.921 247.507 154.534 248.046L154.517 247.835L154.42 246.49H152.144V256H154.587V250.287C154.698 250.018 154.839 249.783 155.009 249.584C155.179 249.385 155.384 249.221 155.624 249.092C155.823 248.98 156.049 248.898 156.301 248.846C156.559 248.787 156.846 248.758 157.162 248.758C157.467 248.758 157.786 248.778 158.12 248.819C158.46 248.854 158.791 248.91 159.113 248.986L159.474 246.552C159.28 246.493 159.025 246.44 158.709 246.394C158.398 246.341 158.059 246.314 157.689 246.314ZM180.269 250.393V248.441H175.013V245.216H181.13V243.203H172.534V256H181.156V254.005H175.013V250.393H180.269ZM189.233 256H191.712V255.851C191.589 255.61 191.495 255.323 191.431 254.989C191.366 254.655 191.334 254.233 191.334 253.724V249.646C191.334 249.095 191.231 248.611 191.026 248.195C190.821 247.773 190.537 247.425 190.174 247.149C189.811 246.874 189.38 246.666 188.882 246.525C188.39 246.385 187.856 246.314 187.282 246.314C186.644 246.314 186.075 246.396 185.577 246.561C185.085 246.719 184.669 246.936 184.329 247.211C183.983 247.486 183.72 247.806 183.538 248.169C183.362 248.532 183.274 248.916 183.274 249.32H185.718C185.718 249.15 185.741 248.995 185.788 248.854C185.841 248.714 185.92 248.594 186.025 248.494C186.143 248.383 186.295 248.298 186.482 248.239C186.67 248.175 186.893 248.143 187.15 248.143C187.443 248.143 187.698 248.181 187.915 248.257C188.138 248.327 188.322 248.43 188.469 248.564C188.609 248.693 188.715 248.849 188.785 249.03C188.855 249.206 188.891 249.405 188.891 249.628V250.19H187.528C186.825 250.19 186.201 250.255 185.656 250.384C185.117 250.507 184.663 250.688 184.294 250.929C183.884 251.192 183.576 251.529 183.371 251.939C183.166 252.344 183.063 252.81 183.063 253.337C183.063 253.747 183.146 254.128 183.31 254.479C183.474 254.825 183.702 255.124 183.995 255.376C184.288 255.628 184.637 255.824 185.041 255.965C185.451 256.105 185.899 256.176 186.386 256.176C186.685 256.176 186.963 256.146 187.221 256.088C187.479 256.035 187.716 255.959 187.933 255.859C188.144 255.766 188.337 255.654 188.513 255.525C188.688 255.396 188.844 255.259 188.979 255.112C189.008 255.282 189.043 255.443 189.084 255.596C189.125 255.748 189.175 255.883 189.233 256ZM186.904 254.286C186.676 254.286 186.474 254.26 186.298 254.207C186.128 254.148 185.984 254.072 185.867 253.979C185.75 253.879 185.659 253.759 185.595 253.618C185.536 253.472 185.507 253.313 185.507 253.144C185.507 252.927 185.548 252.728 185.63 252.546C185.712 252.358 185.838 252.197 186.008 252.062C186.178 251.934 186.397 251.834 186.667 251.764C186.937 251.688 187.262 251.649 187.643 251.649H188.891V253.284C188.82 253.407 188.724 253.53 188.601 253.653C188.478 253.771 188.331 253.876 188.161 253.97C187.991 254.063 187.801 254.14 187.59 254.198C187.379 254.257 187.15 254.286 186.904 254.286ZM200.932 246.314C200.293 246.314 199.704 246.47 199.165 246.78C198.626 247.085 198.163 247.507 197.776 248.046L197.759 247.835L197.662 246.49H195.386V256H197.829V250.287C197.94 250.018 198.081 249.783 198.251 249.584C198.421 249.385 198.626 249.221 198.866 249.092C199.065 248.98 199.291 248.898 199.543 248.846C199.801 248.787 200.088 248.758 200.404 248.758C200.709 248.758 201.028 248.778 201.362 248.819C201.702 248.854 202.033 248.91 202.355 248.986L202.716 246.552C202.522 246.493 202.268 246.44 201.951 246.394C201.641 246.341 201.301 246.314 200.932 246.314ZM209.396 244.161H206.952V246.49H204.781V248.292H206.952V252.616C206.952 253.243 207.034 253.782 207.198 254.233C207.362 254.679 207.597 255.045 207.901 255.332C208.2 255.625 208.561 255.842 208.982 255.982C209.41 256.117 209.885 256.185 210.406 256.185C210.676 256.185 210.948 256.17 211.224 256.141C211.505 256.117 211.774 256.082 212.032 256.035C212.29 255.988 212.533 255.93 212.762 255.859C212.99 255.783 213.189 255.695 213.359 255.596L213.122 253.917C213.011 253.946 212.876 253.976 212.718 254.005C212.565 254.034 212.401 254.061 212.226 254.084C212.044 254.113 211.854 254.137 211.654 254.154C211.461 254.172 211.271 254.181 211.083 254.181C210.825 254.181 210.591 254.151 210.38 254.093C210.175 254.034 209.999 253.935 209.853 253.794C209.706 253.659 209.592 253.478 209.51 253.249C209.434 253.015 209.396 252.725 209.396 252.379V248.292H212.946V246.49H209.396V244.161ZM218.167 247.8V242.5H215.724V256H218.167V249.136C218.261 249.013 218.363 248.901 218.475 248.802C218.592 248.702 218.721 248.617 218.861 248.547C219.014 248.465 219.184 248.403 219.371 248.362C219.559 248.321 219.761 248.301 219.978 248.301C220.259 248.301 220.511 248.339 220.733 248.415C220.956 248.485 221.146 248.597 221.305 248.749C221.463 248.901 221.583 249.101 221.665 249.347C221.753 249.593 221.797 249.886 221.797 250.226V256H224.24V250.243C224.24 249.546 224.155 248.951 223.985 248.459C223.821 247.961 223.59 247.554 223.291 247.237C222.992 246.921 222.635 246.689 222.219 246.543C221.803 246.391 221.346 246.314 220.848 246.314C220.508 246.314 220.186 246.364 219.881 246.464C219.576 246.563 219.298 246.704 219.046 246.886C218.882 247.003 218.724 247.141 218.571 247.299C218.425 247.451 218.29 247.618 218.167 247.8ZM229.004 254.585C229.004 255.036 229.156 255.414 229.461 255.719C229.766 256.023 230.179 256.176 230.7 256.176C231.216 256.176 231.626 256.026 231.931 255.728C232.241 255.423 232.396 255.042 232.396 254.585C232.396 254.128 232.244 253.744 231.939 253.434C231.641 253.123 231.228 252.968 230.7 252.968C230.167 252.968 229.751 253.126 229.452 253.442C229.153 253.753 229.004 254.134 229.004 254.585ZM135.444 277.328L136.191 280H138.793L134.68 267.203H132.438L128.246 280H130.848L131.604 277.328H135.444ZM132.21 275.228L133.555 270.517L134.864 275.228H132.21ZM146.879 270.314C146.24 270.314 145.651 270.47 145.112 270.78C144.573 271.085 144.11 271.507 143.724 272.046L143.706 271.835L143.609 270.49H141.333V280H143.776V274.287C143.888 274.018 144.028 273.783 144.198 273.584C144.368 273.385 144.573 273.221 144.813 273.092C145.013 272.98 145.238 272.898 145.49 272.846C145.748 272.787 146.035 272.758 146.352 272.758C146.656 272.758 146.976 272.778 147.31 272.819C147.649 272.854 147.98 272.91 148.303 272.986L148.663 270.552C148.47 270.493 148.215 270.44 147.898 270.394C147.588 270.341 147.248 270.314 146.879 270.314ZM155.475 280.176C156.395 280.176 157.191 279.997 157.865 279.64C158.539 279.282 159.031 278.884 159.342 278.444L158.12 277.126C157.839 277.489 157.473 277.762 157.021 277.943C156.57 278.125 156.104 278.216 155.624 278.216C155.284 278.216 154.971 278.163 154.684 278.058C154.396 277.952 154.142 277.803 153.919 277.609C153.702 277.422 153.529 277.214 153.4 276.985C153.271 276.751 153.166 276.443 153.084 276.062V276.036H159.535V274.999C159.535 274.302 159.438 273.666 159.245 273.092C159.052 272.512 158.771 272.017 158.401 271.606C158.026 271.196 157.569 270.88 157.03 270.657C156.497 270.429 155.888 270.314 155.202 270.314C154.54 270.314 153.928 270.435 153.365 270.675C152.803 270.915 152.316 271.252 151.906 271.686C151.496 272.119 151.177 272.638 150.948 273.241C150.72 273.839 150.605 274.501 150.605 275.228V275.579C150.605 276.218 150.72 276.818 150.948 277.381C151.183 277.938 151.514 278.421 151.941 278.831C152.369 279.247 152.882 279.575 153.479 279.815C154.077 280.056 154.742 280.176 155.475 280.176ZM155.185 272.292C155.495 272.292 155.768 272.342 156.002 272.441C156.242 272.535 156.444 272.664 156.608 272.828C156.772 272.998 156.901 273.197 156.995 273.426C157.089 273.654 157.136 273.897 157.136 274.155V274.349H153.128C153.187 274.038 153.274 273.757 153.392 273.505C153.509 273.253 153.655 273.036 153.831 272.854C154.001 272.673 154.2 272.535 154.429 272.441C154.657 272.342 154.909 272.292 155.185 272.292ZM173.984 283.841C174.477 283.841 174.901 283.759 175.259 283.595C175.622 283.431 175.93 283.229 176.182 282.988C176.434 282.748 176.642 282.487 176.806 282.206C176.976 281.925 177.113 281.664 177.219 281.424L182.044 270.49H179.346L177.175 276.08L176.814 277.029L176.551 276.062L174.371 270.49H171.699L175.725 279.596L175.162 280.642C175.092 280.771 175.03 280.87 174.978 280.94C174.931 281.011 174.854 281.116 174.749 281.257C174.644 281.397 174.515 281.526 174.362 281.644C174.216 281.767 174.046 281.828 173.853 281.828C173.759 281.828 173.633 281.822 173.475 281.811C173.322 281.805 173.196 281.802 173.097 281.802L172.798 283.665C173.009 283.724 173.199 283.768 173.369 283.797C173.545 283.826 173.75 283.841 173.984 283.841ZM182.958 275.157V275.342C182.958 276.039 183.058 276.684 183.257 277.275C183.456 277.861 183.749 278.371 184.136 278.805C184.517 279.238 184.985 279.578 185.542 279.824C186.104 280.064 186.743 280.185 187.458 280.185C188.167 280.185 188.8 280.064 189.356 279.824C189.913 279.578 190.382 279.238 190.763 278.805C191.144 278.371 191.434 277.861 191.633 277.275C191.832 276.684 191.932 276.039 191.932 275.342V275.157C191.932 274.466 191.832 273.827 191.633 273.241C191.434 272.649 191.144 272.137 190.763 271.703C190.376 271.27 189.904 270.93 189.348 270.684C188.791 270.438 188.155 270.314 187.44 270.314C186.726 270.314 186.09 270.438 185.533 270.684C184.982 270.93 184.517 271.27 184.136 271.703C183.749 272.137 183.456 272.649 183.257 273.241C183.058 273.827 182.958 274.466 182.958 275.157ZM185.401 275.342V275.157C185.401 274.771 185.439 274.404 185.516 274.059C185.592 273.713 185.712 273.408 185.876 273.145C186.04 272.881 186.251 272.673 186.509 272.521C186.767 272.368 187.077 272.292 187.44 272.292C187.81 272.292 188.123 272.368 188.381 272.521C188.639 272.673 188.85 272.881 189.014 273.145C189.172 273.408 189.289 273.713 189.365 274.059C189.441 274.404 189.479 274.771 189.479 275.157V275.342C189.479 275.74 189.441 276.115 189.365 276.467C189.289 276.812 189.172 277.114 189.014 277.372C188.85 277.636 188.639 277.844 188.381 277.996C188.123 278.148 187.815 278.225 187.458 278.225C187.089 278.225 186.772 278.148 186.509 277.996C186.251 277.844 186.04 277.636 185.876 277.372C185.712 277.114 185.592 276.812 185.516 276.467C185.439 276.115 185.401 275.74 185.401 275.342ZM200.308 280H202.522V270.49H200.07V277.161C199.994 277.313 199.903 277.451 199.798 277.574C199.692 277.697 199.572 277.803 199.438 277.891C199.279 277.99 199.095 278.066 198.884 278.119C198.679 278.172 198.447 278.198 198.189 278.198C197.902 278.198 197.659 278.163 197.46 278.093C197.261 278.022 197.1 277.905 196.977 277.741C196.854 277.583 196.763 277.372 196.704 277.108C196.651 276.845 196.625 276.52 196.625 276.133V270.49H194.182V276.115C194.182 276.836 194.261 277.454 194.419 277.97C194.583 278.479 194.812 278.898 195.104 279.227C195.397 279.561 195.749 279.804 196.159 279.956C196.569 280.108 197.021 280.185 197.513 280.185C198.052 280.185 198.547 280.05 198.998 279.78C199.455 279.511 199.845 279.139 200.167 278.664L200.308 280ZM222.553 270.314C221.914 270.314 221.325 270.47 220.786 270.78C220.247 271.085 219.784 271.507 219.397 272.046L219.38 271.835L219.283 270.49H217.007V280H219.45V274.287C219.562 274.018 219.702 273.783 219.872 273.584C220.042 273.385 220.247 273.221 220.487 273.092C220.687 272.98 220.912 272.898 221.164 272.846C221.422 272.787 221.709 272.758 222.025 272.758C222.33 272.758 222.649 272.778 222.983 272.819C223.323 272.854 223.654 272.91 223.977 272.986L224.337 270.552C224.144 270.493 223.889 270.44 223.572 270.394C223.262 270.341 222.922 270.314 222.553 270.314ZM231.148 280.176C232.068 280.176 232.865 279.997 233.539 279.64C234.213 279.282 234.705 278.884 235.016 278.444L233.794 277.126C233.513 277.489 233.146 277.762 232.695 277.943C232.244 278.125 231.778 278.216 231.298 278.216C230.958 278.216 230.645 278.163 230.357 278.058C230.07 277.952 229.815 277.803 229.593 277.609C229.376 277.422 229.203 277.214 229.074 276.985C228.945 276.751 228.84 276.443 228.758 276.062V276.036H235.209V274.999C235.209 274.302 235.112 273.666 234.919 273.092C234.726 272.512 234.444 272.017 234.075 271.606C233.7 271.196 233.243 270.88 232.704 270.657C232.171 270.429 231.562 270.314 230.876 270.314C230.214 270.314 229.602 270.435 229.039 270.675C228.477 270.915 227.99 271.252 227.58 271.686C227.17 272.119 226.851 272.638 226.622 273.241C226.394 273.839 226.279 274.501 226.279 275.228V275.579C226.279 276.218 226.394 276.818 226.622 277.381C226.856 277.938 227.188 278.421 227.615 278.831C228.043 279.247 228.556 279.575 229.153 279.815C229.751 280.056 230.416 280.176 231.148 280.176ZM230.858 272.292C231.169 272.292 231.441 272.342 231.676 272.441C231.916 272.535 232.118 272.664 232.282 272.828C232.446 272.998 232.575 273.197 232.669 273.426C232.763 273.654 232.81 273.897 232.81 274.155V274.349H228.802C228.86 274.038 228.948 273.757 229.065 273.505C229.183 273.253 229.329 273.036 229.505 272.854C229.675 272.673 229.874 272.535 230.103 272.441C230.331 272.342 230.583 272.292 230.858 272.292ZM243.286 280H245.765V279.851C245.642 279.61 245.548 279.323 245.483 278.989C245.419 278.655 245.387 278.233 245.387 277.724V273.646C245.387 273.095 245.284 272.611 245.079 272.195C244.874 271.773 244.59 271.425 244.227 271.149C243.863 270.874 243.433 270.666 242.935 270.525C242.442 270.385 241.909 270.314 241.335 270.314C240.696 270.314 240.128 270.396 239.63 270.561C239.138 270.719 238.722 270.936 238.382 271.211C238.036 271.486 237.772 271.806 237.591 272.169C237.415 272.532 237.327 272.916 237.327 273.32H239.771C239.771 273.15 239.794 272.995 239.841 272.854C239.894 272.714 239.973 272.594 240.078 272.494C240.195 272.383 240.348 272.298 240.535 272.239C240.723 272.175 240.945 272.143 241.203 272.143C241.496 272.143 241.751 272.181 241.968 272.257C242.19 272.327 242.375 272.43 242.521 272.564C242.662 272.693 242.768 272.849 242.838 273.03C242.908 273.206 242.943 273.405 242.943 273.628V274.19H241.581C240.878 274.19 240.254 274.255 239.709 274.384C239.17 274.507 238.716 274.688 238.347 274.929C237.937 275.192 237.629 275.529 237.424 275.939C237.219 276.344 237.116 276.81 237.116 277.337C237.116 277.747 237.198 278.128 237.362 278.479C237.526 278.825 237.755 279.124 238.048 279.376C238.341 279.628 238.689 279.824 239.094 279.965C239.504 280.105 239.952 280.176 240.438 280.176C240.737 280.176 241.016 280.146 241.273 280.088C241.531 280.035 241.769 279.959 241.985 279.859C242.196 279.766 242.39 279.654 242.565 279.525C242.741 279.396 242.896 279.259 243.031 279.112C243.061 279.282 243.096 279.443 243.137 279.596C243.178 279.748 243.228 279.883 243.286 280ZM240.957 278.286C240.729 278.286 240.526 278.26 240.351 278.207C240.181 278.148 240.037 278.072 239.92 277.979C239.803 277.879 239.712 277.759 239.647 277.618C239.589 277.472 239.56 277.313 239.56 277.144C239.56 276.927 239.601 276.728 239.683 276.546C239.765 276.358 239.891 276.197 240.061 276.062C240.23 275.934 240.45 275.834 240.72 275.764C240.989 275.688 241.314 275.649 241.695 275.649H242.943V277.284C242.873 277.407 242.776 277.53 242.653 277.653C242.53 277.771 242.384 277.876 242.214 277.97C242.044 278.063 241.854 278.14 241.643 278.198C241.432 278.257 241.203 278.286 240.957 278.286ZM247.9 275.175V275.359C247.9 276.051 247.985 276.692 248.155 277.284C248.325 277.87 248.571 278.377 248.894 278.805C249.21 279.232 249.597 279.569 250.054 279.815C250.517 280.056 251.038 280.176 251.618 280.176C252.151 280.176 252.62 280.073 253.024 279.868C253.429 279.663 253.78 279.376 254.079 279.007L254.202 280H256.408V266.5H253.956V271.343C253.663 271.015 253.326 270.763 252.945 270.587C252.57 270.405 252.134 270.314 251.636 270.314C251.044 270.314 250.517 270.432 250.054 270.666C249.597 270.9 249.207 271.231 248.885 271.659C248.562 272.087 248.316 272.6 248.146 273.197C247.982 273.795 247.9 274.454 247.9 275.175ZM250.344 275.359V275.175C250.344 274.776 250.379 274.404 250.449 274.059C250.52 273.707 250.631 273.399 250.783 273.136C250.936 272.878 251.132 272.676 251.372 272.529C251.618 272.377 251.914 272.301 252.26 272.301C252.676 272.301 253.021 272.392 253.297 272.573C253.572 272.749 253.792 272.998 253.956 273.32V277.17C253.792 277.486 253.569 277.735 253.288 277.917C253.013 278.099 252.664 278.189 252.242 278.189C251.896 278.189 251.604 278.116 251.363 277.97C251.123 277.823 250.927 277.621 250.774 277.363C250.622 277.111 250.511 276.815 250.44 276.476C250.376 276.13 250.344 275.758 250.344 275.359ZM260.469 283.841C260.961 283.841 261.386 283.759 261.743 283.595C262.106 283.431 262.414 283.229 262.666 282.988C262.918 282.748 263.126 282.487 263.29 282.206C263.46 281.925 263.598 281.664 263.703 281.424L268.528 270.49H265.83L263.659 276.08L263.299 277.029L263.035 276.062L260.855 270.49H258.184L262.209 279.596L261.646 280.642C261.576 280.771 261.515 280.87 261.462 280.94C261.415 281.011 261.339 281.116 261.233 281.257C261.128 281.397 260.999 281.526 260.847 281.644C260.7 281.767 260.53 281.828 260.337 281.828C260.243 281.828 260.117 281.822 259.959 281.811C259.807 281.805 259.681 281.802 259.581 281.802L259.282 283.665C259.493 283.724 259.684 283.768 259.854 283.797C260.029 283.826 260.234 283.841 260.469 283.841ZM285.069 268.161H282.626V270.49H280.455V272.292H282.626V276.616C282.626 277.243 282.708 277.782 282.872 278.233C283.036 278.679 283.271 279.045 283.575 279.332C283.874 279.625 284.234 279.842 284.656 279.982C285.084 280.117 285.559 280.185 286.08 280.185C286.35 280.185 286.622 280.17 286.897 280.141C287.179 280.117 287.448 280.082 287.706 280.035C287.964 279.988 288.207 279.93 288.436 279.859C288.664 279.783 288.863 279.695 289.033 279.596L288.796 277.917C288.685 277.946 288.55 277.976 288.392 278.005C288.239 278.034 288.075 278.061 287.899 278.084C287.718 278.113 287.527 278.137 287.328 278.154C287.135 278.172 286.944 278.181 286.757 278.181C286.499 278.181 286.265 278.151 286.054 278.093C285.849 278.034 285.673 277.935 285.526 277.794C285.38 277.659 285.266 277.478 285.184 277.249C285.107 277.015 285.069 276.725 285.069 276.379V272.292H288.62V270.49H285.069V268.161ZM291.063 275.157V275.342C291.063 276.039 291.163 276.684 291.362 277.275C291.562 277.861 291.854 278.371 292.241 278.805C292.622 279.238 293.091 279.578 293.647 279.824C294.21 280.064 294.849 280.185 295.563 280.185C296.272 280.185 296.905 280.064 297.462 279.824C298.019 279.578 298.487 279.238 298.868 278.805C299.249 278.371 299.539 277.861 299.738 277.275C299.938 276.684 300.037 276.039 300.037 275.342V275.157C300.037 274.466 299.938 273.827 299.738 273.241C299.539 272.649 299.249 272.137 298.868 271.703C298.481 271.27 298.01 270.93 297.453 270.684C296.896 270.438 296.261 270.314 295.546 270.314C294.831 270.314 294.195 270.438 293.639 270.684C293.088 270.93 292.622 271.27 292.241 271.703C291.854 272.137 291.562 272.649 291.362 273.241C291.163 273.827 291.063 274.466 291.063 275.157ZM293.507 275.342V275.157C293.507 274.771 293.545 274.404 293.621 274.059C293.697 273.713 293.817 273.408 293.981 273.145C294.146 272.881 294.356 272.673 294.614 272.521C294.872 272.368 295.183 272.292 295.546 272.292C295.915 272.292 296.229 272.368 296.486 272.521C296.744 272.673 296.955 272.881 297.119 273.145C297.277 273.408 297.395 273.713 297.471 274.059C297.547 274.404 297.585 274.771 297.585 275.157V275.342C297.585 275.74 297.547 276.115 297.471 276.467C297.395 276.812 297.277 277.114 297.119 277.372C296.955 277.636 296.744 277.844 296.486 277.996C296.229 278.148 295.921 278.225 295.563 278.225C295.194 278.225 294.878 278.148 294.614 277.996C294.356 277.844 294.146 277.636 293.981 277.372C293.817 277.114 293.697 276.812 293.621 276.467C293.545 276.115 293.507 275.74 293.507 275.342ZM318.96 280H321.438V279.851C321.315 279.61 321.222 279.323 321.157 278.989C321.093 278.655 321.061 278.233 321.061 277.724V273.646C321.061 273.095 320.958 272.611 320.753 272.195C320.548 271.773 320.264 271.425 319.9 271.149C319.537 270.874 319.106 270.666 318.608 270.525C318.116 270.385 317.583 270.314 317.009 270.314C316.37 270.314 315.802 270.396 315.304 270.561C314.812 270.719 314.396 270.936 314.056 271.211C313.71 271.486 313.446 271.806 313.265 272.169C313.089 272.532 313.001 272.916 313.001 273.32H315.444C315.444 273.15 315.468 272.995 315.515 272.854C315.567 272.714 315.646 272.594 315.752 272.494C315.869 272.383 316.021 272.298 316.209 272.239C316.396 272.175 316.619 272.143 316.877 272.143C317.17 272.143 317.425 272.181 317.642 272.257C317.864 272.327 318.049 272.43 318.195 272.564C318.336 272.693 318.441 272.849 318.512 273.03C318.582 273.206 318.617 273.405 318.617 273.628V274.19H317.255C316.552 274.19 315.928 274.255 315.383 274.384C314.844 274.507 314.39 274.688 314.021 274.929C313.61 275.192 313.303 275.529 313.098 275.939C312.893 276.344 312.79 276.81 312.79 277.337C312.79 277.747 312.872 278.128 313.036 278.479C313.2 278.825 313.429 279.124 313.722 279.376C314.015 279.628 314.363 279.824 314.768 279.965C315.178 280.105 315.626 280.176 316.112 280.176C316.411 280.176 316.689 280.146 316.947 280.088C317.205 280.035 317.442 279.959 317.659 279.859C317.87 279.766 318.063 279.654 318.239 279.525C318.415 279.396 318.57 279.259 318.705 279.112C318.734 279.282 318.77 279.443 318.811 279.596C318.852 279.748 318.901 279.883 318.96 280ZM316.631 278.286C316.402 278.286 316.2 278.26 316.024 278.207C315.854 278.148 315.711 278.072 315.594 277.979C315.477 277.879 315.386 277.759 315.321 277.618C315.263 277.472 315.233 277.313 315.233 277.144C315.233 276.927 315.274 276.728 315.356 276.546C315.438 276.358 315.564 276.197 315.734 276.062C315.904 275.934 316.124 275.834 316.394 275.764C316.663 275.688 316.988 275.649 317.369 275.649H318.617V277.284C318.547 277.407 318.45 277.53 318.327 277.653C318.204 277.771 318.058 277.876 317.888 277.97C317.718 278.063 317.527 278.14 317.316 278.198C317.105 278.257 316.877 278.286 316.631 278.286ZM323.829 280H326.281V273.241C326.363 273.112 326.454 272.995 326.554 272.89C326.653 272.784 326.765 272.693 326.888 272.617C327.04 272.512 327.213 272.433 327.406 272.38C327.605 272.327 327.822 272.301 328.057 272.301C328.338 272.301 328.59 272.33 328.812 272.389C329.035 272.441 329.226 272.538 329.384 272.679C329.542 272.819 329.662 273.013 329.744 273.259C329.832 273.499 329.876 273.807 329.876 274.182V280H332.319V274.146C332.319 273.455 332.237 272.869 332.073 272.389C331.915 271.902 331.692 271.504 331.405 271.193C331.112 270.889 330.767 270.666 330.368 270.525C329.97 270.385 329.53 270.314 329.05 270.314C328.675 270.314 328.32 270.367 327.986 270.473C327.652 270.578 327.345 270.73 327.063 270.93C326.899 271.047 326.744 271.179 326.598 271.325C326.451 271.472 326.316 271.633 326.193 271.809L326.044 270.49H323.829V280ZM340.774 277.39C340.774 277.536 340.736 277.671 340.66 277.794C340.59 277.917 340.481 278.025 340.335 278.119C340.183 278.213 339.986 278.289 339.746 278.348C339.512 278.4 339.236 278.427 338.92 278.427C338.656 278.427 338.398 278.4 338.146 278.348C337.9 278.295 337.681 278.21 337.487 278.093C337.294 277.981 337.136 277.835 337.013 277.653C336.89 277.466 336.819 277.243 336.802 276.985H334.473C334.473 277.372 334.566 277.759 334.754 278.146C334.947 278.526 335.229 278.866 335.598 279.165C335.967 279.47 336.424 279.716 336.969 279.903C337.52 280.091 338.152 280.185 338.867 280.185C339.518 280.185 340.106 280.114 340.634 279.974C341.161 279.827 341.612 279.625 341.987 279.367C342.356 279.109 342.641 278.805 342.84 278.453C343.045 278.096 343.147 277.706 343.147 277.284C343.147 276.827 343.045 276.435 342.84 276.106C342.641 275.772 342.362 275.488 342.005 275.254C341.647 275.025 341.223 274.838 340.73 274.691C340.238 274.545 339.705 274.425 339.131 274.331C338.732 274.272 338.404 274.205 338.146 274.129C337.889 274.047 337.687 273.956 337.54 273.856C337.388 273.763 337.282 273.657 337.224 273.54C337.165 273.417 337.136 273.285 337.136 273.145C337.136 273.004 337.168 272.872 337.232 272.749C337.303 272.62 337.402 272.509 337.531 272.415C337.672 272.31 337.854 272.228 338.076 272.169C338.299 272.11 338.56 272.081 338.858 272.081C339.21 272.081 339.509 272.125 339.755 272.213C340.007 272.301 340.206 272.418 340.353 272.564C340.458 272.676 340.537 272.802 340.59 272.942C340.643 273.077 340.669 273.224 340.669 273.382H343.112C343.112 272.942 343.016 272.535 342.822 272.16C342.629 271.785 342.351 271.46 341.987 271.185C341.618 270.915 341.17 270.704 340.643 270.552C340.115 270.394 339.521 270.314 338.858 270.314C338.226 270.314 337.657 270.394 337.153 270.552C336.649 270.71 336.222 270.924 335.87 271.193C335.519 271.463 335.249 271.776 335.062 272.134C334.874 272.491 334.78 272.866 334.78 273.259C334.78 273.663 334.871 274.021 335.053 274.331C335.24 274.642 335.498 274.914 335.826 275.148C336.154 275.389 336.547 275.594 337.004 275.764C337.467 275.928 337.977 276.065 338.533 276.177C338.973 276.259 339.336 276.341 339.623 276.423C339.91 276.505 340.142 276.593 340.317 276.687C340.487 276.786 340.604 276.892 340.669 277.003C340.739 277.114 340.774 277.243 340.774 277.39ZM346.153 280H348.298L349.309 274.92L349.502 273.953L349.704 274.92L350.75 280H352.895L354.6 270.49H352.358L351.655 276.098L351.532 277.021L351.365 276.115L350.337 270.49H348.702L347.674 276.142L347.507 277.047L347.393 276.142L346.681 270.49H344.448L346.153 280ZM360.875 280.176C361.795 280.176 362.592 279.997 363.266 279.64C363.939 279.282 364.432 278.884 364.742 278.444L363.521 277.126C363.239 277.489 362.873 277.762 362.422 277.943C361.971 278.125 361.505 278.216 361.024 278.216C360.685 278.216 360.371 278.163 360.084 278.058C359.797 277.952 359.542 277.803 359.319 277.609C359.103 277.422 358.93 277.214 358.801 276.985C358.672 276.751 358.566 276.443 358.484 276.062V276.036H364.936V274.999C364.936 274.302 364.839 273.666 364.646 273.092C364.452 272.512 364.171 272.017 363.802 271.606C363.427 271.196 362.97 270.88 362.431 270.657C361.897 270.429 361.288 270.314 360.603 270.314C359.94 270.314 359.328 270.435 358.766 270.675C358.203 270.915 357.717 271.252 357.307 271.686C356.896 272.119 356.577 272.638 356.349 273.241C356.12 273.839 356.006 274.501 356.006 275.228V275.579C356.006 276.218 356.12 276.818 356.349 277.381C356.583 277.938 356.914 278.421 357.342 278.831C357.77 279.247 358.282 279.575 358.88 279.815C359.478 280.056 360.143 280.176 360.875 280.176ZM360.585 272.292C360.896 272.292 361.168 272.342 361.402 272.441C361.643 272.535 361.845 272.664 362.009 272.828C362.173 272.998 362.302 273.197 362.396 273.426C362.489 273.654 362.536 273.897 362.536 274.155V274.349H358.528C358.587 274.038 358.675 273.757 358.792 273.505C358.909 273.253 359.056 273.036 359.231 272.854C359.401 272.673 359.601 272.535 359.829 272.441C360.058 272.342 360.31 272.292 360.585 272.292ZM373.9 270.314C373.262 270.314 372.673 270.47 372.134 270.78C371.595 271.085 371.132 271.507 370.745 272.046L370.728 271.835L370.631 270.49H368.354V280H370.798V274.287C370.909 274.018 371.05 273.783 371.22 273.584C371.39 273.385 371.595 273.221 371.835 273.092C372.034 272.98 372.26 272.898 372.512 272.846C372.77 272.787 373.057 272.758 373.373 272.758C373.678 272.758 373.997 272.778 374.331 272.819C374.671 272.854 375.002 272.91 375.324 272.986L375.685 270.552C375.491 270.493 375.236 270.44 374.92 270.394C374.609 270.341 374.27 270.314 373.9 270.314ZM391.057 280H393.509V272.292H396.937V270.49H393.509V269.972C393.509 269.69 393.544 269.438 393.614 269.216C393.69 268.993 393.805 268.806 393.957 268.653C394.127 268.472 394.355 268.334 394.643 268.24C394.93 268.146 395.278 268.1 395.688 268.1C396.069 268.1 396.4 268.117 396.682 268.152C396.963 268.188 397.215 268.229 397.438 268.275L397.596 266.359C397.396 266.324 397.203 266.292 397.016 266.263C396.834 266.233 396.652 266.207 396.471 266.184C396.289 266.16 396.102 266.143 395.908 266.131C395.721 266.113 395.524 266.104 395.319 266.104C394.669 266.104 394.08 266.189 393.553 266.359C393.025 266.523 392.577 266.77 392.208 267.098C391.839 267.426 391.555 267.83 391.355 268.311C391.156 268.791 391.057 269.345 391.057 269.972V270.49H388.561V272.292H391.057V280ZM399.169 275.157V275.342C399.169 276.039 399.269 276.684 399.468 277.275C399.667 277.861 399.96 278.371 400.347 278.805C400.728 279.238 401.196 279.578 401.753 279.824C402.315 280.064 402.954 280.185 403.669 280.185C404.378 280.185 405.011 280.064 405.567 279.824C406.124 279.578 406.593 279.238 406.974 278.805C407.354 278.371 407.645 277.861 407.844 277.275C408.043 276.684 408.143 276.039 408.143 275.342V275.157C408.143 274.466 408.043 273.827 407.844 273.241C407.645 272.649 407.354 272.137 406.974 271.703C406.587 271.27 406.115 270.93 405.559 270.684C405.002 270.438 404.366 270.314 403.651 270.314C402.937 270.314 402.301 270.438 401.744 270.684C401.193 270.93 400.728 271.27 400.347 271.703C399.96 272.137 399.667 272.649 399.468 273.241C399.269 273.827 399.169 274.466 399.169 275.157ZM401.612 275.342V275.157C401.612 274.771 401.65 274.404 401.727 274.059C401.803 273.713 401.923 273.408 402.087 273.145C402.251 272.881 402.462 272.673 402.72 272.521C402.978 272.368 403.288 272.292 403.651 272.292C404.021 272.292 404.334 272.368 404.592 272.521C404.85 272.673 405.061 272.881 405.225 273.145C405.383 273.408 405.5 273.713 405.576 274.059C405.652 274.404 405.69 274.771 405.69 275.157V275.342C405.69 275.74 405.652 276.115 405.576 276.467C405.5 276.812 405.383 277.114 405.225 277.372C405.061 277.636 404.85 277.844 404.592 277.996C404.334 278.148 404.026 278.225 403.669 278.225C403.3 278.225 402.983 278.148 402.72 277.996C402.462 277.844 402.251 277.636 402.087 277.372C401.923 277.114 401.803 276.812 401.727 276.467C401.65 276.115 401.612 275.74 401.612 275.342ZM417.143 270.314C416.504 270.314 415.915 270.47 415.376 270.78C414.837 271.085 414.374 271.507 413.987 272.046L413.97 271.835L413.873 270.49H411.597V280H414.04V274.287C414.151 274.018 414.292 273.783 414.462 273.584C414.632 273.385 414.837 273.221 415.077 273.092C415.276 272.98 415.502 272.898 415.754 272.846C416.012 272.787 416.299 272.758 416.615 272.758C416.92 272.758 417.239 272.778 417.573 272.819C417.913 272.854 418.244 272.91 418.566 272.986L418.927 270.552C418.733 270.493 418.479 270.44 418.162 270.394C417.852 270.341 417.512 270.314 417.143 270.314ZM130.76 294.49H128.659V304H130.883V296.881C130.912 296.805 130.944 296.734 130.979 296.67C131.015 296.605 131.056 296.55 131.103 296.503C131.167 296.438 131.24 296.389 131.322 296.354C131.404 296.318 131.498 296.301 131.604 296.301C131.697 296.301 131.785 296.315 131.867 296.345C131.949 296.368 132.022 296.412 132.087 296.477C132.146 296.541 132.192 296.632 132.228 296.749C132.263 296.866 132.28 297.016 132.28 297.197V304H134.434V296.986C134.434 296.916 134.434 296.86 134.434 296.819C134.434 296.778 134.434 296.752 134.434 296.74C134.463 296.676 134.498 296.62 134.539 296.573C134.58 296.521 134.627 296.474 134.68 296.433C134.744 296.392 134.812 296.359 134.882 296.336C134.958 296.312 135.043 296.301 135.137 296.301C135.225 296.301 135.31 296.315 135.392 296.345C135.479 296.368 135.556 296.412 135.62 296.477C135.685 296.547 135.734 296.641 135.77 296.758C135.811 296.875 135.831 297.024 135.831 297.206V304H138.055V297.215C138.055 296.688 138.002 296.242 137.896 295.879C137.797 295.51 137.656 295.208 137.475 294.974C137.287 294.745 137.067 294.578 136.815 294.473C136.569 294.367 136.303 294.314 136.016 294.314C135.787 294.314 135.576 294.344 135.383 294.402C135.189 294.461 135.017 294.543 134.864 294.648C134.741 294.73 134.627 294.83 134.521 294.947C134.422 295.059 134.331 295.185 134.249 295.325C134.196 295.179 134.132 295.05 134.056 294.938C133.985 294.821 133.9 294.722 133.801 294.64C133.672 294.528 133.52 294.446 133.344 294.394C133.168 294.341 132.969 294.314 132.746 294.314C132.289 294.314 131.899 294.435 131.577 294.675C131.261 294.909 131.012 295.231 130.83 295.642L130.76 294.49ZM141.553 307.841C142.045 307.841 142.47 307.759 142.827 307.595C143.19 307.431 143.498 307.229 143.75 306.988C144.002 306.748 144.21 306.487 144.374 306.206C144.544 305.925 144.682 305.664 144.787 305.424L149.612 294.49H146.914L144.743 300.08L144.383 301.029L144.119 300.062L141.939 294.49H139.268L143.293 303.596L142.73 304.642C142.66 304.771 142.599 304.87 142.546 304.94C142.499 305.011 142.423 305.116 142.317 305.257C142.212 305.397 142.083 305.526 141.931 305.644C141.784 305.767 141.614 305.828 141.421 305.828C141.327 305.828 141.201 305.822 141.043 305.811C140.891 305.805 140.765 305.802 140.665 305.802L140.366 307.665C140.577 307.724 140.768 307.768 140.938 307.797C141.113 307.826 141.318 307.841 141.553 307.841ZM161.425 299.166V299.351C161.425 300.042 161.507 300.684 161.671 301.275C161.841 301.861 162.084 302.368 162.4 302.796C162.717 303.229 163.106 303.569 163.569 303.815C164.032 304.056 164.562 304.176 165.16 304.176C165.441 304.176 165.702 304.146 165.942 304.088C166.188 304.035 166.414 303.959 166.619 303.859C166.777 303.777 166.93 303.681 167.076 303.569C167.223 303.458 167.357 303.332 167.48 303.191V307.656H169.933V294.49H167.779L167.63 295.457C167.507 295.305 167.375 295.167 167.234 295.044C167.094 294.921 166.944 294.812 166.786 294.719C166.563 294.59 166.317 294.49 166.048 294.42C165.784 294.35 165.494 294.314 165.178 294.314C164.574 294.314 164.038 294.432 163.569 294.666C163.106 294.9 162.717 295.229 162.4 295.65C162.078 296.078 161.835 296.591 161.671 297.188C161.507 297.786 161.425 298.445 161.425 299.166ZM163.868 299.351V299.166C163.868 298.762 163.903 298.387 163.974 298.041C164.05 297.689 164.167 297.385 164.325 297.127C164.478 296.869 164.674 296.667 164.914 296.521C165.16 296.368 165.456 296.292 165.802 296.292C166.007 296.292 166.194 296.312 166.364 296.354C166.54 296.395 166.695 296.453 166.83 296.529C166.971 296.611 167.094 296.711 167.199 296.828C167.305 296.939 167.398 297.068 167.48 297.215V301.258C167.398 301.41 167.305 301.548 167.199 301.671C167.094 301.788 166.971 301.888 166.83 301.97C166.689 302.046 166.531 302.107 166.355 302.154C166.186 302.195 165.995 302.216 165.784 302.216C165.438 302.216 165.143 302.14 164.896 301.987C164.656 301.835 164.46 301.627 164.308 301.363C164.155 301.105 164.044 300.804 163.974 300.458C163.903 300.112 163.868 299.743 163.868 299.351ZM178.687 304H180.901V294.49H178.449V301.161C178.373 301.313 178.282 301.451 178.177 301.574C178.071 301.697 177.951 301.803 177.816 301.891C177.658 301.99 177.474 302.066 177.263 302.119C177.058 302.172 176.826 302.198 176.568 302.198C176.281 302.198 176.038 302.163 175.839 302.093C175.64 302.022 175.479 301.905 175.355 301.741C175.232 301.583 175.142 301.372 175.083 301.108C175.03 300.845 175.004 300.52 175.004 300.133V294.49H172.561V300.115C172.561 300.836 172.64 301.454 172.798 301.97C172.962 302.479 173.19 302.898 173.483 303.227C173.776 303.561 174.128 303.804 174.538 303.956C174.948 304.108 175.399 304.185 175.892 304.185C176.431 304.185 176.926 304.05 177.377 303.78C177.834 303.511 178.224 303.139 178.546 302.664L178.687 304ZM187.906 304.176C188.826 304.176 189.623 303.997 190.297 303.64C190.971 303.282 191.463 302.884 191.773 302.444L190.552 301.126C190.271 301.489 189.904 301.762 189.453 301.943C189.002 302.125 188.536 302.216 188.056 302.216C187.716 302.216 187.402 302.163 187.115 302.058C186.828 301.952 186.573 301.803 186.351 301.609C186.134 301.422 185.961 301.214 185.832 300.985C185.703 300.751 185.598 300.443 185.516 300.062V300.036H191.967V298.999C191.967 298.302 191.87 297.666 191.677 297.092C191.483 296.512 191.202 296.017 190.833 295.606C190.458 295.196 190.001 294.88 189.462 294.657C188.929 294.429 188.319 294.314 187.634 294.314C186.972 294.314 186.359 294.435 185.797 294.675C185.234 294.915 184.748 295.252 184.338 295.686C183.928 296.119 183.608 296.638 183.38 297.241C183.151 297.839 183.037 298.501 183.037 299.228V299.579C183.037 300.218 183.151 300.818 183.38 301.381C183.614 301.938 183.945 302.421 184.373 302.831C184.801 303.247 185.313 303.575 185.911 303.815C186.509 304.056 187.174 304.176 187.906 304.176ZM187.616 296.292C187.927 296.292 188.199 296.342 188.434 296.441C188.674 296.535 188.876 296.664 189.04 296.828C189.204 296.998 189.333 297.197 189.427 297.426C189.521 297.654 189.567 297.897 189.567 298.155V298.349H185.56C185.618 298.038 185.706 297.757 185.823 297.505C185.94 297.253 186.087 297.036 186.263 296.854C186.433 296.673 186.632 296.535 186.86 296.441C187.089 296.342 187.341 296.292 187.616 296.292ZM200.237 301.39C200.237 301.536 200.199 301.671 200.123 301.794C200.053 301.917 199.944 302.025 199.798 302.119C199.646 302.213 199.449 302.289 199.209 302.348C198.975 302.4 198.699 302.427 198.383 302.427C198.119 302.427 197.861 302.4 197.609 302.348C197.363 302.295 197.144 302.21 196.95 302.093C196.757 301.981 196.599 301.835 196.476 301.653C196.353 301.466 196.282 301.243 196.265 300.985H193.936C193.936 301.372 194.029 301.759 194.217 302.146C194.41 302.526 194.691 302.866 195.061 303.165C195.43 303.47 195.887 303.716 196.432 303.903C196.982 304.091 197.615 304.185 198.33 304.185C198.98 304.185 199.569 304.114 200.097 303.974C200.624 303.827 201.075 303.625 201.45 303.367C201.819 303.109 202.104 302.805 202.303 302.453C202.508 302.096 202.61 301.706 202.61 301.284C202.61 300.827 202.508 300.435 202.303 300.106C202.104 299.772 201.825 299.488 201.468 299.254C201.11 299.025 200.686 298.838 200.193 298.691C199.701 298.545 199.168 298.425 198.594 298.331C198.195 298.272 197.867 298.205 197.609 298.129C197.352 298.047 197.149 297.956 197.003 297.856C196.851 297.763 196.745 297.657 196.687 297.54C196.628 297.417 196.599 297.285 196.599 297.145C196.599 297.004 196.631 296.872 196.695 296.749C196.766 296.62 196.865 296.509 196.994 296.415C197.135 296.31 197.316 296.228 197.539 296.169C197.762 296.11 198.022 296.081 198.321 296.081C198.673 296.081 198.972 296.125 199.218 296.213C199.47 296.301 199.669 296.418 199.815 296.564C199.921 296.676 200 296.802 200.053 296.942C200.105 297.077 200.132 297.224 200.132 297.382H202.575C202.575 296.942 202.479 296.535 202.285 296.16C202.092 295.785 201.813 295.46 201.45 295.185C201.081 294.915 200.633 294.704 200.105 294.552C199.578 294.394 198.983 294.314 198.321 294.314C197.688 294.314 197.12 294.394 196.616 294.552C196.112 294.71 195.685 294.924 195.333 295.193C194.981 295.463 194.712 295.776 194.524 296.134C194.337 296.491 194.243 296.866 194.243 297.259C194.243 297.663 194.334 298.021 194.516 298.331C194.703 298.642 194.961 298.914 195.289 299.148C195.617 299.389 196.01 299.594 196.467 299.764C196.93 299.928 197.439 300.065 197.996 300.177C198.436 300.259 198.799 300.341 199.086 300.423C199.373 300.505 199.604 300.593 199.78 300.687C199.95 300.786 200.067 300.892 200.132 301.003C200.202 301.114 200.237 301.243 200.237 301.39ZM209.396 292.161H206.952V294.49H204.781V296.292H206.952V300.616C206.952 301.243 207.034 301.782 207.198 302.233C207.362 302.679 207.597 303.045 207.901 303.332C208.2 303.625 208.561 303.842 208.982 303.982C209.41 304.117 209.885 304.185 210.406 304.185C210.676 304.185 210.948 304.17 211.224 304.141C211.505 304.117 211.774 304.082 212.032 304.035C212.29 303.988 212.533 303.93 212.762 303.859C212.99 303.783 213.189 303.695 213.359 303.596L213.122 301.917C213.011 301.946 212.876 301.976 212.718 302.005C212.565 302.034 212.401 302.061 212.226 302.084C212.044 302.113 211.854 302.137 211.654 302.154C211.461 302.172 211.271 302.181 211.083 302.181C210.825 302.181 210.591 302.151 210.38 302.093C210.175 302.034 209.999 301.935 209.853 301.794C209.706 301.659 209.592 301.478 209.51 301.249C209.434 301.015 209.396 300.725 209.396 300.379V296.292H212.946V294.49H209.396V292.161ZM216.374 294.49V296.485H219.081V302.014H216.374V304H224.126V302.014H221.551V294.49H216.374ZM218.905 292.056C218.905 292.243 218.938 292.419 219.002 292.583C219.072 292.741 219.169 292.876 219.292 292.987C219.415 293.104 219.562 293.195 219.731 293.26C219.907 293.324 220.101 293.356 220.312 293.356C220.745 293.356 221.088 293.236 221.34 292.996C221.598 292.75 221.727 292.437 221.727 292.056C221.727 291.675 221.598 291.364 221.34 291.124C221.088 290.878 220.745 290.755 220.312 290.755C220.101 290.755 219.907 290.787 219.731 290.852C219.562 290.916 219.415 291.004 219.292 291.115C219.169 291.232 219.072 291.373 219.002 291.537C218.938 291.695 218.905 291.868 218.905 292.056ZM226.2 299.157V299.342C226.2 300.039 226.3 300.684 226.499 301.275C226.698 301.861 226.991 302.371 227.378 302.805C227.759 303.238 228.228 303.578 228.784 303.824C229.347 304.064 229.985 304.185 230.7 304.185C231.409 304.185 232.042 304.064 232.599 303.824C233.155 303.578 233.624 303.238 234.005 302.805C234.386 302.371 234.676 301.861 234.875 301.275C235.074 300.684 235.174 300.039 235.174 299.342V299.157C235.174 298.466 235.074 297.827 234.875 297.241C234.676 296.649 234.386 296.137 234.005 295.703C233.618 295.27 233.146 294.93 232.59 294.684C232.033 294.438 231.397 294.314 230.683 294.314C229.968 294.314 229.332 294.438 228.775 294.684C228.225 294.93 227.759 295.27 227.378 295.703C226.991 296.137 226.698 296.649 226.499 297.241C226.3 297.827 226.2 298.466 226.2 299.157ZM228.644 299.342V299.157C228.644 298.771 228.682 298.404 228.758 298.059C228.834 297.713 228.954 297.408 229.118 297.145C229.282 296.881 229.493 296.673 229.751 296.521C230.009 296.368 230.319 296.292 230.683 296.292C231.052 296.292 231.365 296.368 231.623 296.521C231.881 296.673 232.092 296.881 232.256 297.145C232.414 297.408 232.531 297.713 232.607 298.059C232.684 298.404 232.722 298.771 232.722 299.157V299.342C232.722 299.74 232.684 300.115 232.607 300.467C232.531 300.812 232.414 301.114 232.256 301.372C232.092 301.636 231.881 301.844 231.623 301.996C231.365 302.148 231.058 302.225 230.7 302.225C230.331 302.225 230.015 302.148 229.751 301.996C229.493 301.844 229.282 301.636 229.118 301.372C228.954 301.114 228.834 300.812 228.758 300.467C228.682 300.115 228.644 299.74 228.644 299.342ZM237.345 304H239.797V297.241C239.879 297.112 239.97 296.995 240.069 296.89C240.169 296.784 240.28 296.693 240.403 296.617C240.556 296.512 240.729 296.433 240.922 296.38C241.121 296.327 241.338 296.301 241.572 296.301C241.854 296.301 242.105 296.33 242.328 296.389C242.551 296.441 242.741 296.538 242.899 296.679C243.058 296.819 243.178 297.013 243.26 297.259C243.348 297.499 243.392 297.807 243.392 298.182V304H245.835V298.146C245.835 297.455 245.753 296.869 245.589 296.389C245.431 295.902 245.208 295.504 244.921 295.193C244.628 294.889 244.282 294.666 243.884 294.525C243.485 294.385 243.046 294.314 242.565 294.314C242.19 294.314 241.836 294.367 241.502 294.473C241.168 294.578 240.86 294.73 240.579 294.93C240.415 295.047 240.26 295.179 240.113 295.325C239.967 295.472 239.832 295.633 239.709 295.809L239.56 294.49H237.345V304ZM254.29 301.39C254.29 301.536 254.252 301.671 254.176 301.794C254.105 301.917 253.997 302.025 253.851 302.119C253.698 302.213 253.502 302.289 253.262 302.348C253.027 302.4 252.752 302.427 252.436 302.427C252.172 302.427 251.914 302.4 251.662 302.348C251.416 302.295 251.196 302.21 251.003 302.093C250.81 301.981 250.651 301.835 250.528 301.653C250.405 301.466 250.335 301.243 250.317 300.985H247.988C247.988 301.372 248.082 301.759 248.27 302.146C248.463 302.526 248.744 302.866 249.113 303.165C249.482 303.47 249.939 303.716 250.484 303.903C251.035 304.091 251.668 304.185 252.383 304.185C253.033 304.185 253.622 304.114 254.149 303.974C254.677 303.827 255.128 303.625 255.503 303.367C255.872 303.109 256.156 302.805 256.355 302.453C256.561 302.096 256.663 301.706 256.663 301.284C256.663 300.827 256.561 300.435 256.355 300.106C256.156 299.772 255.878 299.488 255.521 299.254C255.163 299.025 254.738 298.838 254.246 298.691C253.754 298.545 253.221 298.425 252.646 298.331C252.248 298.272 251.92 298.205 251.662 298.129C251.404 298.047 251.202 297.956 251.056 297.856C250.903 297.763 250.798 297.657 250.739 297.54C250.681 297.417 250.651 297.285 250.651 297.145C250.651 297.004 250.684 296.872 250.748 296.749C250.818 296.62 250.918 296.509 251.047 296.415C251.188 296.31 251.369 296.228 251.592 296.169C251.814 296.11 252.075 296.081 252.374 296.081C252.726 296.081 253.024 296.125 253.271 296.213C253.522 296.301 253.722 296.418 253.868 296.564C253.974 296.676 254.053 296.802 254.105 296.942C254.158 297.077 254.185 297.224 254.185 297.382H256.628C256.628 296.942 256.531 296.535 256.338 296.16C256.145 295.785 255.866 295.46 255.503 295.185C255.134 294.915 254.686 294.704 254.158 294.552C253.631 294.394 253.036 294.314 252.374 294.314C251.741 294.314 251.173 294.394 250.669 294.552C250.165 294.71 249.737 294.924 249.386 295.193C249.034 295.463 248.765 295.776 248.577 296.134C248.39 296.491 248.296 296.866 248.296 297.259C248.296 297.663 248.387 298.021 248.568 298.331C248.756 298.642 249.014 298.914 249.342 299.148C249.67 299.389 250.062 299.594 250.52 299.764C250.982 299.928 251.492 300.065 252.049 300.177C252.488 300.259 252.852 300.341 253.139 300.423C253.426 300.505 253.657 300.593 253.833 300.687C254.003 300.786 254.12 300.892 254.185 301.003C254.255 301.114 254.29 301.243 254.29 301.39ZM272.923 300.115H275.12C275.12 299.881 275.126 299.682 275.138 299.518C275.149 299.348 275.179 299.192 275.226 299.052C275.267 298.911 275.337 298.773 275.437 298.639C275.536 298.504 275.674 298.349 275.85 298.173C276.137 297.921 276.421 297.663 276.702 297.399C276.989 297.13 277.244 296.846 277.467 296.547C277.689 296.254 277.871 295.938 278.012 295.598C278.152 295.252 278.223 294.871 278.223 294.455C278.223 293.893 278.129 293.397 277.941 292.97C277.754 292.542 277.484 292.182 277.133 291.889C276.775 291.602 276.339 291.385 275.823 291.238C275.308 291.092 274.725 291.019 274.074 291.019C273.494 291.019 272.955 291.092 272.457 291.238C271.959 291.379 271.525 291.596 271.156 291.889C270.787 292.182 270.494 292.551 270.277 292.996C270.061 293.436 269.949 293.954 269.943 294.552H272.396C272.401 294.282 272.451 294.051 272.545 293.857C272.645 293.664 272.773 293.506 272.932 293.383C273.084 293.26 273.26 293.172 273.459 293.119C273.658 293.061 273.863 293.031 274.074 293.031C274.344 293.031 274.581 293.061 274.786 293.119C274.997 293.178 275.176 293.266 275.322 293.383C275.463 293.512 275.571 293.676 275.647 293.875C275.724 294.068 275.762 294.3 275.762 294.569C275.762 294.792 275.712 295.015 275.612 295.237C275.513 295.46 275.384 295.677 275.226 295.888C275.062 296.104 274.88 296.315 274.681 296.521C274.481 296.72 274.282 296.91 274.083 297.092C273.808 297.309 273.594 297.514 273.441 297.707C273.289 297.895 273.175 298.1 273.099 298.322C273.022 298.551 272.973 298.806 272.949 299.087C272.932 299.368 272.923 299.711 272.923 300.115ZM272.562 302.778C272.562 303.153 272.688 303.47 272.94 303.728C273.192 303.979 273.541 304.105 273.986 304.105C274.42 304.105 274.766 303.979 275.023 303.728C275.287 303.47 275.419 303.153 275.419 302.778C275.419 302.392 275.287 302.069 275.023 301.812C274.766 301.548 274.42 301.416 273.986 301.416C273.541 301.416 273.192 301.548 272.94 301.812C272.688 302.069 272.562 302.392 272.562 302.778Z" fill="white"/>
</g>
</svg>
