<svg width="1920" height="355" viewBox="0 0 1920 355" fill="none" xmlns="http://www.w3.org/2000/svg">
<g id="Frame" clip-path="url(#clip0)">
<rect width="1920" height="140" transform="translate(0 215)" fill="url(#paint0_linear)"/>
<path id="Vector" d="M0 215.759C116.9 217.636 183.9 237.73 224 256.61C233.9 261.247 258.1 273.392 293 282.004C310.8 286.421 343.4 292.935 400 290.837C463.3 288.518 511.1 277.036 554 266.547C624.3 249.323 629.9 240.932 691 229.008C709.7 225.365 747.2 218.188 794 215.759C853.4 212.668 897.4 219.182 983 232.32C1047.2 242.147 1048.1 244.907 1142 259.922C1229.4 273.944 1254.6 275.711 1271 276.484C1316.6 278.802 1350.9 276.484 1402 273.172C1425.5 271.626 1461 268.093 1531 261.027C1593.5 254.733 1624.8 251.531 1637 249.986C1690.7 242.92 1709.7 238.062 1787 227.904C1804.8 225.585 1823.6 223.267 1848 221.28C1877.6 218.961 1902.4 218.188 1920 217.967V369.779L0 351.12V215.759Z" fill="white" fill-opacity="0.45"/>
</g>
<path id="Vector_2" d="M867.703 100L864.027 108.927L861.087 117.077L858.146 124.258V130.041L855.573 138.036V144.712L853 150.068V156.278V161.517L855.573 169.862L858.146 178.827L860.352 184.61L862.557 190.859L864.763 198.233L867.703 207.199L874.32 211.43L880.201 215.699L886.817 219.192L897.11 223.461C897.11 223.461 901.153 226.566 902.623 226.566C904.094 226.566 911.445 229.671 911.445 229.671L920.635 232H927.986H938.903H948.35L959.231 227.731L968.788 223.849L976.507 220.356L986.064 214.535L991.578 211.391L999.664 202.891L1002.61 197.845L1008.85 187.754L1011.43 180.38V171.531L1014 163.691V157.364V148.438V142.655L1011.43 132.253L1009.59 125.267L1004.81 115.564L1002.97 110.13L1000.4 105.861L1001.13 115.564L1000.4 120.221L995.989 124.49L991.578 128.527L984.594 132.214L978.712 135.009L972.831 135.785L965.112 137.337L957.76 138.113L952.247 137.337L946.365 136.949L940.484 136.561L933.5 135.901L927.472 132.292L921.517 132.214H918.539H914.092H910.6H906.63L901.521 129.187L897.11 126.858L892.699 124.917L887.92 120.26L884.612 117.543L882.406 115.991L879.466 114.438L875.79 111.721L873.217 109.004L870.276 107.064L867.703 100Z" fill="url(#paint1_radial)"/>
<path id="Vector_3" d="M924 40.5714V42.0794L926.899 46.127L930.523 50.0952L931.973 54.0635V58.1905L933.423 62L978 37L924 40.5714Z" fill="url(#paint2_linear)"/>
<path id="Vector_4" d="M870.719 96.9467L867 102.847L868.86 108.157L875.554 113.86L881.132 118.973L886.339 121.333L890.43 125.267L896.752 128.413L904.934 131.56H916.426L924.719 135.808L931.525 135.887L936.174 138.64L945.099 141H950.12H956.145H962.69H965.702L975.223 138.64L985.302 135.887L991.326 135.808L996.793 129.987L1002 122.513V116.141V111.343L999.397 107.173L996.793 103.24L994.19 100.093L989.802 96.9467L984.893 93.8L981.174 91.0467H977.231H971.207L965.554 87.9H960.161H952.612L948.446 84.7533H942.087L936.917 82H931.004H921.967H914.417L908.281 84.36H902.702L890.43 86.72L880.388 90.26L874.81 92.2267L870.719 96.9467Z" fill="url(#paint3_linear)"/>
<path id="Vector_5" d="M888 103.848L891.269 99.9241H897.154L906.89 96H914.845H924.508H932.5H941.364H949.21L954.114 99.9241H962.942L968.827 103.848L977 109.734V114.09V118.877L972.641 121.506L965.739 123.468H959.999L952.661 127H945.759L938.857 123.468L921.784 117.268L914.155 116.405L903.984 114.051H898.171L892.759 111.5L888 107.733V103.848Z" fill="url(#paint4_radial)"/>
<path id="Vector_6" d="M842.961 123.205L845.268 121.758L847.025 120.585L848.563 118.826L849.589 116.792L851.127 115.62L852.628 116.792L853.946 119.412L855.192 121.171V123.205V125.668V126.997V128.561V130.359L856.73 131.689V132.588V128.326V125.863L857.865 124.104V121.836L859 120.311L860.025 117.965L860.977 115.62H862.552L863.614 114.173L865.115 113H866.434H867.825L868.704 115.033L869.986 115.932V117.809L871.268 118.826L872.513 120.585L874.307 121.171L876.394 122.774H877.383L878.115 124.964V126.567V127.662L875.845 128.17L874.82 129.069L871.268 129.343L869.473 129.656L866.91 130.242L865.115 131.102L864.31 132.588L863.87 134.035H866.654L868.961 133.135H872H874.051L877.383 134.035L880.166 135.794L882.73 137.553L884.011 139.86L885 141.62V143.535V145.803L884.268 147.484L883.755 148.618L882.73 150.104L881.704 151.277L881.192 152.45L880.166 153.896H878.555L877.639 155.343H876.028H875.039H873.465L872 153.036L871.268 151.277L870.755 149.517L870.242 148.071L869.73 145.998L867.935 143.653L866.654 142.206L865.115 141.033L863.797 139.977L862.589 139L863.98 142.441L865.372 143.965L866.141 146.585L866.654 148.344L866.91 150.377V152.723L867.02 155.343L866.91 157.102L866.141 159.135L865.628 160.895L864.859 162.068L863.98 163.905L861.563 165H859.989H857.865H855.301H853.544H851.2L849.845 163.827L847.538 162.654L845.487 160.621L844.499 158.862L843.986 157.102L843.73 154.756L844.499 152.137L845.487 150.377L847.025 149.205V148.071L848.307 146.898L850.101 145.412L852.115 143.965L852.885 143.105L854.166 142.206L855.192 140.759H852.628H850.358L848.307 141.62L847.025 142.519L845.487 143.653L843.986 144.552L842.961 145.998L841.935 146.898L841.166 148.344L840.141 150.69V151.629L839.115 153.31L837.87 153.896H836.076L835.307 152.723L834.282 150.964L833 149.205V147.132V143.77V141.541L834.611 139L837.101 137.827L840.397 136.654L842.961 136.068L846.513 135.481H848.051H849.845H852.372L854.166 136.068L846.769 134.035L844.499 133.448L843.217 132.862L841.679 132.002L840.397 131.102L839.115 129.343V127.036L840.654 125.55L842.961 123.205Z" fill="url(#paint5_radial)"/>
<path id="Vector_7" d="M847.495 132.105H849.374H850.991L852.456 129.255V128.229L854.824 127.28L855.876 130.699V133.245L857.981 134.65V130.965V129.559L859.56 128.989L860.649 127.28L862.717 126.14L864.295 125V127.356V128.647L866.4 128.685V129.825V131.269V132.371L865.084 134.65H866.4H868.504H869.707L871.135 135.79L873.766 137.766C873.766 137.766 874.292 138.868 873.766 139.324C873.24 139.78 871.925 139.324 871.925 139.324L870.722 140.312H868.73H867.527L867.227 142.021L863.731 140.312L862.266 138.602L860.8 138.222L862.717 140.312L864.333 142.857L866.174 144.567L864.859 145.707H863.205H861.815L860.687 147.15V148.252V150H858.582L857.417 148.594L855.313 148.328L853.997 146.922L853.471 145.517L853.208 143.807L854.26 142.971L855.839 141.565L852.456 141.831L849.825 142.097L847.458 142.857L845.879 143.807L844.827 143.541V140.426C844.827 140.426 845.203 140.995 845.917 140.426C846.631 139.856 847.946 139.286 847.946 139.286L846.368 138.45L844.789 137.614L844 136.474L848.097 137.614H849.901H852.306H853.809L850.652 136.208H849.074L848.021 135.068L847.495 132.105Z" fill="url(#paint6_radial)"/>
<path id="Vector_8" d="M965.861 75L948 120.017L949.121 122H950.952L969 75" fill="url(#paint7_linear)"/>
<path id="Vector_9" d="M935 62.9286L938.969 68.0357L944.02 69.2143L945.463 72.75H948.926L949.973 78.1321L952.678 81L981 37L935 62.9286Z" fill="url(#paint8_linear)"/>
<path id="Vector_10" d="M956 79.6183L965.22 81.9084H967.875L973.702 85.3435L977.759 90L982 40L956 79.6183Z" fill="url(#paint9_linear)"/>
<path id="Vector_11" d="M978 87L980.263 85.484L984.79 87L988.611 83.8125L996.44 85.4062L999 87L982.304 36L978 87Z" fill="url(#paint10_radial)"/>
<path id="Vector_12" d="M999.253 87L1004.6 83.029H1009.19L1015.45 80.6931H1018.05H1020L984 36L999.253 87Z" fill="url(#paint11_radial)"/>
<path id="Vector_13" d="M978.527 38.325L921.975 42.2L919 40.2625L984.402 36L1027 87.925L1022.96 86.0262L984.769 39.4875L1003.5 94.5125V98L983.668 41.0375L978.894 96.8375L977.425 92.9625L981.464 41.0375L954.657 82.8875L951.352 86.375L953.188 80.175L979.628 40.2625L927.446 67L931.889 61.9625L978.527 38.325Z" fill="url(#paint12_linear)"/>
<path id="Vector_14" d="M826.562 0L824 3.08532L869.023 7.32765L874.879 9.64164L916.608 111.457L921 113L875.611 5.78498L872.5 4.74369L826.562 0Z" fill="#5CDFF1"/>
<path id="Vector_15" d="M824 2V4.91367L825.82 6.66187L867.671 11.3237L871.31 14.4317L910.978 110H913.525H916L874.585 9.3813L868.763 6.27338L824 2Z" fill="#4CC8E4"/>
<path id="Vector_16" d="M917 175C924.18 175 930 168.732 930 161C930 153.268 924.18 147 917 147C909.82 147 904 153.268 904 161C904 168.732 909.82 175 917 175Z" fill="url(#paint13_radial)"/>
<path id="Vector_17" d="M920.5 160C922.985 160 925 157.985 925 155.5C925 153.015 922.985 151 920.5 151C918.015 151 916 153.015 916 155.5C916 157.985 918.015 160 920.5 160Z" fill="white"/>
<path id="Vector_18" d="M958.5 175C965.404 175 971 168.732 971 161C971 153.268 965.404 147 958.5 147C951.596 147 946 153.268 946 161C946 168.732 951.596 175 958.5 175Z" fill="url(#paint14_radial)"/>
<path id="Vector_19" d="M958.5 162C959.328 162 960 161.552 960 161C960 160.448 959.328 160 958.5 160C957.672 160 957 160.448 957 161C957 161.552 957.672 162 958.5 162Z" fill="white"/>
<path id="Vector_20" d="M952 188C952 193.817 949.509 198.937 945.754 201.969C943.412 203.894 940.586 205 937.5 205C934.414 205 931.514 203.853 929.172 201.928C925.417 198.855 923 193.776 923 188H952Z" fill="url(#paint15_radial)"/>
<path id="Vector_21" d="M916 162C916.552 162 917 161.552 917 161C917 160.448 916.552 160 916 160C915.448 160 915 160.448 915 161C915 161.552 915.448 162 916 162Z" fill="white"/>
<path id="Vector_22" d="M953 161C955.209 161 957 158.985 957 156.5C957 154.015 955.209 152 953 152C950.791 152 949 154.015 949 156.5C949 158.985 950.791 161 953 161Z" fill="white"/>
<path id="Vector_23" d="M963.5 140C952.18 140 943 149.627 943 161.5C943 173.373 952.18 183 963.5 183C974.82 183 984 173.373 984 161.5C984 149.627 974.82 140 963.5 140ZM963.681 179.195C954.465 179.195 946.991 171.356 946.991 161.69C946.991 152.025 954.465 144.186 963.681 144.186C972.897 144.186 980.372 152.025 980.372 161.69C980.372 171.356 972.897 179.195 963.681 179.195Z" fill="black"/>
<path id="Vector_24" d="M929 162.952C929 158.021 933.041 154 938 154C942.959 154 947 158.021 947 162.952C947 163.672 946.927 164.355 946.743 165H944.135C944.355 164.355 944.465 163.672 944.465 162.952C944.465 159.386 941.563 156.503 938 156.503C934.437 156.503 931.535 159.386 931.535 162.952C931.535 163.672 931.645 164.355 931.865 165H929.257C929.073 164.355 929 163.672 929 162.952Z" fill="black"/>
<path id="Vector_25" d="M912 139C900.404 139 891 148.851 891 161C891 173.149 900.404 183 912 183C923.596 183 933 173.149 933 161C933 148.851 923.596 139 912 139ZM912.186 179.106C902.745 179.106 895.088 171.085 895.088 161.195C895.088 151.304 902.745 143.283 912.186 143.283C921.627 143.283 929.283 151.304 929.283 161.195C929.283 171.085 921.627 179.106 912.186 179.106Z" fill="black"/>
<path id="Vector_26" d="M893 156V163C889.033 162.697 886 161.25 886 159.5C886 157.75 889.033 156.303 893 156Z" fill="black"/>
<path id="Vector_27" d="M981 156V164C984.967 163.654 988 162 988 160C988 158 984.967 156.346 981 156Z" fill="black"/>
<defs>
<linearGradient id="paint0_linear" x1="960" y1="0" x2="960" y2="140" gradientUnits="userSpaceOnUse">
<stop offset="0.208333" stop-color="#7A78F6"/>
<stop offset="1" stop-color="#7A78F6" stop-opacity="0"/>
</linearGradient>
<radialGradient id="paint1_radial" cx="0" cy="0" r="1" gradientUnits="userSpaceOnUse" gradientTransform="translate(900.859 158.451) rotate(4.11065) scale(104.985 110.793)">
<stop stop-color="#FD2D95"/>
<stop offset="0.234375" stop-color="#A0441F"/>
<stop offset="0.432292" stop-color="#A94E16"/>
<stop offset="0.604167" stop-color="#B44918"/>
<stop offset="1" stop-color="#713209"/>
</radialGradient>
<linearGradient id="paint2_linear" x1="924" y1="49.4978" x2="978" y2="49.4978" gradientUnits="userSpaceOnUse">
<stop offset="0.1669" stop-color="#E43F50"/>
<stop offset="0.5369" stop-color="#EC505E"/>
<stop offset="0.7681" stop-color="#F7616A"/>
</linearGradient>
<linearGradient id="paint3_linear" x1="867.015" y1="111.496" x2="1002.01" y2="111.496" gradientUnits="userSpaceOnUse">
<stop offset="1.38522e-07" stop-color="#D5D6DA"/>
<stop offset="0.5101" stop-color="#EDEDEB"/>
<stop offset="1" stop-color="#EDEDEB"/>
</linearGradient>
<radialGradient id="paint4_radial" cx="0" cy="0" r="1" gradientUnits="userSpaceOnUse" gradientTransform="translate(932.514 111.496) scale(33.0616 35.7137)">
<stop offset="0.2718" stop-color="#E3C85D"/>
<stop offset="0.724" stop-color="#D1B337"/>
</radialGradient>
<radialGradient id="paint5_radial" cx="0" cy="0" r="1" gradientUnits="userSpaceOnUse" gradientTransform="translate(859.016 138.999) scale(24.4002 27.9637)">
<stop offset="0.489583" stop-color="#F8F7F2"/>
<stop offset="0.760417" stop-color="#E6E1DB"/>
<stop offset="0.979167" stop-color="#CDCBC9"/>
</radialGradient>
<radialGradient id="paint6_radial" cx="0" cy="0" r="1" gradientUnits="userSpaceOnUse" gradientTransform="translate(858.998 137.485) rotate(0.813151) scale(9.09436 9.86853)">
<stop offset="0.53125" stop-color="#FAC43E"/>
<stop offset="0.9647" stop-color="#FDEBA0"/>
</radialGradient>
<linearGradient id="paint7_linear" x1="947.985" y1="98.4938" x2="968.996" y2="98.4938" gradientUnits="userSpaceOnUse">
<stop offset="0.0318436" stop-color="#CD9242"/>
<stop offset="1" stop-color="#562306"/>
</linearGradient>
<linearGradient id="paint8_linear" x1="934.986" y1="58.9938" x2="980.995" y2="58.9938" gradientUnits="userSpaceOnUse">
<stop offset="0.1679" stop-color="#EC505E"/>
<stop offset="0.4382" stop-color="#EC505E"/>
<stop offset="0.7625" stop-color="#F7616A"/>
</linearGradient>
<linearGradient id="paint9_linear" x1="956.008" y1="64.9886" x2="981.995" y2="64.9886" gradientUnits="userSpaceOnUse">
<stop offset="0.0273744" stop-color="#E33D55"/>
<stop offset="0.4654" stop-color="#ED515F"/>
<stop offset="0.9647" stop-color="#F7616A"/>
</linearGradient>
<radialGradient id="paint10_radial" cx="0" cy="0" r="1" gradientUnits="userSpaceOnUse" gradientTransform="translate(988.499 61.4866) scale(18.7443 21.0797)">
<stop offset="0.0363128" stop-color="#E33D55"/>
<stop offset="0.4743" stop-color="#EE5260"/>
<stop offset="0.9647" stop-color="#F7616A"/>
</radialGradient>
<radialGradient id="paint11_radial" cx="0" cy="0" r="1" gradientUnits="userSpaceOnUse" gradientTransform="translate(1002.01 61.4865) scale(21.0244 24.3076)">
<stop offset="0.0318436" stop-color="#E33D55"/>
<stop offset="0.5145" stop-color="#EE5260"/>
</radialGradient>
<linearGradient id="paint12_linear" x1="919.007" y1="66.9939" x2="1026.99" y2="66.9939" gradientUnits="userSpaceOnUse">
<stop offset="0.0318436" stop-color="#CD9242"/>
<stop offset="1" stop-color="#562306"/>
</linearGradient>
<radialGradient id="paint13_radial" cx="0" cy="0" r="1" gradientUnits="userSpaceOnUse" gradientTransform="translate(917.015 160.981) scale(12.9906 15.0461)">
<stop offset="0.1669"/>
<stop offset="0.9647"/>
</radialGradient>
<radialGradient id="paint14_radial" cx="0" cy="0" r="1" gradientUnits="userSpaceOnUse" gradientTransform="translate(958.509 160.981) rotate(180) scale(12.491 15.0461)">
<stop offset="0.1669"/>
<stop offset="0.9647"/>
</radialGradient>
<radialGradient id="paint15_radial" cx="0" cy="0" r="1" gradientUnits="userSpaceOnUse" gradientTransform="translate(937.507 196.535) scale(11.4599 14.445)">
<stop offset="0.1669"/>
<stop offset="0.9647"/>
</radialGradient>
<clipPath id="clip0">
<rect width="1920" height="140" fill="white" transform="translate(0 215)"/>
</clipPath>
</defs>
</svg>
