<svg width="1247" height="809" viewBox="0 0 1247 809" fill="none" xmlns="http://www.w3.org/2000/svg">
<g clip-path="url(#clip0)">
<path opacity="0.74" d="M78 711V559H1165V711H216.932H78Z" fill="url(#paint0_linear)"/>
<path d="M845 708.857H841.295L78 704V715" fill="#4AF5EF"/>
<path d="M78 576.433L900 568L78 582V576.433Z" fill="#D0B24D"/>
<path d="M75 591.683L451 595L75 587V591.683Z" fill="#A9CE7C"/>
<path d="M356 587.382L643.064 582L1046 591L356 587.382Z" fill="#ADCC74"/>
<path d="M652 563.776L1157 566V559L652 563.776Z" fill="#D6C15B"/>
<path d="M90 602.632L1157 591V609L90 606.113V602.632Z" fill="#8DB774"/>
<path d="M108.942 613.118L1159.43 619L1165 611H84L108.942 613.118Z" fill="#78D29E"/>
<path d="M78 632L297 639.011L78 645V632Z" fill="#50EDE1"/>
<path d="M85.8922 659H509L71 655L85.8922 659Z" fill="#53EBE1"/>
<path d="M94.6446 694.897L1173 687L668.433 715H101.561L78 695.759L94.6446 694.897Z" fill="#7CF1FA"/>
<path d="M518 647H1165.69L1174 640L518 647Z" fill="#44E4AF"/>
<path d="M781.761 626H1154.16L1174 615L749 626H781.761Z" fill="#3FE9B9"/>
<path d="M81.981 630.912L637 636L77 619L81.981 630.912Z" fill="#46F4D6"/>
<path d="M-14.2 122.9L-1.2 118.5L6.3 111.8L15.6 105.9L19 114.4L24.7 105.9L33 94.8L42.3 85.2L28 108.9L34.4 111L42.3 104.1L46.6 91.1V104.1L54.1 97.1L64.7 91.2L53.9 104.2L54.2 109L64.8 99.5L72.3 92.7L77.9 89L66.1 104.2L66.7 110.5L74.8 100.9L81.6 99.4L87.8 91.2L92.1 90.5L88.4 97.9L81.9 104.2H88.2L84 112L99.6 104.2H106.6L100.8 111.2L95.8 114.9L106.6 113.9L111.3 111.2L105.1 117.9L111.3 116.2L119.4 115.7L112.9 123.1H121.8H126.7L118.8 129H126.7H137.7L131.1 132.7L126.7 135.1L130.6 140.9L133.1 143.9L132.5 148.3L107 133.5L86.5 126.1L67.9 121.7L48.9 116.9L17 121.7L0.200001 124.7L-11 132.1L-35.2 134.3L-40.8 138.7L-44 140.7L-10.5 137.7L-26.7 148.1L-7.4 140.7L2.5 137.7L-16.8 154L-0.700001 150.3L18.6 138.4L27.9 135.4L6.2 153.9H25.2L29.2 142L34.2 135.3L51.6 133.1L36.1 153.2L29.3 162.1L37.8 157.8L49.7 151.7L37.3 167.3L52.8 159.9L61.5 146.6L69.6 142.9L50 167.4L64 161.5L73.3 156.3L65.8 167.4L75.7 161.5L76.5 167.4H84.1L88.1 160.7L96.2 154.8L87.3 167.4L98 163.7L102.3 158.5L91.1 173.3H97.4L106.1 167.4L114.2 159.2L118.5 158.5L116 164.4L109.5 173.3L101.8 177L95 181.4L80.1 185.8L73.3 198.4L64 204.3L60.3 208.7L82 197.6L88.2 196.1L74.1 208.7L65.2 214.6L54 224.2L52.1 229.4L66.4 221.2L72 220.5L52.7 239L46.6 248.2L67 236H69.5L42.8 259L38.5 264.2L52.8 257.5H62.7L46.7 267.8L39.7 275.2L33.5 284.1L28.5 297.4L26 301.8L46.6 283.6L33.6 315.7L32.9 326.5L41.1 312.1L46.7 302.3L37.6 331.8L37.3 332.8L40.4 341.7L46.7 317.5L52.8 306.9L52 326.5H59.6L59.7 307.6L62.2 301.3L65.3 293.5L65.9 283.9L69 303.2L71.5 295L75.2 280.2L75.8 266.9L82.6 245.4L85.1 262.5L85.7 275.8L86.3 286.2L91.3 278L93.2 269.8V260.9V249.7L94.4 241.5V235.6L98.1 260.1L101.2 270.5L107.4 259.4L108 251.2L111.1 240.8L112.3 227.5L111.7 221.6L109.8 206L116 201.6L115.8 213.5L118.5 223.9L117.3 231.3V240.9L115.4 265.4L111.1 278.7L109.2 291.3L109.8 311.3L108.2 326.5L107.3 336.5L105.4 349.8L103.5 364.6V377.9L104.7 406.1L105.9 420.2L105.3 445.4L105.9 461L104 481L107.7 506.2L108.3 526.2L112 555.9L113.2 569.2L118.8 586.3L119.4 609.3L126 615V623.3L129.3 632.2L132.4 638.9L126 630.8L122.5 626.3L107 617.4L105.8 621.8L123.2 634.4L114.5 632.9L99 632.2L93.4 634.4L112.4 638.8H118.7C118.7 638.8 123.9 638.8 128.2 638.8C132.5 638.8 137.1 638.8 137.1 638.8H151.7H159.9H170.7H176.4H180.8L186.5 634.4L194.6 620.3L183.4 625.5L174.7 629.9L172.2 632.9L179 621.8L184 618.1L188.3 610.7L171.5 617.4L162.8 624.8L159.1 629.2L168.4 607L180.8 589.9L187.6 583.2L183.3 561.7L179.6 585.4L167.8 596.7C167.8 596.7 161.6 604.1 165.3 605.6C169 607.1 163.4 614.5 162.2 618.2C161 621.9 161 621.9 161 621.9L158.5 603.4L164.7 588.6L168.4 578.2L167.8 565.6L169 551.5L174.6 535.2L159.7 555.2L156 569.3V582.7L154.1 590.9C154.1 590.9 152.9 594.6 151.6 596.8C150.4 599 146 606.4 146 606.4L150.3 599L137.3 564.9L133 544.9L126.6 528.8V517.4L121.8 496.7V485.6V454.5L119.9 438.2L119.3 407.1V388.6L118.7 365.6L118.1 347.8L120 322.6L122.5 306.3V289.2L126.7 264.6L129.4 244.7L130 239.4L131.9 221.7L135 204.6L138.1 194.2L147.4 186.8L146.2 198.7L140 208.3L152.4 201.6L136.1 226.7L146.7 223L154.8 211.1L139.3 240.8L133.7 252.7L151.1 241.6L157.3 236.4L134.9 264.6L131.8 275.7L154.8 259.4L163.5 249.8L153.6 271.3L144.9 289.8L144.3 299.4L139.3 312.7L148.6 302.3L159.8 294.9L164.8 289L156.7 310.5L154.2 316.4L166.6 306L161.8 326.4L156.1 345.3L153 355.7L149.9 365.3L161.7 349.7C161.7 349.7 161.7 367.5 161.7 369.7C161.7 371.9 162.3 380.1 162.3 380.1L172.9 366.8L174.1 349V336.4L177.2 349.7L182.8 343L180.8 326.3L180.3 310.4V306.7L186.5 320L187.7 330.4L189.6 308.2V297.7V294.2L185.9 282.3L195.2 305.3V309.1V297.7V281V274.9L189.6 264.4L189.1 251.9L189 248.8L203.9 282.2V302.2L212 273.3L203.3 264.4L200.8 256.2L197.7 241.4L192.1 227.3L208.2 238.5L204.5 226.5L187 206L179.5 186.7L154.7 159.3L149.7 154.1L160.3 153.4L186.4 175.6L185.2 190.4L188.9 199.3L196.4 183.7L198.9 204.5L202 181.5L205.1 205.2L208.2 172V220.5L217.5 194.8L213.2 225.2L223.1 201.5L218.8 234.1L228.8 200.8C228.8 200.8 236.2 218.8 234.3 222.8C232.4 226.8 238 200.8 238 200.8L241.7 252.7L246 209.7L255.3 241.6V219.8L260.9 249L268.4 234.9V256.9L277.1 242.3L282.1 273.4L285.8 243.7L293.3 257V251.4L302 248.8L309.5 253.2L284.5 226.7L273.3 201.5L256 188.2L239.9 175.6L208.2 165.3L172.2 151.2C172.2 151.2 165.4 148.2 161 149C156.6 149.8 152.9 143.1 152.9 143.1L167.2 142.4L174 140.2L185.2 152.1L180.9 138.8L190.2 144.7V138L208.2 151.9V144.3L216.3 152.1L213.8 142.5L225 156.6L228.8 147.4L234.3 163.3V126.2L245.5 168.5L248.6 164.1L257.3 176.7L252.3 144.8L267.2 184.8L266 150.7L271 185.5L277.2 174.4L280.9 191.5L282.1 173.7L295.8 192.2L303.9 207.8L303.3 186.3L305.8 178.1L309.5 174.6L281.6 151.4L305.2 159.6L273.5 137.4L284.1 135.9L272.3 126.3L256.2 127.8L266.8 120.4L260.6 108.5L234.5 111.9L208.4 123.3L187.3 127.1L164.9 131.5L190.4 120.4L186.7 113L208.4 112.7L202.2 106.3L222.7 107.8L205 100.7H231.7L200.6 94.8H224.2L201.6 85.2L239.1 89.6L218 79.2H245.3L231.6 70.3L251.5 73.3L239.1 62.2L267.7 51.8L219.9 59.2L204.4 69.6L190.7 76.3L183.9 87.4L178.3 98.5L156 127.4L149.8 140L162.8 106.6L173.4 97.7C173.4 97.7 185.2 82.1 178.4 84.4C171.6 86.6 162.9 95.5 162.9 95.5L179 74.7L197 68L184.6 64.3L170.9 67.3L203.8 57.7L192.1 51.8L208.1 48.7L191.3 48.9L219.2 30.4L195.7 37.7L195.9 30.3L180.1 50.3L176.4 55.5L178.3 45.9L167.2 57.7L163.5 66.6L162.9 76.2L157.3 82.9L152.3 84.4L147.9 97.7L149.8 113.3L144.8 115.5L144.2 128.8V97.7L157.2 63.6L144.8 71.8L151 48.1L151.6 36.2C151.6 36.2 141 59.9 141 57.7C141 55.5 145.3 20.6 145.3 20.6L136.6 41.4L136 15.4L126.5 31.2L119.7 8L123.5 40.6L110 31C110 31 127.6 49.3 126.6 51.7C125.6 54.1 129.3 60.7 129.3 62.9C129.3 65.1 132.7 75.2 132.7 75.2L120 63.6L132.7 91L121.8 86.6L132.7 112.2V119.8L119.3 89.6L103.2 77L77.7 69.6L59.1 63.7L36.7 66.7L-14.2 122.9Z" fill="#1D1D3A"/>
<path d="M288 133.8L291.2 138.7L298.6 150.1V133.8L304.8 159.8L312 146.8V172.6L317.2 166.5L311 190.2L322.2 177.6L309.2 207.3L319.1 194.7L305.1 217.3L301.1 240.6L298.6 259.9L292.4 272.5L306.3 242.5L311 232.4L316 228L317.2 235.4L325.3 208.7V223.3L334 196.1V218L342.3 204.8L349.6 193.2L360.2 184.3L368.9 179.9L380.1 184.3L372 196.9L361 203.2H369.9L354.6 208.8L360.2 217L342.2 220L334.1 231.8L318 243L316.8 249.7L311.2 249L303.1 260.9L319.9 251.3L337.3 235.7L367.1 224.6L354.1 235.7L372.7 229L363.4 240.1L388.9 234.9L377.1 242.3L405 243L402.5 250.4L419.3 265.2L403.2 260L408.8 266.7L392.7 257.1L408.8 279.3L396 270.4V276.5L368.4 248.2L378.3 271.2L358.4 250.4L367.1 270.4L349.7 257.8L350.9 267.4L338.5 257L325.5 262.9L311.2 264.4L303.1 274L339.7 266.6L363.3 274.8L377.5 279.2L384.4 282.9L391.9 295.5L400.6 306.6H388.3L395.9 316.5V329.4L390.2 321.1L395.9 343.8L390.7 338.5L387.6 355.6L379.5 326.3L377.7 340L373.4 313.3L368.4 329.6L364.1 307.4L361.2 321.1L353.9 294.6V306.7L351.5 300.2L348 290.4L340.5 280V294.1L331.2 281.5V289.7L321.9 279.3L320 284.5L310.1 277.1L302.6 282.3L333.7 296.4C333.7 296.4 346.1 309 348 311.2C349.9 313.4 363.5 331.2 363.5 331.2L371 349.7L377.2 369L380.9 380.9L381.5 385.3L375.3 380.1L380.9 403.8L374.7 392.7L370.1 403.8L368.5 381.6L365 403.8L361 369.7L359.1 387.5L358.5 363L353.8 377.9V365.7L346.7 375.6L349.8 345.2L343.6 362.3V347.5L340.5 357.1L344.8 334.9L335.5 353.4V337.7L335.1 326.2L329.9 335.5L330.4 330.4L331.3 321L326.8 311L323.7 321L321.8 312.5L317.3 321L314.3 302.1L311.2 313.2L301.9 295.4L296.3 286.5L324.9 337.7L317.4 341.4L329.8 354.7L319.2 349.5L321.7 369.5L309.3 353.2L316.1 382.1L304.3 362.8L307.4 391L305 403.7L301.6 383.7L297.3 403.7L291 411.9L296.6 390.4L285.3 399.3L292.3 379.3L279.9 385.2L294.2 370.4V361.5L285.5 372.6L296.7 351.1L285.5 365.2L297.9 339.2L285.5 349.6L288.5 342.1L294.8 326.3L283.6 340.7L293.5 316.2L284.2 329.5L294.8 305L279.9 320.9L289.2 294.6L279.9 305.7L291.1 284.2L275 307.9L265.7 326.1L255.7 350.2L245.1 368.7C245.1 368.7 247.6 379.3 245.1 381.4C242.6 383.5 224 437.6 224 437.6L212.8 472.7L207.2 503.8L199.7 524.6L196 552L192.9 568.6L216.5 539.4L192.9 591.3L213.4 586.8L192.9 612.5L227.7 602.4L190.4 628.4L210.3 621L192.9 636.6L207.2 630.7L197.3 640.3H152.8L154.5 618.1L147.7 581L161.4 604L172.6 608.4L181.3 563.2L196 509.7L207.2 462.2L219 421.4L226.5 392.5L233.3 368.8L236.3 360.5L241.9 345.1L252.2 326.2L255.9 318L258 313.3L268.6 299.8L261.1 302.1L246 321L235.8 336.9L231.5 342.8L229.6 359.1L227.7 342.8L219.6 367.3V350.2L217.1 373.2L212.8 355.4L209.7 377.6L206.6 362.8L198.4 386.9L198.5 368L187.4 373.9L201 353.2L199.8 348L211.6 343.6L206 334.7L218.1 326.2L213 321L228.9 308.8L220.8 308.1L235.1 299.2L249.4 288.1L238.2 288.8L233.2 284.4L227.6 297.7L227 282.1L212.1 305.8L212.7 291L201.5 314L200.3 300.7L190.1 326.3L192.9 309L180.6 321.2L187.4 300.7V290.7L199.8 288.9L205.3 288.1L202.2 279.9L213.4 273.2L207.2 270.2L225.8 269.5L246.3 271.7L261.8 273.2L225.2 260.6L213.4 266.5L199.1 277.7L205.3 256.2L190.4 268.1L192.9 250.7L176.8 259.3L187.4 243.2L166.8 251.5L181.7 235.6H202.8C202.8 235.6 223.7 237.2 227.5 237.1C231.3 237 268.6 244.7 268.6 244.7V259.7V268L272.3 240.6L253.8 235.1L248.7 217.6L238.2 211.9L232.5 199.1L249.9 197.6L268.5 207.4L283.1 230.9V249.8L279.1 212.4L268.5 197.6L276.6 199.8L265.4 189.4H274.1L263.7 178.9L273.5 179L253.6 138.2L274.7 169.3L288.4 188.6L289 222L288.4 256.8L297.7 205.6L289.6 182.6L297.7 186.3L288.4 162.6L295.2 168.5L286.5 150.7L298.9 159.6L288 133.8Z" fill="#1D1D3A"/>
<path d="M241.3 632.5L327.3 638.3L367 658.3L418 676.3L489 686.3L556 706.3H624L664 716.3L716 704.3L757 695.3L813 668.3L876 665.3L928 642.3L964.7 631L997.1 631.2L1089.8 631L1164.9 631.2L1170 808.3L79 801.3V631L163.2 631.3" fill="#1D1D3A"/>
<path d="M1257.4 127.9L1244.4 123.5L1236.9 116.8L1227.6 110.9L1224.2 119.4L1218.5 110.9L1210.2 99.8L1200.9 90.2L1215.2 113.9L1208.8 116L1200.9 109.1L1196.6 96.1V109.1L1189.1 102.1L1178.5 96.2L1189.3 109.2L1189 114L1178.4 104.5L1170.9 97.7L1165.3 94L1177.1 109.2L1176.5 115.5L1168.4 105.9L1161.6 104.4L1155.6 96L1151.3 95.3L1155 102.7L1161.5 109H1155.2L1159.4 116.8L1143.8 109H1136.8L1142.6 116L1147.6 119.7L1136.8 118.7L1132.1 116L1138.3 122.7L1132.1 121L1124 120.5L1130.5 127.9H1121.6H1116.7L1124.6 133.8H1116.7H1105.7L1112.3 137.5L1116.7 139.9L1112.8 145.7L1110.3 148.7L1110.9 153.1L1136.4 138.3L1156.9 130.9L1175.5 126.5L1194.5 121.7L1226.4 126.5L1243.2 129.5L1254.4 136.9L1278.6 139.1L1284.2 143.5L1287.3 145.7L1253.8 142.7L1270 153.1L1250.7 145.7L1240.8 142.7L1260.1 159L1244 155.3L1224.7 143.4L1215.4 140.4L1237.1 158.9H1218.1L1214.1 147L1209.1 140.3L1191.7 138.1L1207.2 158.2L1214 167.1L1205.5 162.8L1193.6 156.7L1206 172.3L1190.5 164.9L1181.8 151.6L1173.7 147.9L1193.3 172.4L1179.3 166.5L1170 161.3L1177.5 172.4L1167.6 166.5L1166.8 172.4H1159.2L1155.2 165.7L1147.1 159.8L1156 172.4L1145.3 168.7L1141 163.5L1152.2 178.3H1145.9L1137.2 172.4L1129.1 164.2L1124.8 163.5L1127.3 169.4L1133.8 178.3L1141.5 182L1148.3 186.4L1163.2 190.8L1170 203.4L1179.3 209.3L1183 213.7L1161.3 202.6L1155.1 201.1L1169.2 213.7L1178.1 219.6L1189.3 229.2L1191.2 234.4L1176.9 226.2L1171.3 225.5L1190.6 244L1196.7 253.2L1176.3 241H1173.8L1200.5 264L1204.8 269.2L1190.5 262.5H1180.6L1196.6 272.8L1203.6 280.2L1209.8 289.1L1214.8 302.4L1217.3 306.8L1196.7 288.6L1209.9 320.2L1210.6 331L1202.4 316.6L1196.8 306.8L1205.9 336.3L1206.2 337.3L1203.1 346.2L1196.8 322L1190.7 311.4L1191.6 331H1184L1183.9 312.1L1181.4 305.8L1178.3 298L1177.7 288.4L1174.6 307.7L1172.1 299.5L1168.4 284.7L1167.8 271.4L1161 249.9L1158.5 267L1157.9 280.3L1157.3 290.7L1152.3 282.5L1150.4 274.3V265.4V254.3L1149.2 246.1V240.2L1145.5 264.7L1142.4 275.1L1136.2 264L1135.6 255.8L1132.5 245.4L1131.3 232.1L1131.9 226.2L1133.8 210.6L1127.6 206.2L1127.8 218.1L1125.1 228.5L1126.3 235.9V245.5L1128.2 270L1132.5 283.3L1134.4 295.9L1133.8 315.9L1135.4 331.1L1136.3 341.1L1138.2 354.4L1140.1 369.2V383L1138.9 411.2L1137.7 425.3L1138.3 450.5L1137.7 466.1L1139.6 486.1L1135.9 511.3L1135.3 531.3L1131.6 561L1130.4 574.3L1124.8 591.4L1124.2 614.4L1117.6 620.1V628.4L1114.3 637.3L1111.2 644L1117.6 635.9L1121.1 631.4L1136.6 622.5L1137.8 626.9L1120.4 639.5L1129.1 638L1144.6 637.3L1150.2 639.5L1131.2 643.9H1124.9C1124.9 643.9 1119.7 643.9 1115.4 643.9C1111.1 643.9 1106.5 643.9 1106.5 643.9H1091.9H1083.7H1072.9H1067.2H1062.8L1057.1 639.5L1049 625.4L1060.2 630.6L1068.9 635L1071.4 638L1064.6 626.9L1059.6 623.2L1055.3 615.8L1072.1 622.5L1080.8 629.9L1084.5 634.3L1075.2 612.1L1062.8 595L1056 588.3L1060.3 566.8L1064 590.5L1076.4 601.6C1076.4 601.6 1082.6 609 1078.9 610.5C1075.2 612 1080.8 619.4 1082 623.1C1083.2 626.8 1083.2 626.8 1083.2 626.8L1085.7 608.3L1079.5 593.5L1075.8 583.1L1076.4 570.5L1075.2 556.4L1069.6 540.1L1084.5 560.1L1088.2 574.2V587.5L1090.1 595.7C1090.1 595.7 1091.3 599.4 1092.6 601.6C1093.9 603.8 1098.2 611.2 1098.2 611.2L1093.9 603.8L1106.9 569.7L1111.2 549.7L1117.6 533.6V522.2L1122.4 501.5V490.4V459.3L1124.3 443L1124.9 411.9V393.4L1125.5 370.4L1126.1 352.6L1124.2 327.4L1121.7 311.1V294L1117.5 269.4L1114.8 249.5L1114.2 244.2L1112.3 226.5L1109.2 209.4L1106.1 199L1096.8 191.6L1098 203.5L1104.2 213.1L1091.8 206.4L1107.9 231.6L1096.6 228L1088.5 216.1L1104 245.8L1109.6 257.7L1092.2 246.6L1086 241.4L1108.4 269.6L1111.5 280.7L1088.5 264.4L1079.8 254.8L1089.7 276.3L1098.4 294.8L1099 304.4L1104 317.7L1094.7 307.3L1083.5 299.9L1078.5 294L1086.6 315.5L1089.1 321.4L1076.7 311L1081.5 331.4L1087.2 350.3L1090.3 360.7L1093.4 370.3L1081.6 354.7C1081.6 354.7 1081.6 372.5 1081.6 374.7C1081.6 376.9 1081 385.1 1081 385.1L1070.4 371.8L1069.2 354V341.4L1066.1 354.7L1060.5 348L1062.5 331.3L1063 315.4V311.7L1056.8 325L1055.6 335.4L1053.7 313.2V302.7V299.2L1057.4 287.3L1048.1 310.3V314.1V302.7V286V280L1053.7 269.5L1054.2 257L1054.3 253.9L1039.4 287.3V307.3L1031.3 278.4L1040 269.5L1042.5 261.3L1045.6 246.5L1051.2 232.4L1035.1 243.6L1038.8 231.6L1056.2 210.8L1063.7 191.5L1088.5 164.1L1093.5 158.9L1082.9 158.2L1056.8 180.4L1058 195.2L1054.3 204.1L1046.8 188.5L1044.3 209.3L1041.2 186.3L1038.1 210L1035 176.8V225.3L1025.7 199.6L1030 230L1020.1 206.3L1024.4 238.9L1014.4 205.6C1014.4 205.6 1007 223.6 1008.9 227.6C1010.8 231.6 1005.2 205.6 1005.2 205.6L1001.5 257.5L997.2 214.5L987.9 246.4V224.6L982.3 253.8L974.8 239.7V261.7L966.1 247.1L961.1 278.2L957.4 248.5L949.9 261.8V256.2L941.2 253.6L933.7 258L958.5 231.3L969.7 206.1L987.1 192.8L1003.2 180.2L1034.9 169.9L1070.9 155.8C1070.9 155.8 1077.7 152.8 1082.1 153.6C1086.5 154.4 1090.2 147.7 1090.2 147.7L1075.9 147L1069.1 144.8L1057.9 156.7L1062.2 143.4L1052.9 149.3V142.6L1034.9 156.5V149L1026.8 156.8L1029.3 147.2L1018.1 161.3L1014.3 152.1L1008.8 168V130.9L997.6 173.2L994.5 168.8L985.8 181.4L990.8 149.5L975.9 189.5L977.1 155.4L972.1 190.2L965.9 179.1L962.2 196.2L961 178.4L947.3 196.9L939.2 212.5L939.8 191L937.3 182.8L933.6 179.3L961.5 156.1L937.9 164.3L969.6 142.1L959 140.6L970.8 131L986.9 132.5L976.3 125.1L982.5 113.2L1008.6 116.6L1034.7 128L1055.8 131.8L1078.2 136.2L1052.7 125.1L1056.4 117.7L1034.7 117.4L1040.9 111L1020.4 112.5L1037.8 105.8H1011.1L1042.2 99.9H1018.6L1041.2 90.3L1003.7 94.7L1024.8 84.3H997.5L1011.2 75.4L991.3 78.4L1003.7 67.3L975.1 56.9L1022.9 64.3L1038.4 74.7L1052.1 81.4L1058.9 92.5L1064.5 103.6L1086.9 132.5L1093.1 145.1L1080.1 111.7L1069.5 102.8C1069.5 102.8 1057.7 87.2 1064.5 89.5C1071.3 91.7 1080 100.6 1080 100.6L1063.9 79.8L1045.9 73.1L1058.3 69.4L1072 72.4L1039.1 62.8L1050.8 56.9L1034.8 53.8L1051.6 54L1023.7 35.5L1047.3 42.9L1047.1 35.5L1062.9 55.5L1066.6 60.7L1064.7 51.1L1075.9 63L1079.6 71.9L1080.2 81.5L1085.8 88.2L1090.8 89.7L1095.1 103L1093.2 118.6L1098.2 120.8L1098.8 134.1V102.7L1085.8 68.6L1098.2 76.8L1092 53.1L1091.4 41.2C1091.4 41.2 1102 64.9 1102 62.7C1102 60.5 1097.7 25.6 1097.7 25.6L1106.4 46.4L1107 20.4L1116.5 36.2L1123.3 13L1119.5 45.6L1133.2 36C1133.2 36 1115.6 54.3 1116.6 56.7C1117.6 59.1 1113.9 65.7 1113.9 67.9C1113.9 70.1 1110.5 80.2 1110.5 80.2L1123.2 68.7L1110.5 96L1121.4 91.6L1110.5 117.2V124.8L1123.9 94.6L1140 82L1165.5 74.6L1184.1 68.7L1206.5 71.7L1257.4 127.9Z" fill="#1D1D3A"/>
<path d="M928.3 289.3L924.5 292.7L915.6 300.7V289.3L908.1 307.5L899.4 298.4V316.5L893.1 312.2L900.6 328.8L887.1 320L902.8 340.8L890.8 332L907.7 347.9L912.6 364.3L915.6 377.8L923.1 386.6L906.3 365.6L900.6 358.5L894.6 355.4L893.1 360.6L883.4 341.9V352L872.9 333V348.4L862.9 339.1L854.1 330.9L841.4 324.7L830.9 321.6L817.4 324.7L827.1 333.5L840.4 337.9H829.7L848.1 341.8L841.4 347.5L863.1 349.6L872.8 357.9L892.3 365.7L893.8 370.4L900.5 369.9L910.2 378.2L890 371.4L869 360.5L833 352.7L848.7 360.5L826.2 355.8L837.4 363.6L806.7 360L820.9 365.2L787.2 365.7L790.2 370.9L770 381.3L789.5 377.7L782.8 382.4L802.3 375.6L782.8 391.2L798.3 385V389.2L831.5 369.4L819.5 385.5L843.5 370.9L833 384.9L854 376.1L852.5 382.9L867.5 375.6L883.2 379.8L900.4 380.8L910.1 387.6L865.9 382.4L837.6 388L820.5 391.1L812.1 393.7L803.1 402.5L792.6 410.3H807.4L798.3 417.2V426.2L805.1 420.4L798.3 436.3L804.6 432.6L808.3 444.6L818.1 424.1L820.3 433.7L825.5 415L831.5 426.4L836.7 410.8L840.2 420.4L849 401.8V410.3L851.8 405.7L856.1 398.8L865.1 391.5V401.4L876.3 392.6V398.3L887.5 391L889.7 394.6L901.7 389.4L910.7 393L873.2 402.9C873.2 402.9 858.2 411.7 856 413.3C853.8 414.9 837.3 427.3 837.3 427.3L828.3 440.3L820.8 453.8L816.3 462.1L815.6 465.2L823.1 461.6L816.4 478.2L823.9 470.4L829.5 478.2L831.4 462.6L835.6 478.2L840.4 454.3L842.6 466.8L843.3 449.7L848.9 460.1V451.6L857.5 458.5L853.8 437.2L861.3 449.2V439L865 445.8L859.8 430.2L871 443.2V432.3L871.4 424.2L877.7 430.7L877.1 427.1L876 420.5L881.5 413.5L885.2 420.5L887.5 414.5L892.9 420.5L896.5 407.2L900.2 415L911.4 402.5L918.1 396.3L883.6 432.2L892.6 434.8L877.6 444.2L890.3 440.6L887.3 454.6L902.3 443.2L894.1 463.5L908.3 450L904.6 469.7L907.3 478.5L911.3 464.5L916.4 478.5L924 484.2L917.3 469.1L931 475.3L922.6 461.3L937.6 465.5L920.4 455.1V448.9L930.9 456.7L917.4 441.6L930.9 451.5L915.9 433.3L930.9 440.6L927.3 435.3L919.6 424.2L933.1 434.3L921.1 417.2L932.3 426.6L919.6 409.5L937.6 420.7L926.4 402.3L937.6 410.1L924.1 395L943.6 411.6L954.8 424.3L966.8 441.2L979.5 454.2C979.5 454.2 976.5 461.6 979.5 463.1C982.5 464.6 1005 502.5 1005 502.5L1018.5 526.9L1025.2 548.7L1034.2 563.3L1038.7 582.5L1042.4 594.1L1013.9 573.6L1042.4 610L1017.7 606.9L1042.4 624.9L1000.4 617.8L1045.3 636L1021.3 630.8L1042.3 641.7L1025.1 637.5L1037.1 644.3H1090.8L1088.8 628.7L1097 602.7L1080.5 618.8L1067 621.9L1056.5 590.2L1038.5 552.8L1025 519.5L1010.8 490.9L1001.8 470.6L993.6 454L989.9 448.2L983.1 437.4L970.6 424.1L966.2 418.3L963.6 415L950.9 405.6L959.9 407.2L978.3 420.5L990.6 431.7L995.8 435.9L998 447.3L1000.2 435.9L1009.9 453V441L1012.9 457.1L1018.1 444.6L1021.8 460.2L1025.5 449.8L1035.4 466.7L1035.3 453.4L1048.7 457.5L1032.3 443L1033.8 439.4L1019.6 436.3L1026.3 430.1L1011.7 424.1L1017.8 420.5L998.6 411.9L1008.3 411.4L991.1 405.2L973.9 397.4L987.4 397.9L993.4 394.8L1000.1 404.2L1000.8 393.3L1018.8 409.9L1018.1 399.5L1031.6 415.6L1033.1 406.2L1045.4 424.1L1042.1 411.9L1056.9 420.4L1048.7 406V399.1L1034.6 398L1027.9 397.4L1031.6 391.7L1018.1 387L1025.6 384.9L1003.1 384.4L978.4 386L959.7 387L1003.9 378.2L1018.1 382.4L1035.3 390.2L1027.8 375.1L1045.8 383.4L1042.8 371.2L1062.3 377.2L1049.5 365.9L1074.3 371.7L1056.3 360.5H1030.8C1030.8 360.5 1005.6 361.6 1001 361.6C996.4 361.6 951.4 366.9 951.4 366.9V377.5V383.3L946.9 364.1L969.2 360.2L975.3 347.9L987.9 343.9L994.8 334.9L973.8 333.9L951.3 340.8L933.7 357.3V370.6L938.6 344.4L951.3 334L941.6 335.6L955.1 328.3H944.6L957.1 320.9L945.3 321L969.3 292.4L943.8 314.2L927.3 327.7L926.6 351.1L927.3 375.5L916.1 339.6L925.8 323.5L916.1 326.1L927.3 309.5L919.1 313.7L929.6 301.2L914.6 307.4L928.3 289.3Z" fill="#1D1D3A"/>
</g>
<defs>
<linearGradient id="paint0_linear" x1="621.499" y1="710.969" x2="621.499" y2="559" gradientUnits="userSpaceOnUse">
<stop offset="0.1034" stop-color="#57ECED"/>
<stop offset="0.3045" stop-color="#39E2AC"/>
<stop offset="0.4296" stop-color="#52D69A"/>
<stop offset="0.519" stop-color="#78D29E"/>
<stop offset="0.8989" stop-color="#8DB774"/>
<stop offset="1" stop-color="#F9A53B"/>
</linearGradient>
<clipPath id="clip0">
<rect width="1246.6" height="808.3" fill="white"/>
</clipPath>
</defs>
</svg>
