<svg width="1967" height="2090" viewBox="0 0 1967 2090" fill="none" xmlns="http://www.w3.org/2000/svg">
<g id="corals">
<path id="Vector" d="M40 2077.91L67.4835 2070.71H80.5839H101.38L113.289 2059.64H127.031C127.031 2059.64 126.39 2058.47 133.169 2059.64C139.857 2060.81 139.857 2060.81 139.857 2060.81C139.857 2060.81 144.162 2056.4 153.873 2059.1C163.584 2061.8 163.676 2061.71 163.676 2061.71L184.746 2063.51L208.84 2058.2H216.169H229.636H251.623L267.472 2068.01L300.452 2058.2H306.59H332.241H347.815H382.353L402.782 2049.11L413.775 2039.21L433.93 2049.11L443.366 2039.21V2029.58L452.252 2006.81H465.353L449.504 1993.31H460.497L465.353 1985.21L453.168 1975.31L448.588 1964.51H456.833L475.155 1982.51V1996.01L474.239 1969.46L469.017 1964.51L457.749 1953.71L461.413 1941.11L487.065 1967.21L496.226 1996.01L501.997 2009.51V1968.38L496.226 1951.91L510.884 1937.51L548.444 1928.51L520.961 1943.81L507.219 1951.91V1960.01C507.219 1960.01 509.967 1962.71 510.884 1967.21C511.8 1971.71 511.8 1971.71 511.8 1971.71L510.884 1979.81L521.785 1962.98L523.709 1953.71L533.786 1952.81L519.129 1980.71L513.632 1987.01L512.716 1993.31L511.525 2003.21L521.877 1998.71L528.29 2012.21L534.703 1997.81L542.948 2022.11V2029.31L548.444 2031.83L561.27 2033.81L573.363 2019.95L584.173 2008.61L573.363 2003.21L564.018 1997.81L562.186 2010.41L558.522 2011.31L558.338 2003.21L553.941 1998.71L553.025 1987.91H558.522L573.363 1991.42V1996.01L569.515 1984.31L573.363 1974.86L577.76 1985.21L584.173 1984.94V1990.43V1999.61L594.25 1997.72L589.67 1982.42L580.508 1975.22L589.67 1969.82L594.25 1975.67C594.25 1975.67 584.173 1975.4 594.25 1980.26C604.327 1985.12 600.663 1995.02 600.663 1995.02L601.304 2003.12H605.06H612.572V1991.33V1983.05V1972.97L618.985 1970.72V1980.26V1985.75L625.398 1980.53L633.643 1979.63V1988.45V1993.04L644.636 1989.53L639.14 1976.93L627.23 1969.73L629.979 1961.63V1951.73L644.636 1970.09C646.469 1976.03 646.469 1976.03 646.469 1976.03V1983.86C646.469 1983.86 651.049 1985.93 651.049 1988.63C651.049 1991.33 651.049 1996.73 651.049 1996.73L637.857 2003.03C637.857 2003.03 637.308 1998.53 633.185 2003.03C629.063 2007.53 620.817 2007.53 617.153 2009.33C613.489 2011.13 603.411 2010.23 603.411 2010.23V2013.83L609.824 2019.23H618.069L614.405 2024.63L609.824 2027.33L621.734 2029.13L630.895 2025.53L640.056 2021.93L642.804 2012.93L651.049 2008.7L670.288 1985.93L662.959 1981.43L662.043 1967.93L651.049 1959.83L655.63 1948.13L670.288 1971.89C673.952 1981.43 674.868 1989.53 674.868 1989.53V1994.03L682.197 2006.63L700.52 1995.83L694.107 1985.93L681.281 1978.73L686.778 1970.63L700.52 1963.7L706.932 1977.83L712.429 1978.73V1969.19L705.1 1956.23L704.184 1949.93L691.358 1940.93C691.358 1940.93 708.765 1934.72 712.429 1934.27C716.094 1933.82 703.268 1921.13 703.268 1921.13H713.07L727.087 1947.23V1953.53L740.829 1943.63L748.158 1939.13L733.5 1928.33V1914.83V1908.53C733.5 1908.53 733.5 1897.73 730.751 1896.83C728.003 1895.93 728.003 1895.93 728.003 1895.93L725.255 1890.53L720.674 1879.73L721.59 1874.33C726.171 1876.13 735.332 1881.53 735.332 1881.53L736.248 1892.33C740.829 1898.63 749.074 1901.15 748.158 1904.84C747.241 1908.53 747.241 1908.53 747.241 1908.53L751.822 1893.23L744.493 1886.93L739.821 1874.33H751.822H755.761V1862.54C755.761 1862.54 732.4 1873.25 760.434 1862.54C776.74 1856.33 775.549 1855.25 771.702 1855.43C768.862 1855.52 764.739 1856.33 764.739 1856.33L779.397 1845.53H792.314L772.068 1867.13L769.32 1877.03C769.32 1877.03 779.397 1882.43 780.313 1886.03C781.229 1889.63 772.068 1898.63 772.068 1898.63L765.655 1892.33L763.823 1886.03L759.243 1898.63L765.655 1906.73L760.159 1916.63L776.649 1915.73L785.81 1908.53V1904.03L786.726 1893.23L792.314 1889.18V1877.21V1868.93V1862.54L798.636 1877.03V1887.38L808.713 1891.43L816.958 1888.73C819.706 1893.23 816.958 1895.66 816.958 1895.66L827.951 1895.93C827.951 1895.93 816.042 1904.93 818.79 1907.63C821.538 1910.33 821.538 1906.73 821.538 1910.33C821.538 1913.93 821.538 1922.03 821.538 1922.03V1930.13L824.287 1935.53C831.616 1940.03 827.951 1946.24 827.951 1946.24L822.455 1953.53L815.675 1961.63C821.538 1964.33 821.538 1964.33 821.538 1964.33L823.371 1970.63L836.288 1961.63V1953.53V1944.35V1937.96V1928.78L830.7 1923.02L829.783 1909.52H836.288L842.609 1905.92V1897.55L837.112 1891.52L827.951 1885.22L823.371 1883.42L813.293 1875.32L815.126 1864.52L820.622 1872.62L827.035 1866.32L828.867 1878.02L842.609 1879.19C841.693 1884.32 837.112 1869.02 837.112 1869.02L834.364 1860.92L827.951 1855.52L838.029 1850.12L842.609 1845.62H847.465C847.465 1845.62 860.931 1851.92 858.183 1854.62C855.435 1857.32 855.435 1857.32 855.435 1857.32L858.55 1863.53L868.26 1860.92C868.26 1860.92 871.009 1852.82 873.757 1861.82C876.505 1870.82 873.757 1877.39 873.757 1877.39L884.75 1882.52L894.828 1892.42C888.415 1898.72 882.918 1899.62 882.918 1899.62L884.75 1905.92L900.324 1905.02L893.912 1920.32C892.079 1924.82 890.247 1941.92 890.247 1941.92L881.086 1941.02L872.841 1943.72V1950.92L860.931 1951.82L851.77 1953.62L862.489 1961.72C871.925 1961.72 879.345 1961.72 879.345 1961.72L896.66 1943.72L900.874 1934.36L907.653 1943.72L903.989 1946.42L912.234 1945.34L922.311 1944.62L915.898 1956.32C915.898 1956.32 907.928 1959.92 905.546 1961.72C903.073 1963.52 899.408 1968.02 899.408 1968.02L894.828 1973.42L905.821 1977.02L892.995 1983.32L879.254 1986.02L889.331 1988.72H908.569L922.311 1996.82L928.724 1997.72L934.221 1990.52V1983.95C934.221 1983.95 922.311 1979.72 919.563 1979.72C916.815 1979.72 913.15 1982.42 913.15 1978.82C913.15 1975.22 914.066 1968.92 914.066 1968.92L923.227 1965.32L934.221 1975.67C939.717 1986.02 939.717 1974.77 939.717 1974.77V1967.39V1961.72L931.472 1951.82L926.892 1949.12V1943.72L920.479 1939.22C920.479 1939.22 911.318 1926.62 909.486 1923.92C907.653 1921.22 905.821 1916.72 905.821 1916.72L903.989 1899.62L904.905 1894.22L913.15 1881.62L917.731 1871.72L925.976 1864.52V1857.32L928.724 1850.12L929.64 1841.12V1834.82C929.64 1834.82 927.075 1838.42 924.235 1834.82C921.395 1831.22 917.639 1832.12 917.731 1834.82C917.822 1837.52 905.913 1839.32 905.913 1839.32L896.202 1832.48L892.171 1827.62L890.339 1818.62L895.835 1815.02H902.798H911.226H923.411H928.083L939.809 1829.51L941.183 1837.79V1815.11V1796.57L926.8 1779.11H910.127L896.568 1775.51H874.582L875.498 1762.91L879.162 1756.61L886.491 1749.41H895.103L908.478 1756.61C915.807 1761.11 915.807 1761.11 915.807 1761.11L922.22 1766.51L926.8 1770.11L933.213 1775.51L941 1783.7C941 1783.7 933.213 1784.06 941 1790.09C948.787 1796.21 948.787 1796.21 948.787 1796.21L955.2 1791.71V1787.39L965.277 1781.81C965.277 1781.81 966.193 1780.91 969.858 1780.91C973.522 1780.91 979.935 1779.11 979.935 1779.11C979.935 1779.11 983.599 1778.21 988.18 1778.21C992.761 1778.21 992.761 1778.21 992.761 1778.21L1001.92 1782.71V1787.39L992.761 1792.88L984.515 1792.61L973.522 1797.11L962.529 1802.51H956.116L954.284 1809.71L950.619 1818.71L948.787 1823.21C948.787 1823.21 948.787 1824.11 948.787 1826.81C948.787 1829.51 948.787 1824.11 948.787 1829.51C948.787 1834.91 946.039 1840.31 946.039 1840.31L941 1846.16L936.877 1851.11L934.129 1856.51L933.213 1862.81L949.703 1856.51L968.025 1853.81L975.354 1852.01L989.096 1857.41L992.761 1862.72C992.761 1862.72 989.096 1864.7 992.761 1868.21C996.425 1871.81 992.761 1877.39 992.761 1877.39L983.599 1878.92L974.438 1874.42L955.2 1866.32H951.535L941 1871.81L936.877 1871.72C936.877 1871.72 935.045 1871.72 932.297 1873.52C929.549 1875.32 919.471 1881.62 919.471 1881.62H933.213L941 1877.39L948.787 1877.12L953.368 1883.42C956.116 1890.62 960.696 1890.62 957.032 1893.32C953.368 1896.02 953.368 1896.02 953.368 1896.02L941 1897.55L928.632 1897.01H917.639L914.891 1904.21V1909.61L920.387 1924.91V1929.41L927.716 1923.11L929.732 1913.66L941 1907.81L949.703 1902.41L968.942 1904.21L972.606 1906.91L972.789 1913.66H962.529L959.78 1917.71C949.703 1919.51 941 1922.48 941 1922.48L935.961 1926.71L933.213 1932.11L934.129 1940.21C934.129 1940.21 939.626 1942.64 941 1945.43C942.374 1948.31 946.039 1956.41 946.039 1956.41L946.955 1961.81L955.2 1960.91L959.78 1956.41L972.606 1951.91H980.851L985.432 1953.71L992.761 1958.3V1962.89V1969.28L980.851 1972.52L964.361 1971.62L953.368 1975.22L946.039 1985.12L947.871 1991.42C947.871 1991.42 958.864 1995.02 964.361 1995.02C969.858 1995.02 974.438 1996.82 974.438 1996.82L992.761 1998.71L1001.92 1997.81L1010.17 1996.91L1014.75 1992.41V1984.94L1005.59 1976.21V1967.21L1018.41 1961.81V1956.5V1948.22V1942.73L1022.08 1933.01L1020.34 1930.58L1017.5 1926.71C1017.5 1926.71 1021.53 1914.11 1017.68 1913.66C1013.83 1913.21 1026.66 1916.81 1013.83 1913.21C1001.01 1909.61 1007.42 1906.01 1007.42 1906.01L1013.83 1903.31C1013.83 1903.31 1025.74 1883.24 1022.08 1903.22C1018.41 1923.2 1026.66 1933.91 1026.66 1933.91L1033.99 1924.01V1909.61V1898.54L1028.49 1886.21L1027.85 1880.54L1026.66 1870.01L1029.41 1854.71L1039.48 1897.91L1040.4 1907.81C1040.4 1907.81 1040.4 1906.91 1040.4 1917.71C1040.4 1928.51 1040.4 1934.45 1040.4 1934.45L1035.82 1942.91L1031.24 1947.41L1040.4 1949.12L1051.39 1950.11C1051.39 1950.11 1044.06 1952.45 1051.39 1944.53C1058.72 1936.61 1060.55 1919.51 1060.55 1919.51V1913.66L1046.81 1877.21L1060.55 1873.79L1065.13 1856.51V1876.49V1882.88L1055.97 1885.22L1057.8 1889.72C1057.8 1889.72 1064.22 1892.78 1065.13 1896.65C1066.05 1900.52 1068.8 1905.92 1068.8 1905.92L1082.54 1899.62L1087.12 1889.72V1878.29L1092.62 1870.82L1097.2 1868.12V1873.7V1881.98V1886.57L1090.78 1899.62L1086.2 1905.02L1083.46 1909.52L1076.68 1913.57L1067.88 1923.02V1928.42L1066.05 1934.72L1064.22 1941.02L1059.64 1948.22L1063.3 1953.62C1067.88 1959.02 1076.13 1945.52 1076.13 1945.52L1077.96 1934.72L1083.46 1925.72L1084.37 1921.22L1091.7 1918.52L1097.2 1913.57L1106.63 1910.42L1118.73 1913.57L1100.86 1924.91L1093.53 1928.51L1088.04 1940.21L1083.46 1945.61L1080.71 1952.81L1078.88 1956.41L1084.37 1965.41L1088.95 1967.21L1097.2 1962.71L1101.78 1955.51L1106.63 1948.22L1111.86 1939.31L1119.18 1933.91L1124.68 1924.01V1913.66V1906.82L1116.44 1902.41L1111.86 1897.01C1111.86 1897.01 1113.69 1892.51 1116.44 1888.91C1119.18 1885.31 1119.18 1880.81 1119.18 1880.81L1115.52 1870.91C1118.27 1884.41 1123.77 1887.29 1124.68 1892.15C1125.6 1897.01 1125.6 1897.01 1125.6 1897.01V1901.33L1132.01 1907.81L1139.34 1920.41C1136.59 1928.51 1131.09 1933.01 1131.09 1933.01L1124.68 1940.21L1115.52 1948.31L1112.77 1952.81L1106.63 1959.2V1963.79V1973.87L1120.1 1982.42C1120.1 1982.42 1126.51 1982.42 1130.18 1982.42C1133.84 1982.42 1139.34 1981.25 1139.34 1981.25L1152.16 1970.72V1982.15L1164.07 1985.12L1172.32 1977.02V1961.9V1955.51L1177.82 1948.22C1177.82 1948.22 1177.82 1943.72 1171.4 1943.72C1164.99 1943.72 1154.91 1942.82 1154.91 1942.82L1153.08 1934.72L1163.16 1928.42L1173.24 1932.02C1173.24 1932.02 1175.07 1929.41 1177.82 1934.36C1180.56 1939.31 1180.56 1939.22 1180.56 1939.22V1928.78V1922.39L1169.3 1913.57C1169.3 1913.57 1165.91 1909.52 1170.49 1909.52C1175.07 1909.52 1180.56 1909.52 1180.56 1909.52C1180.56 1909.52 1186.24 1906.82 1188.9 1913.57C1191.56 1920.32 1191.56 1920.32 1191.56 1920.32L1197.97 1908.62L1190.64 1899.62H1177.82L1176.9 1895.12L1188.81 1892.42L1181.48 1881.62L1168.65 1888.82L1163.16 1896.92L1152.16 1894.22L1148.5 1882.52L1157.66 1878.02L1165.91 1877.12L1173.24 1876.22L1178.73 1875.32L1177.82 1862.72L1168.65 1857.32C1168.65 1857.32 1166.82 1856.42 1161.33 1856.42C1155.83 1856.42 1155.83 1856.42 1155.83 1856.42C1155.83 1856.42 1147.58 1856.42 1147.58 1852.82C1147.58 1849.22 1147.58 1845.62 1147.58 1845.62L1152.16 1839.32H1156.75H1164.99L1169.57 1841.12L1175.07 1846.52L1179.65 1851.92L1189.73 1846.52L1197.97 1838.78L1205.3 1836.62L1218.13 1835.72L1229.12 1845.62L1221.79 1851.02C1221.79 1851.02 1219.04 1851.02 1215.38 1851.02C1211.71 1851.02 1211.71 1851.02 1211.71 1851.02H1200.72L1194.31 1853.72L1189.73 1855.52L1186.06 1860.02C1186.06 1867.22 1186.98 1871.72 1186.98 1871.72V1877.12L1196.14 1869.92L1208.05 1860.92L1216.29 1861.82L1215.38 1875.32L1203.47 1876.22C1203.47 1876.22 1198.89 1872.62 1198.89 1877.12C1198.89 1881.62 1198.89 1881.62 1198.89 1881.62L1197.05 1886.12L1200.72 1898.72L1229.12 1893.86L1235.53 1897.82V1906.73C1235.53 1906.73 1235.62 1916.72 1230.03 1913.57C1224.54 1910.42 1224.54 1910.42 1224.54 1910.42L1214.46 1905.92C1214.46 1905.92 1212.63 1904.12 1209.88 1905.92C1207.13 1907.72 1205.21 1910.42 1204.84 1913.57C1204.38 1916.72 1204.38 1916.72 1204.38 1916.72C1204.38 1916.72 1204.38 1918.52 1199.8 1923.02C1195.22 1927.52 1195.22 1927.52 1195.22 1927.52L1200.72 1930.22L1214.46 1936.52L1208.96 1941.92C1208.96 1941.92 1210.8 1943.72 1204.38 1942.82C1197.97 1941.92 1191.56 1938.32 1191.56 1938.32L1186.98 1943.72C1186.98 1943.72 1190.64 1944.62 1190.64 1948.22C1190.64 1951.82 1197.97 1953.62 1197.97 1953.62C1205.3 1958.12 1210.8 1963.52 1210.8 1963.52L1219.04 1978.82L1227.29 1987.82L1235.53 1983.05C1235.53 1983.05 1241.03 1981.52 1243.78 1981.52C1246.52 1981.52 1259.35 1976.12 1259.35 1976.12L1269.43 1971.62L1252.94 1961.72L1251.11 1956.32L1241.94 1940.12V1935.62L1252.94 1941.92C1252.94 1941.92 1259.35 1944.62 1261.18 1948.22C1263.01 1951.82 1269.43 1963.79 1269.43 1963.79L1275.84 1966.22V1953.62L1271.26 1947.32L1270.34 1936.52L1266.68 1927.52L1275.84 1921.49V1927.88C1275.84 1927.88 1271.26 1934.99 1275.84 1938.95C1280.42 1942.82 1281.34 1944.62 1282.25 1947.32C1283.17 1950.02 1284.09 1954.52 1284.09 1954.52V1959.11L1290.5 1958.12V1944.44V1934.36V1926.08L1295.08 1922.12C1295.08 1922.12 1295.99 1915.82 1299.66 1925.72C1303.32 1935.62 1304.24 1940.12 1304.24 1940.12C1304.24 1940.12 1304.24 1933.46 1304.24 1944.44C1304.24 1955.42 1304.24 1959.11 1304.24 1959.11L1308.82 1960.82L1315.23 1953.62V1945.34V1933.37V1924.19C1315.23 1924.19 1314.32 1921.22 1321.65 1920.32C1328.98 1919.42 1328.98 1919.42 1328.98 1919.42C1328.98 1919.42 1326.23 1918.25 1328.98 1925.18C1331.72 1932.11 1331.72 1938.77 1328.98 1941.74C1326.23 1944.71 1330.81 1937.51 1326.23 1944.71C1321.65 1951.91 1321.65 1951.91 1321.65 1951.91L1318.9 1960.01L1320.73 1963.61C1320.73 1963.61 1321.65 1960.01 1326.23 1958.21C1330.81 1956.41 1335.39 1951.91 1335.39 1951.91V1939.94L1343.63 1927.61V1938.14V1950.11L1335.39 1967.3L1333.56 1971.8L1343.63 1973.15L1361.04 1970.9L1372.95 1964.6L1363.79 1950.2L1361.96 1937.6L1357.37 1918.7L1366.63 1913.75L1372.95 1935.44L1376.61 1947.5L1386.69 1934.9L1378.45 1918.7C1378.45 1918.7 1371.12 1907.9 1377.53 1907.9C1383.94 1907.9 1392.19 1907.9 1392.19 1907.9V1929.95V1944.62L1404.1 1939.4V1923.47L1390.35 1901.6V1885.4C1390.35 1885.4 1393.1 1886.3 1397.68 1885.4C1402.26 1884.5 1412.34 1886.3 1412.34 1886.3L1419.67 1907.9V1935.44L1434.33 1917.8L1444.41 1918.7C1444.41 1918.7 1448.99 1925.9 1444.41 1931.75C1439.83 1937.6 1428.83 1946.6 1428.83 1946.6L1446.42 1941.83C1444.41 1948.4 1441.66 1947.5 1437.99 1952.9C1434.33 1958.3 1434.33 1958.3 1434.33 1958.3L1446.42 1961.18L1477.39 1963.7L1494.79 1980.8V1959.29L1529.6 1960.1C1529.6 1960.1 1538.77 1962.8 1538.77 1966.4C1538.77 1970 1538.77 1974.77 1538.77 1981.43C1538.77 1988.09 1538.77 1994.3 1538.77 1994.3L1550.68 2006.9C1550.68 2006.9 1558.92 2008.7 1565.33 2009.6C1571.75 2010.5 1577.24 2019.5 1577.24 2019.5L1595.56 2026.7C1595.56 2026.7 1601.06 2031.2 1603.81 2033.9C1606.56 2036.6 1608.39 2040.2 1623.05 2038.4C1637.71 2036.6 1637.71 2036.6 1637.71 2036.6L1652.36 2028.5C1652.36 2028.5 1647.78 2018.33 1652.36 2011.76C1656.94 2005.19 1654.2 1995.2 1659.69 1991.6C1665.19 1988 1683.51 1974.5 1688.09 1972.7C1692.67 1970.9 1692.67 1970.9 1692.67 1970.9L1711.91 1966.4V1943L1703.67 1936.7L1699.73 1913.75L1691.76 1907.9C1691.76 1907.9 1693.59 1903.4 1684.43 1903.4C1675.27 1903.4 1670.69 1903.4 1670.69 1903.4L1656.03 1900.7C1656.03 1900.7 1660.61 1893.5 1663.36 1893.5C1666.11 1893.5 1678.02 1893.5 1678.02 1893.5H1690.84L1681.68 1884.5C1681.68 1884.5 1681.68 1881.8 1675.27 1880.9C1668.85 1880 1645.04 1876.4 1645.04 1876.4L1635.87 1874.6C1635.87 1874.6 1619.38 1864.7 1634.96 1865.6C1650.53 1866.5 1679.85 1871.9 1679.85 1871.9C1690.84 1876.4 1688.09 1872.8 1693.59 1881.8C1699.09 1890.8 1700 1898.9 1700 1898.9C1700 1898.9 1706.23 1912.4 1708.16 1913.75C1710.08 1915.1 1710.08 1915.1 1710.08 1915.1L1711.91 1902.32V1894.04L1707.33 1881.8L1699.09 1876.4L1694.51 1867.4L1684.43 1854.8L1680.76 1838.6C1680.76 1838.6 1678.93 1835.9 1675.27 1833.2C1671.6 1830.5 1668.85 1828.7 1668.85 1825.1C1668.85 1821.5 1660.61 1808.9 1660.61 1808.9L1675.27 1813.4L1686.26 1821.5C1686.26 1821.5 1681.68 1823.3 1687.18 1829.6C1692.67 1835.9 1692.67 1835.9 1692.67 1835.9C1692.67 1835.9 1704.58 1859.3 1705.5 1862.9C1706.41 1866.5 1711 1868.57 1711.91 1873.88C1712.83 1879.1 1715.58 1876.4 1718.32 1883.6C1721.07 1890.8 1722.9 1895.3 1722.9 1895.3V1900.52L1732.07 1917.8C1732.07 1917.8 1731.15 1940.3 1741.23 1922.3C1751.3 1904.3 1746.72 1887.2 1746.72 1887.2L1743.06 1874.6L1734.81 1848.5L1724.74 1833.2L1709.16 1818.8L1691.76 1804.4C1691.76 1804.4 1682.6 1796.3 1679.85 1795.4C1677.1 1794.5 1669.77 1788.2 1669.77 1788.2L1658.78 1782.8L1648.7 1790.9L1623.05 1795.4L1635.87 1768.4L1666.11 1769.3L1685.34 1772.9L1690.84 1777.4L1698.17 1785.5L1706.41 1794.5L1721.07 1804.4L1739.39 1817L1743.06 1826.9L1742.14 1831.4L1743.06 1847.6L1752.22 1858.4V1868.3V1881.17L1756.8 1889.9V1900.7L1762.39 1913.75L1775.12 1906.1V1873.88L1779.7 1854.8L1765.05 1826.9L1759.55 1804.4L1745.81 1796.3L1738.48 1789.1L1734.81 1779.2L1730.23 1772.9L1731.15 1764.8L1731.88 1755.17L1732.98 1741.4L1730.23 1732.4L1732.07 1728.8C1732.07 1728.8 1737.56 1753.1 1739.39 1761.2C1741.23 1769.3 1741.23 1769.3 1741.23 1769.3C1741.23 1769.3 1739.39 1767.5 1743.98 1773.8C1748.56 1780.1 1763.21 1794.5 1763.21 1794.5L1779.7 1811.33V1817.72C1779.7 1817.72 1776.04 1828.07 1779.7 1830.59C1783.37 1833.11 1784.28 1833.11 1786.12 1837.61C1787.95 1842.11 1790.7 1833.11 1790.7 1852.01C1790.7 1870.91 1790.7 1874.69 1790.7 1874.69C1790.7 1874.69 1791.61 1873.25 1790.7 1879.28C1789.78 1885.31 1790.7 1893.95 1790.7 1893.95L1800.77 1885.31L1811.77 1864.61L1815.43 1843.91L1801.69 1833.11L1798.94 1817.81V1809.71L1784.28 1799.81C1797.11 1798.91 1822.76 1806.11 1822.76 1806.11C1822.76 1813.31 1822.76 1813.49 1822.76 1826.9C1822.76 1840.31 1819.1 1834.91 1822.76 1840.31C1826.43 1845.71 1822.76 1855.34 1822.76 1855.34C1822.76 1855.34 1828.26 1861.91 1829.17 1859.21C1830.09 1856.51 1838.34 1828.61 1838.34 1828.61L1833.75 1803.41L1819.1 1779.11C1819.1 1779.11 1820.01 1772.81 1813.6 1770.11C1807.19 1767.41 1787.03 1754.81 1787.03 1754.81C1787.03 1754.81 1776.96 1750.31 1776.04 1744.91C1775.12 1739.51 1773.29 1735.01 1773.29 1735.01C1773.29 1735.01 1772.38 1728.71 1769.63 1724.21C1766.88 1719.71 1759.55 1704.4 1759.55 1704.4V1696.3C1759.55 1696.3 1765.96 1689.1 1754.05 1686.4C1742.14 1683.7 1746.82 1689.1 1737.2 1686.4C1727.58 1683.7 1720.16 1681.9 1720.16 1681.9L1716.49 1675.6C1716.49 1675.6 1722.9 1681 1711.91 1659.4C1700.92 1637.8 1699.09 1633.3 1699.09 1633.3L1700.92 1625.2L1710.08 1617.1L1718.32 1603.6C1718.32 1603.6 1731.24 1600.9 1737.2 1603.6C1743.15 1606.3 1743.7 1602.43 1743.7 1602.43L1707.33 1580.2C1700 1584.7 1683.88 1580.2 1683.88 1580.2C1683.88 1580.2 1679.85 1554.1 1694.51 1558.6C1709.16 1563.1 1713.74 1558.06 1713.74 1558.06L1718.32 1546H1736.28C1736.28 1546 1744.89 1555 1750.39 1556.8C1755.89 1558.6 1749.47 1557.7 1758.63 1563.1C1767.79 1568.5 1775.12 1570.3 1775.12 1570.3H1793.45L1812.68 1573.9L1823.68 1567.6L1825.51 1556.8L1824.59 1538.8L1807.19 1529.8L1801.69 1512.7L1779.7 1489.3L1765.05 1468.6C1765.05 1468.6 1774.21 1479.4 1755.89 1468.6C1737.56 1457.8 1719.24 1447 1719.24 1447C1719.24 1447 1718.32 1429 1724.74 1429C1731.15 1429 1745.81 1424.5 1745.81 1424.5L1751.3 1413.7L1731.15 1395.7C1734.81 1389.4 1734.81 1381.3 1745.81 1381.3C1756.8 1381.3 1759.55 1382.2 1761.38 1378.6C1763.21 1375 1771.46 1339 1771.46 1339L1803.52 1361.5L1804.44 1345.3L1816.35 1357V1375.9C1816.35 1375.9 1823.68 1378.6 1816.35 1384.9C1809.02 1391.2 1795.28 1393.9 1795.28 1393.9L1813.6 1407.4L1828.26 1408.3L1833.75 1410.1L1838.34 1443.58V1448.17L1842 2077.91L40 2087V2077.91Z" fill="#0D0B0B" fill-opacity="0.81"/>
<path id="Vector_2" d="M78.1209 1556.63L67.5318 1562.17V1572.54L59.7664 1579.96V1590.48H68.9437V1596.7V1602.92L64.0021 1608.99L59.7664 1619.51L68.9437 1622.99L78.1209 1629.21V1634.76L88.0041 1639.06L96.4754 1646.47L104.241 1650.46L114.83 1653.58L120.478 1649.43V1658.92V1669.96H115.536L104.241 1674.26L100.711 1678.41L112.712 1682.56H120.478V1693.44V1699.67L107.065 1708.48V1713.66H116.454H133.396L145.891 1716.77L152.245 1710.55L164.246 1709.52L174.835 1711.59L179.565 1716.77L179.777 1732.85L188.248 1736.99L184.012 1744.77L188.248 1753.58V1763.95L196.719 1767.58H207.803L220.015 1764.47H234.134L243.523 1767.58V1775V1780.54L248.959 1787.28H262.372L284.256 1781.06L302.611 1774.32L308.258 1764.47L333.672 1770.69L322.377 1755.14L318.847 1741.66L326.613 1734.4V1747.36L328.025 1753.58H333.672L337.908 1740.62L347.085 1733.37V1737.67C347.085 1737.67 349.909 1742.7 347.085 1745.29C344.261 1747.88 339.32 1754.1 339.32 1754.1L348.356 1756.33L359.086 1747.42H367.558L361.91 1753.12L367.558 1755.71L346.379 1760.38L344.967 1766.6L357.674 1768.15L367.558 1763.33V1771.63V1777.85L359.086 1782.15L362.122 1787.34L360.498 1793.04L373.205 1797.19V1804.96V1813.1L377.441 1827.77V1835.91H385.7L385.912 1830.89L398.619 1829.85V1835.91H410.62H422.409L426.857 1825.7L410.62 1817.25L405.678 1814.3L405.467 1806H410.62H421.421L422.621 1813.78L431.798 1811.18L439.564 1809.11L445.917 1804.96H460.036L470.625 1809.11C470.625 1809.11 469.213 1813.26 466.39 1813.26C463.566 1813.26 451.565 1811.7 451.565 1811.7L440.976 1813.78L435.328 1822.07L431.798 1826.22V1835.91L442.388 1824.66L459.33 1825.7L460.742 1830.89L450.647 1835.91H439.352L437.446 1839.18L435.328 1844.88L443.093 1847.48L445.211 1851.11V1856.81L456.506 1851.11L466.39 1853.18L466.601 1856.81L466.39 1864.07H438.364L436.74 1874.44L442.388 1882.73L470.625 1892.58L476.273 1880.14L485.45 1878.06L491.098 1886.36L485.45 1898.28L491.098 1901.39H504.299H511.852L525.053 1888.95L537.054 1893.1V1901.39H549.55L549.761 1882.21V1873.24L553.997 1863.03L570.94 1858.88V1870.44L575.881 1881.69L580.823 1883.77L570.94 1894.14L561.762 1901.39L567.41 1910.73L561.762 1916.95L566.704 1929.91L585.059 1942.87L607.649 1953.24H634.263C634.263 1953.24 650.005 1970.87 652.123 1973.98C654.241 1977.09 664.124 1998.86 664.124 1998.86L680.361 2010.79L712.128 2014.94L763.45 2019.76L803.901 2027.38L818.726 2052.26L849.081 2058.49L862 2084.93L40 2087V1525H65.6257" fill="#6C69EF" fill-opacity="0.52"/>
<path id="Vector_3" d="M416.543 1577L412.026 1588.49V1602.22L402.99 1608.78L395.89 1616.89V1626.56V1639.2V1657.25C395.89 1657.25 399.117 1665.56 395.89 1668.95C392.663 1672.33 375.883 1689.9 375.237 1692.61C374.592 1695.31 361.684 1714.24 361.684 1714.24V1724.86V1709.51L357.811 1698.69L364.265 1690.58L357.811 1687L351.357 1699.37C351.357 1699.37 353.939 1704.98 351.357 1708.63C348.775 1712.21 351.357 1728.44 351.357 1728.44C351.357 1728.44 347.097 1735.2 350.195 1737.23C353.293 1739.26 349.098 1751.9 349.098 1751.9L338.255 1737.23L333.286 1728.44L329.413 1712.21L338.449 1698.02L350.066 1687.2L352.002 1681.79L334.576 1693.96L325.541 1704.1L329.413 1729.32V1741.01C329.413 1741.01 330.704 1748.65 338.449 1747.98C346.194 1747.3 341.224 1744.12 343.418 1751.83C345.548 1759.47 344.903 1766.23 344.903 1766.23C344.903 1766.23 341.03 1772.32 341.03 1776.37C341.03 1780.43 337.158 1790.57 337.158 1790.57C337.158 1790.57 333.286 1792.6 331.995 1796.65C330.704 1800.71 329.413 1802.94 325.541 1805.92C321.668 1808.82 315.859 1826.4 315.859 1826.4C315.859 1826.4 318.441 1830.66 315.859 1841.07C313.278 1851.42 310.696 1852.09 310.696 1858.18C310.696 1864.26 311.342 1898.06 311.342 1898.06L310.696 1910.23C310.696 1910.23 307.469 1912.26 310.696 1920.37C313.923 1928.49 313.278 1948.09 313.278 1948.09C313.278 1948.09 313.923 1967.02 313.923 1973.78C313.923 1980.54 305.92 1986.83 309.276 1989.81C312.632 1992.71 306.566 1997.92 309.276 2005.15C311.987 2012.39 308.437 2017.8 308.437 2017.8L298.433 1977.91C298.433 1977.91 299.724 1954.45 298.433 1952.01C297.143 1949.51 298.433 1927.68 298.433 1927.68L297.852 1906.92C297.852 1906.92 297.272 1895.43 297.852 1887.99C298.433 1880.55 307.469 1863.65 307.469 1863.65L308.76 1838.64L294.561 1864.53V1899.69L287.461 1925.85C287.461 1925.85 287.461 1946.81 287.461 1950.87C287.461 1954.92 292.625 1963.71 292.625 1963.71L287.461 1908.75L282.944 1882.58C282.944 1882.58 285.525 1857.09 282.944 1854.66C280.362 1852.16 282.944 1827.62 282.944 1827.62C282.944 1827.62 279.975 1815.92 281.782 1811.39C283.589 1806.86 290.882 1797.4 290.882 1797.4L299.724 1780.5L313.923 1754.81L311.342 1710.19L317.279 1703.7L328.768 1691.26L335.867 1679.76L348.904 1668.95V1650.02L361.684 1631.76L364.911 1618.24L348.904 1638.32L344.257 1649.34L336.513 1662.86L325.541 1682.47L305.533 1712.89L302.951 1725.73L299.724 1749.4L295.852 1766.3C295.852 1766.3 293.27 1770.36 290.688 1776.44C288.107 1782.52 281.201 1790.64 281.201 1790.64L275.199 1809.57C275.199 1809.57 271.972 1815.65 271.972 1819.71C271.972 1823.76 270.035 1832.08 271.972 1838.44C273.908 1844.72 270.035 1850.81 271.972 1855.54C273.908 1860.27 275.199 1871.77 279.071 1877.17C282.944 1882.58 280.362 1896.78 280.362 1896.78C280.362 1896.78 280.362 1906.92 280.362 1912.33C280.362 1917.74 280.362 1933.96 280.362 1933.96L281.653 1952.89L284.88 1963.03L276.489 1940.05L264.227 1920.44C264.227 1920.44 264.227 1917.06 264.227 1913.01C264.227 1908.95 264.227 1882.58 264.227 1882.58V1865.48V1852.84V1842.9V1829.38V1816.73L267.647 1797.33C267.647 1797.33 259.063 1802.74 259.063 1811.53C259.063 1820.32 259.709 1818.29 259.063 1828.43C258.418 1838.57 259.063 1858.18 259.063 1858.18C259.063 1858.18 250.673 1846.01 250.673 1841.27C250.673 1836.54 249.382 1818.29 249.382 1818.29C249.382 1818.29 249.382 1798.01 249.382 1797.33C249.382 1796.65 245.51 1783.13 245.51 1783.13L240.346 1774.34L233.247 1761.5C233.247 1761.5 226.147 1763.53 233.247 1768.94C240.346 1774.34 238.41 1782.46 238.41 1782.46L240.346 1791.25L241.831 1797.33C241.831 1797.33 242.283 1804.77 242.928 1807.47C243.573 1810.18 243.573 1817.61 243.573 1817.61C243.573 1817.61 243.573 1823.7 243.573 1827.75C243.573 1831.81 243.573 1838.57 243.573 1838.57C243.573 1838.57 246.801 1851.42 248.091 1854.8C249.382 1858.18 249.382 1858.18 249.382 1858.18L250.673 1869.67C250.673 1869.67 255.836 1875.55 254.545 1877.99C253.255 1880.49 254.545 1884.27 254.545 1884.27L250.673 1889.88L243.573 1874.33L226.147 1870.95V1856.28L231.311 1879.74L241.637 1885.83C241.637 1885.83 250.673 1902.05 250.673 1906.79C250.673 1911.52 248.091 1923.69 248.091 1923.69C248.091 1923.69 245.51 1953.43 245.51 1958.17C245.51 1962.9 240.992 1969.66 246.155 1979.12C248.737 1983.86 250.802 1988.73 252.287 1992.51C253.771 1996.3 254.545 1998.73 254.545 1998.73L264.872 2017.66L238.41 1952.76C238.41 1952.76 232.602 1925.04 233.247 1920.98C233.892 1916.93 232.602 1889.88 232.602 1889.88L226.147 1883.33V1910.37V1955.46C226.147 1955.46 223.566 1956.14 226.147 1960.87C228.729 1965.6 233.247 1972.36 233.247 1972.36L243.573 1996.03L254.545 2017.66L268.744 2027.8C268.744 2027.8 275.844 2050.79 276.489 2055.52C276.748 2057.48 273.779 2054.24 270.229 2049.71C265.195 2043.35 259.063 2034.56 259.063 2034.56C259.063 2034.56 250.673 2032.53 249.382 2029.15C248.091 2025.77 240.346 2012.25 240.346 2012.25L231.311 1985.89C231.311 1985.89 226.793 2002.11 230.02 2012.25C233.247 2022.39 254.545 2040.17 254.545 2040.17C254.545 2040.17 272.617 2057.55 274.553 2062.96C276.489 2068.37 277.78 2090 277.78 2090L264.227 2069.72C264.227 2069.72 255.191 2062.48 254.545 2060.05C253.9 2057.55 243.573 2045.38 243.573 2045.38L244.219 2041.32V2058.9L246.155 2064.31L254.545 2076.28L258.418 2079.18L261.645 2085.27L263.388 2090H327.09H345.161H362.329L396.536 2085.94L402.99 2062.96L421.707 2038.62L431.388 2028.48C431.388 2028.48 439.133 2022.39 442.36 2021.04C445.587 2019.69 458.495 2014.28 458.495 2014.28L467.531 2012.93L479.148 2011.58L493.993 2003.46L508.837 2001.44C508.837 2001.44 526.521 1999.74 528.78 1998.87C533.815 1996.97 537.881 1995.35 537.881 1995.35L551.434 1991.29C551.434 1991.29 569.506 1985.89 560.47 1988.59C551.434 1991.29 504.319 1996.7 504.319 1996.7H495.929C495.929 1996.7 481.085 1995.35 478.503 1996.7C475.921 1998.05 454.623 2002.11 454.623 2002.11C454.623 2002.11 450.75 2003.46 448.169 2006.84C445.587 2010.22 431.388 2020.37 431.388 2020.37C431.388 2020.37 423.643 2022.39 419.771 2026.45C415.898 2030.51 406.862 2031.86 406.862 2031.86L414.607 2021.04L415.898 2011.58L424.934 2001.44L432.679 1998.05C432.679 1998.05 437.842 1993.32 439.133 1990.62C440.424 1987.91 440.424 1987.91 440.424 1987.91C440.424 1987.91 443.005 1980.48 447.523 1977.77C452.041 1975.07 458.495 1972.36 458.495 1972.36L470.113 1968.98L479.148 1958.84L486.893 1956.14L501.092 1952.76L517.227 1946.67L550.789 1936.53L517.227 1939.91L494.638 1946.67L468.176 1954.79C468.176 1954.79 462.368 1958.84 459.786 1961.55C457.204 1964.25 444.942 1971.01 444.942 1971.01C444.942 1971.01 434.615 1973.72 432.033 1976.42C429.452 1979.12 419.771 1998.05 419.771 1998.05L409.444 2006.17L394.019 2027.6V2038.42L388.145 2050.25L388.791 2015.09L401.699 2007.65L418.48 1983.32L423.643 1976.56L408.799 1983.32L397.827 2001.57L383.628 2009.68L382.982 2015.09L381.046 2028.61V1996.84L379.755 1985.34L372.01 1979.94L362.974 1971.15L352.002 1960.33V1945.46V1928.56L362.974 1918.41V1904.89L374.592 1892.72L377.819 1877.85L381.046 1863.65L386.209 1844.05L388.791 1825.79L394.019 1820.38L410.735 1798.75L419.125 1781.85C419.125 1781.85 420.416 1765.62 421.061 1762.92C421.707 1760.21 428.613 1737.23 428.613 1737.23L432.679 1729.12L442.36 1709.51L419.771 1742.64L413.962 1758.19L406.862 1771.03L404.281 1784.55V1789.96L401.054 1768.33C401.054 1768.33 399.763 1752.1 400.408 1749.4C401.054 1746.69 405.571 1728.44 405.571 1728.44L401.054 1746.69L394.019 1759.06C394.019 1759.06 392.792 1763.59 394.019 1769C395.245 1774.41 391.502 1773.94 394.019 1778.94C396.536 1783.88 391.502 1785.23 394.019 1787.93C396.536 1790.64 392.792 1794.49 394.019 1796.92C395.245 1799.43 394.019 1805.92 394.019 1805.92C394.019 1805.92 389.436 1810.24 387.5 1812.95C385.564 1815.65 380.4 1821.74 380.4 1825.12C380.4 1828.5 375.883 1837.29 375.883 1837.29L374.592 1844.05L372.01 1811.6C372.01 1811.6 369.429 1807.54 374.592 1802.13C379.755 1796.72 379.755 1796.72 379.755 1796.72C379.755 1796.72 382.337 1792.67 382.982 1789.96C383.628 1787.26 385.564 1773.74 385.564 1773.74C385.564 1773.74 386.855 1765.62 386.209 1769.68C385.564 1773.74 378.464 1787.93 378.464 1787.93L372.656 1794.02L364.911 1806.86V1814.3L362.329 1825.12L368.138 1849.46V1854.86L361.684 1871.77L359.102 1888.67C359.102 1895.43 354.584 1900.84 354.584 1903.54C354.584 1906.24 351.357 1911.65 350.066 1914.36C348.775 1917.06 336.513 1926.53 336.513 1926.53L337.158 1944.1L338.449 1954.92L339.74 1979.94C339.74 1979.94 345.548 1979.26 348.775 1983.32C352.002 1987.37 357.811 1990.75 360.393 1993.46C362.974 1996.16 364.265 2010.36 364.265 2010.36L364.911 2029.29L359.747 2042.13L344.903 2015.09L328.768 1998.19V1973.85V1958.98L324.25 1927.88V1918.41C324.25 1918.41 324.895 1906.24 326.831 1903.54C328.768 1900.84 333.286 1877.17 333.286 1877.17C333.286 1877.17 317.15 1883.26 320.377 1875.15C323.604 1867.03 323.604 1862.98 323.604 1862.98L324.25 1852.84L325.541 1846.75L346.839 1839.31L357.166 1811.6L344.257 1833.57H334.77L328.768 1839.31L326.831 1826.47L328.768 1812.95L338.449 1804.83L341.03 1799.43L350.066 1782.52L353.939 1771.03L355.229 1758.86L360.393 1750.07L367.492 1731.82L372.656 1711.54L380.4 1698.69C380.4 1698.69 401.699 1673.68 402.99 1670.97C404.281 1668.27 405.571 1661.51 405.571 1661.51L408.153 1642.58L405.571 1627.71V1619.59L408.153 1614.18L417.189 1603.37L419.125 1590.52L416.543 1577Z" fill="url(#paint0_linear)"/>
<path id="Vector_4" d="M1619.54 1749L1615.03 1756.28V1764.98L1605.99 1769.13L1598.89 1774.27V1780.39V1788.4V1799.84C1598.89 1799.84 1602.12 1805.11 1598.89 1807.25C1595.66 1809.39 1578.88 1820.53 1578.24 1822.24C1577.59 1823.95 1564.68 1835.95 1564.68 1835.95V1842.67V1832.95L1560.81 1826.1L1567.27 1820.96L1560.81 1818.69L1554.36 1826.52C1554.36 1826.52 1556.94 1830.08 1554.36 1832.39C1551.78 1834.66 1554.36 1844.94 1554.36 1844.94C1554.36 1844.94 1550.1 1849.22 1553.2 1850.51C1556.29 1851.79 1552.1 1859.8 1552.1 1859.8L1541.26 1850.51L1536.29 1844.94L1532.41 1834.66L1541.45 1825.67L1553.07 1818.81L1555 1815.39L1537.58 1823.1L1528.54 1829.52L1532.41 1845.5V1852.91C1532.41 1852.91 1533.7 1857.75 1541.45 1857.32C1549.19 1856.89 1544.22 1854.88 1546.42 1859.76C1548.55 1864.6 1547.9 1868.88 1547.9 1868.88C1547.9 1868.88 1544.03 1872.74 1544.03 1875.31C1544.03 1877.88 1540.16 1884.3 1540.16 1884.3C1540.16 1884.3 1536.29 1885.59 1534.99 1888.16C1533.7 1890.73 1532.41 1892.14 1528.54 1894.03C1524.67 1895.87 1518.86 1907 1518.86 1907C1518.86 1907 1521.44 1909.7 1518.86 1916.3C1516.28 1922.85 1513.7 1923.28 1513.7 1927.13C1513.7 1930.99 1514.34 1952.4 1514.34 1952.4L1513.7 1960.11C1513.7 1960.11 1510.47 1961.4 1513.7 1966.54C1516.92 1971.68 1516.28 1984.1 1516.28 1984.1C1516.28 1984.1 1516.92 1996.09 1516.92 2000.37C1516.92 2004.66 1508.92 2008.64 1512.28 2010.52C1515.63 2012.37 1509.57 2015.66 1512.28 2020.25C1514.99 2024.83 1511.44 2028.26 1511.44 2028.26L1501.43 2002.99C1501.43 2002.99 1502.72 1988.12 1501.43 1986.58C1500.14 1985 1501.43 1971.16 1501.43 1971.16L1500.85 1958.01C1500.85 1958.01 1500.27 1950.73 1500.85 1946.02C1501.43 1941.31 1510.47 1930.6 1510.47 1930.6L1511.76 1914.76L1497.56 1931.16V1953.43L1490.46 1970.01C1490.46 1970.01 1490.46 1983.28 1490.46 1985.85C1490.46 1988.42 1495.62 1993.99 1495.62 1993.99L1490.46 1959.17L1485.94 1942.6C1485.94 1942.6 1488.53 1926.45 1485.94 1924.91C1483.36 1923.32 1485.94 1907.77 1485.94 1907.77C1485.94 1907.77 1482.97 1900.36 1484.78 1897.49C1486.59 1894.62 1493.88 1888.63 1493.88 1888.63L1502.72 1877.92L1516.92 1861.64L1514.34 1833.38L1520.28 1829.26L1531.77 1821.38L1538.87 1814.1L1551.9 1807.25V1795.26L1564.68 1783.69L1567.91 1775.13L1551.9 1787.85L1547.26 1794.83L1539.51 1803.4L1528.54 1815.82L1508.53 1835.09L1505.95 1843.23L1502.72 1858.22L1498.85 1868.93C1498.85 1868.93 1496.27 1871.5 1493.69 1875.35C1491.11 1879.21 1484.2 1884.35 1484.2 1884.35L1478.2 1896.34C1478.2 1896.34 1474.97 1900.19 1474.97 1902.76C1474.97 1905.33 1473.04 1910.6 1474.97 1914.63C1476.91 1918.61 1473.04 1922.46 1474.97 1925.46C1476.91 1928.46 1478.2 1935.74 1482.07 1939.17C1485.94 1942.6 1483.36 1951.59 1483.36 1951.59C1483.36 1951.59 1483.36 1958.01 1483.36 1961.44C1483.36 1964.87 1483.36 1975.15 1483.36 1975.15L1484.65 1987.14L1487.88 1993.56L1479.49 1979L1467.23 1966.58C1467.23 1966.58 1467.23 1964.44 1467.23 1961.87C1467.23 1959.3 1467.23 1942.6 1467.23 1942.6V1931.76V1923.75V1917.45V1908.89V1900.88L1470.65 1888.59C1470.65 1888.59 1462.06 1892.01 1462.06 1897.58C1462.06 1903.15 1462.71 1901.86 1462.06 1908.29C1461.42 1914.71 1462.06 1927.13 1462.06 1927.13C1462.06 1927.13 1453.67 1919.42 1453.67 1916.43C1453.67 1913.43 1452.38 1901.86 1452.38 1901.86C1452.38 1901.86 1452.38 1889.01 1452.38 1888.59C1452.38 1888.16 1448.51 1879.59 1448.51 1879.59L1443.35 1874.02L1436.25 1865.89C1436.25 1865.89 1429.15 1867.17 1436.25 1870.6C1443.35 1874.02 1441.41 1879.16 1441.41 1879.16L1443.35 1884.73L1444.83 1888.59C1444.83 1888.59 1445.28 1893.3 1445.93 1895.01C1446.57 1896.72 1446.57 1901.43 1446.57 1901.43C1446.57 1901.43 1446.57 1905.29 1446.57 1907.86C1446.57 1910.43 1446.57 1914.71 1446.57 1914.71C1446.57 1914.71 1449.8 1922.85 1451.09 1924.99C1452.38 1927.13 1452.38 1927.13 1452.38 1927.13L1453.67 1934.41C1453.67 1934.41 1458.84 1938.14 1457.55 1939.68C1456.25 1941.27 1457.55 1943.67 1457.55 1943.67L1453.67 1947.22L1446.57 1937.37L1429.15 1935.23V1925.93L1434.31 1940.8L1444.64 1944.65C1444.64 1944.65 1453.67 1954.93 1453.67 1957.93C1453.67 1960.93 1451.09 1968.64 1451.09 1968.64C1451.09 1968.64 1448.51 1987.48 1448.51 1990.48C1448.51 1993.48 1443.99 1997.76 1449.16 2003.76C1451.74 2006.76 1453.8 2009.84 1455.29 2012.24C1456.77 2014.64 1457.55 2016.18 1457.55 2016.18L1467.87 2028.17L1441.41 1987.05C1441.41 1987.05 1435.6 1969.49 1436.25 1966.92C1436.89 1964.35 1435.6 1947.22 1435.6 1947.22L1429.15 1943.07V1960.2V1988.77C1429.15 1988.77 1426.57 1989.2 1429.15 1992.19C1431.73 1995.19 1436.25 1999.47 1436.25 1999.47L1446.57 2014.47L1457.55 2028.17L1471.74 2034.6C1471.74 2034.6 1478.84 2049.16 1479.49 2052.16C1479.75 2053.4 1476.78 2051.34 1473.23 2048.47C1468.19 2044.45 1462.06 2038.88 1462.06 2038.88C1462.06 2038.88 1453.67 2037.59 1452.38 2035.45C1451.09 2033.31 1443.35 2024.74 1443.35 2024.74L1434.31 2008.04C1434.31 2008.04 1429.79 2018.32 1433.02 2024.74C1436.25 2031.17 1457.55 2042.43 1457.55 2042.43C1457.55 2042.43 1475.62 2053.44 1477.55 2056.87C1479.49 2060.29 1480.78 2074 1480.78 2074L1467.23 2061.15C1467.23 2061.15 1458.19 2056.57 1457.55 2055.03C1456.9 2053.44 1446.57 2045.73 1446.57 2045.73L1447.22 2043.16V2054.3L1449.16 2057.72L1457.55 2065.31L1461.42 2067.15L1464.64 2071L1466.39 2074H1530.09H1548.16H1565.33L1599.54 2071.43L1605.99 2056.87L1624.71 2041.45L1634.39 2035.02C1634.39 2035.02 1642.13 2031.17 1645.36 2030.31C1648.59 2029.46 1661.5 2026.03 1661.5 2026.03L1670.53 2025.17L1682.15 2024.32L1696.99 2019.18L1711.84 2017.89C1711.84 2017.89 1729.52 2016.82 1731.78 2016.26C1736.81 2015.06 1740.88 2014.04 1740.88 2014.04L1754.43 2011.47C1754.43 2011.47 1772.51 2008.04 1763.47 2009.75C1754.43 2011.47 1707.32 2014.89 1707.32 2014.89H1698.93C1698.93 2014.89 1684.08 2014.04 1681.5 2014.89C1678.92 2015.75 1657.62 2018.32 1657.62 2018.32C1657.62 2018.32 1653.75 2019.18 1651.17 2021.32C1648.59 2023.46 1634.39 2029.88 1634.39 2029.88C1634.39 2029.88 1626.64 2031.17 1622.77 2033.74C1618.9 2036.31 1609.86 2037.17 1609.86 2037.17L1617.61 2030.31L1618.9 2024.32L1627.93 2017.89L1635.68 2015.75C1635.68 2015.75 1640.84 2012.75 1642.13 2011.04C1643.42 2009.33 1643.42 2009.33 1643.42 2009.33C1643.42 2009.33 1646.01 2004.61 1650.52 2002.9C1655.04 2001.19 1661.5 1999.47 1661.5 1999.47L1673.11 1997.33L1682.15 1990.91L1689.89 1989.2L1704.09 1987.05L1720.23 1983.2L1753.79 1976.77L1720.23 1978.92L1697.64 1983.2L1671.18 1988.34C1671.18 1988.34 1665.37 1990.91 1662.79 1992.62C1660.2 1994.33 1647.94 1998.62 1647.94 1998.62C1647.94 1998.62 1637.61 2000.33 1635.03 2002.04C1632.45 2003.76 1622.77 2015.75 1622.77 2015.75L1612.44 2020.89L1597.02 2034.47V2041.32L1591.15 2048.82L1591.79 2026.54L1604.7 2021.83L1621.48 2006.41L1626.64 2002.13L1611.8 2006.41L1600.83 2017.98L1586.63 2023.12L1585.98 2026.54L1584.05 2035.11V2014.98L1582.76 2007.7L1575.01 2004.27L1565.97 1998.7L1555 1991.85V1982.43V1971.72L1565.97 1965.3V1956.73L1577.59 1949.02L1580.82 1939.6L1584.05 1930.6L1589.21 1918.18L1591.79 1906.62L1597.02 1903.19L1613.73 1889.48L1622.13 1878.78C1622.13 1878.78 1623.42 1868.5 1624.06 1866.78C1624.71 1865.07 1631.61 1850.51 1631.61 1850.51L1635.68 1845.37L1645.36 1832.95L1622.77 1853.94L1616.96 1863.79L1609.86 1871.92L1607.28 1880.49V1883.92L1604.05 1870.21C1604.05 1870.21 1602.76 1859.93 1603.41 1858.22C1604.05 1856.51 1608.57 1844.94 1608.57 1844.94L1604.05 1856.51L1597.02 1864.34C1597.02 1864.34 1595.79 1867.21 1597.02 1870.64C1598.24 1874.07 1594.5 1873.77 1597.02 1876.94C1599.54 1880.06 1594.5 1880.92 1597.02 1882.63C1599.54 1884.35 1595.79 1886.79 1597.02 1888.33C1598.24 1889.91 1597.02 1894.03 1597.02 1894.03C1597.02 1894.03 1592.44 1896.77 1590.5 1898.48C1588.56 1900.19 1583.4 1904.05 1583.4 1906.19C1583.4 1908.33 1578.88 1913.9 1578.88 1913.9L1577.59 1918.18L1575.01 1897.62C1575.01 1897.62 1572.43 1895.05 1577.59 1891.63C1582.76 1888.2 1582.76 1888.2 1582.76 1888.2C1582.76 1888.2 1585.34 1885.63 1585.98 1883.92C1586.63 1882.2 1588.56 1873.64 1588.56 1873.64C1588.56 1873.64 1589.85 1868.5 1589.21 1871.07C1588.56 1873.64 1581.46 1882.63 1581.46 1882.63L1575.66 1886.49L1567.91 1894.62V1899.34L1565.33 1906.19L1571.14 1921.61V1925.03L1564.68 1935.74L1562.1 1946.45C1562.1 1950.73 1557.58 1954.16 1557.58 1955.87C1557.58 1957.59 1554.36 1961.01 1553.07 1962.73C1551.78 1964.44 1539.51 1970.44 1539.51 1970.44L1540.16 1981.57L1541.45 1988.42L1542.74 2004.27C1542.74 2004.27 1548.55 2003.84 1551.78 2006.41C1555 2008.98 1560.81 2011.12 1563.39 2012.84C1565.97 2014.55 1567.27 2023.55 1567.27 2023.55L1567.91 2035.54L1562.75 2043.68L1547.9 2026.54L1531.77 2015.84V2000.42V1990.99L1527.25 1971.29V1965.3C1527.25 1965.3 1527.9 1957.59 1529.83 1955.87C1531.77 1954.16 1536.29 1939.17 1536.29 1939.17C1536.29 1939.17 1520.15 1943.02 1523.38 1937.88C1526.6 1932.74 1526.6 1930.17 1526.6 1930.17L1527.25 1923.75L1528.54 1919.89L1549.84 1915.18L1560.17 1897.62L1547.26 1911.54H1537.77L1531.77 1915.18L1529.83 1907.05L1531.77 1898.48L1541.45 1893.34L1544.03 1889.91L1553.07 1879.21L1556.94 1871.92L1558.23 1864.21L1563.39 1858.65L1570.49 1847.08L1575.66 1834.23L1583.4 1826.1C1583.4 1826.1 1604.7 1810.25 1605.99 1808.53C1607.28 1806.82 1608.57 1802.54 1608.57 1802.54L1611.15 1790.55L1608.57 1781.12V1775.98L1611.15 1772.56L1620.19 1765.7L1622.13 1757.57L1619.54 1749Z" fill="url(#paint1_linear)"/>
<path id="Vector_5" d="M594.475 1759L590.572 1766.15V1774.68L582.766 1778.76L576.633 1783.8V1789.82V1797.68V1808.9C576.633 1808.9 579.421 1814.07 576.633 1816.17C573.845 1818.28 559.348 1829.21 558.791 1830.89C558.233 1832.57 547.082 1844.34 547.082 1844.34V1850.94V1841.4L543.736 1834.67L549.312 1829.63L543.736 1827.4L538.16 1835.09C538.16 1835.09 540.391 1838.58 538.16 1840.85C535.93 1843.08 538.16 1853.17 538.16 1853.17C538.16 1853.17 534.481 1857.37 537.157 1858.63C539.833 1859.9 536.209 1867.76 536.209 1867.76L526.842 1858.63L522.548 1853.17L519.203 1843.08L527.009 1834.25L537.045 1827.53L538.718 1824.16L523.664 1831.73L515.858 1838.04L519.203 1853.72V1860.99C519.203 1860.99 520.318 1865.74 527.009 1865.32C533.7 1864.9 529.407 1862.92 531.302 1867.72C533.142 1872.47 532.585 1876.67 532.585 1876.67C532.585 1876.67 529.239 1880.45 529.239 1882.98C529.239 1885.5 525.894 1891.8 525.894 1891.8C525.894 1891.8 522.548 1893.07 521.433 1895.59C520.318 1898.11 519.203 1899.5 515.858 1901.35C512.512 1903.16 507.494 1914.09 507.494 1914.09C507.494 1914.09 509.724 1916.73 507.494 1923.21C505.264 1929.64 503.033 1930.06 503.033 1933.84C503.033 1937.63 503.591 1958.65 503.591 1958.65L503.033 1966.22C503.033 1966.22 500.245 1967.48 503.033 1972.52C505.821 1977.57 505.264 1989.76 505.264 1989.76C505.264 1989.76 505.821 2001.53 505.821 2005.73C505.821 2009.94 498.907 2013.85 501.807 2015.7C504.706 2017.5 499.465 2020.74 501.807 2025.24C504.149 2029.74 501.082 2033.1 501.082 2033.1L492.439 2008.3C492.439 2008.3 493.555 1993.71 492.439 1992.2C491.324 1990.64 492.439 1977.06 492.439 1977.06L491.938 1964.16C491.938 1964.16 491.436 1957.01 491.938 1952.38C492.439 1947.76 500.246 1937.25 500.246 1937.25L501.361 1921.7L489.094 1937.8V1959.66L482.961 1975.93C482.961 1975.93 482.961 1988.96 482.961 1991.48C482.961 1994 487.421 1999.47 487.421 1999.47L482.961 1965.29L479.058 1949.02C479.058 1949.02 481.288 1933.17 479.058 1931.66C476.827 1930.1 479.058 1914.84 479.058 1914.84C479.058 1914.84 476.493 1907.57 478.054 1904.75C479.615 1901.94 485.916 1896.05 485.916 1896.05L493.555 1885.54L505.821 1869.57L503.591 1841.82L508.721 1837.78L518.645 1830.05L524.779 1822.9L536.042 1816.17V1804.4L547.082 1793.05L549.87 1784.64L536.042 1797.13L532.027 1803.98L525.336 1812.39L515.858 1824.58L498.573 1843.5L496.342 1851.49L493.555 1866.2L490.209 1876.71C490.209 1876.71 487.979 1879.23 485.749 1883.02C483.518 1886.8 477.552 1891.85 477.552 1891.85L472.367 1903.62C472.367 1903.62 469.579 1907.4 469.579 1909.92C469.579 1912.45 467.906 1917.62 469.579 1921.57C471.252 1925.48 467.906 1929.26 469.579 1932.21C471.252 1935.15 472.367 1942.29 475.712 1945.66C479.058 1949.02 476.827 1957.85 476.827 1957.85C476.827 1957.85 476.827 1964.16 476.827 1967.52C476.827 1970.88 476.827 1980.97 476.827 1980.97L477.943 1992.74L480.73 1999.05L473.482 1984.76L462.888 1972.56C462.888 1972.56 462.888 1970.46 462.888 1967.94C462.888 1965.42 462.888 1949.02 462.888 1949.02V1938.38V1930.52V1924.34V1915.94V1908.07L465.843 1896.01C465.843 1896.01 458.427 1899.37 458.427 1904.84C458.427 1910.3 458.985 1909.04 458.427 1915.35C457.87 1921.65 458.427 1933.84 458.427 1933.84C458.427 1933.84 451.179 1926.28 451.179 1923.33C451.179 1920.39 450.064 1909.04 450.064 1909.04C450.064 1909.04 450.064 1896.43 450.064 1896.01C450.064 1895.59 446.718 1887.18 446.718 1887.18L442.258 1881.71L436.125 1873.73C436.125 1873.73 429.991 1874.99 436.125 1878.35C442.258 1881.71 440.585 1886.76 440.585 1886.76L442.258 1892.22L443.54 1896.01C443.54 1896.01 443.931 1900.63 444.488 1902.31C445.046 1904 445.046 1908.62 445.046 1908.62C445.046 1908.62 445.046 1912.4 445.046 1914.93C445.046 1917.45 445.046 1921.65 445.046 1921.65C445.046 1921.65 447.834 1929.64 448.949 1931.74C450.064 1933.84 450.064 1933.84 450.064 1933.84L451.179 1940.99C451.179 1940.99 455.64 1944.65 454.524 1946.16C453.409 1947.72 454.524 1950.07 454.524 1950.07L451.179 1953.56L445.046 1943.89L429.991 1941.79V1932.67L434.452 1947.26L443.373 1951.04C443.373 1951.04 451.179 1961.13 451.179 1964.07C451.179 1967.01 448.949 1974.58 448.949 1974.58C448.949 1974.58 446.718 1993.08 446.718 1996.02C446.718 1998.96 442.815 2003.17 447.276 2009.05C449.506 2012 451.291 2015.02 452.573 2017.38C453.855 2019.73 454.524 2021.25 454.524 2021.25L463.446 2033.02L440.585 1992.66C440.585 1992.66 435.567 1975.42 436.125 1972.9C436.682 1970.38 435.567 1953.56 435.567 1953.56L429.991 1949.48V1966.3V1994.34C429.991 1994.34 427.761 1994.76 429.991 1997.7C432.222 2000.65 436.125 2004.85 436.125 2004.85L445.046 2019.56L454.524 2033.02L466.791 2039.32C466.791 2039.32 472.924 2053.62 473.482 2056.56C473.705 2057.78 471.14 2055.76 468.074 2052.94C463.724 2048.99 458.427 2043.53 458.427 2043.53C458.427 2043.53 451.179 2042.27 450.064 2040.16C448.949 2038.06 442.258 2029.65 442.258 2029.65L434.452 2013.26C434.452 2013.26 430.549 2023.35 433.337 2029.65C436.125 2035.96 454.524 2047.02 454.524 2047.02C454.524 2047.02 470.137 2057.82 471.809 2061.18C473.482 2064.55 474.597 2078 474.597 2078L462.888 2065.39C462.888 2065.39 455.082 2060.89 454.524 2059.38C453.967 2057.82 445.046 2050.25 445.046 2050.25L445.603 2047.73V2058.66L447.276 2062.02L454.524 2069.47L457.87 2071.27L460.658 2075.06L462.163 2078H517.196H532.808H547.639L577.191 2075.48L582.766 2061.18L598.936 2046.05L607.3 2039.74C607.3 2039.74 613.99 2035.96 616.778 2035.12C619.566 2034.28 630.718 2030.92 630.718 2030.92L638.524 2030.07L648.56 2029.23L661.384 2024.19L674.208 2022.93C674.208 2022.93 689.486 2021.88 691.437 2021.33C695.787 2020.15 699.299 2019.14 699.299 2019.14L711.008 2016.62C711.008 2016.62 726.62 2013.26 718.814 2014.94C711.008 2016.62 670.305 2019.98 670.305 2019.98H663.057C663.057 2019.98 650.233 2019.14 648.002 2019.98C645.772 2020.83 627.372 2023.35 627.372 2023.35C627.372 2023.35 624.027 2024.19 621.797 2026.29C619.566 2028.39 607.3 2034.7 607.3 2034.7C607.3 2034.7 600.609 2035.96 597.263 2038.48C593.918 2041 586.112 2041.85 586.112 2041.85L592.803 2035.12L593.918 2029.23L601.724 2022.93L608.415 2020.83C608.415 2020.83 612.875 2017.88 613.99 2016.2C615.106 2014.52 615.106 2014.52 615.106 2014.52C615.106 2014.52 617.336 2009.9 621.239 2008.21C625.142 2006.53 630.718 2004.85 630.718 2004.85L640.754 2002.75L648.56 1996.44L655.251 1994.76L667.518 1992.66L681.457 1988.88L710.451 1982.57L681.457 1984.67L661.942 1988.88L639.081 1993.92C639.081 1993.92 634.063 1996.44 631.833 1998.12C629.603 1999.81 619.009 2004.01 619.009 2004.01C619.009 2004.01 610.087 2005.69 607.857 2007.37C605.627 2009.05 597.263 2020.83 597.263 2020.83L588.342 2025.87L575.016 2039.2V2045.92L569.942 2053.28L570.5 2031.42L581.651 2026.8L596.148 2011.66L600.609 2007.46L587.785 2011.66L578.306 2023.01L566.039 2028.06L565.482 2031.42L563.809 2039.83V2020.07L562.694 2012.92L556.003 2009.56L548.197 2004.09L538.718 1997.37V1988.12V1977.61L548.197 1971.3V1962.89L558.233 1955.33L561.021 1946.08L563.809 1937.25L568.269 1925.06L570.5 1913.71L575.016 1910.34L589.457 1896.89L596.706 1886.38C596.706 1886.38 597.821 1876.29 598.378 1874.61C598.936 1872.93 604.902 1858.63 604.902 1858.63L608.415 1853.59L616.778 1841.4L597.263 1862L592.245 1871.67L586.112 1879.65L583.882 1888.06V1891.43L581.094 1877.97C581.094 1877.97 579.979 1867.88 580.536 1866.2C581.094 1864.52 584.997 1853.17 584.997 1853.17L581.094 1864.52L575.016 1872.21C575.016 1872.21 573.957 1875.03 575.016 1878.39C576.075 1881.76 572.842 1881.46 575.016 1884.57C577.191 1887.64 572.842 1888.48 575.016 1890.16C577.191 1891.85 573.957 1894.24 575.016 1895.76C576.075 1897.31 575.016 1901.35 575.016 1901.35C575.016 1901.35 571.057 1904.04 569.385 1905.72C567.712 1907.4 563.251 1911.19 563.251 1913.29C563.251 1915.39 559.348 1920.85 559.348 1920.85L558.233 1925.06L556.003 1904.88C556.003 1904.88 553.773 1902.36 558.233 1898.99C562.694 1895.63 562.694 1895.63 562.694 1895.63C562.694 1895.63 564.924 1893.11 565.482 1891.43C566.039 1889.74 567.712 1881.34 567.712 1881.34C567.712 1881.34 568.827 1876.29 568.269 1878.81C567.712 1881.34 561.579 1890.16 561.579 1890.16L556.56 1893.95L549.87 1901.94V1906.56L547.639 1913.29L552.657 1928.42V1931.78L547.082 1942.29L544.851 1952.8C544.851 1957.01 540.948 1960.37 540.948 1962.05C540.948 1963.74 538.16 1967.1 537.045 1968.78C535.93 1970.46 525.336 1976.35 525.336 1976.35L525.894 1987.28L527.009 1994L528.124 2009.56C528.124 2009.56 533.142 2009.14 535.93 2011.66C538.718 2014.18 543.736 2016.29 545.967 2017.97C548.197 2019.65 549.312 2028.48 549.312 2028.48L549.87 2040.25L545.409 2048.24L532.585 2031.42L518.645 2020.91V2005.78V1996.53L514.742 1977.19V1971.3C514.742 1971.3 515.3 1963.74 516.973 1962.05C518.645 1960.37 522.548 1945.66 522.548 1945.66C522.548 1945.66 508.609 1949.44 511.397 1944.4C514.185 1939.35 514.185 1936.83 514.185 1936.83L514.742 1930.52L515.858 1926.74L534.257 1922.12L543.179 1904.88L532.027 1918.54H523.831L518.645 1922.12L516.973 1914.13L518.645 1905.72L527.009 1900.68L529.239 1897.31L537.045 1886.8L540.391 1879.65L541.506 1872.09L545.967 1866.62L552.1 1855.27L556.56 1842.66L563.251 1834.67C563.251 1834.67 581.651 1819.12 582.766 1817.44C583.882 1815.75 584.997 1811.55 584.997 1811.55L587.227 1799.78L584.997 1790.53V1785.49L587.227 1782.12L595.033 1775.4L596.706 1767.41L594.475 1759Z" fill="url(#paint2_linear)"/>
<path id="Vector_6" d="M1275.48 1525L1270.37 1537.39V1552.18L1260.16 1559.25L1252.14 1568V1578.42V1592.05V1611.51C1252.14 1611.51 1255.78 1620.47 1252.14 1624.11C1248.49 1627.76 1229.52 1646.71 1228.79 1649.62C1228.07 1652.54 1213.48 1672.94 1213.48 1672.94V1684.38V1667.84L1209.1 1656.18L1216.39 1647.44L1209.1 1643.57L1201.81 1656.91C1201.81 1656.91 1204.72 1662.96 1201.81 1666.89C1198.89 1670.76 1201.81 1688.25 1201.81 1688.25C1201.81 1688.25 1196.99 1695.54 1200.49 1697.72C1203.99 1699.91 1199.25 1713.54 1199.25 1713.54L1187 1697.72L1181.38 1688.25L1177.01 1670.76L1187.22 1655.45L1200.35 1643.79L1202.54 1637.96L1182.84 1651.08L1172.63 1662.01L1177.01 1689.19V1701.8C1177.01 1701.8 1178.46 1710.04 1187.22 1709.31C1195.97 1708.58 1190.35 1705.15 1192.83 1713.46C1195.24 1721.7 1194.51 1728.99 1194.51 1728.99C1194.51 1728.99 1190.14 1735.55 1190.14 1739.92C1190.14 1744.29 1185.76 1755.22 1185.76 1755.22C1185.76 1755.22 1181.38 1757.41 1179.92 1761.78C1178.46 1766.15 1177.01 1768.56 1172.63 1771.77C1168.25 1774.9 1161.69 1793.85 1161.69 1793.85C1161.69 1793.85 1164.61 1798.44 1161.69 1809.66C1158.77 1820.81 1155.85 1821.54 1155.85 1828.1C1155.85 1834.66 1156.58 1871.1 1156.58 1871.1L1155.85 1884.22C1155.85 1884.22 1152.2 1886.4 1155.85 1895.15C1159.5 1903.89 1158.77 1925.03 1158.77 1925.03C1158.77 1925.03 1159.5 1945.43 1159.5 1952.72C1159.5 1960.01 1150.45 1966.79 1154.25 1969.99C1158.04 1973.13 1151.18 1978.74 1154.25 1986.54C1157.31 1994.34 1153.3 2000.17 1153.3 2000.17L1141.99 1957.17C1141.99 1957.17 1143.45 1931.88 1141.99 1929.26C1140.53 1926.56 1141.99 1903.02 1141.99 1903.02L1141.34 1880.65C1141.34 1880.65 1140.68 1868.26 1141.34 1860.24C1141.99 1852.22 1152.2 1834 1152.2 1834L1153.66 1807.04L1137.62 1834.95V1872.85L1129.59 1901.05C1129.59 1901.05 1129.59 1923.64 1129.59 1928.02C1129.59 1932.39 1135.43 1941.86 1135.43 1941.86L1129.59 1882.61L1124.49 1854.41C1124.49 1854.41 1127.4 1826.93 1124.49 1824.31C1121.57 1821.61 1124.49 1795.16 1124.49 1795.16C1124.49 1795.16 1121.13 1782.55 1123.17 1777.67C1125.22 1772.79 1133.46 1762.58 1133.46 1762.58L1143.45 1744.36L1159.5 1716.67L1156.58 1668.57L1163.29 1661.57L1176.28 1648.16L1184.3 1635.77L1199.03 1624.11V1603.71L1213.48 1584.03L1217.12 1569.46L1199.03 1591.1L1193.78 1602.98L1185.03 1617.56L1172.63 1638.69L1150.02 1671.49L1147.1 1685.33L1143.45 1710.84L1139.08 1729.06C1139.08 1729.06 1136.16 1733.43 1133.24 1739.99C1130.32 1746.55 1122.52 1755.3 1122.52 1755.3L1115.73 1775.7C1115.73 1775.7 1112.09 1782.26 1112.09 1786.63C1112.09 1791.01 1109.9 1799.97 1112.09 1806.82C1114.27 1813.6 1109.9 1820.16 1112.09 1825.26C1114.27 1830.36 1115.73 1842.75 1120.11 1848.58C1124.49 1854.41 1121.57 1869.71 1121.57 1869.71C1121.57 1869.71 1121.57 1880.65 1121.57 1886.48C1121.57 1892.31 1121.57 1909.8 1121.57 1909.8L1123.03 1930.2L1126.67 1941.13L1117.19 1916.36L1103.33 1895.22C1103.33 1895.22 1103.33 1891.58 1103.33 1887.2C1103.33 1882.83 1103.33 1854.41 1103.33 1854.41V1835.97V1822.34V1811.63V1797.05V1783.43L1107.2 1762.51C1107.2 1762.51 1097.5 1768.34 1097.5 1777.81C1097.5 1787.29 1098.23 1785.1 1097.5 1796.03C1096.77 1806.97 1097.5 1828.1 1097.5 1828.1C1097.5 1828.1 1088.02 1814.98 1088.02 1809.88C1088.02 1804.78 1086.56 1785.1 1086.56 1785.1C1086.56 1785.1 1086.56 1763.24 1086.56 1762.51C1086.56 1761.78 1082.18 1747.21 1082.18 1747.21L1076.34 1737.73L1068.32 1723.88C1068.32 1723.88 1060.3 1726.07 1068.32 1731.9C1076.34 1737.73 1074.16 1746.48 1074.16 1746.48L1076.34 1755.95L1078.02 1762.51C1078.02 1762.51 1078.53 1770.53 1079.26 1773.44C1079.99 1776.36 1079.99 1784.37 1079.99 1784.37C1079.99 1784.37 1079.99 1790.93 1079.99 1795.31C1079.99 1799.68 1079.99 1806.97 1079.99 1806.97C1079.99 1806.97 1083.64 1820.81 1085.1 1824.46C1086.56 1828.1 1086.56 1828.1 1086.56 1828.1L1088.02 1840.49C1088.02 1840.49 1093.85 1846.83 1092.39 1849.45C1090.93 1852.15 1092.39 1856.23 1092.39 1856.23L1088.02 1862.28L1079.99 1845.52L1060.3 1841.87V1826.06L1066.13 1851.35L1077.8 1857.91C1077.8 1857.91 1088.02 1875.4 1088.02 1880.5C1088.02 1885.6 1085.1 1898.72 1085.1 1898.72C1085.1 1898.72 1082.18 1930.79 1082.18 1935.89C1082.18 1940.99 1077.07 1948.28 1082.91 1958.48C1085.83 1963.58 1088.16 1968.83 1089.84 1972.91C1091.52 1976.99 1092.39 1979.61 1092.39 1979.61L1104.06 2000.02L1074.16 1930.06C1074.16 1930.06 1067.59 1900.18 1068.32 1895.8C1069.05 1891.43 1067.59 1862.28 1067.59 1862.28L1060.3 1855.21V1884.36V1932.97C1060.3 1932.97 1057.38 1933.7 1060.3 1938.8C1063.21 1943.9 1068.32 1951.19 1068.32 1951.19L1079.99 1976.7L1092.39 2000.02L1108.44 2010.95C1108.44 2010.95 1116.46 2035.73 1117.19 2040.83C1117.48 2042.95 1114.13 2039.45 1110.12 2034.56C1104.43 2027.71 1097.5 2018.24 1097.5 2018.24C1097.5 2018.24 1088.02 2016.05 1086.56 2012.41C1085.1 2008.77 1076.34 1994.19 1076.34 1994.19L1066.13 1965.77C1066.13 1965.77 1061.03 1983.26 1064.67 1994.19C1068.32 2005.12 1092.39 2024.29 1092.39 2024.29C1092.39 2024.29 1112.82 2043.02 1115 2048.85C1117.19 2054.68 1118.65 2078 1118.65 2078L1103.33 2056.14C1103.33 2056.14 1093.12 2048.34 1092.39 2045.71C1091.66 2043.02 1079.99 2029.9 1079.99 2029.9L1080.72 2025.53V2044.48L1082.91 2050.31L1092.39 2063.21L1096.77 2066.34L1100.42 2072.9L1102.38 2078H1174.38H1194.8H1214.21L1252.87 2073.63L1260.16 2048.85L1281.31 2022.61L1292.25 2011.68C1292.25 2011.68 1301.01 2005.12 1304.66 2003.66C1308.3 2002.21 1322.89 1996.38 1322.89 1996.38L1333.1 1994.92L1346.23 1993.46L1363.01 1984.72L1379.79 1982.53C1379.79 1982.53 1399.77 1980.71 1402.33 1979.76C1408.02 1977.72 1412.61 1975.97 1412.61 1975.97L1427.93 1971.6C1427.93 1971.6 1448.35 1965.77 1438.14 1968.68C1427.93 1971.6 1374.68 1977.43 1374.68 1977.43H1365.2C1365.2 1977.43 1348.42 1975.97 1345.5 1977.43C1342.59 1978.89 1318.51 1983.26 1318.51 1983.26C1318.51 1983.26 1314.14 1984.72 1311.22 1988.36C1308.3 1992 1292.25 2002.94 1292.25 2002.94C1292.25 2002.94 1283.5 2005.12 1279.13 2009.49C1274.75 2013.87 1264.54 2015.32 1264.54 2015.32L1273.29 2003.66L1274.75 1993.46L1284.96 1982.53L1293.71 1978.89C1293.71 1978.89 1299.55 1973.78 1301.01 1970.87C1302.47 1967.95 1302.47 1967.95 1302.47 1967.95C1302.47 1967.95 1305.38 1959.94 1310.49 1957.02C1315.6 1954.11 1322.89 1951.19 1322.89 1951.19L1336.02 1947.55L1346.23 1936.62L1354.99 1933.7L1371.03 1930.06L1389.27 1923.5L1427.2 1912.57L1389.27 1916.21L1363.74 1923.5L1333.83 1932.24C1333.83 1932.24 1327.27 1936.62 1324.35 1939.53C1321.43 1942.45 1307.57 1949.73 1307.57 1949.73C1307.57 1949.73 1295.9 1952.65 1292.98 1955.56C1290.07 1958.48 1279.13 1978.89 1279.13 1978.89L1267.45 1987.63L1250.02 2010.73V2022.39L1243.38 2035.15L1244.11 1997.25L1258.7 1989.23L1277.67 1963L1283.5 1955.71L1266.72 1963L1254.32 1982.68L1238.28 1991.42L1237.55 1997.25L1235.36 2011.83V1977.57L1233.9 1965.18L1225.15 1959.35L1214.94 1949.88L1202.54 1938.22V1922.19V1903.97L1214.94 1893.04V1878.46L1228.07 1865.34L1231.71 1849.31L1235.36 1834L1241.19 1812.87L1244.11 1793.19L1250.02 1787.36L1268.91 1764.04L1278.4 1745.82C1278.4 1745.82 1279.85 1728.33 1280.58 1725.42C1281.31 1722.5 1289.12 1697.72 1289.12 1697.72L1293.71 1688.98L1304.66 1667.84L1279.13 1703.55L1272.56 1720.31L1264.54 1734.16L1261.62 1748.74V1754.57L1257.97 1731.25C1257.97 1731.25 1256.51 1713.75 1257.24 1710.84C1257.97 1707.92 1263.08 1688.25 1263.08 1688.25L1257.97 1707.92L1250.02 1721.26C1250.02 1721.26 1248.64 1726.14 1250.02 1731.97C1251.41 1737.8 1247.18 1737.29 1250.02 1742.69C1252.87 1748.01 1247.18 1749.46 1250.02 1752.38C1252.87 1755.3 1248.64 1759.45 1250.02 1762.07C1251.41 1764.77 1250.02 1771.77 1250.02 1771.77C1250.02 1771.77 1244.84 1776.43 1242.65 1779.35C1240.47 1782.26 1234.63 1788.82 1234.63 1792.46C1234.63 1796.11 1229.52 1805.58 1229.52 1805.58L1228.07 1812.87L1225.15 1777.89C1225.15 1777.89 1222.23 1773.51 1228.07 1767.68C1233.9 1761.85 1233.9 1761.85 1233.9 1761.85C1233.9 1761.85 1236.82 1757.48 1237.55 1754.57C1238.28 1751.65 1240.47 1737.08 1240.47 1737.08C1240.47 1737.08 1241.92 1728.33 1241.19 1732.7C1240.47 1737.08 1232.44 1752.38 1232.44 1752.38L1225.88 1758.94L1217.12 1772.79V1780.8L1214.21 1792.46L1220.77 1818.7V1824.53L1213.48 1842.75L1210.56 1860.97C1210.56 1868.26 1205.45 1874.09 1205.45 1877C1205.45 1879.92 1201.81 1885.75 1200.35 1888.66C1198.89 1891.58 1185.03 1901.78 1185.03 1901.78L1185.76 1920.73L1187.22 1932.39L1188.68 1959.35C1188.68 1959.35 1195.24 1958.63 1198.89 1963C1202.54 1967.37 1209.1 1971.01 1212.02 1973.93C1214.94 1976.84 1216.39 1992.15 1216.39 1992.15L1217.12 2012.56L1211.29 2026.4L1194.51 1997.25L1176.28 1979.03V1952.8V1936.76L1171.17 1903.24V1893.04C1171.17 1893.04 1171.9 1879.92 1174.09 1877C1176.28 1874.09 1181.38 1848.58 1181.38 1848.58C1181.38 1848.58 1163.15 1855.14 1166.79 1846.39C1170.44 1837.65 1170.44 1833.27 1170.44 1833.27L1171.17 1822.34L1172.63 1815.78L1196.7 1807.77L1208.37 1777.89L1193.78 1801.57H1183.06L1176.28 1807.77L1174.09 1793.92L1176.28 1779.35L1187.22 1770.6L1190.14 1764.77L1200.35 1746.55L1204.72 1734.16L1206.18 1721.04L1212.02 1711.57L1220.04 1691.89L1225.88 1670.03L1234.63 1656.18C1234.63 1656.18 1258.7 1629.22 1260.16 1626.3C1261.62 1623.39 1263.08 1616.1 1263.08 1616.1L1266 1595.69L1263.08 1579.66V1570.91L1266 1565.08L1276.21 1553.42L1278.4 1539.58L1275.48 1525Z" fill="url(#paint3_linear)"/>
</g>
<defs>
<linearGradient id="paint0_linear" x1="394" y1="1577" x2="394" y2="2090" gradientUnits="userSpaceOnUse">
<stop stop-color="#F9CFA8"/>
<stop offset="1" stop-color="#740C25"/>
</linearGradient>
<linearGradient id="paint1_linear" x1="1597" y1="1749" x2="1597" y2="2074" gradientUnits="userSpaceOnUse">
<stop stop-color="#FC98E0"/>
<stop offset="1" stop-color="#740C25"/>
</linearGradient>
<linearGradient id="paint2_linear" x1="575" y1="1759" x2="575" y2="2078" gradientUnits="userSpaceOnUse">
<stop stop-color="#FC98E0"/>
<stop offset="1" stop-color="#740C25"/>
</linearGradient>
<linearGradient id="paint3_linear" x1="1250" y1="1525" x2="1250" y2="2078" gradientUnits="userSpaceOnUse">
<stop offset="0.479167" stop-color="#FB9B41"/>
<stop offset="1" stop-color="#740C25"/>
</linearGradient>
</defs>
</svg>
