<svg width="1967" height="2090" viewBox="0 0 1967 2090" fill="none" xmlns="http://www.w3.org/2000/svg">
<g id="corals">
<path id="Vector" d="M40 2077.52L68.5968 2070.01H82.228H103.866L116.258 2058.47H130.557C130.557 2058.47 129.889 2057.25 136.943 2058.47C143.902 2059.69 143.902 2059.69 143.902 2059.69C143.902 2059.69 148.382 2055.09 158.486 2057.91C168.59 2060.72 168.686 2060.63 168.686 2060.63L190.61 2062.5L215.68 2056.97H223.306H237.318H260.196L276.687 2067.2L311.003 2056.97H317.389H344.08H360.285H396.221L417.478 2047.49L428.917 2037.16L449.888 2047.49L459.706 2037.16V2027.12L468.953 2003.38H482.584L466.093 1989.3H477.532L482.584 1980.85L469.906 1970.53L465.14 1959.27H473.719L492.783 1978.04V1992.12L491.83 1964.43L486.397 1959.27L474.672 1948.01L478.485 1934.87L505.175 1962.08L514.708 1992.12L520.713 2006.19V1963.3L514.708 1946.13L529.959 1931.11L569.042 1921.73L540.445 1937.68L526.146 1946.13V1954.58C526.146 1954.58 529.006 1957.39 529.959 1962.08C530.913 1966.78 530.913 1966.78 530.913 1966.78L529.959 1975.22L541.303 1957.67L543.305 1948.01L553.79 1947.07L538.538 1976.16L532.819 1982.73L531.866 1989.3L530.627 1999.62L541.398 1994.93L548.071 2009.01L554.743 1993.99L563.322 2019.33V2026.84L569.042 2029.47L582.387 2031.53L594.969 2017.08L606.218 2005.26L594.969 1999.62L585.247 1993.99L583.34 2007.13L579.527 2008.07L579.337 1999.62L574.761 1994.93L573.808 1983.67H579.527L594.969 1987.33V1992.12L590.966 1979.92L594.969 1970.06L599.545 1980.85L606.218 1980.57V1986.3V1995.87L616.703 1993.9L611.937 1977.94L602.405 1970.44L611.937 1964.81L616.703 1970.91C616.703 1970.91 606.218 1970.62 616.703 1975.69C627.189 1980.76 623.376 1991.08 623.376 1991.08L624.043 1999.53H627.951H635.768V1987.24V1978.6V1968.09L642.44 1965.74V1975.69V1981.42L649.113 1975.97L657.692 1975.04V1984.23V1989.02L669.131 1985.36L663.411 1972.22L651.019 1964.71L653.879 1956.26V1945.94L669.131 1965.09C671.037 1971.28 671.037 1971.28 671.037 1971.28V1979.45C671.037 1979.45 675.803 1981.6 675.803 1984.42C675.803 1987.24 675.803 1992.87 675.803 1992.87L662.077 1999.44C662.077 1999.44 661.505 1994.74 657.215 1999.44C652.926 2004.13 644.347 2004.13 640.534 2006.01C636.721 2007.88 626.235 2006.94 626.235 2006.94V2010.7L632.908 2016.33H641.487L637.674 2021.96L632.908 2024.78L645.3 2026.65L654.832 2022.9L664.365 2019.15L667.224 2009.76L675.803 2005.35L695.821 1981.6L688.195 1976.91L687.242 1962.83L675.803 1954.39L680.569 1942.19L695.821 1966.96C699.634 1976.91 700.587 1985.36 700.587 1985.36V1990.05L708.213 2003.19L727.278 1991.93L720.605 1981.6L707.26 1974.1L712.979 1965.65L727.278 1958.42L733.95 1973.16L739.67 1974.1V1964.15L732.044 1950.63L731.09 1944.06L717.745 1934.68C717.745 1934.68 735.857 1928.2 739.67 1927.73C743.482 1927.26 730.137 1914.03 730.137 1914.03H740.337L754.921 1941.25V1947.82L769.22 1937.49L776.845 1932.8L761.594 1921.54V1907.46V1900.89C761.594 1900.89 761.594 1889.63 758.734 1888.69C755.874 1887.75 755.874 1887.75 755.874 1887.75L753.015 1882.12L748.249 1870.86L749.202 1865.23C753.968 1867.11 763.5 1872.74 763.5 1872.74L764.453 1884C769.22 1890.57 777.799 1893.2 776.845 1897.04C775.892 1900.89 775.892 1900.89 775.892 1900.89L780.658 1884.94L773.033 1878.37L768.171 1865.23H780.658H784.757V1852.93C784.757 1852.93 760.45 1864.1 789.619 1852.93C806.586 1846.46 805.347 1845.33 801.343 1845.52C798.388 1845.61 794.099 1846.46 794.099 1846.46L809.351 1835.2H822.791L801.725 1857.72L798.865 1868.04C798.865 1868.04 809.351 1873.68 810.304 1877.43C811.257 1881.18 801.725 1890.57 801.725 1890.57L795.052 1884L793.146 1877.43L788.379 1890.57L795.052 1899.02L789.333 1909.34L806.491 1908.4L816.023 1900.89V1896.2L816.976 1884.94L822.791 1880.71V1868.23V1859.6V1852.93L829.368 1868.04V1878.84L839.854 1883.06L848.433 1880.25C851.293 1884.94 848.433 1887.47 848.433 1887.47L859.872 1887.75C859.872 1887.75 847.48 1897.14 850.339 1899.95C853.199 1902.77 853.199 1899.02 853.199 1902.77C853.199 1906.52 853.199 1914.97 853.199 1914.97V1923.42L856.059 1929.05C863.685 1933.74 859.872 1940.22 859.872 1940.22L854.152 1947.82L847.098 1956.26C853.199 1959.08 853.199 1959.08 853.199 1959.08L855.105 1965.65L868.546 1956.26V1947.82V1938.25V1931.58V1922.01L862.731 1916L861.778 1901.92H868.546L875.123 1898.17V1889.44L869.404 1883.15L859.872 1876.58L855.105 1874.71L844.62 1866.26L846.526 1855L852.246 1863.45L858.918 1856.88L860.825 1869.08L875.123 1870.3C874.17 1875.65 869.404 1859.69 869.404 1859.69L866.544 1851.24L859.872 1845.61L870.357 1839.98L875.123 1835.29H880.175C880.175 1835.29 894.188 1841.86 891.328 1844.68C888.468 1847.49 888.468 1847.49 888.468 1847.49L891.709 1853.97L901.814 1851.24C901.814 1851.24 904.673 1842.8 907.533 1852.18C910.393 1861.57 907.533 1868.42 907.533 1868.42L918.972 1873.77L929.457 1884.09C922.785 1890.66 917.065 1891.6 917.065 1891.6L918.972 1898.17L935.177 1897.23L928.504 1913.19C926.598 1917.88 924.691 1935.71 924.691 1935.71L915.159 1934.77L906.58 1937.59V1945.1L894.188 1946.04L884.656 1947.91L895.808 1956.36C905.627 1956.36 913.348 1956.36 913.348 1956.36L931.364 1937.59L935.749 1927.83L942.802 1937.59L938.99 1940.4L947.569 1939.28L958.054 1938.53L951.382 1950.73C951.382 1950.73 943.088 1954.48 940.61 1956.36C938.036 1958.24 934.223 1962.93 934.223 1962.93L929.457 1968.56L940.896 1972.31L927.551 1978.88L913.252 1981.7L923.738 1984.51H943.756L958.054 1992.96L964.727 1993.9L970.446 1986.39V1979.54C970.446 1979.54 958.054 1975.13 955.194 1975.13C952.335 1975.13 948.522 1977.94 948.522 1974.19C948.522 1970.44 949.475 1963.87 949.475 1963.87L959.007 1960.11L970.446 1970.91C976.165 1981.7 976.165 1969.97 976.165 1969.97V1962.27V1956.36L967.586 1946.04L962.82 1943.22V1937.59L956.148 1932.9C956.148 1932.9 946.615 1919.76 944.709 1916.94C942.802 1914.13 940.896 1909.43 940.896 1909.43L938.99 1891.6L939.943 1885.97L948.522 1872.83L953.288 1862.51L961.867 1855V1847.49L964.727 1839.98L965.68 1830.6V1824.03C965.68 1824.03 963.011 1827.78 960.056 1824.03C957.101 1820.27 953.193 1821.21 953.288 1824.03C953.383 1826.84 940.991 1828.72 940.991 1828.72L930.887 1821.59L926.693 1816.52L924.786 1807.13L930.506 1803.38H937.75H946.52H959.198H964.06L976.261 1818.49L977.691 1827.13V1803.47V1784.14L962.725 1765.93H945.376L931.268 1762.18H908.391L909.344 1749.04L913.157 1742.47L920.783 1734.96H929.743L943.66 1742.47C951.286 1747.16 951.286 1747.16 951.286 1747.16L957.959 1752.79L962.725 1756.55L969.398 1762.18L977.5 1770.72C977.5 1770.72 969.398 1771.1 977.5 1777.38C985.602 1783.77 985.602 1783.77 985.602 1783.77L992.275 1779.07V1774.57L1002.76 1768.75C1002.76 1768.75 1003.71 1767.81 1007.53 1767.81C1011.34 1767.81 1018.01 1765.93 1018.01 1765.93C1018.01 1765.93 1021.83 1765 1026.59 1765C1031.36 1765 1031.36 1765 1031.36 1765L1040.89 1769.69V1774.57L1031.36 1780.29L1022.78 1780.01L1011.34 1784.7L999.901 1790.34H993.228L991.322 1797.84L987.509 1807.23L985.602 1811.92C985.602 1811.92 985.602 1812.86 985.602 1815.68C985.602 1818.49 985.602 1812.86 985.602 1818.49C985.602 1824.12 982.743 1829.75 982.743 1829.75L977.5 1835.85L973.21 1841.02L970.351 1846.65L969.398 1853.22L986.556 1846.65L1005.62 1843.83L1013.25 1841.95L1027.54 1847.58L1031.36 1853.12C1031.36 1853.12 1027.54 1855.19 1031.36 1858.85C1035.17 1862.6 1031.36 1868.42 1031.36 1868.42L1021.83 1870.02L1012.29 1865.32L992.275 1856.88H988.462L977.5 1862.6L973.21 1862.51C973.21 1862.51 971.304 1862.51 968.444 1864.38C965.585 1866.26 955.099 1872.83 955.099 1872.83H969.398L977.5 1868.42L985.602 1868.14L990.369 1874.71C993.228 1882.22 997.994 1882.22 994.181 1885.03C990.369 1887.85 990.369 1887.85 990.369 1887.85L977.5 1889.44L964.631 1888.88H953.193L950.333 1896.39V1902.02L956.052 1917.97V1922.67L963.678 1916.1L965.775 1906.24L977.5 1900.14L986.556 1894.51L1006.57 1896.39L1010.39 1899.2L1010.58 1906.24H999.901L997.041 1910.47C986.556 1912.34 977.5 1915.44 977.5 1915.44L972.257 1919.85L969.398 1925.48L970.351 1933.93C970.351 1933.93 976.07 1936.46 977.5 1939.37C978.93 1942.37 982.743 1950.82 982.743 1950.82L983.696 1956.45L992.275 1955.51L997.041 1950.82L1010.39 1946.13H1018.97L1023.73 1948.01L1031.36 1952.79V1957.58V1964.24L1018.97 1967.62L1001.81 1966.68L990.369 1970.44L982.743 1980.76L984.649 1987.33C984.649 1987.33 996.088 1991.08 1001.81 1991.08C1007.53 1991.08 1012.29 1992.96 1012.29 1992.96L1031.36 1994.93L1040.89 1993.99L1049.47 1993.05L1054.23 1988.36V1980.57L1044.7 1971.47V1962.08L1058.05 1956.45V1950.92V1942.28V1936.56L1061.86 1926.42L1060.05 1923.89L1057.09 1919.85C1057.09 1919.85 1061.29 1906.71 1057.29 1906.24C1053.28 1905.77 1066.63 1909.53 1053.28 1905.77C1039.94 1902.02 1046.61 1898.26 1046.61 1898.26L1053.28 1895.45C1053.28 1895.45 1065.67 1874.52 1061.86 1895.36C1058.05 1916.19 1066.63 1927.36 1066.63 1927.36L1074.25 1917.03V1902.02V1890.47L1068.53 1877.62L1067.87 1871.7L1066.63 1860.72L1069.49 1844.77L1079.97 1889.82L1080.93 1900.14C1080.93 1900.14 1080.93 1899.2 1080.93 1910.47C1080.93 1921.73 1080.93 1927.92 1080.93 1927.92L1076.16 1936.74L1071.39 1941.44L1080.93 1943.22L1092.36 1944.25C1092.36 1944.25 1084.74 1946.69 1092.36 1938.43C1099.99 1930.17 1101.9 1912.34 1101.9 1912.34V1906.24L1087.6 1868.23L1101.9 1864.67L1106.66 1846.65V1867.48V1874.14L1097.13 1876.58L1099.04 1881.28C1099.04 1881.28 1105.71 1884.47 1106.66 1888.5C1107.62 1892.54 1110.48 1898.17 1110.48 1898.17L1124.77 1891.6L1129.54 1881.28V1869.36L1135.26 1861.57L1140.03 1858.75V1864.57V1873.21V1877.99L1133.35 1891.6L1128.59 1897.23L1125.73 1901.92L1118.67 1906.15L1109.52 1916V1921.63L1107.62 1928.2L1105.71 1934.77L1100.94 1942.28L1104.76 1947.91C1109.52 1953.54 1118.1 1939.47 1118.1 1939.47L1120.01 1928.2L1125.73 1918.82L1126.68 1914.13L1134.31 1911.31L1140.03 1906.15L1149.84 1902.86L1162.43 1906.15L1143.84 1917.97L1136.21 1921.73L1130.49 1933.93L1125.73 1939.56L1122.87 1947.07L1120.96 1950.82L1126.68 1960.21L1131.45 1962.08L1140.03 1957.39L1144.79 1949.88L1149.84 1942.28L1155.28 1932.99L1162.9 1927.36L1168.62 1917.03V1906.24V1899.11L1160.04 1894.51L1155.28 1888.88C1155.28 1888.88 1157.18 1884.19 1160.04 1880.43C1162.9 1876.68 1162.9 1871.99 1162.9 1871.99L1159.09 1861.66C1161.95 1875.74 1167.67 1878.74 1168.62 1883.81C1169.58 1888.88 1169.58 1888.88 1169.58 1888.88V1893.38L1176.25 1900.14L1183.87 1913.28C1181.01 1921.73 1175.29 1926.42 1175.29 1926.42L1168.62 1933.93L1159.09 1942.37L1156.23 1947.07L1149.84 1953.73V1958.52V1969.03L1163.86 1977.94C1163.86 1977.94 1170.53 1977.94 1174.34 1977.94C1178.15 1977.94 1183.87 1976.72 1183.87 1976.72L1197.22 1965.74V1977.66L1209.61 1980.76L1218.19 1972.31V1956.55V1949.88L1223.91 1942.28C1223.91 1942.28 1223.91 1937.59 1217.24 1937.59C1210.56 1937.59 1200.08 1936.65 1200.08 1936.65L1198.17 1928.2L1208.66 1921.63L1219.14 1925.39C1219.14 1925.39 1221.05 1922.67 1223.91 1927.83C1226.77 1932.99 1226.77 1932.9 1226.77 1932.9V1922.01V1915.35L1215.04 1906.15C1215.04 1906.15 1211.52 1901.92 1216.28 1901.92C1221.05 1901.92 1226.77 1901.92 1226.77 1901.92C1226.77 1901.92 1232.68 1899.11 1235.44 1906.15C1238.21 1913.19 1238.21 1913.19 1238.21 1913.19L1244.88 1900.99L1237.25 1891.6H1223.91L1222.96 1886.91L1235.35 1884.09L1227.72 1872.83L1214.38 1880.34L1208.66 1888.79L1197.22 1885.97L1193.41 1873.77L1202.94 1869.08L1211.52 1868.14L1219.14 1867.2L1224.86 1866.26L1223.91 1853.12L1214.38 1847.49C1214.38 1847.49 1212.47 1846.55 1206.75 1846.55C1201.03 1846.55 1201.03 1846.55 1201.03 1846.55C1201.03 1846.55 1192.45 1846.55 1192.45 1842.8C1192.45 1839.04 1192.45 1835.29 1192.45 1835.29L1197.22 1828.72H1201.99H1210.56L1215.33 1830.6L1221.05 1836.23L1225.82 1841.86L1236.3 1836.23L1244.88 1828.16L1252.51 1825.91L1265.85 1824.97L1277.29 1835.29L1269.66 1840.92C1269.66 1840.92 1266.8 1840.92 1262.99 1840.92C1259.18 1840.92 1259.18 1840.92 1259.18 1840.92H1247.74L1241.07 1843.74L1236.3 1845.61L1232.49 1850.31C1232.49 1857.81 1233.44 1862.51 1233.44 1862.51V1868.14L1242.97 1860.63L1255.37 1851.24L1263.95 1852.18L1262.99 1866.26L1250.6 1867.2C1250.6 1867.2 1245.83 1863.45 1245.83 1868.14C1245.83 1872.83 1245.83 1872.83 1245.83 1872.83L1243.93 1877.52L1247.74 1890.66L1277.29 1885.59L1283.96 1889.72V1899.02C1283.96 1899.02 1284.06 1909.43 1278.24 1906.15C1272.52 1902.86 1272.52 1902.86 1272.52 1902.86L1262.04 1898.17C1262.04 1898.17 1260.13 1896.29 1257.27 1898.17C1254.41 1900.05 1252.41 1902.86 1252.03 1906.15C1251.55 1909.43 1251.55 1909.43 1251.55 1909.43C1251.55 1909.43 1251.55 1911.31 1246.79 1916C1242.02 1920.7 1242.02 1920.7 1242.02 1920.7L1247.74 1923.51L1262.04 1930.08L1256.32 1935.71C1256.32 1935.71 1258.23 1937.59 1251.55 1936.65C1244.88 1935.71 1238.21 1931.96 1238.21 1931.96L1233.44 1937.59C1233.44 1937.59 1237.25 1938.53 1237.25 1942.28C1237.25 1946.04 1244.88 1947.91 1244.88 1947.91C1252.51 1952.6 1258.23 1958.24 1258.23 1958.24L1266.8 1974.19L1275.38 1983.58L1283.96 1978.6C1283.96 1978.6 1289.68 1977.01 1292.54 1977.01C1295.4 1977.01 1308.75 1971.37 1308.75 1971.37L1319.23 1966.68L1302.07 1956.36L1300.17 1950.73L1290.64 1933.83V1929.14L1302.07 1935.71C1302.07 1935.71 1308.75 1938.53 1310.65 1942.28C1312.56 1946.04 1319.23 1958.52 1319.23 1958.52L1325.9 1961.05V1947.91L1321.14 1941.34L1320.19 1930.08L1316.37 1920.7L1325.9 1914.41V1921.07C1325.9 1921.07 1321.14 1928.48 1325.9 1932.61C1330.67 1936.65 1331.62 1938.53 1332.58 1941.34C1333.53 1944.16 1334.48 1948.85 1334.48 1948.85V1953.64L1341.16 1952.6V1938.34V1927.83V1919.19L1345.92 1915.06C1345.92 1915.06 1346.88 1908.49 1350.69 1918.82C1354.5 1929.14 1355.46 1933.83 1355.46 1933.83C1355.46 1933.83 1355.46 1926.89 1355.46 1938.34C1355.46 1949.79 1355.46 1953.64 1355.46 1953.64L1360.22 1955.42L1366.89 1947.91V1939.28V1926.8V1917.22C1366.89 1917.22 1365.94 1914.13 1373.57 1913.19C1381.19 1912.25 1381.19 1912.25 1381.19 1912.25C1381.19 1912.25 1378.33 1911.03 1381.19 1918.26C1384.05 1925.48 1384.05 1932.43 1381.19 1935.52C1378.33 1938.62 1383.1 1931.11 1378.33 1938.62C1373.57 1946.13 1373.57 1946.13 1373.57 1946.13L1370.71 1954.58L1372.61 1958.33C1372.61 1958.33 1373.57 1954.58 1378.33 1952.7C1383.1 1950.82 1387.86 1946.13 1387.86 1946.13V1933.65L1396.44 1920.79V1931.77V1944.25L1387.86 1962.18L1385.96 1966.87L1396.44 1968.28L1414.56 1965.93L1426.95 1959.36L1417.41 1944.35L1415.51 1931.21L1410.74 1911.5L1420.37 1906.34L1426.95 1928.95L1430.76 1941.53L1441.25 1928.39L1432.67 1911.5C1432.67 1911.5 1425.04 1900.24 1431.71 1900.24C1438.39 1900.24 1446.96 1900.24 1446.96 1900.24V1923.23V1938.53L1459.36 1933.08V1916.47L1445.06 1893.67V1876.77C1445.06 1876.77 1447.92 1877.71 1452.68 1876.77C1457.45 1875.83 1467.94 1877.71 1467.94 1877.71L1475.56 1900.24V1928.95L1490.81 1910.56L1501.3 1911.5C1501.3 1911.5 1506.07 1919.01 1501.3 1925.11C1496.53 1931.21 1485.09 1940.59 1485.09 1940.59L1503.4 1935.62C1501.3 1942.47 1498.44 1941.53 1494.63 1947.16C1490.81 1952.79 1490.81 1952.79 1490.81 1952.79L1503.4 1955.8L1535.62 1958.42L1553.73 1976.26V1953.82L1589.95 1954.67C1589.95 1954.67 1599.48 1957.48 1599.48 1961.24C1599.48 1964.99 1599.48 1969.97 1599.48 1976.91C1599.48 1983.86 1599.48 1990.33 1599.48 1990.33L1611.87 2003.47C1611.87 2003.47 1620.45 2005.35 1627.13 2006.29C1633.8 2007.23 1639.52 2016.61 1639.52 2016.61L1658.58 2024.12C1658.58 2024.12 1664.3 2028.81 1667.16 2031.63C1670.02 2034.44 1671.93 2038.2 1687.18 2036.32C1702.43 2034.44 1702.43 2034.44 1702.43 2034.44L1717.68 2026C1717.68 2026 1712.92 2015.39 1717.68 2008.54C1722.45 2001.69 1719.59 1991.27 1725.31 1987.52C1731.03 1983.76 1750.09 1969.69 1754.86 1967.81C1759.62 1965.93 1759.62 1965.93 1759.62 1965.93L1779.64 1961.24V1936.84L1771.06 1930.27L1766.96 1906.34L1758.67 1900.24C1758.67 1900.24 1760.58 1895.54 1751.04 1895.54C1741.51 1895.54 1736.75 1895.54 1736.75 1895.54L1721.49 1892.73C1721.49 1892.73 1726.26 1885.22 1729.12 1885.22C1731.98 1885.22 1744.37 1885.22 1744.37 1885.22H1757.72L1748.19 1875.83C1748.19 1875.83 1748.19 1873.02 1741.51 1872.08C1734.84 1871.14 1710.06 1867.39 1710.06 1867.39L1700.52 1865.51C1700.52 1865.51 1683.37 1855.19 1699.57 1856.13C1715.78 1857.06 1746.28 1862.69 1746.28 1862.69C1757.72 1867.39 1754.86 1863.63 1760.58 1873.02C1766.3 1882.4 1767.25 1890.85 1767.25 1890.85C1767.25 1890.85 1773.73 1904.93 1775.73 1906.34C1777.74 1907.74 1777.74 1907.74 1777.74 1907.74L1779.64 1894.42V1885.78L1774.88 1873.02L1766.3 1867.39L1761.53 1858L1751.04 1844.86L1747.23 1827.97C1747.23 1827.97 1745.33 1825.15 1741.51 1822.34C1737.7 1819.52 1734.84 1817.65 1734.84 1813.89C1734.84 1810.14 1726.26 1797 1726.26 1797L1741.51 1801.69L1752.95 1810.14C1752.95 1810.14 1748.19 1812.02 1753.9 1818.58C1759.62 1825.15 1759.62 1825.15 1759.62 1825.15C1759.62 1825.15 1772.02 1849.56 1772.97 1853.31C1773.92 1857.06 1778.69 1859.22 1779.64 1864.76C1780.59 1870.2 1783.45 1867.39 1786.31 1874.9C1789.17 1882.4 1791.08 1887.1 1791.08 1887.1V1892.54L1800.61 1910.56C1800.61 1910.56 1799.66 1934.02 1810.14 1915.25C1820.63 1896.48 1815.86 1878.65 1815.86 1878.65L1812.05 1865.51L1803.47 1838.29L1792.99 1822.34L1776.78 1807.32L1758.67 1792.31C1758.67 1792.31 1749.14 1783.86 1746.28 1782.92C1743.42 1781.98 1735.79 1775.41 1735.79 1775.41L1724.35 1769.78L1713.87 1778.23L1687.18 1782.92L1700.52 1754.77L1731.98 1755.7L1752 1759.46L1757.72 1764.15L1765.34 1772.6L1773.92 1781.98L1789.17 1792.31L1808.24 1805.45L1812.05 1815.77L1811.1 1820.46L1812.05 1837.35L1821.58 1848.62V1858.94V1872.36L1826.35 1881.47V1892.73L1832.16 1906.34L1845.41 1898.36V1864.76L1850.18 1844.86L1834.93 1815.77L1829.21 1792.31L1814.91 1783.86L1807.29 1776.35L1803.47 1766.03L1798.71 1759.46L1799.66 1751.01L1800.42 1740.97L1801.57 1726.61L1798.71 1717.22L1800.61 1713.47C1800.61 1713.47 1806.33 1738.81 1808.24 1747.26C1810.14 1755.7 1810.14 1755.7 1810.14 1755.7C1810.14 1755.7 1808.24 1753.83 1813 1760.4C1817.77 1766.97 1833.02 1781.98 1833.02 1781.98L1850.18 1799.53V1806.2C1850.18 1806.2 1846.37 1816.99 1850.18 1819.62C1853.99 1822.24 1854.95 1822.24 1856.85 1826.94C1858.76 1831.63 1861.62 1822.24 1861.62 1841.95C1861.62 1861.66 1861.62 1865.6 1861.62 1865.6C1861.62 1865.6 1862.57 1864.1 1861.62 1870.39C1860.67 1876.68 1861.62 1885.69 1861.62 1885.69L1872.1 1876.68L1883.54 1855.09L1887.36 1833.51L1873.06 1822.24L1870.2 1806.29V1797.84L1854.95 1787.52C1868.29 1786.58 1894.98 1794.09 1894.98 1794.09C1894.98 1801.6 1894.98 1801.79 1894.98 1815.77C1894.98 1829.75 1891.17 1824.12 1894.98 1829.75C1898.8 1835.38 1894.98 1845.43 1894.98 1845.43C1894.98 1845.43 1900.7 1852.28 1901.65 1849.46C1902.61 1846.65 1911.19 1817.55 1911.19 1817.55L1906.42 1791.27L1891.17 1765.93C1891.17 1765.93 1892.12 1759.36 1885.45 1756.55C1878.78 1753.73 1857.81 1740.59 1857.81 1740.59C1857.81 1740.59 1847.32 1735.9 1846.37 1730.27C1845.41 1724.64 1843.51 1719.95 1843.51 1719.95C1843.51 1719.95 1842.55 1713.38 1839.69 1708.68C1836.84 1703.99 1829.21 1688.04 1829.21 1688.04V1679.59C1829.21 1679.59 1835.88 1672.08 1823.49 1669.27C1811.1 1666.45 1815.96 1672.08 1805.95 1669.27C1795.94 1666.45 1788.22 1664.57 1788.22 1664.57L1784.41 1658C1784.41 1658 1791.08 1663.64 1779.64 1641.11C1768.2 1618.59 1766.3 1613.89 1766.3 1613.89L1768.2 1605.45L1777.74 1597L1786.31 1582.92C1786.31 1582.92 1799.75 1580.11 1805.95 1582.92C1812.15 1585.74 1812.72 1581.7 1812.72 1581.7L1774.88 1558.52C1767.25 1563.21 1750.47 1558.52 1750.47 1558.52C1750.47 1558.52 1746.28 1531.31 1761.53 1536C1776.78 1540.69 1781.55 1535.43 1781.55 1535.43L1786.31 1522.86H1805C1805 1522.86 1813.96 1532.24 1819.68 1534.12C1825.4 1536 1818.72 1535.06 1828.26 1540.69C1837.79 1546.32 1845.41 1548.2 1845.41 1548.2H1864.48L1884.5 1551.95L1895.94 1545.38L1897.84 1534.12L1896.89 1515.35L1878.78 1505.97L1873.06 1488.13L1850.18 1463.73L1834.93 1442.15C1834.93 1442.15 1844.46 1453.41 1825.4 1442.15C1806.33 1430.88 1787.27 1419.62 1787.27 1419.62C1787.27 1419.62 1786.31 1400.85 1792.99 1400.85C1799.66 1400.85 1814.91 1396.16 1814.91 1396.16L1820.63 1384.9L1799.66 1366.13C1803.47 1359.56 1803.47 1351.11 1814.91 1351.11C1826.35 1351.11 1829.21 1352.05 1831.12 1348.29C1833.02 1344.54 1841.6 1307 1841.6 1307L1874.96 1330.46L1875.92 1313.57L1888.31 1325.77V1345.48C1888.31 1345.48 1895.94 1348.29 1888.31 1354.86C1880.68 1361.43 1866.39 1364.25 1866.39 1364.25L1885.45 1378.33L1900.7 1379.27L1906.42 1381.14L1911.19 1416.06V1420.84L1915 2077.52L40 2087V2077.52Z" fill="#0D0B0B" fill-opacity="0.81"/>
<path id="Vector_2" d="M78.1209 1556.63L67.5318 1562.17V1572.54L59.7664 1579.96V1590.48H68.9437V1596.7V1602.92L64.0021 1608.99L59.7664 1619.51L68.9437 1622.99L78.1209 1629.21V1634.76L88.0041 1639.06L96.4754 1646.47L104.241 1650.46L114.83 1653.58L120.478 1649.43V1658.92V1669.96H115.536L104.241 1674.26L100.711 1678.41L112.712 1682.56H120.478V1693.44V1699.67L107.065 1708.48V1713.66H116.454H133.396L145.891 1716.77L152.245 1710.55L164.246 1709.52L174.835 1711.59L179.565 1716.77L179.777 1732.85L188.248 1736.99L184.012 1744.77L188.248 1753.58V1763.95L196.719 1767.58H207.803L220.015 1764.47H234.134L243.523 1767.58V1775V1780.54L248.959 1787.28H262.372L284.256 1781.06L302.611 1774.32L308.258 1764.47L333.672 1770.69L322.377 1755.14L318.847 1741.66L326.613 1734.4V1747.36L328.025 1753.58H333.672L337.908 1740.62L347.085 1733.37V1737.67C347.085 1737.67 349.909 1742.7 347.085 1745.29C344.261 1747.88 339.32 1754.1 339.32 1754.1L348.356 1756.33L359.086 1747.42H367.558L361.91 1753.12L367.558 1755.71L346.379 1760.38L344.967 1766.6L357.674 1768.15L367.558 1763.33V1771.63V1777.85L359.086 1782.15L362.122 1787.34L360.498 1793.04L373.205 1797.19V1804.96V1813.1L377.441 1827.77V1835.91H385.7L385.912 1830.89L398.619 1829.85V1835.91H410.62H422.409L426.857 1825.7L410.62 1817.25L405.678 1814.3L405.467 1806H410.62H421.421L422.621 1813.78L431.798 1811.18L439.564 1809.11L445.917 1804.96H460.036L470.625 1809.11C470.625 1809.11 469.213 1813.26 466.39 1813.26C463.566 1813.26 451.565 1811.7 451.565 1811.7L440.976 1813.78L435.328 1822.07L431.798 1826.22V1835.91L442.388 1824.66L459.33 1825.7L460.742 1830.89L450.647 1835.91H439.352L437.446 1839.18L435.328 1844.88L443.093 1847.48L445.211 1851.11V1856.81L456.506 1851.11L466.39 1853.18L466.601 1856.81L466.39 1864.07H438.364L436.74 1874.44L442.388 1882.73L470.625 1892.58L476.273 1880.14L485.45 1878.06L491.098 1886.36L485.45 1898.28L491.098 1901.39H504.299H511.852L525.053 1888.95L537.054 1893.1V1901.39H549.55L549.761 1882.21V1873.24L553.997 1863.03L570.94 1858.88V1870.44L575.881 1881.69L580.823 1883.77L570.94 1894.14L561.762 1901.39L567.41 1910.73L561.762 1916.95L566.704 1929.91L585.059 1942.87L607.649 1953.24H634.263C634.263 1953.24 650.005 1970.87 652.123 1973.98C654.241 1977.09 664.124 1998.86 664.124 1998.86L680.361 2010.79L712.128 2014.94L763.45 2019.76L803.901 2027.38L818.726 2052.26L849.081 2058.49L862 2084.93L40 2087V1525H65.6257" fill="#6C69EF" fill-opacity="0.52"/>
<path id="Vector_3" d="M509.482 1295L502.772 1312.81V1334.08L489.352 1344.24L478.808 1356.81V1371.8V1391.39V1419.36C478.808 1419.36 483.6 1432.25 478.808 1437.49C474.015 1442.73 449.092 1469.97 448.133 1474.16C447.175 1478.35 428.003 1507.68 428.003 1507.68V1524.13V1500.35L422.252 1483.59L431.838 1471.01L422.252 1465.46L412.666 1484.63C412.666 1484.63 416.501 1493.33 412.666 1498.99C408.832 1504.54 412.666 1529.69 412.666 1529.69C412.666 1529.69 406.34 1540.16 410.941 1543.31C415.542 1546.45 409.311 1566.04 409.311 1566.04L393.207 1543.31L385.826 1529.69L380.075 1504.54L393.495 1482.54L410.749 1465.78L413.625 1457.39L387.744 1476.25L374.324 1491.97L380.075 1531.05V1549.17C380.075 1549.17 381.992 1561.01 393.495 1559.97C404.998 1558.92 397.617 1553.99 400.876 1565.94C404.039 1577.78 403.081 1588.25 403.081 1588.25C403.081 1588.25 397.329 1597.68 397.329 1603.97C397.329 1610.26 391.578 1625.97 391.578 1625.97C391.578 1625.97 385.826 1629.11 383.909 1635.4C381.992 1641.69 380.075 1645.14 374.324 1649.75C368.572 1654.26 359.945 1681.5 359.945 1681.5C359.945 1681.5 363.779 1688.1 359.945 1704.23C356.111 1720.26 352.277 1721.31 352.277 1730.74C352.277 1740.17 353.235 1792.56 353.235 1792.56L352.277 1811.41C352.277 1811.41 347.484 1814.56 352.277 1827.13C357.069 1839.7 356.111 1870.09 356.111 1870.09C356.111 1870.09 357.069 1899.42 357.069 1909.9C357.069 1920.38 345.183 1930.12 350.168 1934.73C355.152 1939.23 346.142 1947.3 350.168 1958.51C354.194 1969.72 348.922 1978.1 348.922 1978.1L334.064 1916.29C334.064 1916.29 335.981 1879.93 334.064 1876.16C332.147 1872.29 334.064 1838.45 334.064 1838.45L333.201 1806.28C333.201 1806.28 332.338 1788.47 333.201 1776.95C334.064 1765.42 347.484 1739.23 347.484 1739.23L349.401 1700.46L328.312 1740.59V1795.07L317.768 1835.62C317.768 1835.62 317.768 1868.1 317.768 1874.38C317.768 1880.67 325.437 1894.29 325.437 1894.29L317.768 1809.11L311.058 1768.56C311.058 1768.56 314.892 1729.06 311.058 1725.29C307.224 1721.42 311.058 1683.38 311.058 1683.38C311.058 1683.38 306.649 1665.26 309.333 1658.24C312.017 1651.22 322.848 1636.55 322.848 1636.55L335.981 1610.36L357.069 1570.55L353.235 1501.4L362.054 1491.34L379.116 1472.06L389.661 1454.25L409.024 1437.49V1408.15L428.003 1379.86L432.796 1358.91L409.024 1390.03L402.122 1407.1L390.619 1428.06L374.324 1458.44L344.608 1505.59L340.774 1525.5L335.981 1562.17L330.229 1588.36C330.229 1588.36 326.395 1594.64 322.561 1604.07C318.727 1613.5 308.47 1626.08 308.47 1626.08L299.555 1655.41C299.555 1655.41 294.762 1664.84 294.762 1671.13C294.762 1677.41 291.887 1690.3 294.762 1700.15C297.638 1709.89 291.887 1719.32 294.762 1726.66C297.638 1733.99 299.555 1751.8 305.307 1760.18C311.058 1768.56 307.224 1790.57 307.224 1790.57C307.224 1790.57 307.224 1806.28 307.224 1814.66C307.224 1823.04 307.224 1848.19 307.224 1848.19L309.141 1877.53L313.934 1893.24L301.472 1857.62L283.26 1827.24C283.26 1827.24 283.26 1822 283.26 1815.71C283.26 1809.42 283.26 1768.56 283.26 1768.56V1742.06V1722.46V1707.06V1686.11V1666.52L288.34 1636.45C288.34 1636.45 275.591 1644.83 275.591 1658.45C275.591 1672.07 276.55 1668.93 275.591 1684.64C274.633 1700.36 275.591 1730.74 275.591 1730.74C275.591 1730.74 263.13 1711.88 263.13 1704.55C263.13 1697.21 261.213 1668.93 261.213 1668.93C261.213 1668.93 261.213 1637.5 261.213 1636.45C261.213 1635.4 255.461 1614.45 255.461 1614.45L247.793 1600.83L237.248 1580.92C237.248 1580.92 226.704 1584.06 237.248 1592.44C247.793 1600.83 244.917 1613.4 244.917 1613.4L247.793 1627.02L249.997 1636.45C249.997 1636.45 250.668 1647.97 251.627 1652.16C252.585 1656.35 252.585 1667.88 252.585 1667.88C252.585 1667.88 252.585 1677.31 252.585 1683.59C252.585 1689.88 252.585 1700.36 252.585 1700.36C252.585 1700.36 257.378 1720.26 259.295 1725.5C261.213 1730.74 261.213 1730.74 261.213 1730.74L263.13 1748.55C263.13 1748.55 270.798 1757.67 268.881 1761.44C266.964 1765.32 268.881 1771.18 268.881 1771.18L263.13 1779.88L252.585 1755.78L226.704 1750.54V1727.81L234.373 1764.16L249.71 1773.59C249.71 1773.59 263.13 1798.74 263.13 1806.07C263.13 1813.41 259.295 1832.26 259.295 1832.26C259.295 1832.26 255.461 1878.36 255.461 1885.7C255.461 1893.03 248.751 1903.51 256.42 1918.18C260.254 1925.51 263.321 1933.05 265.526 1938.92C267.731 1944.79 268.881 1948.56 268.881 1948.56L284.218 1977.9L244.917 1877.32C244.917 1877.32 236.29 1834.36 237.248 1828.07C238.207 1821.79 236.29 1779.88 236.29 1779.88L226.704 1769.72V1811.62V1881.51C226.704 1881.51 222.87 1882.55 226.704 1889.89C230.538 1897.22 237.248 1907.7 237.248 1907.7L252.585 1944.37L268.881 1977.9L289.97 1993.61C289.97 1993.61 300.514 2029.23 301.472 2036.57C301.856 2039.61 297.446 2034.58 292.174 2027.56C284.697 2017.71 275.591 2004.09 275.591 2004.09C275.591 2004.09 263.13 2000.94 261.213 1995.71C259.295 1990.47 247.793 1969.51 247.793 1969.51L234.373 1928.65C234.373 1928.65 227.663 1953.8 232.456 1969.51C237.248 1985.23 268.881 2012.78 268.881 2012.78C268.881 2012.78 295.721 2039.71 298.597 2048.09C301.472 2056.47 303.39 2090 303.39 2090L283.26 2058.57C283.26 2058.57 269.84 2047.36 268.881 2043.59C267.923 2039.71 252.585 2020.85 252.585 2020.85L253.544 2014.57V2041.81L256.42 2050.19L268.881 2068.73L274.633 2073.24L279.425 2082.67L282.014 2090H376.624H403.464H428.962L479.766 2083.71L489.352 2048.09L517.15 2010.37L531.529 1994.66C531.529 1994.66 543.032 1985.23 547.824 1983.13C552.617 1981.04 571.789 1972.66 571.789 1972.66L585.209 1970.56L602.463 1968.47L624.51 1955.89L646.557 1952.75C646.557 1952.75 672.822 1950.13 676.177 1948.77C683.654 1945.84 689.693 1943.32 689.693 1943.32L709.822 1937.03C709.822 1937.03 736.662 1928.65 723.242 1932.84C709.822 1937.03 639.847 1945.42 639.847 1945.42H627.386C627.386 1945.42 605.339 1943.32 601.504 1945.42C597.67 1947.51 566.037 1953.8 566.037 1953.8C566.037 1953.8 560.286 1955.89 556.452 1961.13C552.617 1966.37 531.529 1982.09 531.529 1982.09C531.529 1982.09 520.026 1985.23 514.275 1991.52C508.523 1997.8 495.103 1999.9 495.103 1999.9L506.606 1983.13L508.523 1968.47L521.943 1952.75L533.446 1947.51C533.446 1947.51 541.114 1940.18 543.032 1935.99C544.949 1931.8 544.949 1931.8 544.949 1931.8C544.949 1931.8 548.783 1920.27 555.493 1916.08C562.203 1911.89 571.789 1907.7 571.789 1907.7L589.043 1902.46L602.463 1886.74L613.966 1882.55L635.054 1877.32L659.018 1867.89L708.864 1852.17L659.018 1857.41L625.468 1867.89L586.167 1880.46C586.167 1880.46 577.54 1886.74 573.706 1890.94C569.872 1895.13 551.659 1905.6 551.659 1905.6C551.659 1905.6 536.322 1909.79 532.487 1913.99C528.653 1918.18 514.275 1947.51 514.275 1947.51L498.937 1960.08L476.028 1993.3V2010.06L467.305 2028.39L468.263 1973.91L487.435 1962.39L512.357 1924.67L520.026 1914.19L497.979 1924.67L481.683 1952.96L460.595 1965.53L459.636 1973.91L456.76 1994.87V1945.63L454.843 1927.81L443.341 1919.43L429.921 1905.81L413.625 1889.05V1866V1839.81L429.921 1824.09V1803.14L447.175 1784.28L451.968 1761.23L456.76 1739.23L464.429 1708.84L468.263 1680.56L476.028 1672.17L500.855 1638.65L513.316 1612.46C513.316 1612.46 515.233 1587.31 516.192 1583.12C517.15 1578.93 527.407 1543.31 527.407 1543.31L533.446 1530.73L547.824 1500.35L514.275 1551.69L505.647 1575.79L495.103 1595.69L491.269 1616.65V1625.03L486.476 1591.5C486.476 1591.5 484.559 1566.36 485.518 1562.17C486.476 1557.97 493.186 1529.69 493.186 1529.69L486.476 1557.97L476.028 1577.15C476.028 1577.15 474.206 1584.17 476.028 1592.55C477.849 1600.93 472.289 1600.2 476.028 1607.95C479.766 1615.6 472.289 1617.69 476.028 1621.88C479.766 1626.08 474.206 1632.05 476.028 1635.82C477.849 1639.7 476.028 1649.75 476.028 1649.75C476.028 1649.75 469.222 1656.46 466.346 1660.65C463.47 1664.84 455.802 1674.27 455.802 1679.51C455.802 1684.75 449.092 1698.37 449.092 1698.37L447.175 1708.84L443.341 1658.55C443.341 1658.55 439.506 1652.27 447.175 1643.89C454.843 1635.5 454.843 1635.5 454.843 1635.5C454.843 1635.5 458.678 1629.22 459.636 1625.03C460.595 1620.84 463.47 1599.88 463.47 1599.88C463.47 1599.88 465.388 1587.31 464.429 1593.6C463.47 1599.88 452.926 1621.88 452.926 1621.88L444.299 1631.31L432.796 1651.22V1662.75L428.962 1679.51L437.589 1717.23V1725.61L428.003 1751.8L424.169 1777.99C424.169 1788.47 417.459 1796.85 417.459 1801.04C417.459 1805.23 412.666 1813.61 410.749 1817.81C408.832 1822 390.619 1836.66 390.619 1836.66L391.578 1863.9L393.495 1880.67L395.412 1919.43C395.412 1919.43 404.039 1918.39 408.832 1924.67C413.625 1930.96 422.252 1936.2 426.086 1940.39C429.921 1944.58 431.838 1966.58 431.838 1966.58L432.796 1995.92L425.128 2015.82L403.081 1973.91L379.116 1947.72V1910V1886.95L372.406 1838.76V1824.09C372.406 1824.09 373.365 1805.23 376.241 1801.04C379.116 1796.85 385.826 1760.18 385.826 1760.18C385.826 1760.18 361.862 1769.61 366.655 1757.04C371.448 1744.47 371.448 1738.18 371.448 1738.18L372.406 1722.46L374.324 1713.04L405.956 1701.51L421.293 1658.55L402.122 1692.6H388.031L379.116 1701.51L376.241 1681.6L379.116 1660.65L393.495 1648.08L397.329 1639.7L410.749 1613.5L416.501 1595.69L418.418 1576.83L426.086 1563.21L436.631 1534.92L444.299 1503.49L455.802 1483.59C455.802 1483.59 487.435 1444.82 489.352 1440.63C491.269 1436.44 493.186 1425.96 493.186 1425.96L497.02 1396.63L493.186 1373.58V1361.01L497.02 1352.62L510.44 1335.86L513.316 1315.95L509.482 1295Z" fill="url(#paint0_linear)"/>
<path id="Vector_4" d="M1688.68 1693L1682.53 1701.54V1711.73L1670.23 1716.6L1660.57 1722.62V1729.8V1739.19V1752.6C1660.57 1752.6 1664.96 1758.78 1660.57 1761.29C1656.18 1763.8 1633.34 1776.85 1632.46 1778.86C1631.59 1780.87 1614.02 1794.93 1614.02 1794.93V1802.81V1791.41L1608.75 1783.38L1617.53 1777.35L1608.75 1774.69L1599.97 1783.88C1599.97 1783.88 1603.48 1788.05 1599.97 1790.76C1596.45 1793.42 1599.97 1805.47 1599.97 1805.47C1599.97 1805.47 1594.17 1810.49 1598.38 1812C1602.6 1813.51 1596.89 1822.9 1596.89 1822.9L1582.13 1812L1575.37 1805.47L1570.1 1793.42L1582.4 1782.88L1598.21 1774.84L1600.84 1770.83L1577.13 1779.86L1564.83 1787.4L1570.1 1806.13V1814.81C1570.1 1814.81 1571.86 1820.49 1582.4 1819.98C1592.94 1819.48 1586.17 1817.12 1589.16 1822.85C1592.06 1828.52 1591.18 1833.54 1591.18 1833.54C1591.18 1833.54 1585.91 1838.06 1585.91 1841.07C1585.91 1844.08 1580.64 1851.62 1580.64 1851.62C1580.64 1851.62 1575.37 1853.12 1573.61 1856.14C1571.86 1859.15 1570.1 1860.8 1564.83 1863.01C1559.56 1865.17 1551.65 1878.23 1551.65 1878.23C1551.65 1878.23 1555.17 1881.39 1551.65 1889.12C1548.14 1896.81 1544.63 1897.31 1544.63 1901.83C1544.63 1906.35 1545.51 1931.45 1545.51 1931.45L1544.63 1940.49C1544.63 1940.49 1540.24 1942 1544.63 1948.02C1549.02 1954.05 1548.14 1968.61 1548.14 1968.61C1548.14 1968.61 1549.02 1982.67 1549.02 1987.69C1549.02 1992.71 1538.13 1997.38 1542.7 1999.59C1547.26 2001.75 1539.01 2005.61 1542.7 2010.99C1546.38 2016.36 1541.55 2020.37 1541.55 2020.37L1527.94 1990.75C1527.94 1990.75 1529.7 1973.33 1527.94 1971.52C1526.18 1969.66 1527.94 1953.44 1527.94 1953.44L1527.15 1938.03C1527.15 1938.03 1526.36 1929.49 1527.15 1923.97C1527.94 1918.45 1540.24 1905.89 1540.24 1905.89L1541.99 1887.32L1522.67 1906.55V1932.66L1513.01 1952.09C1513.01 1952.09 1513.01 1967.65 1513.01 1970.67C1513.01 1973.68 1520.03 1980.21 1520.03 1980.21L1513.01 1939.38L1506.86 1919.95C1506.86 1919.95 1510.37 1901.02 1506.86 1899.22C1503.34 1897.36 1506.86 1879.13 1506.86 1879.13C1506.86 1879.13 1502.82 1870.45 1505.28 1867.08C1507.74 1863.72 1517.66 1856.69 1517.66 1856.69L1529.7 1844.13L1549.02 1825.05L1545.51 1791.92L1553.59 1787.1L1569.22 1777.86L1578.88 1769.32L1596.63 1761.29V1747.23L1614.02 1733.67L1618.41 1723.63L1596.63 1738.54L1590.3 1746.73L1579.76 1756.77L1564.83 1771.33L1537.6 1793.92L1534.09 1803.46L1529.7 1821.04L1524.43 1833.59C1524.43 1833.59 1520.91 1836.6 1517.4 1841.12C1513.88 1845.64 1504.49 1851.67 1504.49 1851.67L1496.32 1865.73C1496.32 1865.73 1491.93 1870.24 1491.93 1873.26C1491.93 1876.27 1489.29 1882.45 1491.93 1887.17C1494.56 1891.83 1489.29 1896.35 1491.93 1899.87C1494.56 1903.38 1496.32 1911.92 1501.59 1915.94C1506.86 1919.95 1503.34 1930.5 1503.34 1930.5C1503.34 1930.5 1503.34 1938.03 1503.34 1942.05C1503.34 1946.06 1503.34 1958.11 1503.34 1958.11L1505.1 1972.17L1509.49 1979.7L1498.07 1962.63L1481.39 1948.07C1481.39 1948.07 1481.39 1945.56 1481.39 1942.55C1481.39 1939.54 1481.39 1919.95 1481.39 1919.95V1907.25V1897.86V1890.48V1880.44V1871.05L1486.04 1856.64C1486.04 1856.64 1474.36 1860.65 1474.36 1867.18C1474.36 1873.71 1475.24 1872.2 1474.36 1879.73C1473.48 1887.27 1474.36 1901.83 1474.36 1901.83C1474.36 1901.83 1462.94 1892.79 1462.94 1889.27C1462.94 1885.76 1461.18 1872.2 1461.18 1872.2C1461.18 1872.2 1461.18 1857.14 1461.18 1856.64C1461.18 1856.14 1455.91 1846.09 1455.91 1846.09L1448.89 1839.57L1439.22 1830.03C1439.22 1830.03 1429.56 1831.53 1439.22 1835.55C1448.89 1839.57 1446.25 1845.59 1446.25 1845.59L1448.89 1852.12L1450.91 1856.64C1450.91 1856.64 1451.52 1862.16 1452.4 1864.17C1453.28 1866.18 1453.28 1871.7 1453.28 1871.7C1453.28 1871.7 1453.28 1876.22 1453.28 1879.23C1453.28 1882.24 1453.28 1887.27 1453.28 1887.27C1453.28 1887.27 1457.67 1896.81 1459.43 1899.32C1461.18 1901.83 1461.18 1901.83 1461.18 1901.83L1462.94 1910.36C1462.94 1910.36 1469.97 1914.73 1468.21 1916.54C1466.45 1918.4 1468.21 1921.21 1468.21 1921.21L1462.94 1925.38L1453.28 1913.83L1429.56 1911.32V1900.42L1436.59 1917.84L1450.64 1922.36C1450.64 1922.36 1462.94 1934.41 1462.94 1937.93C1462.94 1941.44 1459.43 1950.48 1459.43 1950.48C1459.43 1950.48 1455.91 1972.57 1455.91 1976.09C1455.91 1979.6 1449.76 1984.62 1456.79 1991.65C1460.3 1995.17 1463.12 1998.78 1465.14 2001.6C1467.16 2004.41 1468.21 2006.22 1468.21 2006.22L1482.26 2020.27L1446.25 1972.07C1446.25 1972.07 1438.35 1951.49 1439.22 1948.47C1440.1 1945.46 1438.35 1925.38 1438.35 1925.38L1429.56 1920.51V1940.59V1974.08C1429.56 1974.08 1426.05 1974.58 1429.56 1978.1C1433.08 1981.61 1439.22 1986.63 1439.22 1986.63L1453.28 2004.21L1468.21 2020.27L1487.53 2027.81C1487.53 2027.81 1497.2 2044.88 1498.07 2048.39C1498.43 2049.85 1494.39 2047.44 1489.55 2044.07C1482.7 2039.35 1474.36 2032.83 1474.36 2032.83C1474.36 2032.83 1462.94 2031.32 1461.18 2028.81C1459.43 2026.3 1448.89 2016.26 1448.89 2016.26L1436.59 1996.68C1436.59 1996.68 1430.44 2008.73 1434.83 2016.26C1439.22 2023.79 1468.21 2036.99 1468.21 2036.99C1468.21 2036.99 1492.8 2049.9 1495.44 2053.92C1498.07 2057.93 1499.83 2074 1499.83 2074L1481.39 2058.94C1481.39 2058.94 1469.09 2053.56 1468.21 2051.76C1467.33 2049.9 1453.28 2040.86 1453.28 2040.86L1454.16 2037.85V2050.9L1456.79 2054.92L1468.21 2063.81L1473.48 2065.97L1477.87 2070.49L1480.24 2074H1566.94H1591.53H1614.9L1661.45 2070.99L1670.23 2053.92L1695.71 2035.84L1708.88 2028.31C1708.88 2028.31 1719.42 2023.79 1723.82 2022.78C1728.21 2021.78 1745.77 2017.76 1745.77 2017.76L1758.07 2016.76L1773.88 2015.76L1794.08 2009.73L1814.29 2008.22C1814.29 2008.22 1838.35 2006.97 1841.43 2006.32C1848.28 2004.91 1853.81 2003.7 1853.81 2003.7L1872.26 2000.69C1872.26 2000.69 1896.85 1996.68 1884.56 1998.68C1872.26 2000.69 1808.14 2004.71 1808.14 2004.71H1796.72C1796.72 2004.71 1776.52 2003.7 1773 2004.71C1769.49 2005.71 1740.5 2008.73 1740.5 2008.73C1740.5 2008.73 1735.23 2009.73 1731.72 2012.24C1728.21 2014.75 1708.88 2022.28 1708.88 2022.28C1708.88 2022.28 1698.34 2023.79 1693.07 2026.8C1687.8 2029.81 1675.5 2030.82 1675.5 2030.82L1686.05 2022.78L1687.8 2015.76L1700.1 2008.22L1710.64 2005.71C1710.64 2005.71 1717.67 2002.2 1719.42 2000.19C1721.18 1998.18 1721.18 1998.18 1721.18 1998.18C1721.18 1998.18 1724.69 1992.66 1730.84 1990.65C1736.99 1988.64 1745.77 1986.63 1745.77 1986.63L1761.59 1984.12L1773.88 1976.59L1784.42 1974.58L1803.75 1972.07L1825.71 1967.55L1871.38 1960.02L1825.71 1962.53L1794.96 1967.55L1758.95 1973.58C1758.95 1973.58 1751.04 1976.59 1747.53 1978.6C1744.02 1980.61 1727.33 1985.63 1727.33 1985.63C1727.33 1985.63 1713.27 1987.64 1709.76 1989.65C1706.25 1991.65 1693.07 2005.71 1693.07 2005.71L1679.02 2011.74L1658.03 2027.66V2035.69L1650.03 2044.48L1650.91 2018.37L1668.48 2012.84L1691.32 1994.77L1698.34 1989.75L1678.14 1994.77L1663.21 2008.32L1643.88 2014.35L1643.01 2018.37L1640.37 2028.41V2004.81L1638.61 1996.27L1628.07 1992.26L1615.78 1985.73L1600.84 1977.7V1966.65V1954.1L1615.78 1946.56V1936.52L1631.59 1927.48L1635.98 1916.44L1640.37 1905.89L1647.4 1891.33L1650.91 1877.78L1658.03 1873.76L1680.78 1857.69L1692.19 1845.14C1692.19 1845.14 1693.95 1833.09 1694.83 1831.08C1695.71 1829.07 1705.11 1812 1705.11 1812L1710.64 1805.97L1723.82 1791.41L1693.07 1816.02L1685.17 1827.57L1675.5 1837.11L1671.99 1847.15V1851.16L1667.6 1835.1C1667.6 1835.1 1665.84 1823.05 1666.72 1821.04C1667.6 1819.03 1673.75 1805.47 1673.75 1805.47L1667.6 1819.03L1658.03 1828.22C1658.03 1828.22 1656.36 1831.58 1658.03 1835.6C1659.69 1839.62 1654.6 1839.26 1658.03 1842.98C1661.45 1846.65 1654.6 1847.65 1658.03 1849.66C1661.45 1851.67 1656.36 1854.53 1658.03 1856.34C1659.69 1858.19 1658.03 1863.01 1658.03 1863.01C1658.03 1863.01 1651.79 1866.23 1649.15 1868.24C1646.52 1870.24 1639.49 1874.76 1639.49 1877.27C1639.49 1879.78 1633.34 1886.31 1633.34 1886.31L1631.59 1891.33L1628.07 1867.23C1628.07 1867.23 1624.56 1864.22 1631.59 1860.2C1638.61 1856.19 1638.61 1856.19 1638.61 1856.19C1638.61 1856.19 1642.13 1853.17 1643.01 1851.16C1643.88 1849.16 1646.52 1839.11 1646.52 1839.11C1646.52 1839.11 1648.28 1833.09 1647.4 1836.1C1646.52 1839.11 1636.86 1849.66 1636.86 1849.66L1628.95 1854.18L1618.41 1863.72V1869.24L1614.9 1877.27L1622.8 1895.35V1899.37L1614.02 1911.92L1610.51 1924.47C1610.51 1929.49 1604.36 1933.51 1604.36 1935.52C1604.36 1937.53 1599.97 1941.54 1598.21 1943.55C1596.45 1945.56 1579.76 1952.59 1579.76 1952.59L1580.64 1965.64L1582.4 1973.68L1584.15 1992.26C1584.15 1992.26 1592.06 1991.75 1596.45 1994.77C1600.84 1997.78 1608.75 2000.29 1612.26 2002.3C1615.78 2004.31 1617.53 2014.85 1617.53 2014.85L1618.41 2028.91L1611.38 2038.45L1591.18 2018.37L1569.22 2005.81V1987.74V1976.69L1563.07 1953.59V1946.56C1563.07 1946.56 1563.95 1937.53 1566.59 1935.52C1569.22 1933.51 1575.37 1915.94 1575.37 1915.94C1575.37 1915.94 1553.41 1920.46 1557.8 1914.43C1562.2 1908.4 1562.2 1905.39 1562.2 1905.39L1563.07 1897.86L1564.83 1893.34L1593.82 1887.82L1607.87 1867.23L1590.3 1883.55H1577.39L1569.22 1887.82L1566.59 1878.28L1569.22 1868.24L1582.4 1862.21L1585.91 1858.19L1598.21 1845.64L1603.48 1837.11L1605.24 1828.07L1612.26 1821.54L1621.92 1807.98L1628.95 1792.92L1639.49 1783.38C1639.49 1783.38 1668.48 1764.8 1670.23 1762.79C1671.99 1760.78 1673.75 1755.76 1673.75 1755.76L1677.26 1741.7L1673.75 1730.66V1724.63L1677.26 1720.62L1689.56 1712.58L1692.19 1703.04L1688.68 1693Z" fill="url(#paint1_linear)"/>
<path id="Vector_5" d="M631.311 1725L626.539 1732.91V1742.35L616.995 1746.86L609.497 1752.45V1759.1V1767.8V1780.22C609.497 1780.22 612.905 1785.94 609.497 1788.27C606.088 1790.59 588.364 1802.69 587.682 1804.55C587.001 1806.41 573.367 1819.44 573.367 1819.44V1826.74V1816.18L569.277 1808.74L576.094 1803.15L569.277 1800.69L562.46 1809.2C562.46 1809.2 565.187 1813.06 562.46 1815.58C559.733 1818.04 562.46 1829.21 562.46 1829.21C562.46 1829.21 557.961 1833.86 561.233 1835.25C564.505 1836.65 560.074 1845.35 560.074 1845.35L548.622 1835.25L543.373 1829.21L539.282 1818.04L548.826 1808.27L561.097 1800.83L563.142 1797.11L544.736 1805.48L535.192 1812.46L539.282 1829.81V1837.86C539.282 1837.86 540.646 1843.12 548.826 1842.65C557.006 1842.19 551.757 1840 554.075 1845.3C556.325 1850.56 555.643 1855.21 555.643 1855.21C555.643 1855.21 551.553 1859.4 551.553 1862.19C551.553 1864.98 547.463 1871.96 547.463 1871.96C547.463 1871.96 543.373 1873.35 542.009 1876.15C540.646 1878.94 539.282 1880.47 535.192 1882.52C531.102 1884.52 524.967 1896.62 524.967 1896.62C524.967 1896.62 527.694 1899.55 524.967 1906.71C522.24 1913.83 519.513 1914.29 519.513 1918.48C519.513 1922.67 520.195 1945.93 520.195 1945.93L519.513 1954.3C519.513 1954.3 516.105 1955.7 519.513 1961.28C522.922 1966.86 522.24 1980.35 522.24 1980.35C522.24 1980.35 522.922 1993.38 522.922 1998.03C522.922 2002.68 514.469 2007.01 518.014 2009.06C521.558 2011.06 515.151 2014.64 518.014 2019.62C520.877 2024.59 517.127 2028.32 517.127 2028.32L506.561 2000.87C506.561 2000.87 507.925 1984.73 506.561 1983.05C505.198 1981.33 506.561 1966.3 506.561 1966.3L505.948 1952.02C505.948 1952.02 505.334 1944.11 505.948 1939C506.561 1933.88 516.105 1922.25 516.105 1922.25L517.468 1905.04L502.471 1922.85V1947.04L494.973 1965.05C494.973 1965.05 494.973 1979.47 494.973 1982.26C494.973 1985.05 500.426 1991.1 500.426 1991.1L494.973 1953.28L490.201 1935.27C490.201 1935.27 492.927 1917.74 490.201 1916.06C487.474 1914.34 490.201 1897.45 490.201 1897.45C490.201 1897.45 487.065 1889.4 488.974 1886.29C490.882 1883.17 498.585 1876.66 498.585 1876.66L507.925 1865.03L522.922 1847.35L520.195 1816.65L526.467 1812.18L538.601 1803.62L546.099 1795.71L559.87 1788.27V1775.24L573.367 1762.68L576.775 1753.38L559.87 1767.19L554.961 1774.78L546.781 1784.08L535.192 1797.57L514.06 1818.51L511.333 1827.35L507.925 1843.63L503.835 1855.26C503.835 1855.26 501.108 1858.05 498.381 1862.24C495.654 1866.42 488.36 1872.01 488.36 1872.01L482.02 1885.03C482.02 1885.03 478.612 1889.22 478.612 1892.01C478.612 1894.8 476.567 1900.52 478.612 1904.9C480.657 1909.22 476.567 1913.41 478.612 1916.67C480.657 1919.92 482.02 1927.83 486.111 1931.55C490.201 1935.27 487.474 1945.04 487.474 1945.04C487.474 1945.04 487.474 1952.02 487.474 1955.74C487.474 1959.46 487.474 1970.63 487.474 1970.63L488.837 1983.66L492.246 1990.63L483.384 1974.82L470.432 1961.33C470.432 1961.33 470.432 1959 470.432 1956.21C470.432 1953.42 470.432 1935.27 470.432 1935.27V1923.5V1914.8V1907.97V1898.66V1889.96L474.045 1876.61C474.045 1876.61 464.978 1880.33 464.978 1886.38C464.978 1892.43 465.66 1891.03 464.978 1898.01C464.296 1904.99 464.978 1918.48 464.978 1918.48C464.978 1918.48 456.116 1910.11 456.116 1906.85C456.116 1903.59 454.753 1891.03 454.753 1891.03C454.753 1891.03 454.753 1877.08 454.753 1876.61C454.753 1876.15 450.663 1866.84 450.663 1866.84L445.209 1860.79L437.71 1851.96C437.71 1851.96 430.212 1853.35 437.71 1857.07C445.209 1860.79 443.164 1866.38 443.164 1866.38L445.209 1872.42L446.777 1876.61C446.777 1876.61 447.254 1881.73 447.936 1883.59C448.618 1885.45 448.618 1890.57 448.618 1890.57C448.618 1890.57 448.618 1894.75 448.618 1897.55C448.618 1900.34 448.618 1904.99 448.618 1904.99C448.618 1904.99 452.026 1913.83 453.389 1916.15C454.753 1918.48 454.753 1918.48 454.753 1918.48L456.116 1926.39C456.116 1926.39 461.57 1930.44 460.206 1932.11C458.843 1933.83 460.206 1936.44 460.206 1936.44L456.116 1940.3L448.618 1929.6L430.212 1927.27V1917.18L435.665 1933.32L446.572 1937.51C446.572 1937.51 456.116 1948.67 456.116 1951.93C456.116 1955.19 453.389 1963.56 453.389 1963.56C453.389 1963.56 450.663 1984.03 450.663 1987.28C450.663 1990.54 445.891 1995.19 451.344 2001.71C454.071 2004.96 456.252 2008.31 457.82 2010.92C459.388 2013.52 460.206 2015.2 460.206 2015.2L471.113 2028.22L443.164 1983.56C443.164 1983.56 437.029 1964.49 437.71 1961.7C438.392 1958.91 437.029 1940.3 437.029 1940.3L430.212 1935.79V1954.39V1985.42C430.212 1985.42 427.485 1985.89 430.212 1989.15C432.939 1992.4 437.71 1997.05 437.71 1997.05L448.618 2013.34L460.206 2028.22L475.203 2035.2C475.203 2035.2 482.702 2051.02 483.384 2054.27C483.656 2055.62 480.521 2053.39 476.771 2050.27C471.454 2045.9 464.978 2039.85 464.978 2039.85C464.978 2039.85 456.116 2038.46 454.753 2036.13C453.389 2033.81 445.209 2024.5 445.209 2024.5L435.665 2006.36C435.665 2006.36 430.894 2017.52 434.302 2024.5C437.71 2031.48 460.206 2043.71 460.206 2043.71C460.206 2043.71 479.294 2055.67 481.339 2059.39C483.384 2063.11 484.747 2078 484.747 2078L470.432 2064.04C470.432 2064.04 460.888 2059.07 460.206 2057.39C459.525 2055.67 448.618 2047.3 448.618 2047.3L449.299 2044.51V2056.6L451.344 2060.32L460.206 2068.56L464.296 2070.56L467.705 2074.74L469.545 2078H536.828H555.916H574.049L610.178 2075.21L616.995 2059.39L636.764 2042.64L646.99 2035.67C646.99 2035.67 655.17 2031.48 658.578 2030.55C661.987 2029.62 675.621 2025.9 675.621 2025.9L685.164 2024.97L697.435 2024.04L713.114 2018.45L728.793 2017.06C728.793 2017.06 747.471 2015.89 749.857 2015.29C755.174 2013.99 759.469 2012.87 759.469 2012.87L773.784 2010.08C773.784 2010.08 792.871 2006.36 783.328 2008.22C773.784 2010.08 724.021 2013.8 724.021 2013.8H715.159C715.159 2013.8 699.48 2012.87 696.753 2013.8C694.026 2014.73 671.53 2017.52 671.53 2017.52C671.53 2017.52 667.44 2018.45 664.714 2020.78C661.987 2023.11 646.99 2030.08 646.99 2030.08C646.99 2030.08 638.809 2031.48 634.719 2034.27C630.629 2037.06 621.085 2037.99 621.085 2037.99L629.266 2030.55L630.629 2024.04L640.173 2017.06L648.353 2014.73C648.353 2014.73 653.807 2011.48 655.17 2009.61C656.533 2007.75 656.533 2007.75 656.533 2007.75C656.533 2007.75 659.26 2002.64 664.032 2000.78C668.804 1998.91 675.621 1997.05 675.621 1997.05L687.891 1994.73L697.435 1987.75L705.615 1985.89L720.612 1983.56L737.655 1979.38L773.102 1972.4L737.655 1974.72L713.795 1979.38L685.846 1984.96C685.846 1984.96 679.711 1987.75 676.984 1989.61C674.257 1991.47 661.305 1996.12 661.305 1996.12C661.305 1996.12 650.398 1997.98 647.671 1999.85C644.945 2001.71 634.719 2014.73 634.719 2014.73L623.812 2020.31L607.52 2035.06V2042.5L601.316 2050.65L601.998 2026.45L615.632 2021.34L633.356 2004.59L638.809 1999.94L623.13 2004.59L611.542 2017.15L596.544 2022.73L595.863 2026.45L593.818 2035.76V2013.89L592.454 2005.99L584.274 2002.26L574.73 1996.22L563.142 1988.77V1978.54V1966.91L574.73 1959.93V1950.63L587.001 1942.25L590.409 1932.02L593.818 1922.25L599.271 1908.76L601.998 1896.2L607.52 1892.47L625.175 1877.59L634.037 1865.96C634.037 1865.96 635.401 1854.79 636.083 1852.93C636.764 1851.07 644.058 1835.25 644.058 1835.25L648.353 1829.67L658.578 1816.18L634.719 1838.98L628.584 1849.68L621.085 1858.51L618.359 1867.82V1871.54L614.95 1856.65C614.95 1856.65 613.587 1845.49 614.268 1843.63C614.95 1841.77 619.722 1829.21 619.722 1829.21L614.95 1841.77L607.52 1850.28C607.52 1850.28 606.224 1853.4 607.52 1857.12C608.815 1860.84 604.861 1860.52 607.52 1863.96C610.178 1867.35 604.861 1868.28 607.52 1870.14C610.178 1872.01 606.224 1874.66 607.52 1876.33C608.815 1878.05 607.52 1882.52 607.52 1882.52C607.52 1882.52 602.68 1885.5 600.635 1887.36C598.59 1889.22 593.136 1893.41 593.136 1895.73C593.136 1898.06 588.364 1904.11 588.364 1904.11L587.001 1908.76L584.274 1886.43C584.274 1886.43 581.547 1883.64 587.001 1879.91C592.454 1876.19 592.454 1876.19 592.454 1876.19C592.454 1876.19 595.181 1873.4 595.863 1871.54C596.544 1869.68 598.59 1860.38 598.59 1860.38C598.59 1860.38 599.953 1854.79 599.271 1857.58C598.59 1860.38 591.091 1870.14 591.091 1870.14L584.956 1874.33L576.775 1883.17V1888.29L574.049 1895.73L580.184 1912.48V1916.2L573.367 1927.83L570.64 1939.46C570.64 1944.11 565.868 1947.83 565.868 1949.7C565.868 1951.56 562.46 1955.28 561.097 1957.14C559.733 1959 546.781 1965.51 546.781 1965.51L547.463 1977.61L548.826 1985.05L550.189 2002.26C550.189 2002.26 556.325 2001.8 559.733 2004.59C563.142 2007.38 569.277 2009.71 572.004 2011.57C574.73 2013.43 576.094 2023.2 576.094 2023.2L576.775 2036.22L571.322 2045.06L555.643 2026.45L538.601 2014.82V1998.08V1987.84L533.829 1966.44V1959.93C533.829 1959.93 534.511 1951.56 536.556 1949.7C538.601 1947.83 543.373 1931.55 543.373 1931.55C543.373 1931.55 526.33 1935.74 529.739 1930.16C533.147 1924.57 533.147 1921.78 533.147 1921.78L533.829 1914.8L535.192 1910.62L557.688 1905.5L568.595 1886.43L554.961 1901.55H544.94L538.601 1905.5L536.556 1896.66L538.601 1887.36L548.826 1881.78L551.553 1878.05L561.097 1866.42L565.187 1858.51L566.55 1850.14L572.004 1844.09L579.502 1831.53L584.956 1817.58L593.136 1808.74C593.136 1808.74 615.632 1791.52 616.995 1789.66C618.359 1787.8 619.722 1783.15 619.722 1783.15L622.449 1770.13L619.722 1759.89V1754.31L622.449 1750.59L631.992 1743.14L634.037 1734.3L631.311 1725Z" fill="url(#paint2_linear)"/>
<path id="Vector_6" d="M1262.44 1420L1257.65 1434.74V1452.35L1248.05 1460.76L1240.51 1471.16V1483.56V1499.78V1522.93C1240.51 1522.93 1243.94 1533.6 1240.51 1537.93C1237.08 1542.27 1219.26 1564.82 1218.57 1568.28C1217.89 1571.75 1204.18 1596.03 1204.18 1596.03V1609.65V1589.96L1200.06 1576.09L1206.92 1565.68L1200.06 1561.09L1193.21 1576.96C1193.21 1576.96 1195.95 1584.15 1193.21 1588.84C1190.47 1593.43 1193.21 1614.24 1193.21 1614.24C1193.21 1614.24 1188.68 1622.92 1191.97 1625.52C1195.26 1628.12 1190.81 1644.33 1190.81 1644.33L1179.29 1625.52L1174.01 1614.24L1169.9 1593.43L1179.5 1575.22L1191.84 1561.35L1193.89 1554.41L1175.38 1570.02L1165.79 1583.03L1169.9 1615.37V1630.37C1169.9 1630.37 1171.27 1640.17 1179.5 1639.3C1187.72 1638.44 1182.45 1634.36 1184.78 1644.25C1187.04 1654.05 1186.35 1662.72 1186.35 1662.72C1186.35 1662.72 1182.24 1670.52 1182.24 1675.73C1182.24 1680.93 1178.13 1693.94 1178.13 1693.94C1178.13 1693.94 1174.01 1696.54 1172.64 1701.74C1171.27 1706.94 1169.9 1709.8 1165.79 1713.62C1161.67 1717.35 1155.5 1739.89 1155.5 1739.89C1155.5 1739.89 1158.25 1745.36 1155.5 1758.71C1152.76 1771.98 1150.02 1772.85 1150.02 1780.65C1150.02 1788.46 1150.71 1831.81 1150.71 1831.81L1150.02 1847.42C1150.02 1847.42 1146.59 1850.02 1150.02 1860.43C1153.45 1870.84 1152.76 1895.98 1152.76 1895.98C1152.76 1895.98 1153.45 1920.26 1153.45 1928.94C1153.45 1937.61 1144.95 1945.67 1148.51 1949.49C1152.08 1953.22 1145.63 1959.89 1148.51 1969.17C1151.39 1978.45 1147.62 1985.39 1147.62 1985.39L1137 1934.23C1137 1934.23 1138.37 1904.13 1137 1901.01C1135.62 1897.8 1137 1869.8 1137 1869.8L1136.38 1843.17C1136.38 1843.17 1135.76 1828.43 1136.38 1818.89C1137 1809.35 1146.59 1787.68 1146.59 1787.68L1147.96 1755.59L1132.88 1788.8V1833.89L1125.34 1867.45C1125.34 1867.45 1125.34 1894.34 1125.34 1899.54C1125.34 1904.74 1130.83 1916.01 1130.83 1916.01L1125.34 1845.51L1120.54 1811.96C1120.54 1811.96 1123.29 1779.26 1120.54 1776.14C1117.8 1772.93 1120.54 1741.46 1120.54 1741.46C1120.54 1741.46 1117.39 1726.45 1119.31 1720.64C1121.23 1714.83 1128.98 1702.69 1128.98 1702.69L1138.37 1681.01L1153.45 1648.06L1150.71 1590.83L1157.01 1582.51L1169.21 1566.55L1176.76 1551.81L1190.6 1537.93V1513.65L1204.18 1490.24L1207.6 1472.9L1190.6 1498.65L1185.67 1512.79L1177.44 1530.13L1165.79 1555.28L1144.54 1594.3L1141.79 1610.77L1138.37 1641.13L1134.25 1662.8C1134.25 1662.8 1131.51 1668.01 1128.77 1675.81C1126.03 1683.62 1118.69 1694.02 1118.69 1694.02L1112.32 1718.3C1112.32 1718.3 1108.89 1726.11 1108.89 1731.31C1108.89 1736.51 1106.83 1747.18 1108.89 1755.33C1110.95 1763.39 1106.83 1771.2 1108.89 1777.27C1110.95 1783.34 1112.32 1798.08 1116.43 1805.02C1120.54 1811.96 1117.8 1830.17 1117.8 1830.17C1117.8 1830.17 1117.8 1843.17 1117.8 1850.11C1117.8 1857.05 1117.8 1877.86 1117.8 1877.86L1119.17 1902.14L1122.6 1915.15L1113.69 1885.66L1100.66 1860.52C1100.66 1860.52 1100.66 1856.18 1100.66 1850.98C1100.66 1845.77 1100.66 1811.96 1100.66 1811.96V1790.02V1773.8V1761.05V1743.71V1727.49L1104.3 1702.61C1104.3 1702.61 1095.18 1709.54 1095.18 1720.82C1095.18 1732.09 1095.87 1729.49 1095.18 1742.5C1094.49 1755.5 1095.18 1780.65 1095.18 1780.65C1095.18 1780.65 1086.27 1765.04 1086.27 1758.97C1086.27 1752.9 1084.9 1729.49 1084.9 1729.49C1084.9 1729.49 1084.9 1703.47 1084.9 1702.61C1084.9 1701.74 1080.78 1684.4 1080.78 1684.4L1075.3 1673.12L1067.76 1656.65C1067.76 1656.65 1060.22 1659.25 1067.76 1666.19C1075.3 1673.12 1073.24 1683.53 1073.24 1683.53L1075.3 1694.8L1076.88 1702.61C1076.88 1702.61 1077.36 1712.15 1078.04 1715.61C1078.73 1719.08 1078.73 1728.62 1078.73 1728.62C1078.73 1728.62 1078.73 1736.43 1078.73 1741.63C1078.73 1746.83 1078.73 1755.5 1078.73 1755.5C1078.73 1755.5 1082.16 1771.98 1083.53 1776.32C1084.9 1780.65 1084.9 1780.65 1084.9 1780.65L1086.27 1795.39C1086.27 1795.39 1091.75 1802.94 1090.38 1806.06C1089.01 1809.27 1090.38 1814.12 1090.38 1814.12L1086.27 1821.32L1078.73 1801.38L1060.22 1797.04V1778.22L1065.7 1808.31L1076.67 1816.12C1076.67 1816.12 1086.27 1836.93 1086.27 1843C1086.27 1849.07 1083.53 1864.68 1083.53 1864.68C1083.53 1864.68 1080.78 1902.83 1080.78 1908.9C1080.78 1914.97 1075.99 1923.65 1081.47 1935.79C1084.21 1941.86 1086.41 1948.1 1087.98 1952.96C1089.56 1957.81 1090.38 1960.93 1090.38 1960.93L1101.35 1985.21L1073.24 1901.97C1073.24 1901.97 1067.07 1866.41 1067.76 1861.21C1068.44 1856.01 1067.07 1821.32 1067.07 1821.32L1060.22 1812.91V1847.6V1905.44C1060.22 1905.44 1057.48 1906.3 1060.22 1912.37C1062.96 1918.44 1067.76 1927.11 1067.76 1927.11L1078.73 1957.46L1090.38 1985.21L1105.46 1998.22C1105.46 1998.22 1113 2027.7 1113.69 2033.77C1113.96 2036.29 1110.81 2032.13 1107.04 2026.32C1101.69 2018.17 1095.18 2006.89 1095.18 2006.89C1095.18 2006.89 1086.27 2004.29 1084.9 1999.96C1083.53 1995.62 1075.3 1978.28 1075.3 1978.28L1065.7 1944.46C1065.7 1944.46 1060.9 1965.27 1064.33 1978.28C1067.76 1991.28 1090.38 2014.09 1090.38 2014.09C1090.38 2014.09 1109.58 2036.38 1111.63 2043.31C1113.69 2050.25 1115.06 2078 1115.06 2078L1100.66 2051.99C1100.66 2051.99 1091.07 2042.71 1090.38 2039.58C1089.7 2036.38 1078.73 2020.77 1078.73 2020.77L1079.41 2015.56V2038.11L1081.47 2045.05L1090.38 2060.4L1094.49 2064.13L1097.92 2071.93L1099.77 2078H1167.43H1186.63H1204.86L1241.19 2072.8L1248.05 2043.31L1267.93 2012.1L1278.21 1999.09C1278.21 1999.09 1286.44 1991.28 1289.86 1989.55C1293.29 1987.82 1307 1980.88 1307 1980.88L1316.6 1979.14L1328.94 1977.41L1344.71 1967L1360.47 1964.4C1360.47 1964.4 1379.26 1962.23 1381.65 1961.11C1387 1958.68 1391.32 1956.6 1391.32 1956.6L1405.72 1951.39C1405.72 1951.39 1424.91 1944.46 1415.31 1947.93C1405.72 1951.39 1355.67 1958.33 1355.67 1958.33H1346.76C1346.76 1958.33 1331 1956.6 1328.25 1958.33C1325.51 1960.07 1302.89 1965.27 1302.89 1965.27C1302.89 1965.27 1298.78 1967 1296.03 1971.34C1293.29 1975.68 1278.21 1988.68 1278.21 1988.68C1278.21 1988.68 1269.98 1991.28 1265.87 1996.49C1261.76 2001.69 1252.16 2003.42 1252.16 2003.42L1260.39 1989.55L1261.76 1977.41L1271.36 1964.4L1279.58 1960.07C1279.58 1960.07 1285.07 1954 1286.44 1950.53C1287.81 1947.06 1287.81 1947.06 1287.81 1947.06C1287.81 1947.06 1290.55 1937.52 1295.35 1934.05C1300.15 1930.58 1307 1927.11 1307 1927.11L1319.34 1922.78L1328.94 1909.77L1337.16 1906.3L1352.25 1901.97L1369.38 1894.16L1405.03 1881.15L1369.38 1885.49L1345.39 1894.16L1317.28 1904.57C1317.28 1904.57 1311.12 1909.77 1308.37 1913.24C1305.63 1916.71 1292.61 1925.38 1292.61 1925.38C1292.61 1925.38 1281.64 1928.85 1278.9 1932.32C1276.15 1935.79 1265.87 1960.07 1265.87 1960.07L1254.9 1970.47L1238.52 1997.96V2011.84L1232.28 2027.01L1232.97 1981.92L1246.68 1972.38L1264.5 1941.16L1269.98 1932.49L1254.22 1941.16L1242.56 1964.58L1227.48 1974.98L1226.8 1981.92L1224.74 1999.26V1958.51L1223.37 1943.76L1215.14 1936.83L1205.55 1925.55L1193.89 1911.68V1892.6V1870.92L1205.55 1857.92V1840.57L1217.89 1824.96L1221.31 1805.89L1224.74 1787.68L1230.23 1762.53L1232.97 1739.11L1238.52 1732.18L1256.27 1704.43L1265.19 1682.75C1265.19 1682.75 1266.56 1661.94 1267.24 1658.47C1267.93 1655 1275.26 1625.52 1275.26 1625.52L1279.58 1615.11L1289.86 1589.96L1265.87 1632.45L1259.7 1652.4L1252.16 1668.87L1249.42 1686.22V1693.15L1245.99 1665.41C1245.99 1665.41 1244.62 1644.59 1245.31 1641.13C1245.99 1637.66 1250.79 1614.24 1250.79 1614.24L1245.99 1637.66L1238.52 1653.53C1238.52 1653.53 1237.22 1659.34 1238.52 1666.27C1239.82 1673.21 1235.85 1672.6 1238.52 1679.02C1241.19 1685.35 1235.85 1687.08 1238.52 1690.55C1241.19 1694.02 1237.22 1698.96 1238.52 1702.09C1239.82 1705.3 1238.52 1713.62 1238.52 1713.62C1238.52 1713.62 1233.65 1719.17 1231.6 1722.64C1229.54 1726.11 1224.06 1733.91 1224.06 1738.25C1224.06 1742.58 1219.26 1753.86 1219.26 1753.86L1217.89 1762.53L1215.14 1720.9C1215.14 1720.9 1212.4 1715.7 1217.89 1708.76C1223.37 1701.83 1223.37 1701.83 1223.37 1701.83C1223.37 1701.83 1226.11 1696.62 1226.8 1693.15C1227.48 1689.69 1229.54 1672.34 1229.54 1672.34C1229.54 1672.34 1230.91 1661.94 1230.23 1667.14C1229.54 1672.34 1222 1690.55 1222 1690.55L1215.83 1698.36L1207.6 1714.83V1724.37L1204.86 1738.25L1211.03 1769.46V1776.4L1204.18 1798.08L1201.43 1819.76C1201.43 1828.43 1196.64 1835.37 1196.64 1838.84C1196.64 1842.31 1193.21 1849.24 1191.84 1852.71C1190.47 1856.18 1177.44 1868.32 1177.44 1868.32L1178.13 1890.87L1179.5 1904.74L1180.87 1936.83C1180.87 1936.83 1187.04 1935.96 1190.47 1941.16C1193.89 1946.37 1200.06 1950.7 1202.8 1954.17C1205.55 1957.64 1206.92 1975.85 1206.92 1975.85L1207.6 2000.13L1202.12 2016.61L1186.35 1981.92L1169.21 1960.24V1929.02V1909.94L1164.42 1870.06V1857.92C1164.42 1857.92 1165.1 1842.31 1167.16 1838.84C1169.21 1835.37 1174.01 1805.02 1174.01 1805.02C1174.01 1805.02 1156.88 1812.82 1160.3 1802.42C1163.73 1792.01 1163.73 1786.81 1163.73 1786.81L1164.42 1773.8L1165.79 1766L1188.41 1756.46L1199.38 1720.9L1185.67 1749.09H1175.59L1169.21 1756.46L1167.16 1739.98L1169.21 1722.64L1179.5 1712.23L1182.24 1705.3L1191.84 1683.62L1195.95 1668.87L1197.32 1653.27L1202.8 1641.99L1210.35 1618.58L1215.83 1592.56L1224.06 1576.09C1224.06 1576.09 1246.68 1544 1248.05 1540.54C1249.42 1537.07 1250.79 1528.39 1250.79 1528.39L1253.53 1504.11L1250.79 1485.04V1474.63L1253.53 1467.69L1263.13 1453.82L1265.19 1437.34L1262.44 1420Z" fill="url(#paint3_linear)"/>
</g>
<defs>
<linearGradient id="paint0_linear" x1="476" y1="1295" x2="476" y2="2090" gradientUnits="userSpaceOnUse">
<stop stop-color="#F9CFA8"/>
<stop offset="1" stop-color="#740C25"/>
</linearGradient>
<linearGradient id="paint1_linear" x1="1658" y1="1693" x2="1658" y2="2074" gradientUnits="userSpaceOnUse">
<stop stop-color="#FC98E0"/>
<stop offset="1" stop-color="#740C25"/>
</linearGradient>
<linearGradient id="paint2_linear" x1="607.5" y1="1725" x2="607.5" y2="2078" gradientUnits="userSpaceOnUse">
<stop stop-color="#FC98E0"/>
<stop offset="1" stop-color="#740C25"/>
</linearGradient>
<linearGradient id="paint3_linear" x1="1238.5" y1="1420" x2="1238.5" y2="2078" gradientUnits="userSpaceOnUse">
<stop offset="0.479167" stop-color="#FB9B41"/>
<stop offset="1" stop-color="#740C25"/>
</linearGradient>
</defs>
</svg>
