<svg width="886" height="678" viewBox="0 0 886 678" fill="none" xmlns="http://www.w3.org/2000/svg">
<g id="Frame 1">
<rect width="886" height="678" fill="white"/>
<path id="Vector" d="M456.768 409.819C458.068 413.719 452.968 421.119 446.868 428.119C445.968 429.119 444.968 430.219 444.068 431.219C440.968 434.519 437.868 437.619 435.268 440.019C434.468 440.819 433.668 441.519 432.968 442.119C430.468 444.319 428.368 446.119 426.468 447.619C402.068 467.419 422.768 437.819 423.268 429.019C423.268 428.519 423.268 428.119 423.168 427.719C422.968 427.119 422.468 426.519 421.868 425.919C416.068 420.619 395.368 416.319 410.568 411.319C412.868 410.519 415.968 409.819 420.168 409.019C420.568 408.919 420.968 408.819 421.468 408.819C424.668 408.219 428.968 407.419 433.468 406.919C434.868 406.719 436.368 406.619 437.768 406.419C446.568 405.519 455.368 405.819 456.768 409.819Z" fill="black"/>
<path id="Vector_2" d="M442.168 420.119C443.368 423.719 443.968 427.519 444.068 431.219C440.968 434.519 437.868 437.619 435.268 440.019C434.468 440.819 433.668 441.519 432.968 442.119C430.468 444.319 428.368 446.119 426.468 447.619C402.068 467.419 422.768 437.819 423.268 429.019C421.768 431.519 418.468 435.019 416.368 436.219C413.368 437.819 413.568 434.219 413.068 432.519C412.568 430.819 410.568 429.619 413.668 427.919C415.668 426.819 419.468 425.919 421.968 425.919C416.168 420.619 395.468 416.319 410.668 411.319C412.968 410.519 416.068 409.819 420.268 409.019C420.668 408.919 421.068 408.819 421.568 408.819C424.768 408.219 429.068 407.419 433.568 406.919C437.068 409.919 440.268 414.419 442.168 420.119Z" fill="white"/>
<path id="Vector_3" d="M433.268 424.819C434.968 429.819 435.568 435.019 435.168 440.019C434.368 440.819 433.568 441.519 432.868 442.119C430.368 444.319 428.268 446.119 426.368 447.619C401.968 467.419 422.668 437.819 423.168 429.019C421.668 431.519 418.368 435.019 416.268 436.219C413.268 437.819 413.468 434.219 412.968 432.519C412.468 430.819 410.468 429.619 413.568 427.919C415.568 426.819 419.368 425.919 421.868 425.919C416.068 420.619 395.368 416.319 410.568 411.319C412.868 410.519 415.968 409.819 420.168 409.019C420.568 408.919 420.968 408.819 421.468 408.819C426.468 412.019 430.868 417.519 433.268 424.819Z" fill="#FFFF00"/>
<path id="Vector_4" d="M425.668 427.319C428.068 434.419 428.168 441.919 426.268 447.719C401.868 467.519 422.568 437.919 423.068 429.119C421.568 431.619 418.268 435.119 416.168 436.319C413.168 437.919 413.368 434.319 412.868 432.619C412.368 430.919 410.368 429.719 413.468 428.019C415.468 426.919 419.268 426.019 421.768 426.019C415.968 420.719 395.268 416.419 410.468 411.419C416.368 412.019 422.568 418.019 425.668 427.319Z" fill="black"/>
<path id="Vector_5" d="M448.789 411.15C449.131 410.395 448.877 409.544 448.223 409.248C447.569 408.952 446.762 409.324 446.42 410.079C446.079 410.834 446.333 411.686 446.987 411.981C447.641 412.277 448.448 411.905 448.789 411.15Z" fill="white"/>
<path id="Vector_6" d="M442.468 432.719C444.468 432.719 445.568 442.719 445.068 444.919C444.568 447.119 442.568 440.719 440.568 440.619C438.568 440.619 434.368 446.919 434.868 444.719C435.468 442.619 440.468 432.719 442.468 432.719Z" fill="black"/>
<path id="Vector_7" d="M371.658 376.534C373.838 382.185 365.284 392.908 355.054 403.05C353.544 404.499 351.867 406.093 350.357 407.542C345.158 412.324 339.959 416.816 335.598 420.293C334.256 421.452 332.915 422.467 331.741 423.336C327.548 426.524 324.026 429.132 320.839 431.306C279.915 459.995 314.633 417.105 315.472 404.354C315.472 403.63 315.472 403.05 315.304 402.471C314.969 401.601 314.13 400.732 313.124 399.863C303.396 392.183 268.678 385.952 294.171 378.708C298.029 377.548 303.228 376.534 310.273 375.375C310.943 375.23 311.614 375.085 312.453 375.085C317.82 374.216 325.032 373.057 332.579 372.332C334.927 372.042 337.443 371.897 339.791 371.608C354.55 370.303 369.31 370.738 371.658 376.534Z" fill="black"/>
<path id="Vector_8" d="M346.823 391.219C348.829 396.461 349.833 401.993 350 407.381C344.816 412.185 339.632 416.699 335.284 420.193C333.946 421.358 332.608 422.377 331.437 423.251C327.257 426.454 323.745 429.075 320.567 431.259C279.763 460.087 314.38 416.99 315.216 404.177C312.707 407.817 307.189 412.913 303.677 414.66C298.66 416.99 298.994 411.748 298.158 409.273C297.322 406.798 293.978 405.051 299.162 402.576C302.506 400.974 308.861 399.664 313.042 399.664C303.343 391.947 268.726 385.686 294.145 378.406C297.991 377.242 303.175 376.222 310.199 375.058C310.868 374.912 311.537 374.766 312.373 374.766C317.724 373.893 324.915 372.728 332.441 372C338.294 376.368 343.645 382.92 346.823 391.219Z" fill="white"/>
<path id="Vector_9" d="M332.589 398.214C335.461 405.468 336.474 413.012 335.799 420.266C334.447 421.427 333.096 422.443 331.913 423.313C327.689 426.505 324.142 429.117 320.932 431.293C279.709 460.02 314.681 417.075 315.525 404.307C312.991 407.934 307.416 413.012 303.868 414.753C298.8 417.075 299.138 411.852 298.293 409.385C297.448 406.919 294.07 405.178 299.307 402.711C302.686 401.115 309.106 399.81 313.329 399.81C303.53 392.12 268.559 385.881 294.238 378.627C298.124 377.466 303.361 376.451 310.457 375.29C311.133 375.145 311.809 375 312.653 375C321.101 379.643 328.534 387.622 332.589 398.214Z" fill="#FFFF00"/>
<path id="Vector_10" d="M319.765 401.931C323.802 412.17 323.97 422.986 320.774 431.351C279.732 459.906 314.551 417.218 315.392 404.527C312.869 408.132 307.318 413.18 303.786 414.91C298.74 417.218 299.076 412.026 298.235 409.574C297.394 407.123 294.03 405.392 299.244 402.94C302.608 401.354 309 400.056 313.205 400.056C303.449 392.412 268.631 386.211 294.198 379C304.122 379.865 314.551 388.518 319.765 401.931Z" fill="black"/>
<path id="Vector_11" d="M358.302 378.447C358.873 377.356 358.449 376.124 357.354 375.696C356.258 375.269 354.907 375.807 354.336 376.898C353.765 377.99 354.189 379.221 355.285 379.649C356.38 380.077 357.73 379.539 358.302 378.447Z" fill="white"/>
<path id="Vector_12" d="M600.668 247.819C601.968 251.719 596.868 259.119 590.768 266.119C589.868 267.119 588.868 268.219 587.968 269.219C584.868 272.519 581.768 275.619 579.168 278.019C578.368 278.819 577.568 279.519 576.868 280.119C574.368 282.319 572.268 284.119 570.368 285.619C545.968 305.419 566.668 275.819 567.168 267.019C567.168 266.519 567.168 266.119 567.068 265.719C566.868 265.119 566.368 264.519 565.768 263.919C559.968 258.619 539.268 254.319 554.468 249.319C556.768 248.519 559.868 247.819 564.068 247.019C564.468 246.919 564.868 246.819 565.368 246.819C568.568 246.219 572.868 245.419 577.368 244.919C578.768 244.719 580.268 244.619 581.668 244.419C590.468 243.519 599.268 243.819 600.668 247.819Z" fill="black"/>
<path id="Vector_13" d="M586.068 258.119C587.268 261.719 587.868 265.519 587.968 269.219C584.868 272.519 581.768 275.619 579.168 278.019C578.368 278.819 577.568 279.519 576.868 280.119C574.368 282.319 572.268 284.119 570.368 285.619C545.968 305.419 566.668 275.819 567.168 267.019C565.668 269.519 562.368 273.019 560.268 274.219C557.268 275.819 557.468 272.219 556.968 270.519C556.468 268.819 554.468 267.619 557.568 265.919C559.568 264.819 563.368 263.919 565.868 263.919C560.068 258.619 539.368 254.319 554.568 249.319C556.868 248.519 559.968 247.819 564.168 247.019C564.568 246.919 564.968 246.819 565.468 246.819C568.668 246.219 572.968 245.419 577.468 244.919C580.968 247.919 584.168 252.419 586.068 258.119Z" fill="white"/>
<path id="Vector_14" d="M577.168 262.819C578.868 267.819 579.468 273.019 579.068 278.019C578.268 278.819 577.468 279.519 576.768 280.119C574.268 282.319 572.168 284.119 570.268 285.619C545.868 305.419 566.568 275.819 567.068 267.019C565.568 269.519 562.268 273.019 560.168 274.219C557.168 275.819 557.368 272.219 556.868 270.519C556.368 268.819 554.368 267.619 557.468 265.919C559.468 264.819 563.268 263.919 565.768 263.919C559.968 258.619 539.268 254.319 554.468 249.319C556.768 248.519 559.868 247.819 564.068 247.019C564.468 246.919 564.868 246.819 565.368 246.819C570.368 250.019 574.768 255.519 577.168 262.819Z" fill="#FFFF00"/>
<path id="Vector_15" d="M569.568 265.319C571.968 272.419 572.068 279.919 570.168 285.719C545.768 305.519 566.468 275.919 566.968 267.119C565.468 269.619 562.168 273.119 560.068 274.319C557.068 275.919 557.268 272.319 556.768 270.619C556.268 268.919 554.268 267.719 557.368 266.019C559.368 264.919 563.168 264.019 565.668 264.019C559.868 258.719 539.168 254.419 554.368 249.419C560.268 250.019 566.468 256.019 569.568 265.319Z" fill="black"/>
<path id="Vector_16" d="M592.689 249.15C593.031 248.395 592.777 247.544 592.123 247.248C591.469 246.952 590.661 247.324 590.32 248.079C589.979 248.834 590.233 249.686 590.887 249.981C591.541 250.277 592.348 249.905 592.689 249.15Z" fill="white"/>
<path id="Vector_17" d="M586.368 270.719C588.368 270.719 589.468 280.719 588.968 282.919C588.468 285.119 586.468 278.719 584.468 278.619C582.468 278.619 578.268 284.919 578.768 282.719C579.368 280.619 584.368 270.719 586.368 270.719Z" fill="black"/>
<path id="Vector_18" d="M422.768 226.819C424.068 230.719 418.968 238.119 412.868 245.119C411.968 246.119 410.968 247.219 410.068 248.219C406.968 251.519 403.868 254.619 401.268 257.019C400.468 257.819 399.668 258.519 398.968 259.119C396.468 261.319 394.368 263.119 392.468 264.619C368.068 284.419 388.768 254.819 389.268 246.019C389.268 245.519 389.268 245.119 389.168 244.719C388.968 244.119 388.468 243.519 387.868 242.919C382.068 237.619 361.368 233.319 376.568 228.319C378.868 227.519 381.968 226.819 386.168 226.019C386.568 225.919 386.968 225.819 387.468 225.819C390.668 225.219 394.968 224.419 399.468 223.919C400.868 223.719 402.368 223.619 403.768 223.419C412.568 222.519 421.368 222.819 422.768 226.819Z" fill="black"/>
<path id="Vector_19" d="M408.168 237.119C409.368 240.719 409.968 244.519 410.068 248.219C406.968 251.519 403.868 254.619 401.268 257.019C400.468 257.819 399.668 258.519 398.968 259.119C396.468 261.319 394.368 263.119 392.468 264.619C368.068 284.419 388.768 254.819 389.268 246.019C387.768 248.519 384.468 252.019 382.368 253.219C379.368 254.819 379.568 251.219 379.068 249.519C378.568 247.819 376.568 246.619 379.668 244.919C381.668 243.819 385.468 242.919 387.968 242.919C382.168 237.619 361.468 233.319 376.668 228.319C378.968 227.519 382.068 226.819 386.268 226.019C386.668 225.919 387.068 225.819 387.568 225.819C390.768 225.219 395.068 224.419 399.568 223.919C403.068 226.919 406.268 231.419 408.168 237.119Z" fill="white"/>
<path id="Vector_20" d="M399.268 241.819C400.968 246.819 401.568 252.019 401.168 257.019C400.368 257.819 399.568 258.519 398.868 259.119C396.368 261.319 394.268 263.119 392.368 264.619C367.968 284.419 388.668 254.819 389.168 246.019C387.668 248.519 384.368 252.019 382.268 253.219C379.268 254.819 379.468 251.219 378.968 249.519C378.468 247.819 376.468 246.619 379.568 244.919C381.568 243.819 385.368 242.919 387.868 242.919C382.068 237.619 361.368 233.319 376.568 228.319C378.868 227.519 381.968 226.819 386.168 226.019C386.568 225.919 386.968 225.819 387.468 225.819C392.468 229.019 396.868 234.519 399.268 241.819Z" fill="#FFFF00"/>
<path id="Vector_21" d="M391.668 244.319C394.068 251.419 394.168 258.919 392.268 264.719C367.868 284.519 388.568 254.919 389.068 246.119C387.568 248.619 384.268 252.119 382.168 253.319C379.168 254.919 379.368 251.319 378.868 249.619C378.368 247.919 376.368 246.719 379.468 245.019C381.468 243.919 385.268 243.019 387.768 243.019C381.968 237.719 361.268 233.419 376.468 228.419C382.368 229.019 388.568 235.019 391.668 244.319Z" fill="black"/>
<path id="Vector_22" d="M414.789 228.15C415.131 227.395 414.877 226.544 414.223 226.248C413.569 225.952 412.762 226.324 412.42 227.079C412.079 227.834 412.333 228.686 412.987 228.981C413.641 229.277 414.448 228.905 414.789 228.15Z" fill="white"/>
<path id="Vector_23" d="M408.468 249.719C410.468 249.719 411.568 259.719 411.068 261.919C410.568 264.119 408.568 257.719 406.568 257.619C404.568 257.619 400.368 263.919 400.868 261.719C401.468 259.619 406.468 249.719 408.468 249.719Z" fill="black"/>
<path id="Vector_24" d="M375.89 299.214C376.592 301.474 373.839 305.763 370.546 309.82C370.06 310.4 369.52 311.037 369.035 311.617C367.361 313.53 365.688 315.326 364.284 316.717C363.853 317.181 363.421 317.587 363.043 317.934C361.693 319.21 360.56 320.253 359.534 321.122C346.364 332.598 357.537 315.442 357.807 310.342C357.807 310.052 357.807 309.82 357.753 309.588C357.645 309.241 357.375 308.893 357.051 308.545C353.921 305.473 342.747 302.981 350.952 300.083C352.193 299.619 353.867 299.214 356.134 298.75C356.35 298.692 356.566 298.634 356.835 298.634C358.563 298.286 360.884 297.823 363.313 297.533C364.069 297.417 364.878 297.359 365.634 297.243C370.384 296.721 375.134 296.895 375.89 299.214Z" fill="black"/>
<path id="Vector_25" d="M367.973 305.521C368.622 307.572 368.946 309.737 369 311.845C367.325 313.725 365.65 315.491 364.245 316.858C363.813 317.314 363.381 317.713 363.003 318.055C361.652 319.308 360.518 320.334 359.491 321.188C346.308 332.469 357.492 315.605 357.762 310.591C356.952 312.015 355.169 314.01 354.034 314.693C352.413 315.605 352.521 313.554 352.251 312.585C351.981 311.617 350.9 310.933 352.575 309.964C353.656 309.338 355.709 308.825 357.06 308.825C353.926 305.805 342.742 303.356 350.954 300.507C352.197 300.051 353.872 299.652 356.141 299.196C356.357 299.139 356.573 299.083 356.844 299.083C358.572 298.741 360.896 298.285 363.327 298C365.218 299.709 366.947 302.273 367.973 305.521Z" fill="white"/>
<path id="Vector_26" d="M362.93 308.145C363.831 311.002 364.149 313.975 363.937 316.832C363.513 317.289 363.089 317.69 362.718 318.033C361.393 319.29 360.28 320.319 359.273 321.176C346.34 332.493 357.312 315.575 357.577 310.545C356.782 311.974 355.032 313.975 353.919 314.66C352.329 315.575 352.435 313.517 352.17 312.546C351.905 311.574 350.845 310.888 352.488 309.917C353.548 309.288 355.563 308.773 356.888 308.773C353.813 305.744 342.842 303.287 350.898 300.429C352.117 299.972 353.76 299.572 355.987 299.114C356.199 299.057 356.411 299 356.676 299C359.326 300.829 361.658 303.972 362.93 308.145Z" fill="#FFFF00"/>
<path id="Vector_27" d="M358.978 309.246C360.253 313.375 360.306 317.736 359.297 321.109C346.337 332.623 357.332 315.41 357.597 310.293C356.801 311.747 355.048 313.782 353.932 314.48C352.339 315.41 352.445 313.317 352.179 312.328C351.914 311.34 350.852 310.642 352.498 309.653C353.561 309.014 355.579 308.49 356.907 308.49C353.826 305.408 342.831 302.908 350.905 300C354.039 300.349 357.332 303.838 358.978 309.246Z" fill="black"/>
<path id="Vector_28" d="M371.591 299.979C371.775 299.542 371.639 299.05 371.286 298.878C370.934 298.707 370.499 298.923 370.315 299.359C370.131 299.796 370.268 300.288 370.62 300.46C370.973 300.631 371.408 300.415 371.591 299.979Z" fill="white"/>
<path id="Vector_29" d="M368.425 312C369.583 312 370.22 318.319 369.931 319.709C369.641 321.1 368.483 317.055 367.325 316.992C366.166 316.992 363.734 320.973 364.024 319.583C364.371 318.256 367.267 312 368.425 312Z" fill="black"/>
<path id="Vector_30" d="M503.878 347.056C504.655 349.154 501.607 353.137 497.962 356.904C497.424 357.443 496.826 358.035 496.288 358.573C494.436 360.349 492.583 362.017 491.029 363.309C490.551 363.739 490.073 364.116 489.655 364.439C488.161 365.623 486.906 366.592 485.77 367.399C471.188 378.055 483.559 362.125 483.858 357.389C483.858 357.12 483.858 356.904 483.798 356.689C483.679 356.366 483.38 356.043 483.021 355.72C479.555 352.868 467.184 350.554 476.268 347.863C477.643 347.432 479.495 347.055 482.005 346.625C482.244 346.571 482.483 346.517 482.782 346.517C484.694 346.194 487.264 345.764 489.954 345.495C490.79 345.387 491.687 345.333 492.523 345.226C497.782 344.741 503.041 344.903 503.878 347.056Z" fill="black"/>
<path id="Vector_31" d="M494.876 352.242C495.586 354.217 495.941 356.302 496 358.332C494.166 360.142 492.331 361.843 490.793 363.16C490.319 363.599 489.846 363.983 489.432 364.312C487.952 365.519 486.71 366.506 485.585 367.329C471.147 378.192 483.396 361.953 483.692 357.125C482.804 358.496 480.851 360.417 479.609 361.075C477.834 361.953 477.952 359.978 477.656 359.045C477.36 358.112 476.177 357.454 478.011 356.521C479.195 355.918 481.443 355.424 482.923 355.424C479.49 352.516 467.241 350.157 476.236 347.414C477.597 346.975 479.431 346.591 481.917 346.152C482.153 346.097 482.39 346.042 482.686 346.042C484.579 345.713 487.124 345.274 489.787 345C491.858 346.646 493.751 349.115 494.876 352.242Z" fill="white"/>
<path id="Vector_32" d="M489.796 355.441C490.81 358.079 491.167 360.823 490.929 363.461C490.452 363.883 489.975 364.252 489.558 364.569C488.067 365.729 486.815 366.679 485.682 367.47C471.133 377.916 483.476 362.3 483.774 357.657C482.879 358.976 480.912 360.823 479.659 361.456C477.871 362.3 477.99 360.401 477.692 359.504C477.394 358.607 476.201 357.974 478.049 357.077C479.242 356.496 481.508 356.022 482.999 356.022C479.54 353.225 467.197 350.957 476.261 348.319C477.632 347.897 479.481 347.528 481.985 347.105C482.223 347.053 482.462 347 482.76 347C485.741 348.688 488.365 351.59 489.796 355.441Z" fill="#FFFF00"/>
<path id="Vector_33" d="M484.893 356.507C486.274 360.305 486.332 364.318 485.239 367.421C471.198 378.014 483.109 362.178 483.397 357.47C482.534 358.807 480.635 360.68 479.427 361.322C477.7 362.178 477.815 360.252 477.528 359.342C477.24 358.433 476.089 357.791 477.873 356.881C479.024 356.293 481.211 355.811 482.649 355.811C479.312 352.975 467.4 350.675 476.147 348C479.542 348.321 483.109 351.531 484.893 356.507Z" fill="black"/>
<path id="Vector_34" d="M499.119 347.766C499.323 347.361 499.171 346.903 498.781 346.744C498.391 346.585 497.91 346.785 497.706 347.191C497.502 347.596 497.654 348.054 498.044 348.212C498.434 348.371 498.916 348.171 499.119 347.766Z" fill="white"/>
<path id="Vector_35" d="M495.425 359C496.583 359 497.22 364.529 496.931 365.746C496.641 366.962 495.483 363.423 494.325 363.368C493.166 363.368 490.734 366.852 491.024 365.635C491.371 364.474 494.267 359 495.425 359Z" fill="black"/>
<path id="Vector_36" d="M515.768 271.819C517.068 275.719 511.968 283.119 505.868 290.119C504.968 291.119 503.968 292.219 503.068 293.219C499.968 296.519 496.868 299.619 494.268 302.019C493.468 302.819 492.668 303.519 491.968 304.119C489.468 306.319 487.368 308.119 485.468 309.619C461.068 329.419 481.768 299.819 482.268 291.019C482.268 290.519 482.268 290.119 482.168 289.719C481.968 289.119 481.468 288.519 480.868 287.919C475.068 282.619 454.368 278.319 469.568 273.319C471.868 272.519 474.968 271.819 479.168 271.019C479.568 270.919 479.968 270.819 480.468 270.819C483.668 270.219 487.968 269.419 492.468 268.919C493.868 268.719 495.368 268.619 496.768 268.419C505.568 267.519 514.368 267.819 515.768 271.819Z" fill="black"/>
<path id="Vector_37" d="M501.168 282.119C502.368 285.719 502.968 289.519 503.068 293.219C499.968 296.519 496.868 299.619 494.268 302.019C493.468 302.819 492.668 303.519 491.968 304.119C489.468 306.319 487.368 308.119 485.468 309.619C461.068 329.419 481.768 299.819 482.268 291.019C480.768 293.519 477.468 297.019 475.368 298.219C472.368 299.819 472.568 296.219 472.068 294.519C471.568 292.819 469.568 291.619 472.668 289.919C474.668 288.819 478.468 287.919 480.968 287.919C475.168 282.619 454.468 278.319 469.668 273.319C471.968 272.519 475.068 271.819 479.268 271.019C479.668 270.919 480.068 270.819 480.568 270.819C483.768 270.219 488.068 269.419 492.568 268.919C496.068 271.919 499.268 276.419 501.168 282.119Z" fill="white"/>
<path id="Vector_38" d="M492.268 286.819C493.968 291.819 494.568 297.019 494.168 302.019C493.368 302.819 492.568 303.519 491.868 304.119C489.368 306.319 487.268 308.119 485.368 309.619C460.968 329.419 481.668 299.819 482.168 291.019C480.668 293.519 477.368 297.019 475.268 298.219C472.268 299.819 472.468 296.219 471.968 294.519C471.468 292.819 469.468 291.619 472.568 289.919C474.568 288.819 478.368 287.919 480.868 287.919C475.068 282.619 454.368 278.319 469.568 273.319C471.868 272.519 474.968 271.819 479.168 271.019C479.568 270.919 479.968 270.819 480.468 270.819C485.468 274.019 489.868 279.519 492.268 286.819Z" fill="#FFFF00"/>
<path id="Vector_39" d="M484.668 289.319C487.068 296.419 487.168 303.919 485.268 309.719C460.868 329.519 481.568 299.919 482.068 291.119C480.568 293.619 477.268 297.119 475.168 298.319C472.168 299.919 472.368 296.319 471.868 294.619C471.368 292.919 469.368 291.719 472.468 290.019C474.468 288.919 478.268 288.019 480.768 288.019C474.968 282.719 454.268 278.419 469.468 273.419C475.368 274.019 481.568 280.019 484.668 289.319Z" fill="black"/>
<path id="Vector_40" d="M507.789 273.15C508.131 272.395 507.877 271.544 507.223 271.248C506.569 270.952 505.762 271.324 505.42 272.079C505.079 272.834 505.333 273.686 505.987 273.981C506.641 274.277 507.448 273.905 507.789 273.15Z" fill="white"/>
<path id="Vector_41" d="M501.468 294.719C503.468 294.719 504.568 304.719 504.068 306.919C503.568 309.119 501.568 302.719 499.568 302.619C497.568 302.619 493.368 308.919 493.868 306.719C494.468 304.619 499.468 294.719 501.468 294.719Z" fill="black"/>
<path id="Vector_42" d="M456.768 409.819C458.068 413.719 452.968 421.119 446.868 428.119C445.968 429.119 444.968 430.219 444.068 431.219C440.968 434.519 437.868 437.619 435.268 440.019C434.468 440.819 433.668 441.519 432.968 442.119C430.468 444.319 428.368 446.119 426.468 447.619C402.068 467.419 422.768 437.819 423.268 429.019C423.268 428.519 423.268 428.119 423.168 427.719C422.968 427.119 422.468 426.519 421.868 425.919C416.068 420.619 395.368 416.319 410.568 411.319C412.868 410.519 415.968 409.819 420.168 409.019C420.568 408.919 420.968 408.819 421.468 408.819C424.668 408.219 428.968 407.419 433.468 406.919C434.868 406.719 436.368 406.619 437.768 406.419C446.568 405.519 455.368 405.819 456.768 409.819Z" fill="black"/>
<path id="Vector_43" d="M442.168 420.119C443.368 423.719 443.968 427.519 444.068 431.219C440.968 434.519 437.868 437.619 435.268 440.019C434.468 440.819 433.668 441.519 432.968 442.119C430.468 444.319 428.368 446.119 426.468 447.619C402.068 467.419 422.768 437.819 423.268 429.019C421.768 431.519 418.468 435.019 416.368 436.219C413.368 437.819 413.568 434.219 413.068 432.519C412.568 430.819 410.568 429.619 413.668 427.919C415.668 426.819 419.468 425.919 421.968 425.919C416.168 420.619 395.468 416.319 410.668 411.319C412.968 410.519 416.068 409.819 420.268 409.019C420.668 408.919 421.068 408.819 421.568 408.819C424.768 408.219 429.068 407.419 433.568 406.919C437.068 409.919 440.268 414.419 442.168 420.119Z" fill="white"/>
<path id="Vector_44" d="M433.268 424.819C434.968 429.819 435.568 435.019 435.168 440.019C434.368 440.819 433.568 441.519 432.868 442.119C430.368 444.319 428.268 446.119 426.368 447.619C401.968 467.419 422.668 437.819 423.168 429.019C421.668 431.519 418.368 435.019 416.268 436.219C413.268 437.819 413.468 434.219 412.968 432.519C412.468 430.819 410.468 429.619 413.568 427.919C415.568 426.819 419.368 425.919 421.868 425.919C416.068 420.619 395.368 416.319 410.568 411.319C412.868 410.519 415.968 409.819 420.168 409.019C420.568 408.919 420.968 408.819 421.468 408.819C426.468 412.019 430.868 417.519 433.268 424.819Z" fill="#FFFF00"/>
<path id="Vector_45" d="M425.668 427.319C428.068 434.419 428.168 441.919 426.268 447.719C401.868 467.519 422.568 437.919 423.068 429.119C421.568 431.619 418.268 435.119 416.168 436.319C413.168 437.919 413.368 434.319 412.868 432.619C412.368 430.919 410.368 429.719 413.468 428.019C415.468 426.919 419.268 426.019 421.768 426.019C415.968 420.719 395.268 416.419 410.468 411.419C416.368 412.019 422.568 418.019 425.668 427.319Z" fill="black"/>
<path id="Vector_46" d="M448.789 411.15C449.131 410.395 448.877 409.544 448.223 409.248C447.569 408.952 446.762 409.324 446.42 410.079C446.079 410.834 446.333 411.686 446.987 411.981C447.641 412.277 448.448 411.905 448.789 411.15Z" fill="white"/>
<path id="Vector_47" d="M442.468 432.719C444.468 432.719 445.568 442.719 445.068 444.919C444.568 447.119 442.568 440.719 440.568 440.619C438.568 440.619 434.368 446.919 434.868 444.719C435.468 442.619 440.468 432.719 442.468 432.719Z" fill="black"/>
<path id="Vector_48" d="M371.658 376.534C373.838 382.185 365.284 392.908 355.054 403.05C353.544 404.499 351.867 406.093 350.357 407.542C345.158 412.324 339.959 416.816 335.598 420.293C334.256 421.452 332.915 422.467 331.741 423.336C327.548 426.524 324.026 429.132 320.839 431.306C279.915 459.995 314.633 417.105 315.472 404.354C315.472 403.63 315.472 403.05 315.304 402.471C314.969 401.601 314.13 400.732 313.124 399.863C303.396 392.183 268.678 385.952 294.171 378.708C298.029 377.548 303.228 376.534 310.273 375.375C310.943 375.23 311.614 375.085 312.453 375.085C317.82 374.216 325.032 373.057 332.579 372.332C334.927 372.042 337.443 371.897 339.791 371.608C354.55 370.303 369.31 370.738 371.658 376.534Z" fill="black"/>
<path id="Vector_49" d="M346.823 391.219C348.829 396.461 349.833 401.993 350 407.381C344.816 412.185 339.632 416.699 335.284 420.193C333.946 421.358 332.608 422.377 331.437 423.251C327.257 426.454 323.745 429.075 320.567 431.259C279.763 460.087 314.38 416.99 315.216 404.177C312.707 407.817 307.189 412.913 303.677 414.66C298.66 416.99 298.994 411.748 298.158 409.273C297.322 406.798 293.978 405.051 299.162 402.576C302.506 400.974 308.861 399.664 313.042 399.664C303.343 391.947 268.726 385.686 294.145 378.406C297.991 377.242 303.175 376.222 310.199 375.058C310.868 374.912 311.537 374.766 312.373 374.766C317.724 373.893 324.915 372.728 332.441 372C338.294 376.368 343.645 382.92 346.823 391.219Z" fill="white"/>
<path id="Vector_50" d="M332.589 398.214C335.461 405.468 336.474 413.012 335.799 420.266C334.447 421.427 333.096 422.443 331.913 423.313C327.689 426.505 324.142 429.117 320.932 431.293C279.709 460.02 314.681 417.075 315.525 404.307C312.991 407.934 307.416 413.012 303.868 414.753C298.8 417.075 299.138 411.852 298.293 409.385C297.448 406.919 294.07 405.178 299.307 402.711C302.686 401.115 309.106 399.81 313.329 399.81C303.53 392.12 268.559 385.881 294.238 378.627C298.124 377.466 303.361 376.451 310.457 375.29C311.133 375.145 311.809 375 312.653 375C321.101 379.643 328.534 387.622 332.589 398.214Z" fill="#FFFF00"/>
<path id="Vector_51" d="M319.765 401.931C323.802 412.17 323.97 422.986 320.774 431.351C279.732 459.906 314.551 417.218 315.392 404.527C312.869 408.132 307.318 413.18 303.786 414.91C298.74 417.218 299.076 412.026 298.235 409.574C297.394 407.123 294.03 405.392 299.244 402.94C302.608 401.354 309 400.056 313.205 400.056C303.449 392.412 268.631 386.211 294.198 379C304.122 379.865 314.551 388.518 319.765 401.931Z" fill="black"/>
<path id="Vector_52" d="M358.302 378.447C358.873 377.356 358.449 376.124 357.354 375.696C356.258 375.269 354.907 375.807 354.336 376.898C353.765 377.99 354.189 379.221 355.285 379.649C356.38 380.077 357.73 379.539 358.302 378.447Z" fill="white"/>
<path id="Vector_53" d="M347.537 410C350.819 410 352.623 424.218 351.803 427.346C350.983 430.474 347.701 421.374 344.42 421.232C341.138 421.232 334.247 430.19 335.067 427.062C336.052 424.076 344.256 410 347.537 410Z" fill="black"/>
</g>
</svg>
