<svg width="302" height="210" viewBox="0 0 302 210" fill="none" xmlns="http://www.w3.org/2000/svg">
<path d="M116.862 134.767C117.739 137.593 114.298 142.954 110.182 148.025C109.575 148.75 108.9 149.547 108.293 150.271C106.202 152.662 104.11 154.908 102.356 156.647C101.816 157.226 101.276 157.733 100.804 158.168C99.1169 159.762 97.6999 161.066 96.4179 162.153C79.9545 176.498 93.9214 155.053 94.2588 148.677C94.2588 148.315 94.2588 148.025 94.1913 147.735C94.0564 147.301 93.719 146.866 93.3142 146.431C89.4007 142.592 75.4338 139.476 85.6897 135.854C87.2416 135.274 89.3333 134.767 92.1671 134.187C92.437 134.115 92.7069 134.043 93.0443 134.043C95.2034 133.608 98.1048 133.028 101.141 132.666C102.086 132.521 103.098 132.449 104.042 132.304C109.98 131.652 115.918 131.869 116.862 134.767Z" fill="black"/>
<path d="M106.729 142.47C107.532 145.053 107.933 147.779 108 150.434C105.926 152.801 103.853 155.025 102.113 156.747C101.578 157.321 101.043 157.824 100.575 158.254C98.9026 159.832 97.4979 161.124 96.2269 162.2C79.9052 176.405 93.7519 155.169 94.0864 148.855C93.083 150.649 90.8756 153.16 89.4708 154.021C87.464 155.169 87.5978 152.586 87.2633 151.367C86.9289 150.147 85.591 149.286 87.6647 148.066C89.0026 147.277 91.5445 146.631 93.2168 146.631C89.337 142.829 75.4903 139.744 85.6579 136.157C87.1965 135.583 89.2701 135.081 92.0796 134.507C92.3472 134.435 92.6147 134.363 92.9492 134.363C95.0898 133.933 97.9661 133.359 100.976 133C103.318 135.152 105.458 138.381 106.729 142.47Z" fill="white"/>
<path d="M100.662 145.607C101.789 149.234 102.186 153.006 101.921 156.633C101.391 157.214 100.861 157.721 100.397 158.157C98.7409 159.753 97.3496 161.058 96.0908 162.147C79.9253 176.51 93.6395 155.037 93.9707 148.654C92.977 150.467 90.7906 153.006 89.3993 153.877C87.4117 155.037 87.5443 152.426 87.213 151.193C86.8817 149.959 85.5567 149.089 87.6105 147.856C88.9355 147.058 91.4532 146.405 93.1095 146.405C89.2668 142.56 75.5526 139.441 85.6229 135.814C87.1467 135.233 89.2006 134.725 91.9832 134.145C92.2482 134.073 92.5132 134 92.8444 134C96.1571 136.321 99.0722 140.311 100.662 145.607Z" fill="#FFFF00"/>
<path d="M94.8082 147.465C96.2955 152.585 96.3574 157.993 95.18 162.176C80.0593 176.453 92.8871 155.109 93.197 148.763C92.2674 150.566 90.2224 153.09 88.9211 153.955C87.062 155.109 87.1859 152.513 86.876 151.287C86.5662 150.061 85.3268 149.196 87.2479 147.97C88.4873 147.177 90.8421 146.528 92.3914 146.528C88.7971 142.706 75.9693 139.605 85.3888 136C89.045 136.433 92.8871 140.759 94.8082 147.465Z" fill="black"/>
<path d="M110.965 135.781C111.197 135.236 111.025 134.622 110.582 134.408C110.138 134.195 109.592 134.463 109.36 135.008C109.129 135.553 109.301 136.168 109.744 136.381C110.188 136.594 110.734 136.326 110.965 135.781Z" fill="white"/>
<path d="M106.9 151C108.444 151 109.293 158.109 108.907 159.673C108.521 161.237 106.977 156.687 105.433 156.616C103.888 156.616 100.646 161.095 101.032 159.531C101.495 158.038 105.356 151 106.9 151Z" fill="black"/>
<path d="M58.7679 110.953C60.2465 114.989 54.4458 122.648 47.5076 129.893C46.4839 130.928 45.3465 132.067 44.3228 133.102C40.7969 136.517 37.2709 139.725 34.3137 142.209C33.4037 143.037 32.4938 143.762 31.6976 144.383C28.8541 146.66 26.4656 148.523 24.3045 150.075C-3.44816 170.568 20.0961 139.932 20.6648 130.825C20.6648 130.307 20.6648 129.893 20.5511 129.479C20.3236 128.858 19.7549 128.237 19.0725 127.616C12.4755 122.131 -11.0688 117.68 6.21975 112.505C8.83578 111.677 12.3618 110.953 17.1389 110.125C17.5938 110.021 18.0488 109.918 18.6175 109.918C22.2572 109.297 27.148 108.469 32.2663 107.951C33.8587 107.744 35.5648 107.641 37.1572 107.434C47.1663 106.502 57.1755 106.813 58.7679 110.953Z" fill="black"/>
<path d="M41.8492 121.648C43.2076 125.371 43.8868 129.3 44 133.125C40.4907 136.537 36.9814 139.743 34.0382 142.224C33.1326 143.051 32.227 143.775 31.4345 144.395C28.6045 146.67 26.2272 148.531 24.0764 150.082C-3.54509 170.555 19.8878 139.949 20.4539 130.851C18.7558 133.435 15.0202 137.054 12.6429 138.295C9.24684 139.949 9.47319 136.227 8.90718 134.469C8.34116 132.712 6.07715 131.471 9.58643 129.713C11.8505 128.576 16.1522 127.645 18.9822 127.645C12.4165 122.165 -11.0165 117.719 6.19035 112.549C8.79401 111.722 12.3033 110.998 17.0578 110.171C17.5106 110.068 17.9634 109.965 18.5294 109.965C22.1519 109.344 27.0196 108.517 32.1137 108C36.0758 111.102 39.6983 115.755 41.8492 121.648Z" fill="white"/>
<path d="M31.7258 126.531C33.6404 131.697 34.3163 137.069 33.8657 142.235C32.9647 143.062 32.0637 143.785 31.2753 144.405C28.4596 146.678 26.0943 148.538 23.9544 150.087C-3.52707 170.544 19.7871 139.962 20.3503 130.87C18.6608 133.453 14.944 137.069 12.5788 138.309C9.19996 139.962 9.42524 136.243 8.86209 134.486C8.29895 132.73 6.04634 131.49 9.53784 129.734C11.7904 128.597 16.0704 127.667 18.8861 127.667C12.3536 122.192 -10.9606 117.749 6.15897 112.583C8.74943 111.756 12.241 111.033 16.9714 110.207C17.4219 110.103 17.8724 110 18.4356 110C24.067 113.306 29.0227 118.989 31.7258 126.531Z" fill="#FFFF00"/>
<path d="M23.7867 129.273C26.5487 136.54 26.6638 144.216 24.4771 150.152C-3.6041 170.417 20.2189 140.122 20.7943 131.116C19.068 133.674 15.2702 137.257 12.8534 138.485C9.40077 140.122 9.63096 136.438 9.05552 134.698C8.48008 132.958 6.17831 131.73 9.74601 129.99C12.0478 128.864 16.4211 127.943 19.2982 127.943C12.6232 122.518 -11.1998 118.117 6.2934 113C13.0835 113.614 20.219 119.755 23.7867 129.273Z" fill="black"/>
<path d="M49.6612 112.181C50.0483 111.393 49.7607 110.504 49.0187 110.195C48.2768 109.887 47.3615 110.275 46.9744 111.063C46.5873 111.85 46.875 112.739 47.617 113.048C48.3589 113.357 49.2741 112.968 49.6612 112.181Z" fill="white"/>
<path d="M213.862 17.767C214.739 20.5926 211.298 25.9538 207.182 31.0252C206.575 31.7497 205.9 32.5467 205.293 33.2711C203.202 35.662 201.11 37.9078 199.356 39.6466C198.816 40.2262 198.276 40.7334 197.804 41.1681C196.117 42.762 194.7 44.0661 193.418 45.1528C176.954 59.4977 190.921 38.0527 191.259 31.6772C191.259 31.315 191.259 31.0252 191.191 30.7354C191.056 30.3007 190.719 29.866 190.314 29.4313C186.401 25.5915 172.434 22.4762 182.69 18.8538C184.242 18.2742 186.333 17.767 189.167 17.1874C189.437 17.115 189.707 17.0426 190.044 17.0426C192.203 16.6079 195.105 16.0283 198.141 15.666C199.086 15.5211 200.098 15.4487 201.042 15.3038C206.98 14.6517 212.918 14.8691 213.862 17.767Z" fill="black"/>
<path d="M203.729 25.4703C204.532 28.0531 204.933 30.7793 205 33.4339C202.926 35.8014 200.853 38.0255 199.113 39.7473C198.578 40.3213 198.043 40.8235 197.575 41.254C195.903 42.8324 194.498 44.1238 193.227 45.1999C176.905 59.4053 190.752 38.1689 191.086 31.8555C190.083 33.6491 187.876 36.1602 186.471 37.0211C184.464 38.169 184.598 35.5862 184.263 34.3665C183.929 33.1468 182.591 32.2859 184.665 31.0663C186.003 30.2771 188.544 29.6314 190.217 29.6314C186.337 25.829 172.49 22.744 182.658 19.1568C184.196 18.5828 186.27 18.0806 189.08 17.5066C189.347 17.4349 189.615 17.3632 189.949 17.3632C192.09 16.9327 194.966 16.3587 197.976 16C200.318 18.1523 202.458 21.3809 203.729 25.4703Z" fill="white"/>
<path d="M197.662 28.6068C198.789 32.2339 199.186 36.0061 198.921 39.6332C198.391 40.2136 197.861 40.7214 197.397 41.1567C195.741 42.7526 194.35 44.0584 193.091 45.1465C176.925 59.51 190.639 38.0373 190.971 31.6536C189.977 33.4671 187.791 36.0062 186.399 36.8767C184.412 38.0373 184.544 35.4258 184.213 34.1925C183.882 32.9593 182.557 32.0888 184.61 30.8556C185.936 30.0576 188.453 29.4048 190.109 29.4048C186.267 25.56 172.553 22.4407 182.623 18.8136C184.147 18.2332 186.201 17.7254 188.983 17.145C189.248 17.0725 189.513 17 189.844 17C193.157 19.3214 196.072 23.3112 197.662 28.6068Z" fill="#FFFF00"/>
<path d="M192.723 30.4653C194.317 35.585 194.383 40.9932 193.121 45.1755C176.921 59.4531 190.665 38.1089 190.997 31.7633C190.001 33.566 187.81 36.0898 186.415 36.9551C184.424 38.1089 184.556 35.513 184.224 34.2871C183.892 33.0613 182.564 32.1959 184.623 30.97C185.951 30.1768 188.474 29.5279 190.134 29.5279C186.283 25.7061 172.539 22.6054 182.631 19C186.548 19.4327 190.665 23.7592 192.723 30.4653Z" fill="black"/>
<path d="M208.456 18.8716C208.687 18.3269 208.516 17.7122 208.072 17.4988C207.629 17.2853 207.082 17.5538 206.851 18.0986C206.62 18.6434 206.792 19.258 207.235 19.4715C207.678 19.685 208.225 19.4164 208.456 18.8716Z" fill="white"/>
<path d="M204.162 34C205.514 34 206.257 41.8989 205.919 43.6366C205.581 45.3744 204.23 40.3191 202.879 40.2402C201.527 40.2402 198.69 45.2164 199.028 43.4787C199.433 41.8199 202.811 34 204.162 34Z" fill="black"/>
<path d="M92.8623 2.76705C93.7394 5.59256 90.2983 10.9538 86.1825 16.0252C85.5752 16.7497 84.9004 17.5467 84.2932 18.2711C82.2015 20.662 80.1099 22.9078 78.3556 24.6466C77.8158 25.2262 77.276 25.7334 76.8037 26.1681C75.1169 27.762 73.6999 29.0661 72.4179 30.1528C55.9545 44.4977 69.9214 23.0527 70.2588 16.6772C70.2588 16.315 70.2588 16.0252 70.1913 15.7354C70.0564 15.3007 69.719 14.866 69.3142 14.4313C65.4007 10.5915 51.4338 7.47623 61.6897 3.85378C63.2416 3.27419 65.3333 2.76701 68.1671 2.18742C68.437 2.11497 68.7069 2.04256 69.0443 2.04256C71.2034 1.60786 74.1048 1.02825 77.141 0.666007C78.0857 0.521109 79.0978 0.44866 80.0424 0.303762C85.98 -0.348278 91.9177 -0.130914 92.8623 2.76705Z" fill="black"/>
<path d="M83.6802 10.4703C84.5138 13.0531 84.9305 15.7793 85 18.4339C82.8466 20.8014 80.6932 23.0255 78.8871 24.7473C78.3313 25.3213 77.7756 25.8235 77.2894 26.254C75.5527 27.8324 74.094 29.1238 72.7741 30.1999C55.8246 44.4053 70.2039 23.1689 70.5512 16.8555C69.5093 18.6491 67.2169 21.1602 65.7582 22.0211C63.6742 23.169 63.8131 20.5862 63.4658 19.3665C63.1184 18.1468 61.7292 17.2859 63.8826 16.0663C65.2719 15.2771 67.9116 14.6314 69.6482 14.6314C65.6192 10.829 51.2399 7.74397 61.7986 4.15676C63.3963 3.58281 65.5497 3.08056 68.4673 2.50661C68.7451 2.43487 69.023 2.36316 69.3703 2.36316C71.5932 1.93269 74.5802 1.35872 77.7061 1C80.1374 3.15233 82.3603 6.38087 83.6802 10.4703Z" fill="white"/>
<path d="M76.6622 13.6068C77.7885 17.2339 78.186 21.0061 77.921 24.6332C77.391 25.2136 76.861 25.7214 76.3972 26.1567C74.7409 27.7526 73.3496 29.0584 72.0908 30.1465C55.9253 44.51 69.6395 23.0373 69.9707 16.6536C68.977 18.4671 66.7906 21.0062 65.3993 21.8767C63.4117 23.0373 63.5443 20.4258 63.213 19.1925C62.8817 17.9593 61.5567 17.0888 63.6105 15.8556C64.9355 15.0576 67.4532 14.4048 69.1095 14.4048C65.2668 10.56 51.5526 7.44069 61.6229 3.81356C63.1467 3.23322 65.2006 2.72539 67.9832 2.14505C68.2482 2.07251 68.5132 2 68.8444 2C72.1571 4.32136 75.0722 8.3112 76.6622 13.6068Z" fill="#FFFF00"/>
<path d="M72.6379 15.4653C74.3377 20.585 74.4085 25.9932 73.0629 30.1755C55.7821 44.4531 70.4424 23.1089 70.7965 16.7633C69.7342 18.566 67.3971 21.0898 65.9098 21.9551C63.7851 23.1089 63.9267 20.513 63.5726 19.2871C63.2185 18.0613 61.802 17.1959 63.9975 15.97C65.414 15.1768 68.1053 14.5279 69.8758 14.5279C65.7681 10.7061 51.1078 7.60544 61.8729 4C66.0514 4.43265 70.4424 8.7592 72.6379 15.4653Z" fill="black"/>
<path d="M87.9309 3.71671C88.1621 3.17195 87.9903 2.55731 87.5471 2.34384C87.1039 2.13037 86.5571 2.39891 86.3258 2.94367C86.0946 3.48843 86.2665 4.10311 86.7097 4.31658C87.1529 4.53005 87.6996 4.26146 87.9309 3.71671Z" fill="white"/>
<path d="M83.8998 19C85.4441 19 86.2934 26.109 85.9073 27.673C85.5213 29.237 83.977 24.6872 82.4328 24.6161C80.8885 24.6161 77.6456 29.0948 78.0317 27.5308C78.4949 26.0379 82.3556 19 83.8998 19Z" fill="black"/>
<path d="M60.9252 54.6602C61.4014 56.3555 59.5334 59.5723 57.2991 62.6151C56.9694 63.0498 56.6031 63.528 56.2734 63.9627C55.138 65.3972 54.0025 66.7447 53.0502 67.788C52.7571 68.1357 52.4641 68.44 52.2077 68.7009C51.292 69.6572 50.5228 70.4396 49.8269 71.0917C40.8896 79.6986 48.4716 66.8316 48.6548 63.0063C48.6548 62.789 48.6548 62.6151 48.6181 62.4413C48.5449 62.1804 48.3618 61.9196 48.142 61.6588C46.0175 59.3549 38.4355 57.4857 44.003 55.3123C44.8454 54.9645 45.9809 54.6602 47.5193 54.3125C47.6658 54.269 47.8123 54.2255 47.9955 54.2255C49.1676 53.9647 50.7426 53.617 52.3909 53.3996C52.9037 53.3127 53.4531 53.2692 53.9659 53.1823C57.1892 52.791 60.4124 52.9215 60.9252 54.6602Z" fill="black"/>
<path d="M56.2668 59.5708C56.7299 61.09 56.9614 62.6937 57 64.2552C55.8037 65.6479 54.6073 66.9562 53.6039 67.969C53.2952 68.3066 52.9865 68.6021 52.7163 68.8553C51.7515 69.7838 50.9411 70.5434 50.2078 71.1764C40.7914 79.5325 48.7799 67.0406 48.9729 63.3267C48.394 64.3818 47.1205 65.8589 46.3101 66.3653C45.1523 67.0406 45.2295 65.5213 45.0365 64.8038C44.8436 64.0864 44.0718 63.58 45.2681 62.8625C46.0399 62.3983 47.5064 62.0185 48.4712 62.0185C46.2329 59.7817 38.2444 57.967 44.1103 55.8569C44.998 55.5193 46.1943 55.2239 47.8152 54.8862C47.9695 54.844 48.1239 54.8019 48.3168 54.8019C49.5518 54.5486 51.2112 54.211 52.9479 54C54.2986 55.2661 55.5335 57.1652 56.2668 59.5708Z" fill="white"/>
<path d="M53.1973 61.6827C53.8731 63.7711 54.1116 65.9429 53.9526 68.0313C53.6346 68.3654 53.3166 68.6578 53.0383 68.9084C52.0446 69.8273 51.2098 70.5791 50.4545 71.2056C40.7552 79.4754 48.9837 67.1124 49.1824 63.4369C48.5862 64.4811 47.2744 65.9429 46.4396 66.4441C45.247 67.1124 45.3266 65.6088 45.1278 64.8987C44.929 64.1887 44.134 63.6875 45.3663 62.9775C46.1613 62.518 47.6719 62.1421 48.6657 62.1421C46.3601 59.9285 38.1315 58.1325 44.1738 56.0442C45.088 55.71 46.3203 55.4176 47.9899 55.0835C48.1489 55.0417 48.3079 55 48.5067 55C50.4942 56.3365 52.2433 58.6337 53.1973 61.6827Z" fill="#FFFF00"/>
<path d="M50.2338 62.6573C51.19 65.63 51.2298 68.7703 50.4729 71.1987C40.7524 79.4889 48.9989 67.0955 49.198 63.411C48.6005 64.4577 47.2858 65.9231 46.4492 66.4256C45.2541 67.0955 45.3338 65.5882 45.1346 64.8764C44.9354 64.1646 44.1386 63.6621 45.3736 62.9504C46.1704 62.4898 47.6842 62.113 48.6802 62.113C46.3696 59.8939 38.1231 58.0935 44.1785 56C46.5289 56.2512 48.9989 58.7634 50.2338 62.6573Z" fill="black"/>
<path d="M58.6648 55.5528C58.7893 55.2377 58.6968 54.8822 58.458 54.7587C58.2192 54.6352 57.9246 54.7906 57.8001 55.1057C57.6755 55.4207 57.7681 55.7763 58.0069 55.8997C58.2457 56.0232 58.5402 55.8679 58.6648 55.5528Z" fill="white"/>
<path d="M56.9499 64C57.722 64 58.1467 68.7393 57.9537 69.782C57.7606 70.8246 56.9885 67.7915 56.2164 67.7441C55.4442 67.7441 53.8228 70.7299 54.0158 69.6872C54.2475 68.692 56.1778 64 56.9499 64Z" fill="black"/>
<path d="M148.913 89.5021C149.465 91.036 147.302 93.9464 144.715 96.6994C144.333 97.0927 143.909 97.5253 143.527 97.9186C142.212 99.2165 140.898 100.436 139.795 101.38C139.456 101.694 139.116 101.97 138.819 102.206C137.759 103.071 136.869 103.779 136.063 104.369C125.714 112.156 134.493 100.514 134.706 97.0533C134.706 96.8567 134.706 96.6994 134.663 96.5421C134.578 96.3061 134.366 96.0701 134.112 95.8341C131.652 93.7497 122.873 92.0585 129.319 90.0921C130.295 89.7774 131.609 89.5021 133.391 89.1875C133.56 89.1481 133.73 89.1088 133.942 89.1088C135.299 88.8728 137.123 88.5582 139.032 88.3615C139.625 88.2829 140.261 88.2436 140.855 88.1649C144.587 87.8109 148.32 87.9289 148.913 89.5021Z" fill="black"/>
<path d="M142.218 93.2922C142.712 94.7355 142.959 96.259 143 97.7425C141.724 99.0655 140.448 100.308 139.378 101.271C139.048 101.591 138.719 101.872 138.431 102.113C137.402 102.995 136.537 103.716 135.755 104.318C125.711 112.256 134.232 100.389 134.438 96.8604C133.82 97.8627 132.462 99.266 131.597 99.7471C130.362 100.389 130.445 98.9452 130.239 98.2636C130.033 97.5821 129.21 97.101 130.486 96.4194C131.309 95.9784 132.874 95.6175 133.903 95.6175C131.515 93.4927 122.994 91.7687 129.251 89.7641C130.198 89.4433 131.474 89.1627 133.203 88.8419C133.367 88.8018 133.532 88.7618 133.738 88.7618C135.055 88.5212 136.825 88.2005 138.678 88C140.118 89.2028 141.436 91.007 142.218 93.2922Z" fill="white"/>
<path d="M139.13 95.331C139.863 97.3094 140.121 99.367 139.949 101.345C139.604 101.662 139.26 101.939 138.958 102.176C137.882 103.047 136.977 103.759 136.159 104.353C125.651 112.187 134.566 100.475 134.781 96.9928C134.135 97.9821 132.714 99.367 131.81 99.8418C130.518 100.475 130.604 99.0504 130.388 98.3778C130.173 97.7051 129.312 97.2303 130.647 96.5576C131.508 96.1223 133.145 95.7662 134.221 95.7662C131.723 93.6691 122.809 91.9676 129.355 89.9892C130.345 89.6727 131.68 89.3957 133.489 89.0791C133.661 89.0395 133.834 89 134.049 89C136.202 90.2662 138.097 92.4425 139.13 95.331Z" fill="#FFFF00"/>
<path d="M135.234 96.2874C136.19 99.095 136.23 102.061 135.473 104.354C125.752 112.184 133.999 100.479 134.198 96.9992C133.6 97.9878 132.286 99.3718 131.449 99.8464C130.254 100.479 130.334 99.0555 130.135 98.3833C129.935 97.711 129.139 97.2365 130.374 96.5642C131.17 96.1292 132.684 95.7733 133.68 95.7733C131.37 93.6775 123.123 91.9772 129.178 90C131.529 90.2373 133.999 92.6099 135.234 96.2874Z" fill="black"/>
<path d="M145.063 90.0391C145.201 89.7465 145.099 89.4164 144.834 89.3017C144.57 89.1871 144.244 89.3313 144.106 89.6239C143.968 89.9165 144.071 90.2466 144.335 90.3613C144.599 90.4759 144.925 90.3317 145.063 90.0391Z" fill="white"/>
<path d="M142.95 98C143.722 98 144.147 101.949 143.954 102.818C143.761 103.687 142.989 101.16 142.216 101.12C141.444 101.12 139.823 103.608 140.016 102.739C140.247 101.91 142.178 98 142.95 98Z" fill="black"/>
<path d="M156.862 34.767C157.739 37.5926 154.298 42.9538 150.182 48.0252C149.575 48.7497 148.9 49.5467 148.293 50.2711C146.202 52.662 144.11 54.9078 142.356 56.6466C141.816 57.2262 141.276 57.7334 140.804 58.1681C139.117 59.762 137.7 61.0661 136.418 62.1528C119.954 76.4977 133.921 55.0527 134.259 48.6772C134.259 48.315 134.259 48.0252 134.191 47.7354C134.056 47.3007 133.719 46.866 133.314 46.4313C129.401 42.5915 115.434 39.4762 125.69 35.8538C127.242 35.2742 129.333 34.767 132.167 34.1874C132.437 34.115 132.707 34.0426 133.044 34.0426C135.203 33.6079 138.105 33.0283 141.141 32.666C142.086 32.5211 143.098 32.4487 144.042 32.3038C149.98 31.6517 155.918 31.8691 156.862 34.767Z" fill="black"/>
<path d="M146.729 42.4703C147.532 45.0531 147.933 47.7793 148 50.4339C145.926 52.8014 143.853 55.0255 142.113 56.7473C141.578 57.3213 141.043 57.8235 140.575 58.254C138.903 59.8324 137.498 61.1238 136.227 62.1999C119.905 76.4053 133.752 55.1689 134.086 48.8555C133.083 50.6491 130.876 53.1602 129.471 54.0211C127.464 55.169 127.598 52.5862 127.263 51.3665C126.929 50.1468 125.591 49.2859 127.665 48.0663C129.003 47.2771 131.544 46.6314 133.217 46.6314C129.337 42.829 115.49 39.744 125.658 36.1568C127.196 35.5828 129.27 35.0806 132.08 34.5066C132.347 34.4349 132.615 34.3632 132.949 34.3632C135.09 33.9327 137.966 33.3587 140.976 33C143.318 35.1523 145.458 38.3809 146.729 42.4703Z" fill="white"/>
<path d="M140.662 46.2551C141.789 49.7723 142.186 53.4302 141.921 56.9474C141.391 57.5101 140.861 58.0026 140.397 58.4247C138.741 59.9722 137.35 61.2384 136.091 62.2936C119.925 76.2218 133.639 55.3998 133.971 49.2095C132.977 50.9681 130.791 53.4302 129.399 54.2743C127.412 55.3999 127.544 52.8674 127.213 51.6716C126.882 50.4757 125.557 49.6316 127.61 48.4357C128.936 47.662 131.453 47.0289 133.109 47.0289C129.267 43.3006 115.553 40.2758 125.623 36.7586C127.147 36.1959 129.201 35.7034 131.983 35.1407C132.248 35.0703 132.513 35 132.844 35C136.157 37.251 139.072 41.12 140.662 46.2551Z" fill="#FFFF00"/>
<path d="M134.723 47.4653C136.317 52.585 136.383 57.9932 135.121 62.1755C118.921 76.4531 132.665 55.1089 132.997 48.7633C132.001 50.566 129.81 53.0898 128.415 53.9551C126.424 55.1089 126.556 52.513 126.224 51.2871C125.892 50.0613 124.564 49.1959 126.623 47.97C127.951 47.1768 130.474 46.5279 132.134 46.5279C128.283 42.7061 114.539 39.6054 124.631 36C128.548 36.4327 132.665 40.7592 134.723 47.4653Z" fill="black"/>
<path d="M150.937 36.1916C151.169 35.6468 150.997 35.0322 150.554 34.8187C150.11 34.6052 149.564 34.8738 149.332 35.4185C149.101 35.9633 149.273 36.578 149.716 36.7914C150.159 37.0049 150.706 36.7363 150.937 36.1916Z" fill="white"/>
<path d="M146.9 52C148.444 52 149.293 59.109 148.907 60.673C148.521 62.237 146.977 57.6872 145.433 57.6161C143.888 57.6161 140.646 62.0948 141.032 60.5308C141.495 59.0379 145.356 52 146.9 52Z" fill="black"/>
<path d="M116.862 134.767C117.739 137.593 114.298 142.954 110.182 148.025C109.575 148.75 108.9 149.547 108.293 150.271C106.202 152.662 104.11 154.908 102.356 156.647C101.816 157.226 101.276 157.733 100.804 158.168C99.1169 159.762 97.6999 161.066 96.4179 162.153C79.9545 176.498 93.9214 155.053 94.2588 148.677C94.2588 148.315 94.2588 148.025 94.1913 147.735C94.0564 147.301 93.719 146.866 93.3142 146.431C89.4007 142.592 75.4338 139.476 85.6897 135.854C87.2416 135.274 89.3333 134.767 92.1671 134.187C92.437 134.115 92.7069 134.043 93.0443 134.043C95.2034 133.608 98.1048 133.028 101.141 132.666C102.086 132.521 103.098 132.449 104.042 132.304C109.98 131.652 115.918 131.869 116.862 134.767Z" fill="black"/>
<path d="M106.729 142.47C107.532 145.053 107.933 147.779 108 150.434C105.926 152.801 103.853 155.025 102.113 156.747C101.578 157.321 101.043 157.824 100.575 158.254C98.9026 159.832 97.4979 161.124 96.2269 162.2C79.9052 176.405 93.7519 155.169 94.0864 148.855C93.083 150.649 90.8756 153.16 89.4708 154.021C87.464 155.169 87.5978 152.586 87.2633 151.367C86.9289 150.147 85.591 149.286 87.6647 148.066C89.0026 147.277 91.5445 146.631 93.2168 146.631C89.337 142.829 75.4903 139.744 85.6579 136.157C87.1965 135.583 89.2701 135.081 92.0796 134.507C92.3472 134.435 92.6147 134.363 92.9492 134.363C95.0898 133.933 97.9661 133.359 100.976 133C103.318 135.152 105.458 138.381 106.729 142.47Z" fill="white"/>
<path d="M100.662 145.607C101.789 149.234 102.186 153.006 101.921 156.633C101.391 157.214 100.861 157.721 100.397 158.157C98.7409 159.753 97.3496 161.058 96.0908 162.147C79.9253 176.51 93.6395 155.037 93.9707 148.654C92.977 150.467 90.7906 153.006 89.3993 153.877C87.4117 155.037 87.5443 152.426 87.213 151.193C86.8817 149.959 85.5567 149.089 87.6105 147.856C88.9355 147.058 91.4532 146.405 93.1095 146.405C89.2668 142.56 75.5526 139.441 85.6229 135.814C87.1467 135.233 89.2006 134.725 91.9832 134.145C92.2482 134.073 92.5132 134 92.8444 134C96.1571 136.321 99.0722 140.311 100.662 145.607Z" fill="#FFFF00"/>
<path d="M94.8082 147.465C96.2955 152.585 96.3574 157.993 95.18 162.176C80.0593 176.453 92.8871 155.109 93.197 148.763C92.2674 150.566 90.2224 153.09 88.9211 153.955C87.062 155.109 87.1859 152.513 86.876 151.287C86.5662 150.061 85.3268 149.196 87.2479 147.97C88.4873 147.177 90.8421 146.528 92.3914 146.528C88.7971 142.706 75.9693 139.605 85.3888 136C89.045 136.433 92.8871 140.759 94.8082 147.465Z" fill="black"/>
<path d="M110.965 135.781C111.197 135.236 111.025 134.622 110.582 134.408C110.138 134.195 109.592 134.463 109.36 135.008C109.129 135.553 109.301 136.168 109.744 136.381C110.188 136.594 110.734 136.326 110.965 135.781Z" fill="white"/>
<path d="M106.9 151C108.444 151 109.293 158.109 108.907 159.673C108.521 161.237 106.977 156.687 105.433 156.616C103.888 156.616 100.646 161.095 101.032 159.531C101.495 158.038 105.356 151 106.9 151Z" fill="black"/>
<path d="M58.7679 110.953C60.2465 114.989 54.4458 122.648 47.5076 129.893C46.4839 130.928 45.3465 132.067 44.3228 133.102C40.7969 136.517 37.2709 139.725 34.3137 142.209C33.4037 143.037 32.4938 143.762 31.6976 144.383C28.8541 146.66 26.4656 148.523 24.3045 150.075C-3.44816 170.568 20.0961 139.932 20.6648 130.825C20.6648 130.307 20.6648 129.893 20.5511 129.479C20.3236 128.858 19.7549 128.237 19.0725 127.616C12.4755 122.131 -11.0688 117.68 6.21975 112.505C8.83578 111.677 12.3618 110.953 17.1389 110.125C17.5938 110.021 18.0488 109.918 18.6175 109.918C22.2572 109.297 27.148 108.469 32.2663 107.951C33.8587 107.744 35.5648 107.641 37.1572 107.434C47.1663 106.502 57.1755 106.813 58.7679 110.953Z" fill="black"/>
<path d="M41.8492 121.648C43.2076 125.371 43.8868 129.3 44 133.125C40.4907 136.537 36.9814 139.743 34.0382 142.224C33.1326 143.051 32.227 143.775 31.4345 144.395C28.6045 146.67 26.2272 148.531 24.0764 150.082C-3.54509 170.555 19.8878 139.949 20.4539 130.851C18.7558 133.435 15.0202 137.054 12.6429 138.295C9.24684 139.949 9.47319 136.227 8.90718 134.469C8.34116 132.712 6.07715 131.471 9.58643 129.713C11.8505 128.576 16.1522 127.645 18.9822 127.645C12.4165 122.165 -11.0165 117.719 6.19035 112.549C8.79401 111.722 12.3033 110.998 17.0578 110.171C17.5106 110.068 17.9634 109.965 18.5294 109.965C22.1519 109.344 27.0196 108.517 32.1137 108C36.0758 111.102 39.6983 115.755 41.8492 121.648Z" fill="white"/>
<path d="M31.7258 126.531C33.6404 131.697 34.3163 137.069 33.8657 142.235C32.9647 143.062 32.0637 143.785 31.2753 144.405C28.4596 146.678 26.0943 148.538 23.9544 150.087C-3.52707 170.544 19.7871 139.962 20.3503 130.87C18.6608 133.453 14.944 137.069 12.5788 138.309C9.19996 139.962 9.42524 136.243 8.86209 134.486C8.29895 132.73 6.04634 131.49 9.53784 129.734C11.7904 128.597 16.0704 127.667 18.8861 127.667C12.3536 122.192 -10.9606 117.749 6.15897 112.583C8.74943 111.756 12.241 111.033 16.9714 110.207C17.4219 110.103 17.8724 110 18.4356 110C24.067 113.306 29.0227 118.989 31.7258 126.531Z" fill="#FFFF00"/>
<path d="M23.7867 129.273C26.5487 136.54 26.6638 144.216 24.4771 150.152C-3.6041 170.417 20.2189 140.122 20.7943 131.116C19.068 133.674 15.2702 137.257 12.8534 138.485C9.40077 140.122 9.63096 136.438 9.05552 134.698C8.48008 132.958 6.17831 131.73 9.74601 129.99C12.0478 128.864 16.4211 127.943 19.2982 127.943C12.6232 122.518 -11.1998 118.117 6.2934 113C13.0835 113.614 20.219 119.755 23.7867 129.273Z" fill="black"/>
<path d="M49.6612 112.181C50.0483 111.393 49.7607 110.504 49.0187 110.195C48.2768 109.887 47.3615 110.275 46.9744 111.063C46.5873 111.85 46.875 112.739 47.617 113.048C48.3589 113.357 49.2741 112.968 49.6612 112.181Z" fill="white"/>
</svg>
