<svg width="302" height="210" viewBox="0 0 302 210" fill="none" xmlns="http://www.w3.org/2000/svg">
<g id="fstar">
<path id="Vector" d="M153.768 56.9529C155.246 60.9894 149.446 68.6483 142.508 75.8932C141.484 76.9282 140.346 78.0666 139.323 79.1016C135.797 82.5171 132.271 85.7255 129.314 88.2094C128.404 89.0374 127.494 89.762 126.698 90.383C123.854 92.66 121.466 94.5229 119.305 96.0754C91.5518 116.568 115.096 85.9325 115.665 76.8246C115.665 76.3071 115.665 75.8932 115.551 75.4792C115.324 74.8582 114.755 74.2372 114.072 73.6162C107.476 68.1307 83.9312 63.6803 101.22 58.5054C103.836 57.6774 107.362 56.9529 112.139 56.1249C112.594 56.0214 113.049 55.9179 113.617 55.9179C117.257 55.2969 122.148 54.4689 127.266 53.9514C128.859 53.7444 130.565 53.6409 132.157 53.4339C142.166 52.5025 152.175 52.813 153.768 56.9529Z" fill="black"/>
<path id="Vector_2" d="M136.849 67.6484C138.208 71.3706 138.887 75.2996 139 79.1253C135.491 82.5374 131.981 85.7426 129.038 88.2241C128.133 89.0512 127.227 89.7751 126.435 90.3955C123.604 92.6702 121.227 94.5313 119.076 96.0823C91.4549 116.555 114.888 85.9494 115.454 76.8505C113.756 79.4354 110.02 83.0543 107.643 84.2951C104.247 85.9494 104.473 82.2271 103.907 80.4694C103.341 78.7116 101.077 77.4709 104.586 75.7132C106.85 74.5758 111.152 73.6453 113.982 73.6453C107.416 68.1653 83.9835 63.7193 101.19 58.5495C103.794 57.7223 107.303 56.9985 112.058 56.1713C112.511 56.0679 112.963 55.9646 113.529 55.9646C117.152 55.3442 122.02 54.517 127.114 54C131.076 57.1019 134.698 61.7548 136.849 67.6484Z" fill="white"/>
<path id="Vector_3" d="M126.726 72.5309C128.64 77.6968 129.316 83.0693 128.866 88.2352C127.965 89.0618 127.064 89.7851 126.275 90.405C123.46 92.678 121.094 94.5377 118.954 96.0875C91.4729 116.544 114.787 85.9622 115.35 76.8702C113.661 79.4532 109.944 83.0694 107.579 84.3092C104.2 85.9623 104.425 82.2428 103.862 80.4863C103.299 78.7299 101.046 77.4901 104.538 75.7337C106.79 74.5972 111.07 73.6674 113.886 73.6674C107.354 68.1915 84.0394 63.7489 101.159 58.583C103.749 57.7564 107.241 57.0331 111.971 56.2066C112.422 56.1033 112.872 56 113.436 56C119.067 59.3062 124.023 64.9887 126.726 72.5309Z" fill="#FFFF00"/>
<path id="Vector_4" d="M118.787 75.2734C121.549 82.5401 121.664 90.2162 119.477 96.1524C91.3959 116.417 115.219 86.1223 115.794 77.1157C114.068 79.6744 110.27 83.2565 107.853 84.4847C104.401 86.1222 104.631 82.4378 104.056 80.6979C103.48 78.9579 101.178 77.7297 104.746 75.9897C107.048 74.8639 111.421 73.9428 114.298 73.9428C107.623 68.5183 83.8002 64.1174 101.293 59C108.084 59.6141 115.219 65.755 118.787 75.2734Z" fill="black"/>
<path id="Vector_5" d="M144.661 58.1805C145.048 57.3928 144.761 56.504 144.019 56.1953C143.277 55.8867 142.361 56.275 141.974 57.0627C141.587 57.8504 141.875 58.7392 142.617 59.0479C143.359 59.3566 144.274 58.9682 144.661 58.1805Z" fill="white"/>
<path id="Vector_6" d="M153.768 56.9529C155.246 60.9894 149.446 68.6483 142.508 75.8932C141.484 76.9282 140.346 78.0666 139.323 79.1016C135.797 82.5171 132.271 85.7255 129.314 88.2094C128.404 89.0374 127.494 89.762 126.698 90.383C123.854 92.66 121.466 94.5229 119.305 96.0754C91.5518 116.568 115.096 85.9325 115.665 76.8246C115.665 76.3071 115.665 75.8932 115.551 75.4792C115.324 74.8582 114.755 74.2372 114.072 73.6162C107.476 68.1307 83.9312 63.6803 101.22 58.5054C103.836 57.6774 107.362 56.9529 112.139 56.1249C112.594 56.0214 113.049 55.9179 113.617 55.9179C117.257 55.2969 122.148 54.4689 127.266 53.9514C128.859 53.7444 130.565 53.6409 132.157 53.4339C142.166 52.5025 152.175 52.813 153.768 56.9529Z" fill="black"/>
<path id="Vector_7" d="M136.849 67.6484C138.208 71.3706 138.887 75.2996 139 79.1253C135.491 82.5374 131.981 85.7426 129.038 88.2241C128.133 89.0512 127.227 89.7751 126.435 90.3955C123.604 92.6702 121.227 94.5313 119.076 96.0823C91.4549 116.555 114.888 85.9494 115.454 76.8505C113.756 79.4354 110.02 83.0543 107.643 84.2951C104.247 85.9494 104.473 82.2271 103.907 80.4694C103.341 78.7116 101.077 77.4709 104.586 75.7132C106.85 74.5758 111.152 73.6453 113.982 73.6453C107.416 68.1653 83.9835 63.7193 101.19 58.5495C103.794 57.7223 107.303 56.9985 112.058 56.1713C112.511 56.0679 112.963 55.9646 113.529 55.9646C117.152 55.3442 122.02 54.517 127.114 54C131.076 57.1019 134.698 61.7548 136.849 67.6484Z" fill="white"/>
<path id="Vector_8" d="M126.726 72.5309C128.64 77.6968 129.316 83.0693 128.866 88.2352C127.965 89.0618 127.064 89.7851 126.275 90.405C123.46 92.678 121.094 94.5377 118.954 96.0875C91.4729 116.544 114.787 85.9622 115.35 76.8702C113.661 79.4532 109.944 83.0694 107.579 84.3092C104.2 85.9623 104.425 82.2428 103.862 80.4863C103.299 78.7299 101.046 77.4901 104.538 75.7337C106.79 74.5972 111.07 73.6674 113.886 73.6674C107.354 68.1915 84.0394 63.7489 101.159 58.583C103.749 57.7564 107.241 57.0331 111.971 56.2066C112.422 56.1033 112.872 56 113.436 56C119.067 59.3062 124.023 64.9887 126.726 72.5309Z" fill="#FFFF00"/>
<path id="Vector_9" d="M118.787 75.2734C121.549 82.5401 121.664 90.2162 119.477 96.1524C91.3959 116.417 115.219 86.1223 115.794 77.1157C114.068 79.6744 110.27 83.2565 107.853 84.4847C104.401 86.1222 104.631 82.4378 104.056 80.6979C103.48 78.9579 101.178 77.7297 104.746 75.9897C107.048 74.8639 111.421 73.9428 114.298 73.9428C107.623 68.5183 83.8002 64.1174 101.293 59C108.084 59.6141 115.219 65.755 118.787 75.2734Z" fill="black"/>
<path id="Vector_10" d="M144.661 58.1805C145.048 57.3928 144.761 56.504 144.019 56.1953C143.277 55.8867 142.361 56.275 141.974 57.0627C141.587 57.8504 141.875 58.7392 142.617 59.0479C143.359 59.3566 144.274 58.9682 144.661 58.1805Z" fill="white"/>
</g>
</svg>
