<svg width="441" height="618" viewBox="0 0 441 618" fill="none" xmlns="http://www.w3.org/2000/svg">
<g id="Frame" clip-path="url(#clip0)">
<path id="Vector" d="M224.6 30.3C228.3 30 231 26.7 230.7 23.1L229.2 6.2C228.9 2.5 225.6 -0.200004 222 0.0999965C218.3 0.399996 215.6 3.7 215.9 7.3L217.4 24.2C217.7 27.9 220.9 30.6 224.6 30.3Z" fill="white"/>
<path id="Vector_2" d="M275.4 569.6C279.1 569.3 281.8 566 281.5 562.4L238.5 71.5C238.2 67.8 234.9 65.1 231.3 65.4C227.6 65.7 224.9 69 225.2 72.6L268.1 563.4C268.5 567.2 271.7 569.9 275.4 569.6Z" fill="white"/>
<path id="Vector_3" d="M109.9 586C106.8 584 105.9 579.9 107.9 576.8L216.9 409C218.9 405.9 223 405 226.1 407C229.2 409 230.1 413.1 228.1 416.2L119.1 584C117.1 587.1 113 588 109.9 586Z" fill="white"/>
<path id="Vector_4" d="M384.3 582.6C387.8 580.4 388.7 576 386.2 572.9L145 262C142.5 258.8 137.7 258.1 134.2 260.3C130.7 262.5 129.8 266.9 132.3 270L373.5 580.8C376 584 380.8 584.8 384.3 582.6Z" fill="white"/>
<path id="Vector_5" d="M15.8 259.2H138.9L146.2 324.4L153.3 356.3L161.7 389.6L173.7 420.1L183.2 445L195.7 454.5L185.6 465.9L176.1 474.2L161.7 482.5H148.7H130.3L105.7 474.4L87.6 463.1L78 453.4L66 435.3L51.7 413.1L42.1 389.6L33.7 359L26.6 329.9L15.8 298.7V259.2Z" fill="#F02455"/>
<path id="Vector_6" d="M135.4 482.5L154.5 475.6L170.1 463.1L176.5 453.1V441.8L190.4 442.3H206H222.7H240.6L252.9 441.8H266.3H283.4H294.4H300.5V453.1L290.7 462.1L280.1 472.8L270 482.5H260.2H135.4Z" fill="#D21349"/>
<path id="Vector_7" d="M141 301.857V303.063L143.577 306.302L146.799 309.476L148.087 312.651V315.952L149.376 319L189 299L141 301.857Z" fill="url(#paint0_linear)"/>
<path id="Vector_8" d="M92.6364 357.44L89 363.14L90.8182 368.27L97.3636 373.78L102.818 378.72L107.909 381L111.909 384.8L118.091 387.84L126.091 390.88H137.327L145.436 394.984L152.091 395.06L156.636 397.72L165.364 400H170.273H176.164H182.564H185.509L194.818 397.72L204.673 395.06L210.564 394.984L215.909 389.36L221 382.14V375.984V371.348L218.455 367.32L215.909 363.52L213.364 360.48L209.073 357.44L204.273 354.4L200.636 351.74H196.782H190.891L185.364 348.7H180.091H172.709L168.636 345.66H162.418L157.364 343H151.582H142.745H135.364L129.364 345.28H123.909L111.909 347.56L102.091 350.98L96.6364 352.88L92.6364 357.44Z" fill="url(#paint1_linear)"/>
<path id="Vector_9" d="M93.726 366.63L91.9112 374.693L90.6148 381.993L89.1689 388.476L90.0595 393.348L89.0581 400.463L90.0862 406.087L88.6784 410.978L89.6347 416.21L90.4417 420.624L93.9595 427.274L97.5729 434.447L100.377 438.993L103.253 443.932L106.303 449.818L110.235 456.937L116.628 459.525L122.389 462.253L128.668 464.22L138.256 466.297C138.256 466.297 142.243 468.316 143.519 468.099C144.795 467.882 151.652 469.413 151.652 469.413L159.985 470.019L166.364 468.934L175.837 467.323L184.034 465.929L192.818 460.726L200.513 456.046L206.673 451.965L214.069 445.65L218.37 442.188L224.078 433.834L225.852 429.149L229.721 419.726L230.818 413.134L229.455 405.679L230.48 398.695L229.506 393.366L228.131 385.845L227.24 380.974L223.406 372.591L220.735 366.977L215.094 359.508L212.663 355.202L209.772 351.985L211.905 360.05L211.984 364.082L208.814 368.33L205.608 372.381L200.116 376.518L195.443 379.74L190.459 381.262L184 383.709L177.74 385.448L172.837 385.608L167.673 386.149L162.51 386.69L156.348 387.164L150.562 385.013L145.383 385.827L142.799 386.266L138.94 386.922L135.91 387.438L132.465 388.024L127.565 386.227L123.379 384.917L119.253 383.933L114.389 380.714L111.1 378.914L108.947 377.931L106.156 377.058L102.548 375.311L99.8971 373.402L97.0466 372.201L93.726 366.63Z" fill="url(#paint2_radial)"/>
<path id="Vector_10" d="M111.985 365.77L114.239 361.801L119.441 360.916L127.41 355.975L134.442 354.779L142.983 353.326L150.048 352.125L157.882 350.793L164.818 349.613L169.788 352.353L177.591 351.026L183.428 353.619L191.607 357.607L192.312 361.467L193.088 365.71L189.661 368.695L183.878 371.471L178.805 372.334L172.891 376.567L166.79 377.605L160.117 375.512L144.021 372.584L137.138 372.966L127.766 372.409L122.629 373.282L117.431 371.836L112.614 369.213L111.985 365.77Z" fill="url(#paint3_radial)"/>
<path id="Vector_11" d="M99.3305 380.5L101.097 378.961L102.432 377.73L103.489 376.044L104.063 374.206L105.208 373.007L106.679 373.761L108.211 375.743L109.55 377.021L109.858 378.709L110.232 380.754L110.434 381.858L110.671 383.156L110.944 384.65L112.47 385.528L112.606 386.275L111.96 382.737L111.586 380.692L112.296 379.065L111.952 377.182L112.697 375.75L113.224 373.652L113.688 371.565L115.043 371.335L115.737 369.978L116.852 368.785L117.987 368.592L119.184 368.388L120.249 369.947L121.489 370.506L121.774 372.064L123.031 372.721L124.37 373.999L126.004 374.223L128.044 375.248L128.895 375.104L129.857 376.814L130.101 378.145L130.267 379.054L128.39 379.808L127.644 380.705L124.628 381.452L123.131 381.975L121.013 382.837L119.599 383.814L119.131 385.165L118.973 386.43L121.368 386.023L123.217 384.939L125.834 384.494L127.599 384.193L130.604 384.452L133.266 385.505L135.74 386.591L137.193 388.318L138.311 389.634L138.602 391.225L138.946 393.108L138.571 394.611L138.302 395.627L137.645 397.01L136.94 398.134L136.677 399.183L136.014 400.534L134.627 400.77L134.058 402.105L132.672 402.341L131.82 402.486L130.465 402.716L128.854 401.016L127.957 399.662L127.248 398.277L126.588 397.151L125.832 395.505L123.931 393.82L122.608 392.807L121.106 392.058L119.812 391.375L118.623 390.74L120.343 393.393L121.772 394.455L122.832 396.518L123.54 397.903L124.069 399.554L124.425 401.501L124.917 403.66L125.09 405.137L124.737 406.937L124.562 408.473L124.078 409.559L123.601 411.214L121.687 412.476L120.331 412.707L118.503 413.018L116.297 413.393L114.784 413.65L112.766 413.993L111.422 413.218L109.258 412.582L107.184 411.194L106.066 409.878L105.358 408.493L104.781 406.582L105.046 404.295L105.63 402.69L106.775 401.491L106.603 400.549L107.529 399.388L108.848 397.892L110.362 396.396L110.893 395.569L111.86 394.635L112.523 393.284L110.316 393.659L108.362 393.992L106.727 395.006L105.761 395.94L104.609 397.107L103.453 398.073L102.79 399.424L102.044 400.321L101.602 401.634L101.075 403.732L101.217 404.511L100.59 406.057L99.6074 406.726L98.0629 406.989L97.2229 406.128L96.0733 404.817L94.703 403.544L94.3885 401.824L93.8782 399.032L93.54 397.182L94.5412 394.836L96.5065 393.498L99.1654 392.041L101.283 391.179L104.251 390.172L105.575 389.947L107.12 389.684L109.295 389.315L110.928 389.539L104.252 388.934L102.209 388.779L101.017 388.48L99.5625 387.991L98.3228 387.432L96.9525 386.159L96.6024 384.244L97.7008 382.785L99.3305 380.5Z" fill="url(#paint4_radial)"/>
<path id="Vector_12" d="M103.396 385.49L105.011 385.216L106.399 384.98L107.195 382.23L107.028 381.318L108.907 380.127L110.367 383.015L110.781 385.28L112.818 386.223L112.219 382.944L111.99 381.694L113.253 380.956L113.911 379.276L115.502 377.96L116.672 376.715L117.055 378.811L117.266 379.96L119.08 379.686L119.265 380.7L119.5 381.985L119.679 382.965L118.92 385.185L120.05 384.993L121.858 384.685L122.891 384.51L124.303 385.315L126.884 386.688C126.884 386.688 127.516 387.592 127.138 388.074C126.76 388.556 125.556 388.343 125.556 388.343L124.683 389.398L122.972 389.689L121.939 389.864L121.959 391.429L118.678 390.419L117.141 389.112L115.82 388.988L117.807 390.567L119.609 392.595L121.469 393.847L120.524 395.054L119.104 395.295L117.909 395.498L117.175 396.947L117.355 397.928L117.639 399.482L115.831 399.79L114.601 398.709L112.75 398.78L111.392 397.722L110.711 396.548L110.207 395.066L110.975 394.168L112.102 392.687L109.24 393.418L107.023 394.039L105.113 395.061L103.911 396.136L102.964 396.054L102.457 393.282C102.457 393.282 102.873 393.734 103.394 393.123C103.914 392.511 104.952 391.812 104.952 391.812L103.46 391.299L101.968 390.786L101.105 389.888L104.809 390.303L106.359 390.04L108.425 389.688L109.716 389.469L106.776 388.679L105.42 388.91L104.33 388.05L103.396 385.49Z" fill="url(#paint5_radial)"/>
<path id="Vector_13" d="M179.011 331L162 369.312L163.068 371H164.811L182 331" fill="url(#paint6_linear)"/>
<path id="Vector_14" d="M151 320.804L154.624 325.098L159.235 326.089L160.553 329.062H163.715L164.671 333.588L167.141 336L193 299L151 320.804Z" fill="url(#paint7_linear)"/>
<path id="Vector_15" d="M170 334.656L178.156 336.718H180.505L185.66 339.809L189.248 344L193 299L170 334.656Z" fill="url(#paint8_linear)"/>
<path id="Vector_16" d="M189 340L191.048 338.752L195.143 340L198.601 337.375L205.684 338.687L208 340L192.894 298L189 340Z" fill="url(#paint9_radial)"/>
<path id="Vector_17" d="M208.135 340L212.741 336.73H216.694L222.078 334.806H224.319H226L195 298L208.135 340Z" fill="url(#paint10_radial)"/>
<path id="Vector_18" d="M189.913 299.988L139.644 303.3L137 301.644L195.135 298L233 342.388L229.409 340.764L195.462 300.981L212.109 348.019V351L194.482 302.306L190.239 350.006L188.933 346.694L192.524 302.306L168.695 338.081L165.758 341.063L167.39 335.763L190.892 301.644L144.508 324.5L148.457 320.194L189.913 299.988Z" fill="url(#paint11_linear)"/>
<path id="Vector_19" d="M59.2981 283L57 285.676L97.3811 289.355L102.634 291.362L140.06 379.662L144 381L103.291 288.017L100.5 287.114L59.2981 283Z" fill="#5CDFF1"/>
<path id="Vector_20" d="M57 284V286.509L58.6416 288.014L96.3987 292.029L99.682 294.705L135.469 377H137.767H140L102.637 290.356L97.3837 287.68L57 284Z" fill="#4CC8E4"/>
<path id="Vector_21" d="M167.268 419.645C173.635 418.562 177.833 412.413 176.645 405.91C175.456 399.407 169.331 395.014 162.963 396.097C156.596 397.18 152.398 403.329 153.587 409.832C154.776 416.334 160.901 420.728 167.268 419.645Z" fill="url(#paint12_radial)"/>
<path id="Vector_22" d="M169.965 406.482C171.838 406.163 173.035 404.148 172.638 401.981C172.242 399.813 170.403 398.314 168.53 398.633C166.657 398.951 165.46 400.966 165.857 403.134C166.253 405.301 168.092 406.8 169.965 406.482Z" fill="white"/>
<path id="Vector_23" d="M204.454 419.645C210.822 418.562 215.02 412.413 213.831 405.91C212.642 399.407 206.517 395.014 200.15 396.097C193.782 397.18 189.584 403.329 190.773 409.832C191.962 416.334 198.087 420.728 204.454 419.645Z" fill="url(#paint13_radial)"/>
<path id="Vector_24" d="M203.23 409.179C203.979 409.052 204.479 408.363 204.347 407.64C204.215 406.918 203.501 406.435 202.751 406.563C202.002 406.69 201.502 407.379 201.634 408.102C201.766 408.824 202.481 409.306 203.23 409.179Z" fill="white"/>
<path id="Vector_25" d="M166.732 409.179C167.107 409.115 167.303 408.478 167.171 407.756C167.039 407.033 166.628 406.499 166.254 406.563C165.879 406.626 165.683 407.264 165.815 407.986C165.947 408.709 166.358 409.243 166.732 409.179Z" fill="white"/>
<path id="Vector_26" d="M198.079 406.492C200.327 406.11 201.881 404.336 201.551 402.529C201.22 400.723 199.131 399.569 196.884 399.951C194.636 400.333 193.082 402.107 193.412 403.913C193.743 405.72 195.832 406.874 198.079 406.492Z" fill="white"/>
<path id="Vector_27" d="M203.655 389.566C193.918 391.222 187.575 401.059 189.49 411.534C191.405 422.009 200.853 429.16 210.59 427.504C220.327 425.848 226.67 416.011 224.755 405.536C222.84 395.061 213.391 387.91 203.655 389.566ZM210.133 424.12C202.206 425.469 194.512 419.646 192.953 411.118C191.394 402.59 196.559 394.58 204.486 393.232C212.413 391.884 220.106 397.707 221.665 406.235C223.224 414.763 218.059 422.772 210.133 424.12Z" fill="black"/>
<path id="Vector_28" d="M177.463 411.349C176.712 407.244 179.45 403.327 183.56 402.628C187.671 401.929 191.632 404.706 192.383 408.812C192.492 409.411 192.535 409.99 192.481 410.553L190.319 410.921C190.404 410.353 190.391 409.769 190.282 409.169C189.739 406.2 186.895 404.21 183.941 404.712C180.988 405.214 179.021 408.023 179.564 410.992C179.674 411.592 179.869 412.144 180.15 412.65L177.988 413.018C177.737 412.507 177.573 411.949 177.463 411.349Z" fill="black"/>
<path id="Vector_29" d="M157.516 389.566C147.405 391.285 140.758 401.174 142.673 411.649C144.588 422.124 154.34 429.224 164.452 427.504C174.563 425.785 181.21 415.896 179.295 405.421C177.38 394.946 167.627 387.846 157.516 389.566ZM164 424.119C155.768 425.519 147.828 419.739 146.269 411.211C144.71 402.683 150.122 394.631 158.353 393.231C166.585 391.831 174.525 397.612 176.084 406.14C177.643 414.668 172.232 422.719 164 424.119Z" fill="black"/>
<path id="Vector_30" d="M143.009 402.156L144.444 410.006C141.307 410.189 138.66 408.966 138.301 407.004C137.942 405.041 139.996 403.019 143.009 402.156Z" fill="black"/>
<path id="Vector_31" d="M222.964 402.964L224.398 410.813C226.642 410.081 228.109 408.159 227.75 406.196C227.391 404.234 225.331 402.911 222.964 402.964Z" fill="black"/>
<path id="Vector_32" d="M252.2 214.6C142.7 233.9 49 221.3 42.8 186.3C42.7 185.5 42.6 184.7 42.5 183.8C43 180.1 43.7 176.5 44.5 172.9C63.6 85.9 150.2 20.1 254.1 20.1C326.2 20.1 389.9 51.7 428.5 100.1C432.1 104.7 435.6 109.3 438.7 114.2C438.9 114.9 439 115.5 439.2 116.2C445.4 151.2 361.7 195.2 252.2 214.6Z" fill="#F02455"/>
<path id="Vector_33" d="M252.6 215.3C142.9 233.1 49 221.4 42.8 189.2C42.7 188.4 42.6 187.7 42.5 186.9C42.3 183.6 43 180.3 44.5 176.9C57.8 147.3 134.1 114.2 230.3 98.5C321 83.8 401 89.2 429.4 109.8C434.7 113.6 438.2 118 439.6 122.8C439.8 123.4 439.9 124 440.1 124.7C446.3 156.8 362.3 197.4 252.6 215.3Z" fill="white"/>
<path id="Vector_34" d="M257.9 588.3C261.4 586.1 262.3 581.7 259.8 578.6L14.1 261.9C11.6 258.7 6.8 258 3.3 260.2C-0.199997 262.4 -1.1 266.8 1.4 269.9L247.1 586.5C249.6 589.7 254.4 590.5 257.9 588.3Z" fill="white"/>
<path id="Vector_35" d="M18.2 616C14.6 613.9 13.6 609.6 15.9 606.3L139.4 434.8C141.7 431.6 146.5 430.6 150.1 432.7C153.7 434.8 154.7 439.1 152.4 442.4L29 614C26.6 617.2 21.8 618.1 18.2 616Z" fill="white"/>
<g id="Frame_2">
<path id="Vector_36" d="M185.5 437C189.704 437 193.227 432.68 194 427H192.362C191.651 431.52 188.807 434.92 185.407 434.92C182.007 434.92 179.195 431.52 178.484 427H177C177.742 432.68 181.265 437 185.5 437Z" fill="black"/>
</g>
</g>
<defs>
<linearGradient id="paint0_linear" x1="141" y1="308.998" x2="189" y2="308.998" gradientUnits="userSpaceOnUse">
<stop offset="0.1669" stop-color="#E43F50"/>
<stop offset="0.5369" stop-color="#EC505E"/>
<stop offset="0.7681" stop-color="#F7616A"/>
</linearGradient>
<linearGradient id="paint1_linear" x1="89.0145" y1="371.496" x2="221.014" y2="371.496" gradientUnits="userSpaceOnUse">
<stop offset="1.38522e-07" stop-color="#D5D6DA"/>
<stop offset="0.5101" stop-color="#EDEDEB"/>
<stop offset="1" stop-color="#EDEDEB"/>
</linearGradient>
<radialGradient id="paint2_radial" cx="0" cy="0" r="1" gradientUnits="userSpaceOnUse" gradientTransform="translate(131.498 410.978) rotate(-5.65594) scale(92.4729 94.8057)">
<stop offset="0.0833333" stop-color="#C75325"/>
<stop offset="0.234375" stop-color="#A0441F"/>
<stop offset="0.432292" stop-color="#A94E16"/>
<stop offset="0.604167" stop-color="#B44918"/>
<stop offset="1" stop-color="#713209"/>
</radialGradient>
<radialGradient id="paint3_radial" cx="0" cy="0" r="1" gradientUnits="userSpaceOnUse" gradientTransform="translate(152.571 365.856) rotate(-9.65206) scale(29.6432 32.1724)">
<stop offset="0.2718" stop-color="#E3C85D"/>
<stop offset="0.724" stop-color="#D1B337"/>
</radialGradient>
<radialGradient id="paint4_radial" cx="0" cy="0" r="1" gradientUnits="userSpaceOnUse" gradientTransform="translate(115.547 391.262) rotate(-9.65206) scale(21.3043 23.5991)">
<stop offset="0.489583" stop-color="#F8F7F2"/>
<stop offset="0.760417" stop-color="#E6E1DB"/>
<stop offset="0.979167" stop-color="#CDCBC9"/>
</radialGradient>
<radialGradient id="paint5_radial" cx="0" cy="0" r="1" gradientUnits="userSpaceOnUse" gradientTransform="translate(114.152 388.596) rotate(-8.80835) scale(7.92591 8.92214)">
<stop offset="0.53125" stop-color="#FAC43E"/>
<stop offset="0.9647" stop-color="#FDEBA0"/>
</radialGradient>
<linearGradient id="paint6_linear" x1="161.986" y1="350.995" x2="181.996" y2="350.995" gradientUnits="userSpaceOnUse">
<stop offset="0.0318436" stop-color="#CD9242"/>
<stop offset="1" stop-color="#562306"/>
</linearGradient>
<linearGradient id="paint7_linear" x1="150.987" y1="317.495" x2="192.995" y2="317.495" gradientUnits="userSpaceOnUse">
<stop offset="0.1679" stop-color="#EC505E"/>
<stop offset="0.4382" stop-color="#EC505E"/>
<stop offset="0.7625" stop-color="#F7616A"/>
</linearGradient>
<linearGradient id="paint8_linear" x1="170.007" y1="321.49" x2="192.995" y2="321.49" gradientUnits="userSpaceOnUse">
<stop offset="0.0273744" stop-color="#E33D55"/>
<stop offset="0.4654" stop-color="#ED515F"/>
<stop offset="0.9647" stop-color="#F7616A"/>
</linearGradient>
<radialGradient id="paint9_radial" cx="0" cy="0" r="1" gradientUnits="userSpaceOnUse" gradientTransform="translate(198.499 318.989) scale(16.9591 17.3597)">
<stop offset="0.0363128" stop-color="#E33D55"/>
<stop offset="0.4743" stop-color="#EE5260"/>
<stop offset="0.9647" stop-color="#F7616A"/>
</radialGradient>
<radialGradient id="paint10_radial" cx="0" cy="0" r="1" gradientUnits="userSpaceOnUse" gradientTransform="translate(210.507 318.989) scale(18.1044 20.018)">
<stop offset="0.0318436" stop-color="#E33D55"/>
<stop offset="0.5145" stop-color="#EE5260"/>
</radialGradient>
<linearGradient id="paint11_linear" x1="137.006" y1="324.495" x2="232.987" y2="324.495" gradientUnits="userSpaceOnUse">
<stop offset="0.0318436" stop-color="#CD9242"/>
<stop offset="1" stop-color="#562306"/>
</linearGradient>
<radialGradient id="paint12_radial" cx="0" cy="0" r="1" gradientUnits="userSpaceOnUse" gradientTransform="translate(165.126 407.852) rotate(-9.65206) scale(11.6861 12.8626)">
<stop offset="0.1669"/>
<stop offset="0.9647"/>
</radialGradient>
<radialGradient id="paint13_radial" cx="0" cy="0" r="1" gradientUnits="userSpaceOnUse" gradientTransform="translate(202.307 407.853) rotate(170.348) scale(11.6861 12.8626)">
<stop offset="0.1669"/>
<stop offset="0.9647"/>
</radialGradient>
<clipPath id="clip0">
<rect width="440.4" height="617.2" fill="white"/>
</clipPath>
</defs>
</svg>
