<svg width="688" height="599" viewBox="0 0 688 599" fill="none" xmlns="http://www.w3.org/2000/svg">
<g id="coconerd" clip-path="url(#clip0)">
<path id="Vector" d="M272.7 106.4V110.2L280.7 120.4L290.7 130.4L294.7 140.4V150.8L298.7 160.4L421.7 97.4L272.7 106.4Z" fill="url(#paint0_linear)"/>
<path id="Vector_2" d="M128.138 250L118 265L123.069 278.5L141.317 293L156.523 306L170.716 312L181.868 322L199.102 330L221.405 338H252.731L275.338 348.8L293.89 349L306.562 356L330.893 362H344.579H361.002H378.844H387.056L413.008 356L440.482 349L456.905 348.8L471.807 334L486 315V298.8V286.6L478.904 276L471.807 266L464.711 258L452.748 250L439.366 242L429.229 235H418.483H402.06L386.65 227H371.95H351.371L340.017 219H322.681L308.59 212H292.471H267.836H247.256L230.529 218H215.322L181.868 224L154.496 233L139.289 238L128.138 250Z" fill="url(#paint1_linear)"/>
<path id="Vector_3" d="M117.8 258.4L107.8 281.4L99.8 302.4L91.8 320.9V335.8L84.8 356.4V373.6L77.8 387.4V403.4V416.9L84.8 438.4L91.8 461.5L97.8 476.4L103.8 492.5L109.8 511.5L117.8 534.6L135.8 545.5L151.8 556.5L169.8 565.5L197.8 576.5C197.8 576.5 208.8 584.5 212.8 584.5C216.8 584.5 236.8 592.5 236.8 592.5L261.8 598.5H281.8H311.5H337.2L366.8 587.5L392.8 577.5L413.8 568.5L439.8 553.5L454.8 545.4L476.8 523.5L484.8 510.5L501.8 484.5L508.8 465.5V442.7L515.8 422.5V406.2V383.2V368.3L508.8 341.5L503.8 323.5L490.8 298.5L485.8 284.5L478.8 273.5L480.8 298.5L478.8 310.5L466.8 321.5L454.8 331.9L435.8 341.4L419.8 348.6L403.8 350.6L382.8 354.6L362.8 356.6L347.8 354.6L331.8 353.6L315.8 352.6L296.8 350.9L280.4 341.6L264.2 341.4H256.1H244H234.5H223.7L209.8 333.6L197.8 327.6L185.8 322.6L172.8 310.6L163.8 303.6L157.8 299.6L149.8 295.6L139.8 288.6L132.8 281.6L124.8 276.6L117.8 258.4Z" fill="url(#paint2_radial)"/>
<path id="Vector_4" d="M173.8 268.4L182.8 258.4H199L225.8 248.4H247.7H274.3H296.3H320.7H342.3L355.8 258.4H380.1L396.3 268.4L418.8 283.4V294.5V306.7L406.8 313.4L387.8 318.4H372L351.8 327.4H332.8L313.8 318.4L266.8 302.6L245.8 300.4L217.8 294.4H201.8L186.9 287.9L173.8 278.3V268.4Z" fill="url(#paint3_radial)"/>
<path id="Vector_5" d="M51.2 319.1L57.5 315.4L62.3 312.4L66.5 307.9L69.3 302.7L73.5 299.7L77.6 302.7L81.2 309.4L84.6 313.9V319.1V325.4V328.8V332.8V337.4L88.8 340.8V343.1V332.2V325.9L91.9 321.4V315.6L95 311.7L97.8 305.7L100.4 299.7H104.7L107.6 296L111.7 293H115.3H119.1L121.5 298.2L125 300.5V305.3L128.5 307.9L131.9 312.4L136.8 313.9L142.5 318H145.2L147.2 323.6V327.7V330.5L141 331.8L138.2 334.1L128.5 334.8L123.6 335.6L116.6 337.1L111.7 339.3L109.5 343.1L108.3 346.8H115.9L122.2 344.5H130.5H136.1L145.2 346.8L152.8 351.3L159.8 355.8L163.3 361.7L166 366.2V371.1V376.9L164 381.2L162.6 384.1L159.8 387.9L157 390.9L155.6 393.9L152.8 397.6H148.4L145.9 401.3H141.5H138.8H134.5L130.5 395.4L128.5 390.9L127.1 386.4L125.7 382.7L124.3 377.4L119.4 371.4L115.9 367.7L111.7 364.7L108.1 362L104.8 359.5L108.6 368.3L112.4 372.2L114.5 378.9L115.9 383.4L116.6 388.6V394.6L116.9 401.3L116.6 405.8L114.5 411L113.1 415.5L111 418.5L108.6 423.2L102 426H97.7H91.9H84.9H80.1H73.7L70 423L63.7 420L58.1 414.8L55.4 410.3L54 405.8L53.3 399.8L55.4 393.1L58.1 388.6L62.3 385.6V382.7L65.8 379.7L70.7 375.9L76.2 372.2L78.3 370L81.8 367.7L84.6 364H77.6H71.4L65.8 366.2L62.3 368.5L58.1 371.4L54 373.7L51.2 377.4L48.4 379.7L46.3 383.4L43.5 389.4V391.8L40.7 396.1L37.3 397.6H32.4L30.3 394.6L27.5 390.1L24 385.6V380.3V371.7V366L28.4 359.5L35.2 356.5L44.2 353.5L51.2 352L60.9 350.5H65.1H70H76.9L81.8 352L61.6 346.8L55.4 345.3L51.9 343.8L47.7 341.6L44.2 339.3L40.7 334.8V328.9L44.9 325.1L51.2 319.1Z" fill="url(#paint4_radial)"/>
<path id="Vector_6" d="M64.4 340.1H69.4H73.7L77.6 332.6V329.9L83.9 327.4L86.7 336.4V343.1L92.3 346.8V337.1V333.4L96.5 331.9L99.4 327.4L104.9 324.4L109.1 321.4V327.6V331L114.7 331.1V334.1V337.9V340.8L111.2 346.8H114.7H120.3H123.5L127.3 349.8L134.3 355C134.3 355 135.7 357.9 134.3 359.1C132.9 360.3 129.4 359.1 129.4 359.1L126.2 361.7H120.9H117.7L116.9 366.2L107.6 361.7L103.7 357.2L99.8 356.2L104.9 361.7L109.2 368.4L114.1 372.9L110.6 375.9H106.2H102.5L99.5 379.7V382.6V387.2H93.9L90.8 383.5L85.2 382.8L81.7 379.1L80.3 375.4L79.6 370.9L82.4 368.7L86.6 365L77.6 365.7L70.6 366.4L64.3 368.4L60.1 370.9L57.3 370.2V362C57.3 362 58.3 363.5 60.2 362C62.1 360.5 65.6 359 65.6 359L61.4 356.8L57.2 354.6L55.1 351.6L66 354.6H70.8H77.2H81.2L72.8 350.9H68.6L65.8 347.9L64.4 340.1Z" fill="url(#paint5_radial)"/>
<path id="Vector_7" d="M386 194.3L338.2 307.8L341.2 312.8H346.1L394.4 194.3" fill="url(#paint6_linear)"/>
<path id="Vector_8" d="M302.2 163.8L313.2 176.8L327.2 179.8L331.2 188.8H340.8L343.7 202.5L351.2 209.8L429.7 97.8L302.2 163.8Z" fill="url(#paint7_linear)"/>
<path id="Vector_9" d="M360.2 204.8L385.2 210.8H392.4L408.2 219.8L419.2 232L430.7 101L360.2 204.8Z" fill="url(#paint8_linear)"/>
<path id="Vector_10" d="M421.6 226L427.7 222.1L439.9 226L450.2 217.8L471.3 221.9L478.2 226L433.2 94.8L421.6 226Z" fill="url(#paint9_radial)"/>
<path id="Vector_11" d="M477.4 226L492.2 215.8H504.9L522.2 209.8H529.4H534.8L435.2 95L477.4 226Z" fill="url(#paint10_radial)"/>
<path id="Vector_12" d="M421.2 99.8L267.2 109.8L259.1 104.8L437.2 93.8L553.2 227.8L542.2 222.9L438.2 102.8L489.2 244.8V253.8L435.2 106.8L422.2 250.8L418.2 240.8L429.2 106.8L356.2 214.8L347.2 223.8L352.2 207.8L424.2 104.8L282.1 173.8L294.2 160.8L421.2 99.8Z" fill="url(#paint11_linear)"/>
<path id="Vector_13" d="M7 0L0 8L123 19L139 25L253 289L265 293L141 15L132.5 12.3L7 0Z" fill="#5CDFF1"/>
<path id="Vector_14" d="M0 6.5V14L5 18.5L120 30.5L130 38.5L239 284.5H246H252.8L139 25.5L123 17.5L0 6.5Z" fill="#4CC8E4"/>
<path id="Vector_15" d="M380.2 361C349 361 323.7 386.3 323.7 417.5C323.7 448.7 349 474 380.2 474C411.4 474 436.7 448.7 436.7 417.5C436.7 386.3 411.4 361 380.2 361ZM380.7 464C355.3 464 334.7 443.4 334.7 418C334.7 392.6 355.3 372 380.7 372C406.1 372 426.7 392.6 426.7 418C426.7 443.4 406.1 464 380.7 464Z" fill="black"/>
<path id="Vector_16" d="M285.7 421.6C285.7 408.6 296.7 398 310.2 398C323.7 398 334.7 408.6 334.7 421.6C334.7 423.5 334.5 425.3 334 427H326.9C327.5 425.3 327.8 423.5 327.8 421.6C327.8 412.2 319.9 404.6 310.2 404.6C300.5 404.6 292.6 412.2 292.6 421.6C292.6 423.5 292.9 425.3 293.5 427H286.4C285.9 425.3 285.7 423.5 285.7 421.6Z" fill="black"/>
<path id="Vector_17" d="M238.8 359.3C207.6 359.3 182.3 384.6 182.3 415.8C182.3 447 207.6 472.3 238.8 472.3C270 472.3 295.3 447 295.3 415.8C295.3 384.6 270 359.3 238.8 359.3ZM239.3 462.3C213.9 462.3 193.3 441.7 193.3 416.3C193.3 390.9 213.9 370.3 239.3 370.3C264.7 370.3 285.3 390.9 285.3 416.3C285.3 441.7 264.7 462.3 239.3 462.3Z" fill="black"/>
<path id="Vector_18" d="M187.7 401.2V422C177.5 421.1 169.7 416.8 169.7 411.6C169.7 406.4 177.5 402.1 187.7 401.2Z" fill="black"/>
<path id="Vector_19" d="M428.7 401.4V422.2C438.9 421.3 446.7 417 446.7 411.8C446.7 406.6 438.9 402.3 428.7 401.4Z" fill="black"/>
<path id="Vector_20" d="M276 548C276 526.443 282.7 507.467 292.8 496.234C299.1 489.099 306.7 485 315 485C323.3 485 331.1 489.251 337.4 496.386C347.5 507.771 354 526.595 354 548H276Z" fill="url(#paint12_radial)"/>
<path id="Vector_21" d="M297 492.507C302.368 487.739 308.843 485 315.915 485C322.987 485 329.632 487.84 335 492.608C331.166 500.724 324.094 505.999 316.085 505.999C307.906 506.1 300.919 500.622 297 492.507Z" fill="#FAA0AA"/>
<g id="Frame">
<path id="Vector_22" d="M253 407H226V593H253V407Z" fill="url(#paint13_linear)"/>
</g>
<g id="Frame_2">
<path id="Vector_23" d="M239.5 403C225.9 403 214.5 413.8 212 428H217.3C219.6 416.7 228.8 408.2 239.8 408.2C250.8 408.2 259.9 416.7 262.2 428H267C264.6 413.8 253.2 403 239.5 403Z" fill="black"/>
</g>
<path id="Vector_24" d="M395 407H368V593H395V407Z" fill="url(#paint14_linear)"/>
<g id="Frame_3">
<path id="Vector_25" d="M381.5 402C367.9 402 356.5 412.8 354 427H359.3C361.6 415.7 370.8 407.2 381.8 407.2C392.8 407.2 401.9 415.7 404.2 427H409C406.6 412.8 395.2 402 381.5 402Z" fill="black"/>
</g>
</g>
<g id="ice_cream" clip-path="url(#clip1)">
<path id="Vector_26" d="M538.43 561.285H530.203H523.074L518.986 567.351V572.608V577.765L526.464 581L667.06 578.978H672.046L677.032 573.417V566.441L671.747 561.285H665.116H538.43Z" fill="#F96466"/>
<path id="Vector_27" d="M563.857 573.417C591.392 573.417 613.713 552.142 613.713 525.898C613.713 499.654 591.392 478.378 563.857 478.378C536.322 478.378 514 499.654 514 525.898C514 552.142 536.322 573.417 563.857 573.417Z" fill="url(#paint15_linear)"/>
<path id="Vector_28" d="M551.941 477.367L688 398V401.084V406.24L614.86 540.052L617.303 543.591L619.995 548.242V551.326V554.409L617.303 558.251H614.162H609.675H606.684L532.946 481.412V475.952L534.89 473.323L537.333 471.301L541.72 469.785L545.609 470.29L549.049 473.323L549.548 475.851L551.941 477.367Z" fill="url(#paint16_linear)"/>
<path id="Vector_29" d="M518.986 519.831H524.919H533.045H535.937L538.43 522.865C538.43 522.865 537.433 524.988 538.43 527.212C539.427 529.436 538.43 532.874 538.43 532.874L538.879 536.463V541.114L543.415 543.591L545.908 539.041V534.947V531.711L548.401 527.92L550.894 526.403L554.883 524.887L557.874 523.876L563.857 524.887V527.718V531.711H560.516H556.977H553.935L551.891 533.986V537.019V539.547L551.393 543.591L548.9 545.613L546.905 548.141L544.911 551.68H541.421H538.629L535.937 548.899V546.321L531.948 541.064L531.998 535.756L531.45 531.964V527.92L528.957 525.139C528.957 525.139 527.461 524.381 525.467 524.887C523.473 525.392 523.473 525.392 523.473 525.392L518.986 525.139V519.831Z" fill="#F86464"/>
<path id="Vector_30" d="M565.851 548.141H561.962C561.962 548.141 561.364 548.141 561.862 550.163C562.361 552.185 562.361 552.185 562.361 552.185C562.361 552.185 563.657 554.965 563.757 557.089C563.857 559.262 563.857 559.262 563.857 559.262L565.851 564.874L568.344 567.351H571.834H575.224H580.309V562.801L582.802 560.273V555.572V551.427V548.141V542.631H579.262C579.262 542.631 575.074 539.143 575.174 542.631C575.324 546.119 575.324 548.646 575.324 548.646V551.68L574.676 554.258L572.233 556.634L569.84 558.251L569.092 554.258L567.845 550.163L565.851 548.141Z" fill="#F86464"/>
<path id="Vector_31" d="M673.99 425.854H664.617L666.462 418.524C666.462 418.524 666.462 418.524 664.617 416.704H657.538L656.59 422.821L655.045 425.854L654.097 433.185L647.915 434.398L632.41 441.728L633.656 436.875L628.421 430.758L624.433 434.6L621.292 444.508L598.108 452.041L599.355 448.401L599.604 444.761L595.865 444.154C595.865 444.154 595.865 444.154 594.02 444.154C592.175 444.154 592.375 448.401 592.375 448.401L585.943 459.977L580.359 461.191L575.922 463.92L572.332 467.004V471.554L575.324 475.8L581.007 471.857V475.8L584.148 481.209H587.938V475.851L590.281 472.565V463.971L614.461 457.551L605.038 481.26H601.848L598.308 481.361L590.231 485.658V489.904L598.906 490.612V498.397L604.49 500.217L608.478 495.566L611.968 485.607L633.507 475.851L624.981 496.577L621.242 498.094L615.06 500.268L608.478 503.705V508.71H615.109L618.151 510.024L615.109 517.405H621.242L627.424 513.664V508.811L631.762 504.312V501.481L634.254 501.228L638.542 497.841H642.331L646.17 494.808L644.824 489.955H641.085L634.254 494.808L646.021 467.965L649.112 468.217L653.449 467.358L656.889 464.022L659.681 462.505C659.681 462.505 659.681 462.505 658.186 461.292C656.69 460.078 655.344 458.259 655.344 458.259L649.162 461.292L658.435 438.745L670.6 432.78C670.6 432.78 671.448 431.415 676.533 429.595L673.99 425.854ZM637.595 464.982L616.306 474.638L619.248 467.055L621.242 462.454L624.383 455.327L649.112 441.728L637.595 464.982Z" fill="#FF944C"/>
</g>
<defs>
<linearGradient id="paint0_linear" x1="272.7" y1="128.894" x2="421.7" y2="128.894" gradientUnits="userSpaceOnUse">
<stop offset="0.1669" stop-color="#E43F50"/>
<stop offset="0.5369" stop-color="#EC505E"/>
<stop offset="0.7681" stop-color="#F7616A"/>
</linearGradient>
<linearGradient id="paint1_linear" x1="118.04" y1="286.99" x2="486.04" y2="286.99" gradientUnits="userSpaceOnUse">
<stop offset="1.38522e-07" stop-color="#D5D6DA"/>
<stop offset="0.5101" stop-color="#EDEDEB"/>
<stop offset="1" stop-color="#EDEDEB"/>
</linearGradient>
<radialGradient id="paint2_radial" cx="0" cy="0" r="1" gradientUnits="userSpaceOnUse" gradientTransform="translate(208 409) rotate(3.89378) scale(285.536)">
<stop offset="0.0833333" stop-color="#C75325"/>
<stop offset="0.234375" stop-color="#A0441F"/>
<stop offset="0.432292" stop-color="#A94E16"/>
<stop offset="0.604167" stop-color="#B44918"/>
<stop offset="1" stop-color="#713209"/>
</radialGradient>
<radialGradient id="paint3_radial" cx="0" cy="0" r="1" gradientUnits="userSpaceOnUse" gradientTransform="translate(296.34 287.89) scale(91.0124)">
<stop offset="0.2718" stop-color="#E3C85D"/>
<stop offset="0.724" stop-color="#D1B337"/>
</radialGradient>
<radialGradient id="paint4_radial" cx="0" cy="0" r="1" gradientUnits="userSpaceOnUse" gradientTransform="translate(95.0434 359.496) scale(66.6313 71.5227)">
<stop offset="0.489583" stop-color="#F8F7F2"/>
<stop offset="0.760417" stop-color="#E6E1DB"/>
<stop offset="0.979167" stop-color="#CDCBC9"/>
</radialGradient>
<radialGradient id="paint5_radial" cx="0" cy="0" r="1" gradientUnits="userSpaceOnUse" gradientTransform="translate(95.0047 354.26) rotate(0.804369) scale(24.1977 25.974)">
<stop offset="0.53125" stop-color="#FAC43E"/>
<stop offset="0.9647" stop-color="#FDEBA0"/>
</radialGradient>
<linearGradient id="paint6_linear" x1="338.16" y1="253.534" x2="394.389" y2="253.534" gradientUnits="userSpaceOnUse">
<stop offset="0.0318436" stop-color="#CD9242"/>
<stop offset="1" stop-color="#562306"/>
</linearGradient>
<linearGradient id="paint7_linear" x1="302.16" y1="153.784" x2="429.685" y2="153.784" gradientUnits="userSpaceOnUse">
<stop offset="0.1679" stop-color="#EC505E"/>
<stop offset="0.4382" stop-color="#EC505E"/>
<stop offset="0.7625" stop-color="#F7616A"/>
</linearGradient>
<linearGradient id="paint8_linear" x1="360.221" y1="166.47" x2="430.685" y2="166.47" gradientUnits="userSpaceOnUse">
<stop offset="0.0273744" stop-color="#E33D55"/>
<stop offset="0.4654" stop-color="#ED515F"/>
<stop offset="0.9647" stop-color="#F7616A"/>
</linearGradient>
<radialGradient id="paint9_radial" cx="0" cy="0" r="1" gradientUnits="userSpaceOnUse" gradientTransform="translate(449.897 160.365) scale(50.5203 54.2285)">
<stop offset="0.0363128" stop-color="#E33D55"/>
<stop offset="0.4743" stop-color="#EE5260"/>
<stop offset="0.9647" stop-color="#F7616A"/>
</radialGradient>
<radialGradient id="paint10_radial" cx="0" cy="0" r="1" gradientUnits="userSpaceOnUse" gradientTransform="translate(485.022 160.465) scale(58.1676 62.4371)">
<stop offset="0.0318436" stop-color="#E33D55"/>
<stop offset="0.5145" stop-color="#EE5260"/>
</radialGradient>
<linearGradient id="paint11_linear" x1="259.119" y1="173.784" x2="553.16" y2="173.784" gradientUnits="userSpaceOnUse">
<stop offset="0.0318436" stop-color="#CD9242"/>
<stop offset="1" stop-color="#562306"/>
</linearGradient>
<radialGradient id="paint12_radial" cx="0" cy="0" r="1" gradientUnits="userSpaceOnUse" gradientTransform="translate(314.982 516.37) rotate(180) scale(30.8231 53.5316)">
<stop offset="0.1669"/>
<stop offset="0.9647"/>
</radialGradient>
<linearGradient id="paint13_linear" x1="226" y1="500" x2="253" y2="500" gradientUnits="userSpaceOnUse">
<stop offset="2.71717e-07" stop-color="#71C9F7"/>
<stop offset="0.5011" stop-color="#A1E2F6"/>
<stop offset="1" stop-color="#72C8F9"/>
</linearGradient>
<linearGradient id="paint14_linear" x1="368" y1="500" x2="395" y2="500" gradientUnits="userSpaceOnUse">
<stop offset="2.71717e-07" stop-color="#71C9F7"/>
<stop offset="0.5011" stop-color="#A1E2F6"/>
<stop offset="1" stop-color="#72C8F9"/>
</linearGradient>
<linearGradient id="paint15_linear" x1="514" y1="525.898" x2="613.713" y2="525.898" gradientUnits="userSpaceOnUse">
<stop offset="2.71717e-07" stop-color="#F86464"/>
<stop offset="0.5011" stop-color="#FE8A8A"/>
<stop offset="1" stop-color="#FE8A8A"/>
</linearGradient>
<linearGradient id="paint16_linear" x1="532.946" y1="478.126" x2="688" y2="478.126" gradientUnits="userSpaceOnUse">
<stop offset="0.0318436" stop-color="#FFAD4D"/>
<stop offset="0.5011" stop-color="#FFC892"/>
<stop offset="1" stop-color="#FEAE4D"/>
</linearGradient>
<clipPath id="clip0">
<rect width="553.2" height="598.4" fill="white"/>
</clipPath>
<clipPath id="clip1">
<rect width="174" height="183" fill="white" transform="translate(514 398)"/>
</clipPath>
</defs>
</svg>
