<svg width="304" height="72" viewBox="0 0 304 72" fill="none" xmlns="http://www.w3.org/2000/svg">
<path d="M8.85938 0.984375H9C11.4688 1.07812 12.7031 1.42188 12.7031 2.01562V2.95312C12.4844 3.42188 12.0938 3.75 11.5312 3.9375L9.46875 3.79688H8.4375V3.9375C8.875 29.0312 9.5625 41.5781 10.5 41.5781L15.5156 40.875C16.2031 41.1875 16.5469 41.625 16.5469 42.1875V42.3281C16.5469 43.3281 14.625 43.9844 10.7812 44.2969C8.21875 44.7656 6.25 45 4.875 45C4.1875 44.7188 3.84375 44.2656 3.84375 43.6406C3.84375 42.5781 5.01562 42.0469 7.35938 42.0469V41.8594C6.57812 36.7656 6 24.1719 5.625 4.07812H5.4375L1.17188 4.82812C0.390625 4.48438 0 3.95312 0 3.23438C0 2.32812 1.96875 1.6875 5.90625 1.3125C5.90625 1.15625 6.89062 1.04688 8.85938 0.984375ZM27.2812 28.4062C30.4375 28.6562 31.7188 32.4531 31.125 39.7969L30.75 43.9688C30.5625 45.0938 30.0156 45.625 29.1094 45.5625C28.2656 45.5 27.8906 44.9375 27.9844 43.875L28.3125 39.3281C28.75 33.9844 28.2812 31.2656 26.9062 31.1719C25.4375 31.0469 24.375 33.8281 23.7188 39.5156L23.9062 44.5781C23.8438 45.2344 23.3125 45.5781 22.3125 45.6094C21.1562 45.5156 20.7188 43.8594 21 40.6406L19.875 29.9062C19.9375 29.1875 20.5156 28.7969 21.6094 28.7344C22.2656 28.7656 22.6562 29.4688 22.7812 30.8438L22.9688 30.8906C24.375 29.1406 25.8125 28.3125 27.2812 28.4062ZM53.8594 29.2969L56.6719 29.7656V29.625C57.3594 29.625 57.8906 30.1719 58.2656 31.2656L58.125 34.2188V36.2812C58.125 39.3125 58.5625 41.5781 59.4375 43.0781C59.1875 43.8594 58.7031 44.25 57.9844 44.25C56.9531 44.25 56.2031 43.0625 55.7344 40.6875L55.6406 39.9375H55.2188C54.0938 42.5938 52.5 44.3594 50.4375 45.2344L49.7344 45.4219C47.0469 44.6719 45.7031 42.7031 45.7031 39.5156V39.2344C45.7031 35.2656 47.625 32.1094 51.4688 29.7656L53.8594 29.2969ZM48.5156 40.125C48.7344 41.6875 49.2344 42.4688 50.0156 42.4688H50.1562C51.25 42.4688 52.9688 39.1719 55.3125 32.5781V32.4375L53.9531 32.1562H53.8594C51.3594 32.1562 49.5781 34.3125 48.5156 38.625V40.125ZM69.375 28.4062C72.5312 28.6562 73.8125 32.4531 73.2188 39.7969L72.8438 43.9688C72.6562 45.0938 72.1094 45.625 71.2031 45.5625C70.3594 45.5 69.9844 44.9375 70.0781 43.875L70.4062 39.3281C70.8438 33.9844 70.375 31.2656 69 31.1719C67.5312 31.0469 66.4688 33.8281 65.8125 39.5156L66 44.5781C65.9375 45.2344 65.4062 45.5781 64.4062 45.6094C63.25 45.5156 62.8125 43.8594 63.0938 40.6406L61.9688 29.9062C62.0312 29.1875 62.6094 28.7969 63.7031 28.7344C64.3594 28.7656 64.75 29.4688 64.875 30.8438L65.0625 30.8906C66.4688 29.1406 67.9062 28.3125 69.375 28.4062ZM91.0781 21.1875C91.8906 21.1875 92.3906 21.7188 92.5781 22.7812C92.5781 23.2812 92.2344 23.7656 91.5469 24.2344H91.0781C90.2031 24.2344 89.7656 23.7031 89.7656 22.6406C90.0156 21.6719 90.4531 21.1875 91.0781 21.1875ZM91.4062 27.5156C92.4688 27.6719 92.7656 29.25 92.2969 32.25C91.9219 34.7188 91.8594 38.8594 92.1094 44.6719C91.6406 45.5781 91.0312 45.9688 90.2812 45.8438C89.4062 45.7188 89.0469 44.1719 89.2031 41.2031C89.1406 36.0156 89.4062 31.6719 90 28.1719C90.0625 27.7031 90.5312 27.4844 91.4062 27.5156ZM101.859 27.1875C103.484 27.1875 104.469 27.875 104.812 29.25C104.812 29.9062 104.375 30.3125 103.5 30.4688H103.078C102.672 30.1875 102.312 30.0469 102 30.0469H101.578C99.5156 30.9219 98.4844 32.2344 98.4844 33.9844V34.4062C98.6406 35.4375 99.125 35.9531 99.9375 35.9531H100.359L103.594 35.3438C105.188 35.5312 105.984 36.3125 105.984 37.6875C105.984 39.7188 104.75 41.8906 102.281 44.2031C101.125 45.0781 99.9531 45.5156 98.7656 45.5156C96.6094 45.0469 95.5312 44.1562 95.5312 42.8438C95.8438 42.0625 96.375 41.6719 97.125 41.6719L98.5781 42.7031H99.3281C101.609 41.8281 102.75 40.4062 102.75 38.4375L102.562 38.25C101.781 38.5312 100.906 38.6719 99.9375 38.6719C97.625 38.6719 96.2031 37.1719 95.6719 34.1719C95.6719 31.4531 97.1875 29.2344 100.219 27.5156L101.859 27.1875ZM110.531 3.46875C111 3.5 111.438 3.89062 111.844 4.64062C111.625 4.98438 111.484 5.60938 111.422 6.51562L111.375 7.125L111.656 25.5938C111.5 33.9688 111.594 40.1094 111.938 44.0156L112.031 44.3906C111.75 44.9844 111.297 45.2656 110.672 45.2344C109.266 45.1406 108.703 43.2031 108.984 39.4219C108.797 37.3594 108.703 27.875 108.703 10.9688C108.516 9.9375 108.469 8.57812 108.562 6.89062V6.70312C108.719 4.48438 109.375 3.40625 110.531 3.46875ZM123.656 29.2969L126.469 29.7656V29.625C127.156 29.625 127.688 30.1719 128.062 31.2656L127.922 34.2188V36.2812C127.922 39.3125 128.359 41.5781 129.234 43.0781C128.984 43.8594 128.5 44.25 127.781 44.25C126.75 44.25 126 43.0625 125.531 40.6875L125.438 39.9375H125.016C123.891 42.5938 122.297 44.3594 120.234 45.2344L119.531 45.4219C116.844 44.6719 115.5 42.7031 115.5 39.5156V39.2344C115.5 35.2656 117.422 32.1094 121.266 29.7656L123.656 29.2969ZM118.312 40.125C118.531 41.6875 119.031 42.4688 119.812 42.4688H119.953C121.047 42.4688 122.766 39.1719 125.109 32.5781V32.4375L123.75 32.1562H123.656C121.156 32.1562 119.375 34.3125 118.312 38.625V40.125ZM139.172 28.4062C142.328 28.6562 143.609 32.4531 143.016 39.7969L142.641 43.9688C142.453 45.0938 141.906 45.625 141 45.5625C140.156 45.5 139.781 44.9375 139.875 43.875L140.203 39.3281C140.641 33.9844 140.172 31.2656 138.797 31.1719C137.328 31.0469 136.266 33.8281 135.609 39.5156L135.797 44.5781C135.734 45.2344 135.203 45.5781 134.203 45.6094C133.047 45.5156 132.609 43.8594 132.891 40.6406L131.766 29.9062C131.828 29.1875 132.406 28.7969 133.5 28.7344C134.156 28.7656 134.547 29.4688 134.672 30.8438L134.859 30.8906C136.266 29.1406 137.703 28.3125 139.172 28.4062ZM154.734 5.10938C155.109 5.10938 155.516 5.39062 155.953 5.95312V9.46875C155.953 19.8438 156.797 31.0781 158.484 43.1719L159.469 46.2656C159.25 47.0469 158.766 47.4375 158.016 47.4375C157.047 47.4375 156.359 46.2656 155.953 43.9219H155.625C154.469 44.9844 153.328 45.5156 152.203 45.5156C149.641 45.5156 147.734 43.8594 146.484 40.5469C146.078 39.4531 145.875 38.1562 145.875 36.6562C145.875 33.0938 147.062 30.625 149.438 29.25L150.469 29.1562H150.609C151.547 29.1562 152.672 29.5938 153.984 30.4688H154.172V30.3281C153.484 22.2656 153.141 15.6719 153.141 10.5469V7.40625C153.141 5.875 153.672 5.10938 154.734 5.10938ZM148.688 36.5156V37.5938C148.688 39.9062 149.531 41.5781 151.219 42.6094L152.203 42.7031C153.703 42.7031 154.453 41.2344 154.453 38.2969V36.9844C154.453 34.3281 153.078 32.6562 150.328 31.9688C149.234 32.625 148.688 34.1406 148.688 36.5156ZM181.781 4.54688C184.031 4.54688 185.469 6.42188 186.094 10.1719L186.234 10.6406H186.375C186.375 11.3906 185.781 11.8125 184.594 11.9062C183.906 11.9062 183.281 10.5781 182.719 7.92188L181.922 7.3125H181.781C180.125 7.3125 179.297 11.1094 179.297 18.7031L179.719 28.7812H181.031C182.625 28.7812 183.422 29.3281 183.422 30.4219C183.422 31.0156 182.984 31.4062 182.109 31.5938H180V31.7344C180.312 39.0469 180.656 43.5625 181.031 45.2812C180.781 46.2812 180.344 46.7812 179.719 46.7812C178.344 46.7812 177.656 44.2812 177.656 39.2812L177.094 31.7344L175.547 31.875H173.812C173 31.875 172.562 31.3906 172.5 30.4219C172.5 29.5156 173.234 29.0625 174.703 29.0625H176.156L176.906 28.875L176.438 18C176.438 9.03125 178.219 4.54688 181.781 4.54688ZM193.594 29.2969L196.406 29.7656V29.625C197.094 29.625 197.625 30.1719 198 31.2656L197.859 34.2188V36.2812C197.859 39.3125 198.297 41.5781 199.172 43.0781C198.922 43.8594 198.438 44.25 197.719 44.25C196.688 44.25 195.938 43.0625 195.469 40.6875L195.375 39.9375H194.953C193.828 42.5938 192.234 44.3594 190.172 45.2344L189.469 45.4219C186.781 44.6719 185.438 42.7031 185.438 39.5156V39.2344C185.438 35.2656 187.359 32.1094 191.203 29.7656L193.594 29.2969ZM188.25 40.125C188.469 41.6875 188.969 42.4688 189.75 42.4688H189.891C190.984 42.4688 192.703 39.1719 195.047 32.5781V32.4375L193.688 32.1562H193.594C191.094 32.1562 189.312 34.3125 188.25 38.625V40.125ZM201.609 26.1562C202.453 26.1562 203.094 27.1719 203.531 29.2031H203.672C204.859 27.7969 206.141 27.0938 207.516 27.0938C209.766 27.5 210.891 28.2031 210.891 29.2031C210.609 30.0781 210.125 30.5156 209.438 30.5156L207.656 29.9531H207.188C205.344 30.2969 204.422 34.0938 204.422 41.3438V43.5469C204.234 44.5156 203.797 45 203.109 45C202.109 45 201.609 44.4062 201.609 43.2188V37.7812C201.609 33.7812 201.109 30.2812 200.109 27.2812C200.359 26.5312 200.859 26.1562 201.609 26.1562ZM232.406 29.2969L235.219 29.7656V29.625C235.906 29.625 236.438 30.1719 236.812 31.2656L236.672 34.2188V36.2812C236.672 39.3125 237.109 41.5781 237.984 43.0781C237.734 43.8594 237.25 44.25 236.531 44.25C235.5 44.25 234.75 43.0625 234.281 40.6875L234.188 39.9375H233.766C232.641 42.5938 231.047 44.3594 228.984 45.2344L228.281 45.4219C225.594 44.6719 224.25 42.7031 224.25 39.5156V39.2344C224.25 35.2656 226.172 32.1094 230.016 29.7656L232.406 29.2969ZM227.062 40.125C227.281 41.6875 227.781 42.4688 228.562 42.4688H228.703C229.797 42.4688 231.516 39.1719 233.859 32.5781V32.4375L232.5 32.1562H232.406C229.906 32.1562 228.125 34.3125 227.062 38.625V40.125ZM241.031 26.6719C242.094 26.6719 242.734 28.2188 242.953 31.3125C244.078 35.2812 244.734 37.2656 244.922 37.2656H245.062C245.344 33.4531 245.828 31.5469 246.516 31.5469H247.125C248 31.5469 249.469 33.4531 251.531 37.2656H251.672V37.125C251.953 30.0312 252.797 26.4844 254.203 26.4844H254.484C255.391 26.6719 255.844 27.0625 255.844 27.6562C254.938 30.25 254.484 33.25 254.484 36.6562L254.672 43.7344C254.422 44.6406 253.906 45.0938 253.125 45.0938C252.219 45.0938 250.547 42.2812 248.109 36.6562H247.828C247.328 43.0625 246.359 46.2656 244.922 46.2656C243.953 46.2656 243.359 44.6875 243.141 41.5312C241.422 35.75 240.281 31.2812 239.719 28.125C239.719 27.4688 240.156 26.9844 241.031 26.6719ZM265.547 29.2969L268.359 29.7656V29.625C269.047 29.625 269.578 30.1719 269.953 31.2656L269.812 34.2188V36.2812C269.812 39.3125 270.25 41.5781 271.125 43.0781C270.875 43.8594 270.391 44.25 269.672 44.25C268.641 44.25 267.891 43.0625 267.422 40.6875L267.328 39.9375H266.906C265.781 42.5938 264.188 44.3594 262.125 45.2344L261.422 45.4219C258.734 44.6719 257.391 42.7031 257.391 39.5156V39.2344C257.391 35.2656 259.312 32.1094 263.156 29.7656L265.547 29.2969ZM260.203 40.125C260.422 41.6875 260.922 42.4688 261.703 42.4688H261.844C262.938 42.4688 264.656 39.1719 267 32.5781V32.4375L265.641 32.1562H265.547C263.047 32.1562 261.266 34.3125 260.203 38.625V40.125ZM273.797 28.5938C274.766 28.5938 275.25 30.0625 275.25 33V35.8594C275.25 39.5781 276.047 41.4375 277.641 41.4375H277.781C278.875 40.3438 279.422 38.875 279.422 37.0312V31.5469C279.422 30.4219 280.109 29.6406 281.484 29.2031H282.047C282.734 29.7344 283.078 30.1719 283.078 30.5156L282.234 37.3125L282.375 49.0781V51.3281C282.375 62.9531 280.359 69.6406 276.328 71.3906L275.156 71.7188C272.844 71.7188 270.875 70.0469 269.25 66.7031L267.609 61.6875C267.891 60.875 268.328 60.4688 268.922 60.4688H269.344C269.938 60.4688 270.781 62.3438 271.875 66.0938C272.969 67.9375 274 68.8594 274.969 68.8594C277.625 68.8594 279.203 63.1094 279.703 51.6094V48.6562L279.516 43.7812L277.453 44.25C274.547 44.25 272.875 41.3906 272.438 35.6719L272.297 29.625C272.578 28.9375 273.078 28.5938 273.797 28.5938ZM289.922 42C290.641 42 291.141 42.4531 291.422 43.3594C291.422 44.0156 290.875 44.6094 289.781 45.1406C288.969 45.1406 288.484 44.5938 288.328 43.5C288.797 42.5 289.328 42 289.922 42ZM301.922 42C302.641 42 303.141 42.4531 303.422 43.3594C303.422 44.0156 302.875 44.6094 301.781 45.1406C300.969 45.1406 300.484 44.5938 300.328 43.5C300.797 42.5 301.328 42 301.922 42Z" fill="white"/>
</svg>
