<svg width="596" height="73" viewBox="0 0 596 73" fill="none" xmlns="http://www.w3.org/2000/svg">
<path d="M1.67188 1.79688C2.64062 1.79688 3.125 3.26562 3.125 6.20312C3.90625 30.6406 4.65625 42.8594 5.375 42.8594L6.6875 42.5312L11.9844 42.6719L13.7656 42.25C14.2344 42.25 14.6875 42.7031 15.125 43.6094C14.8125 44.8594 13.5312 45.4844 11.2812 45.4844L6.35938 45.3906C5.98438 45.3906 5.29688 45.7188 4.29688 46.375H3.59375C2.625 46.375 1.98438 42.7344 1.67188 35.4531C1.29688 30.7969 0.796875 19.9062 0.171875 2.78125C0.421875 2.125 0.921875 1.79688 1.67188 1.79688ZM21.8281 29.2656C23.5781 29.2656 24.7656 30.8438 25.3906 34C24.5781 37.5312 22.9062 39.2969 20.375 39.2969H20.1875V39.4375C20.6875 42.2812 22.0156 43.7031 24.1719 43.7031C25.8281 43.7031 27.1719 42.2812 28.2031 39.4375L29.2344 39.0156C29.9219 39.0156 30.3594 39.5469 30.5469 40.6094C30.5469 42.5469 29.0312 44.375 26 46.0938L23.75 46.5156C21.0625 46.5156 19.0469 44.5938 17.7031 40.75C17.3281 39.2188 17.1406 37.9531 17.1406 36.9531V36.3438C17.1406 33.1562 18.4688 30.8438 21.125 29.4062L21.8281 29.2656ZM20.0938 35.1719V35.2656L21.125 36.3438C21.5938 36.3438 22.0312 35.7031 22.4375 34.4219V33.6719C22.2812 32.7031 22.0781 32.2188 21.8281 32.2188H21.5469C21.0781 32.2188 20.5938 33.2031 20.0938 35.1719ZM42.0781 29.1719C43.2656 29.1719 43.8594 30.8281 43.8594 34.1406C44.0469 35.9531 44.1406 40.0938 44.1406 46.5625C44.1406 54.5312 43.4062 61.6719 41.9375 67.9844C40.6875 70.3594 39 71.5469 36.875 71.5469C34.0312 71.5469 30.9375 69.8594 27.5938 66.4844L27.3125 65.7812C27.5312 64.7812 28.0312 64.2812 28.8125 64.2812C29.0938 64.2812 29.875 64.9219 31.1562 66.2031C33.4375 67.8906 35.2031 68.7344 36.4531 68.7344H37.3438C39.2812 68.7344 40.4062 64.8438 40.7188 57.0625C41.1562 53.5312 41.375 49.7812 41.375 45.8125V44.1719C39.9062 44.8906 38.7656 45.25 37.9531 45.25C35.3906 45.25 33.5781 43.7188 32.5156 40.6562C32.0781 39.5312 31.8594 38.3438 31.8594 37.0938C31.8594 33.625 33.2969 31.1875 36.1719 29.7812L38.1406 29.5938C38.8594 29.5938 39.5781 29.8281 40.2969 30.2969H40.625C41.2188 29.5469 41.7031 29.1719 42.0781 29.1719ZM36.5938 32.3594C35.3438 33.4531 34.7188 35.125 34.7188 37.375C34.7188 40.25 35.6562 41.9375 37.5312 42.4375H38.1406C39.8594 42.4375 40.7188 40.8594 40.7188 37.7031C40.4688 34.2656 39.6406 32.5469 38.2344 32.5469L36.5938 32.3594ZM50.9844 29.2656C52.7344 29.2656 53.9219 30.8438 54.5469 34C53.7344 37.5312 52.0625 39.2969 49.5312 39.2969H49.3438V39.4375C49.8438 42.2812 51.1719 43.7031 53.3281 43.7031C54.9844 43.7031 56.3281 42.2812 57.3594 39.4375L58.3906 39.0156C59.0781 39.0156 59.5156 39.5469 59.7031 40.6094C59.7031 42.5469 58.1875 44.375 55.1562 46.0938L52.9062 46.5156C50.2188 46.5156 48.2031 44.5938 46.8594 40.75C46.4844 39.2188 46.2969 37.9531 46.2969 36.9531V36.3438C46.2969 33.1562 47.625 30.8438 50.2812 29.4062L50.9844 29.2656ZM49.25 35.1719V35.2656L50.2812 36.3438C50.75 36.3438 51.1875 35.7031 51.5938 34.4219V33.6719C51.4375 32.7031 51.2344 32.2188 50.9844 32.2188H50.7031C50.2344 32.2188 49.75 33.2031 49.25 35.1719ZM69.7344 29.4062C72.8906 29.6562 74.1719 33.4531 73.5781 40.7969L73.2031 44.9688C73.0156 46.0938 72.4688 46.625 71.5625 46.5625C70.7188 46.5 70.3438 45.9375 70.4375 44.875L70.7656 40.3281C71.2031 34.9844 70.7344 32.2656 69.3594 32.1719C67.8906 32.0469 66.8281 34.8281 66.1719 40.5156L66.3594 45.5781C66.2969 46.2344 65.7656 46.5781 64.7656 46.6094C63.6094 46.5156 63.1719 44.8594 63.4531 41.6406L62.3281 30.9062C62.3906 30.1875 62.9688 29.7969 64.0625 29.7344C64.7188 29.7656 65.1094 30.4688 65.2344 31.8438L65.4219 31.8906C66.8281 30.1406 68.2656 29.3125 69.7344 29.4062ZM85.2969 6.10938C85.6719 6.10938 86.0781 6.39062 86.5156 6.95312V10.4688C86.5156 20.8438 87.3594 32.0781 89.0469 44.1719L90.0312 47.2656C89.8125 48.0469 89.3281 48.4375 88.5781 48.4375C87.6094 48.4375 86.9219 47.2656 86.5156 44.9219H86.1875C85.0312 45.9844 83.8906 46.5156 82.7656 46.5156C80.2031 46.5156 78.2969 44.8594 77.0469 41.5469C76.6406 40.4531 76.4375 39.1562 76.4375 37.6562C76.4375 34.0938 77.625 31.625 80 30.25L81.0312 30.1562H81.1719C82.1094 30.1562 83.2344 30.5938 84.5469 31.4688H84.7344V31.3281C84.0469 23.2656 83.7031 16.6719 83.7031 11.5469V8.40625C83.7031 6.875 84.2344 6.10938 85.2969 6.10938ZM79.25 37.5156V38.5938C79.25 40.9062 80.0938 42.5781 81.7812 43.6094L82.7656 43.7031C84.2656 43.7031 85.0156 42.2344 85.0156 39.2969V37.9844C85.0156 35.3281 83.6406 33.6562 80.8906 32.9688C79.7969 33.625 79.25 35.1406 79.25 37.5156ZM97.9062 28.1875C99.5312 28.1875 100.516 28.875 100.859 30.25C100.859 30.9062 100.422 31.3125 99.5469 31.4688H99.125C98.7188 31.1875 98.3594 31.0469 98.0469 31.0469H97.625C95.5625 31.9219 94.5312 33.2344 94.5312 34.9844V35.4062C94.6875 36.4375 95.1719 36.9531 95.9844 36.9531H96.4062L99.6406 36.3438C101.234 36.5312 102.031 37.3125 102.031 38.6875C102.031 40.7188 100.797 42.8906 98.3281 45.2031C97.1719 46.0781 96 46.5156 94.8125 46.5156C92.6562 46.0469 91.5781 45.1562 91.5781 43.8438C91.8906 43.0625 92.4219 42.6719 93.1719 42.6719L94.625 43.7031H95.375C97.6562 42.8281 98.7969 41.4062 98.7969 39.4375L98.6094 39.25C97.8281 39.5312 96.9531 39.6719 95.9844 39.6719C93.6719 39.6719 92.25 38.1719 91.7188 35.1719C91.7188 32.4531 93.2344 30.2344 96.2656 28.5156L97.9062 28.1875ZM122.094 28.1875C123.719 28.1875 124.703 28.875 125.047 30.25C125.047 30.9062 124.609 31.3125 123.734 31.4688H123.312C122.906 31.1875 122.547 31.0469 122.234 31.0469H121.812C119.75 31.9219 118.719 33.2344 118.719 34.9844V35.4062C118.875 36.4375 119.359 36.9531 120.172 36.9531H120.594L123.828 36.3438C125.422 36.5312 126.219 37.3125 126.219 38.6875C126.219 40.7188 124.984 42.8906 122.516 45.2031C121.359 46.0781 120.188 46.5156 119 46.5156C116.844 46.0469 115.766 45.1562 115.766 43.8438C116.078 43.0625 116.609 42.6719 117.359 42.6719L118.812 43.7031H119.562C121.844 42.8281 122.984 41.4062 122.984 39.4375L122.797 39.25C122.016 39.5312 121.141 39.6719 120.172 39.6719C117.859 39.6719 116.438 38.1719 115.906 35.1719C115.906 32.4531 117.422 30.2344 120.453 28.5156L122.094 28.1875ZM135.875 30.2969L138.688 30.7656V30.625C139.375 30.625 139.906 31.1719 140.281 32.2656L140.141 35.2188V37.2812C140.141 40.3125 140.578 42.5781 141.453 44.0781C141.203 44.8594 140.719 45.25 140 45.25C138.969 45.25 138.219 44.0625 137.75 41.6875L137.656 40.9375H137.234C136.109 43.5938 134.516 45.3594 132.453 46.2344L131.75 46.4219C129.062 45.6719 127.719 43.7031 127.719 40.5156V40.2344C127.719 36.2656 129.641 33.1094 133.484 30.7656L135.875 30.2969ZM130.531 41.125C130.75 42.6875 131.25 43.4688 132.031 43.4688H132.172C133.266 43.4688 134.984 40.1719 137.328 33.5781V33.4375L135.969 33.1562H135.875C133.375 33.1562 131.594 35.3125 130.531 39.625V41.125ZM144.125 29.5938C145.094 29.5938 145.578 31.0625 145.578 34V36.8594C145.578 40.5781 146.375 42.4375 147.969 42.4375H148.109C149.203 41.3438 149.75 39.875 149.75 38.0312V32.5469C149.75 31.4219 150.438 30.6406 151.812 30.2031H152.375C153.062 30.7344 153.406 31.1719 153.406 31.5156L152.562 38.3125L152.703 50.0781V52.3281C152.703 63.9531 150.688 70.6406 146.656 72.3906L145.484 72.7188C143.172 72.7188 141.203 71.0469 139.578 67.7031L137.938 62.6875C138.219 61.875 138.656 61.4688 139.25 61.4688H139.672C140.266 61.4688 141.109 63.3438 142.203 67.0938C143.297 68.9375 144.328 69.8594 145.297 69.8594C147.953 69.8594 149.531 64.1094 150.031 52.6094V49.6562L149.844 44.7812L147.781 45.25C144.875 45.25 143.203 42.3906 142.766 36.6719L142.625 30.625C142.906 29.9375 143.406 29.5938 144.125 29.5938ZM172.109 5.125C173.109 5.125 173.547 8.14062 173.422 14.1719C173.328 20.1719 173.281 24.4219 173.281 26.9219H173.375L176.188 26.5C177.094 26.625 177.547 27.0781 177.547 27.8594C177.547 28.9219 176.562 29.4531 174.594 29.4531L173.375 29.875L173.797 45.5781C173.672 46.6406 173.188 47.1719 172.344 47.1719C171.344 47.1719 170.844 46.4375 170.844 44.9688V41.2656L170.75 30.8125L170.562 30.3438L168.5 30.4844C167.625 30.2969 167.188 29.8125 167.188 29.0312C167.188 28.0625 168.266 27.5781 170.422 27.5781V27.3906C170.422 23.3906 170.484 16.4062 170.609 6.4375C170.609 5.65625 171.109 5.21875 172.109 5.125ZM181.625 0.625C182.312 0.625 182.719 1.17188 182.844 2.26562V4.89062C182.844 11.2344 182.797 19.6719 182.703 30.2031C183.859 29.0469 184.938 28.4688 185.938 28.4688C188.469 28.4688 190.109 31.2188 190.859 36.7188C190.953 40.8125 191.188 44.3594 191.562 47.3594C191.562 47.8906 191.062 48.375 190.062 48.8125C189 48.2812 188.469 47.7031 188.469 47.0781L188.656 46.9375V46.75C188.188 37.3125 187.688 32.5938 187.156 32.5938C186.781 31.8438 186.438 31.4062 186.125 31.2812H185.656C184.094 32.6562 183.312 34.3281 183.312 36.2969L183.406 46.375C183.031 47.2812 182.547 47.7344 181.953 47.7344C180.922 47.7344 180.266 46.2969 179.984 43.4219C180.203 41.5156 180.312 39.875 180.312 38.5V38.3594L180.219 38.2188L180.312 38.0781V36.9062L180.594 15.4844C180.219 11.9844 180.031 8.54688 180.031 5.17188V2.35938C180.094 1.20312 180.625 0.625 181.625 0.625ZM201.5 30.2969L204.312 30.7656V30.625C205 30.625 205.531 31.1719 205.906 32.2656L205.766 35.2188V37.2812C205.766 40.3125 206.203 42.5781 207.078 44.0781C206.828 44.8594 206.344 45.25 205.625 45.25C204.594 45.25 203.844 44.0625 203.375 41.6875L203.281 40.9375H202.859C201.734 43.5938 200.141 45.3594 198.078 46.2344L197.375 46.4219C194.688 45.6719 193.344 43.7031 193.344 40.5156V40.2344C193.344 36.2656 195.266 33.1094 199.109 30.7656L201.5 30.2969ZM196.156 41.125C196.375 42.6875 196.875 43.4688 197.656 43.4688H197.797C198.891 43.4688 200.609 40.1719 202.953 33.5781V33.4375L201.594 33.1562H201.5C199 33.1562 197.219 35.3125 196.156 39.625V41.125ZM213.312 5.125C214.312 5.125 214.75 8.14062 214.625 14.1719C214.531 20.1719 214.484 24.4219 214.484 26.9219H214.578L217.391 26.5C218.297 26.625 218.75 27.0781 218.75 27.8594C218.75 28.9219 217.766 29.4531 215.797 29.4531L214.578 29.875L215 45.5781C214.875 46.6406 214.391 47.1719 213.547 47.1719C212.547 47.1719 212.047 46.4375 212.047 44.9688V41.2656L211.953 30.8125L211.766 30.3438L209.703 30.4844C208.828 30.2969 208.391 29.8125 208.391 29.0312C208.391 28.0625 209.469 27.5781 211.625 27.5781V27.3906C211.625 23.3906 211.688 16.4062 211.812 6.4375C211.812 5.65625 212.312 5.21875 213.312 5.125ZM237.312 5.125C238.312 5.125 238.75 8.14062 238.625 14.1719C238.531 20.1719 238.484 24.4219 238.484 26.9219H238.578L241.391 26.5C242.297 26.625 242.75 27.0781 242.75 27.8594C242.75 28.9219 241.766 29.4531 239.797 29.4531L238.578 29.875L239 45.5781C238.875 46.6406 238.391 47.1719 237.547 47.1719C236.547 47.1719 236.047 46.4375 236.047 44.9688V41.2656L235.953 30.8125L235.766 30.3438L233.703 30.4844C232.828 30.2969 232.391 29.8125 232.391 29.0312C232.391 28.0625 233.469 27.5781 235.625 27.5781V27.3906C235.625 23.3906 235.688 16.4062 235.812 6.4375C235.812 5.65625 236.312 5.21875 237.312 5.125ZM246.828 0.625C247.516 0.625 247.922 1.17188 248.047 2.26562V4.89062C248.047 11.2344 248 19.6719 247.906 30.2031C249.062 29.0469 250.141 28.4688 251.141 28.4688C253.672 28.4688 255.312 31.2188 256.062 36.7188C256.156 40.8125 256.391 44.3594 256.766 47.3594C256.766 47.8906 256.266 48.375 255.266 48.8125C254.203 48.2812 253.672 47.7031 253.672 47.0781L253.859 46.9375V46.75C253.391 37.3125 252.891 32.5938 252.359 32.5938C251.984 31.8438 251.641 31.4062 251.328 31.2812H250.859C249.297 32.6562 248.516 34.3281 248.516 36.2969L248.609 46.375C248.234 47.2812 247.75 47.7344 247.156 47.7344C246.125 47.7344 245.469 46.2969 245.188 43.4219C245.406 41.5156 245.516 39.875 245.516 38.5V38.3594L245.422 38.2188L245.516 38.0781V36.9062L245.797 15.4844C245.422 11.9844 245.234 8.54688 245.234 5.17188V2.35938C245.297 1.20312 245.828 0.625 246.828 0.625ZM263.469 29.2656C265.219 29.2656 266.406 30.8438 267.031 34C266.219 37.5312 264.547 39.2969 262.016 39.2969H261.828V39.4375C262.328 42.2812 263.656 43.7031 265.812 43.7031C267.469 43.7031 268.812 42.2812 269.844 39.4375L270.875 39.0156C271.562 39.0156 272 39.5469 272.188 40.6094C272.188 42.5469 270.672 44.375 267.641 46.0938L265.391 46.5156C262.703 46.5156 260.688 44.5938 259.344 40.75C258.969 39.2188 258.781 37.9531 258.781 36.9531V36.3438C258.781 33.1562 260.109 30.8438 262.766 29.4062L263.469 29.2656ZM261.734 35.1719V35.2656L262.766 36.3438C263.234 36.3438 263.672 35.7031 264.078 34.4219V33.6719C263.922 32.7031 263.719 32.2188 263.469 32.2188H263.188C262.719 32.2188 262.234 33.2031 261.734 35.1719ZM274.719 27.1562C275.562 27.1562 276.203 28.1719 276.641 30.2031H276.781C277.969 28.7969 279.25 28.0938 280.625 28.0938C282.875 28.5 284 29.2031 284 30.2031C283.719 31.0781 283.234 31.5156 282.547 31.5156L280.766 30.9531H280.297C278.453 31.2969 277.531 35.0938 277.531 42.3438V44.5469C277.344 45.5156 276.906 46 276.219 46C275.219 46 274.719 45.4062 274.719 44.2188V38.7812C274.719 34.7812 274.219 31.2812 273.219 28.2812C273.469 27.5312 273.969 27.1562 274.719 27.1562ZM290.281 29.2656C292.031 29.2656 293.219 30.8438 293.844 34C293.031 37.5312 291.359 39.2969 288.828 39.2969H288.641V39.4375C289.141 42.2812 290.469 43.7031 292.625 43.7031C294.281 43.7031 295.625 42.2812 296.656 39.4375L297.688 39.0156C298.375 39.0156 298.812 39.5469 299 40.6094C299 42.5469 297.484 44.375 294.453 46.0938L292.203 46.5156C289.516 46.5156 287.5 44.5938 286.156 40.75C285.781 39.2188 285.594 37.9531 285.594 36.9531V36.3438C285.594 33.1562 286.922 30.8438 289.578 29.4062L290.281 29.2656ZM288.547 35.1719V35.2656L289.578 36.3438C290.047 36.3438 290.484 35.7031 290.891 34.4219V33.6719C290.734 32.7031 290.531 32.2188 290.281 32.2188H290C289.531 32.2188 289.047 33.2031 288.547 35.1719ZM315.5 4.46875C315.969 4.5 316.406 4.89062 316.812 5.64062C316.594 5.98438 316.453 6.60938 316.391 7.51562L316.344 8.125L316.625 26.5938C316.469 34.9688 316.562 41.1094 316.906 45.0156L317 45.3906C316.719 45.9844 316.266 46.2656 315.641 46.2344C314.234 46.1406 313.672 44.2031 313.953 40.4219C313.766 38.3594 313.672 28.875 313.672 11.9688C313.484 10.9375 313.438 9.57812 313.531 7.89062V7.70312C313.688 5.48438 314.344 4.40625 315.5 4.46875ZM323.75 22.1875C324.562 22.1875 325.062 22.7188 325.25 23.7812C325.25 24.2812 324.906 24.7656 324.219 25.2344H323.75C322.875 25.2344 322.438 24.7031 322.438 23.6406C322.688 22.6719 323.125 22.1875 323.75 22.1875ZM324.078 28.5156C325.141 28.6719 325.438 30.25 324.969 33.25C324.594 35.7188 324.531 39.8594 324.781 45.6719C324.312 46.5781 323.703 46.9688 322.953 46.8438C322.078 46.7188 321.719 45.1719 321.875 42.2031C321.812 37.0156 322.078 32.6719 322.672 29.1719C322.734 28.7031 323.203 28.4844 324.078 28.5156ZM329.141 28C330.016 28 330.656 29.4375 331.062 32.3125C332.594 36.25 333.688 38.6094 334.344 39.3906H334.484C335.359 31.7969 336.438 28 337.719 28H337.906C338.75 28.3438 339.172 28.8438 339.172 29.5C338.391 31.0312 337.516 36.2969 336.547 45.2969C335.891 45.8906 335.438 46.1875 335.188 46.1875C334.438 46.1875 333.375 44.3594 332 40.7031C329.469 36.1406 328.031 32.3594 327.688 29.3594C327.688 28.8281 328.172 28.375 329.141 28ZM345.5 29.2656C347.25 29.2656 348.438 30.8438 349.062 34C348.25 37.5312 346.578 39.2969 344.047 39.2969H343.859V39.4375C344.359 42.2812 345.688 43.7031 347.844 43.7031C349.5 43.7031 350.844 42.2812 351.875 39.4375L352.906 39.0156C353.594 39.0156 354.031 39.5469 354.219 40.6094C354.219 42.5469 352.703 44.375 349.672 46.0938L347.422 46.5156C344.734 46.5156 342.719 44.5938 341.375 40.75C341 39.2188 340.812 37.9531 340.812 36.9531V36.3438C340.812 33.1562 342.141 30.8438 344.797 29.4062L345.5 29.2656ZM343.766 35.1719V35.2656L344.797 36.3438C345.266 36.3438 345.703 35.7031 346.109 34.4219V33.6719C345.953 32.7031 345.75 32.2188 345.5 32.2188H345.219C344.75 32.2188 344.266 33.2031 343.766 35.1719ZM362.234 28.1875C363.859 28.1875 364.844 28.875 365.188 30.25C365.188 30.9062 364.75 31.3125 363.875 31.4688H363.453C363.047 31.1875 362.688 31.0469 362.375 31.0469H361.953C359.891 31.9219 358.859 33.2344 358.859 34.9844V35.4062C359.016 36.4375 359.5 36.9531 360.312 36.9531H360.734L363.969 36.3438C365.562 36.5312 366.359 37.3125 366.359 38.6875C366.359 40.7188 365.125 42.8906 362.656 45.2031C361.5 46.0781 360.328 46.5156 359.141 46.5156C356.984 46.0469 355.906 45.1562 355.906 43.8438C356.219 43.0625 356.75 42.6719 357.5 42.6719L358.953 43.7031H359.703C361.984 42.8281 363.125 41.4062 363.125 39.4375L362.938 39.25C362.156 39.5312 361.281 39.6719 360.312 39.6719C358 39.6719 356.578 38.1719 356.047 35.1719C356.047 32.4531 357.562 30.2344 360.594 28.5156L362.234 28.1875ZM388.016 30.2969L390.828 30.7656V30.625C391.516 30.625 392.047 31.1719 392.422 32.2656L392.281 35.2188V37.2812C392.281 40.3125 392.719 42.5781 393.594 44.0781C393.344 44.8594 392.859 45.25 392.141 45.25C391.109 45.25 390.359 44.0625 389.891 41.6875L389.797 40.9375H389.375C388.25 43.5938 386.656 45.3594 384.594 46.2344L383.891 46.4219C381.203 45.6719 379.859 43.7031 379.859 40.5156V40.2344C379.859 36.2656 381.781 33.1094 385.625 30.7656L388.016 30.2969ZM382.672 41.125C382.891 42.6875 383.391 43.4688 384.172 43.4688H384.312C385.406 43.4688 387.125 40.1719 389.469 33.5781V33.4375L388.109 33.1562H388.016C385.516 33.1562 383.734 35.3125 382.672 39.625V41.125ZM408.641 27.6719C409.703 27.6719 410.344 29.2188 410.562 32.3125C411.688 36.2812 412.344 38.2656 412.531 38.2656H412.672C412.953 34.4531 413.438 32.5469 414.125 32.5469H414.734C415.609 32.5469 417.078 34.4531 419.141 38.2656H419.281V38.125C419.562 31.0312 420.406 27.4844 421.812 27.4844H422.094C423 27.6719 423.453 28.0625 423.453 28.6562C422.547 31.25 422.094 34.25 422.094 37.6562L422.281 44.7344C422.031 45.6406 421.516 46.0938 420.734 46.0938C419.828 46.0938 418.156 43.2812 415.719 37.6562H415.438C414.938 44.0625 413.969 47.2656 412.531 47.2656C411.562 47.2656 410.969 45.6875 410.75 42.5312C409.031 36.75 407.891 32.2812 407.328 29.125C407.328 28.4688 407.766 27.9844 408.641 27.6719ZM428.281 22.1875C429.094 22.1875 429.594 22.7188 429.781 23.7812C429.781 24.2812 429.438 24.7656 428.75 25.2344H428.281C427.406 25.2344 426.969 24.7031 426.969 23.6406C427.219 22.6719 427.656 22.1875 428.281 22.1875ZM428.609 28.5156C429.672 28.6719 429.969 30.25 429.5 33.25C429.125 35.7188 429.062 39.8594 429.312 45.6719C428.844 46.5781 428.234 46.9688 427.484 46.8438C426.609 46.7188 426.25 45.1719 426.406 42.2031C426.344 37.0156 426.609 32.6719 427.203 29.1719C427.266 28.7031 427.734 28.4844 428.609 28.5156ZM439.062 28.1875C440.688 28.1875 441.672 28.875 442.016 30.25C442.016 30.9062 441.578 31.3125 440.703 31.4688H440.281C439.875 31.1875 439.516 31.0469 439.203 31.0469H438.781C436.719 31.9219 435.688 33.2344 435.688 34.9844V35.4062C435.844 36.4375 436.328 36.9531 437.141 36.9531H437.562L440.797 36.3438C442.391 36.5312 443.188 37.3125 443.188 38.6875C443.188 40.7188 441.953 42.8906 439.484 45.2031C438.328 46.0781 437.156 46.5156 435.969 46.5156C433.812 46.0469 432.734 45.1562 432.734 43.8438C433.047 43.0625 433.578 42.6719 434.328 42.6719L435.781 43.7031H436.531C438.812 42.8281 439.953 41.4062 439.953 39.4375L439.766 39.25C438.984 39.5312 438.109 39.6719 437.141 39.6719C434.828 39.6719 433.406 38.1719 432.875 35.1719C432.875 32.4531 434.391 30.2344 437.422 28.5156L439.062 28.1875ZM449.609 29.2656C451.359 29.2656 452.547 30.8438 453.172 34C452.359 37.5312 450.688 39.2969 448.156 39.2969H447.969V39.4375C448.469 42.2812 449.797 43.7031 451.953 43.7031C453.609 43.7031 454.953 42.2812 455.984 39.4375L457.016 39.0156C457.703 39.0156 458.141 39.5469 458.328 40.6094C458.328 42.5469 456.812 44.375 453.781 46.0938L451.531 46.5156C448.844 46.5156 446.828 44.5938 445.484 40.75C445.109 39.2188 444.922 37.9531 444.922 36.9531V36.3438C444.922 33.1562 446.25 30.8438 448.906 29.4062L449.609 29.2656ZM447.875 35.1719V35.2656L448.906 36.3438C449.375 36.3438 449.812 35.7031 450.219 34.4219V33.6719C450.062 32.7031 449.859 32.2188 449.609 32.2188H449.328C448.859 32.2188 448.375 33.2031 447.875 35.1719ZM473.469 27.6719C474.531 27.6719 475.172 29.2188 475.391 32.3125C476.516 36.2812 477.172 38.2656 477.359 38.2656H477.5C477.781 34.4531 478.266 32.5469 478.953 32.5469H479.562C480.438 32.5469 481.906 34.4531 483.969 38.2656H484.109V38.125C484.391 31.0312 485.234 27.4844 486.641 27.4844H486.922C487.828 27.6719 488.281 28.0625 488.281 28.6562C487.375 31.25 486.922 34.25 486.922 37.6562L487.109 44.7344C486.859 45.6406 486.344 46.0938 485.562 46.0938C484.656 46.0938 482.984 43.2812 480.547 37.6562H480.266C479.766 44.0625 478.797 47.2656 477.359 47.2656C476.391 47.2656 475.797 45.6875 475.578 42.5312C473.859 36.75 472.719 32.2812 472.156 29.125C472.156 28.4688 472.594 27.9844 473.469 27.6719ZM495.781 29.8281C498.469 30.7969 499.891 33.7656 500.047 38.7344V39.0156C499.922 43.1719 498.844 45.7188 496.812 46.6562L495.5 46.8438C492.156 46.0312 490.484 43.5156 490.484 39.2969V39.1562C490.484 34.5938 491.953 31.5469 494.891 30.0156L495.781 29.8281ZM493.25 38.7344V39.7656C493.594 42.7031 494.5 44.1719 495.969 44.1719C496.812 43.2344 497.234 41.4219 497.234 38.7344V38.4531C497.078 35.1094 496.547 33.2812 495.641 32.9688C494.047 33.6875 493.25 35.6094 493.25 38.7344ZM516.266 28.4219C518.547 29.5156 519.641 33 519.547 38.875C519.703 42 520.125 44.1719 520.812 45.3906V45.5781C520.75 46.2344 520.25 46.6562 519.312 46.8438C517.594 46.6875 516.719 42.4375 516.688 34.0938L516.031 31.9375L515.469 31.8906C514.406 33.1719 513.797 34.7344 513.641 36.5781C513.453 37.9531 513.406 40.1875 513.5 43.2812C513.031 44.125 512.484 44.5156 511.859 44.4531C510.797 44.2969 510.312 42.2656 510.406 38.3594C509.844 34.3906 509.234 32.375 508.578 32.3125H508.297C507.359 32.5938 506.797 33.5781 506.609 35.2656L507.078 44.3594L507.031 44.9688C506.938 45.6562 506.391 46.125 505.391 46.375C503.828 46.2188 503.281 40.7656 503.75 30.0156C503.844 29.3594 504.328 28.9219 505.203 28.7031C506.078 29.0469 506.5 29.4375 506.469 29.875H506.609L508.719 29.5469C509.781 29.6719 510.844 30.5156 511.906 32.0781L512 32.125C513.469 29.9688 514.891 28.7344 516.266 28.4219ZM530.656 30.2969L533.469 30.7656V30.625C534.156 30.625 534.688 31.1719 535.062 32.2656L534.922 35.2188V37.2812C534.922 40.3125 535.359 42.5781 536.234 44.0781C535.984 44.8594 535.5 45.25 534.781 45.25C533.75 45.25 533 44.0625 532.531 41.6875L532.438 40.9375H532.016C530.891 43.5938 529.297 45.3594 527.234 46.2344L526.531 46.4219C523.844 45.6719 522.5 43.7031 522.5 40.5156V40.2344C522.5 36.2656 524.422 33.1094 528.266 30.7656L530.656 30.2969ZM525.312 41.125C525.531 42.6875 526.031 43.4688 526.812 43.4688H526.953C528.047 43.4688 529.766 40.1719 532.109 33.5781V33.4375L530.75 33.1562H530.656C528.156 33.1562 526.375 35.3125 525.312 39.625V41.125ZM546.172 29.4062C549.328 29.6562 550.609 33.4531 550.016 40.7969L549.641 44.9688C549.453 46.0938 548.906 46.625 548 46.5625C547.156 46.5 546.781 45.9375 546.875 44.875L547.203 40.3281C547.641 34.9844 547.172 32.2656 545.797 32.1719C544.328 32.0469 543.266 34.8281 542.609 40.5156L542.797 45.5781C542.734 46.2344 542.203 46.5781 541.203 46.6094C540.047 46.5156 539.609 44.8594 539.891 41.6406L538.766 30.9062C538.828 30.1875 539.406 29.7969 540.5 29.7344C541.156 29.7656 541.547 30.4688 541.672 31.8438L541.859 31.8906C543.266 30.1406 544.703 29.3125 546.172 29.4062ZM569.609 43C570.328 43 570.828 43.4531 571.109 44.3594C571.109 45.0156 570.562 45.6094 569.469 46.1406C568.656 46.1406 568.172 45.5938 568.016 44.5C568.484 43.5 569.016 43 569.609 43ZM581.609 43C582.328 43 582.828 43.4531 583.109 44.3594C583.109 45.0156 582.562 45.6094 581.469 46.1406C580.656 46.1406 580.172 45.5938 580.016 44.5C580.484 43.5 581.016 43 581.609 43ZM593.609 43C594.328 43 594.828 43.4531 595.109 44.3594C595.109 45.0156 594.562 45.6094 593.469 46.1406C592.656 46.1406 592.172 45.5938 592.016 44.5C592.484 43.5 593.016 43 593.609 43Z" fill="white"/>
</svg>
