<svg width="1167" height="254" viewBox="0 0 1167 254" fill="none" xmlns="http://www.w3.org/2000/svg">
<g id="text" clip-path="url(#clip0)">
<path id="Vector" d="M95.1 93.7L95.5 94.6L96 93.4L95.1 93.7ZM95.5 94.6L95.1 95.6L96 95.9L95.5 94.6ZM110.6 130.6C105.9 132.5 100.8 133.6 95.5 133.6C73.3 133.6 55.3 115.3 55.3 92.7C55.3 70.1 73.3 51.8 95.5 51.8C101.4 51.8 107 53.1 112 55.4L132 7.6C120.6 2.7 108.1 0 95 0C42.5 0 0 43 0 96C0 149 42.5 192 95 192C108.5 192 121.4 189.1 133 184L110.6 130.6Z" fill="white"/>
<path id="Vector_2" d="M662.5 207.3L662 208.5L661.7 207.6L662.5 207.3Z" fill="white"/>
<path id="Vector_3" d="M662 208.5L662.5 209.9L661.6 209.6L662 208.5Z" fill="white"/>
<path id="Vector_4" d="M661.7 207.6L662.5 207.3L662 208.5L661.7 207.6Z" fill="white"/>
<path id="Vector_5" d="M662 208.5L662.5 209.9L661.6 209.6L662 208.5Z" fill="white"/>
<path id="Vector_6" d="M396.6 102.2L397 103.1L397.5 101.9L396.6 102.2ZM397 103.1L396.6 104.1L397.5 104.4L397 103.1ZM412.1 139.1C407.4 141 402.3 142.1 397 142.1C374.8 142.1 356.8 123.8 356.8 101.2C356.8 78.6 374.8 60.3 397 60.3C402.9 60.3 408.5 61.6 413.5 63.9L433.5 16.1C422.1 11.2 409.6 8.5 396.4 8.5C344 8.5 301.4 51.5 301.4 104.5C301.4 157.5 343.9 200.5 396.4 200.5C409.9 200.5 422.8 197.6 434.4 192.5L412.1 139.1Z" fill="white"/>
<path id="Vector_7" d="M606 2H645.6L669 66V5.4L718 6V203.8L673 204L650 146L646.5 204H606V5.4" fill="white"/>
<path id="Vector_8" d="M742 3V200.2H854.1V142H790L789 126H845V76L790 78V60L854.1 60.8V3H742Z" fill="white"/>
<path id="Vector_9" d="M982 131L992.6 117L998 101.6L1000 88L1001 66L997 49L991 35L985 26L977 17L971 11L961.1 3H884V200.2H932.8V153.5L962.7 200.2H1017.1L982 131ZM925 92V48.5C945.4 48.5 962 58.2 962 70.2C962 82.3 945.4 92 925 92Z" fill="white"/>
<path id="Vector_10" d="M1161 67.8L1150 45.8L1140 31.8L1130 19.8L1118 11.8L1102 7.2L1037 4.8V204H1102.1L1120 196.8L1135 183.8L1147 169.8L1157 150.8L1163 130.8L1167 108.8V90.6L1161 67.8ZM1084 145V58C1104.4 58 1121 77.5 1121 101.5C1121 125.5 1104.4 145 1084 145Z" fill="white"/>
<path id="Vector_11" d="M173.2 56.1L179.5 52.4L184.3 49.4L188.5 44.9L191.3 39.7L195.5 36.7L199.6 39.7L203.2 46.4L206.6 50.9V56.1V62.4V65.8V69.8V74.4L210.8 77.8V80.1V69.2V62.9L213.9 58.4V52.6L217 48.7L219.8 42.7L222.4 36.7H226.7L229.6 33L233.7 30H237.3H241.1L243.5 35.2L247 37.5V42.3L250.5 44.9L253.9 49.4L258.8 50.9L264.5 55H267.2L269.2 60.6V64.7V67.5L263 68.8L260.2 71.1L250.5 71.8L245.6 72.6L238.6 74.1L233.7 76.3L231.5 80.1L230.3 83.8H237.9L244.2 81.5H252.5H258.1L267.2 83.8L274.8 88.3L281.8 92.8L285.3 98.7L288 103.2V108.1V113.9L286 118.2L284.6 121.1L281.8 124.9L279 127.9L277.6 130.9L274.8 134.6H270.4L267.9 138.3H263.5H260.8H256.5L252.5 132.4L250.5 127.9L249.1 123.4L247.7 119.7L246.3 114.4L241.4 108.4L237.9 104.7L233.7 101.7L230.1 99L226.8 96.5L230.6 105.3L234.4 109.2L236.5 115.9L237.9 120.4L238.6 125.6V131.6L238.9 138.3L238.6 142.8L236.5 148L235.1 152.5L233 155.5L230.6 160.2L224 163H219.7H213.9H206.9H202.1H195.7L192 160L185.7 157L180.1 151.8L177.4 147.3L176 142.8L175.3 136.8L177.4 130.1L180.1 125.6L184.3 122.6V119.7L187.8 116.7L192.7 112.9L198.2 109.2L200.3 107L203.8 104.7L206.6 101H199.6H193.4L187.8 103.2L184.3 105.5L180.1 108.4L176 110.7L173.2 114.4L170.4 116.7L168.3 120.4L165.5 126.4V128.8L162.7 133.1L159.3 134.6H154.4L152.3 131.6L149.5 127.1L146 122.6V117.3V108.7V103L150.4 96.5L157.2 93.5L166.2 90.5L173.2 89L182.9 87.5H187.1H192H198.9L203.8 89L183.6 83.8L177.4 82.3L173.9 80.8L169.7 78.6L166.2 76.3L162.7 71.8V65.9L166.9 62.1L173.2 56.1Z" fill="url(#paint0_radial)"/>
<path id="Vector_12" d="M186.4 77.1H191.4H195.7L199.6 69.6V66.9L205.9 64.4L208.7 73.4V80.1L214.3 83.8V74.1V70.4L218.5 68.9L221.4 64.4L226.9 61.4L231.1 58.4V64.6V68L236.7 68.1V71.1V74.9V77.8L233.2 83.8H236.7H242.3H245.5L249.3 86.8L256.3 92C256.3 92 257.7 94.9 256.3 96.1C254.9 97.3 251.4 96.1 251.4 96.1L248.2 98.7H242.9H239.7L238.9 103.2L229.6 98.7L225.7 94.2L221.8 93.2L226.9 98.7L231.2 105.4L236.1 109.9L232.6 112.9H228.2H224.5L221.5 116.7V119.6V124.2H215.9L212.8 120.5L207.2 119.8L203.7 116.1L202.3 112.4L201.6 107.9L204.4 105.7L208.6 102L199.6 102.7L192.6 103.4L186.3 105.4L182.1 107.9L179.3 107.2V99C179.3 99 180.3 100.5 182.2 99C184.1 97.5 187.6 96 187.6 96L183.4 93.8L179.2 91.6L177.1 88.6L188 91.6H192.8H199.2H203.2L194.8 87.9H190.6L187.8 84.9L186.4 77.1Z" fill="url(#paint1_radial)"/>
<path id="Vector_13" d="M471.2 56.1L477.5 52.4L482.3 49.4L486.5 44.9L489.3 39.7L493.5 36.7L497.6 39.7L501.2 46.4L504.6 50.9V56.1V62.4V65.8V69.8V74.4L508.8 77.8V80.1V69.2V62.9L511.9 58.4V52.6L515 48.7L517.8 42.7L520.4 36.7H524.7L527.6 33L531.7 30H535.3H539.1L541.5 35.2L545 37.5V42.3L548.5 44.9L551.9 49.4L556.8 50.9L562.5 55H565.2L567.2 60.6V64.7V67.5L561 68.8L558.2 71.1L548.5 71.8L543.6 72.6L536.6 74.1L531.7 76.3L529.5 80.1L528.3 83.8H535.9L542.2 81.5H550.5H556.1L565.2 83.8L572.8 88.3L579.8 92.8L583.3 98.7L586 103.2V108.1V113.9L584 118.2L582.6 121.1L579.8 124.9L577 127.9L575.6 130.9L572.8 134.6H568.4L565.9 138.3H561.5H558.8H554.5L550.5 132.4L548.5 127.9L547.1 123.4L545.7 119.7L544.3 114.4L539.4 108.4L535.9 104.7L531.7 101.7L528.1 99L524.8 96.5L528.6 105.3L532.4 109.2L534.5 115.9L535.9 120.4L536.6 125.6V131.6L536.9 138.3L536.6 142.8L534.5 148L533.1 152.5L531 155.5L528.6 160.2L522 163H517.7H511.9H504.9H500.1H493.7L490 160L483.7 157L478.1 151.8L475.4 147.3L474 142.8L473.3 136.8L475.4 130.1L478.1 125.6L482.3 122.6V119.7L485.8 116.7L490.7 112.9L496.2 109.2L498.3 107L501.8 104.7L504.6 101H497.6H491.4L485.8 103.2L482.3 105.5L478.1 108.4L474 110.7L471.2 114.4L468.4 116.7L466.3 120.4L463.5 126.4V128.8L460.7 133.1L457.3 134.6H452.4L450.3 131.6L447.5 127.1L444 122.6V117.3V108.7V103L448.4 96.5L455.2 93.5L464.2 90.5L471.2 89L480.9 87.5H485.1H490H496.9L501.8 89L481.6 83.8L475.4 82.3L471.9 80.8L467.7 78.6L464.2 76.3L460.7 71.8V65.9L464.9 62.1L471.2 56.1Z" fill="url(#paint2_radial)"/>
<path id="Vector_14" d="M484.4 77.1H489.4H493.7L497.6 69.6V66.9L503.9 64.4L506.7 73.4V80.1L512.3 83.8V74.1V70.4L516.5 68.9L519.4 64.4L524.9 61.4L529.1 58.4V64.6V68L534.7 68.1V71.1V74.9V77.8L531.2 83.8H534.7H540.3H543.5L547.3 86.8L554.3 92C554.3 92 555.7 94.9 554.3 96.1C552.9 97.3 549.4 96.1 549.4 96.1L546.2 98.7H540.9H537.7L536.9 103.2L527.6 98.7L523.7 94.2L519.8 93.2L524.9 98.7L529.2 105.4L534.1 109.9L530.6 112.9H526.2H522.5L519.5 116.7V119.6V124.2H513.9L510.8 120.5L505.2 119.8L501.7 116.1L500.3 112.4L499.6 107.9L502.4 105.7L506.6 102L497.6 102.7L490.6 103.4L484.3 105.4L480.1 107.9L477.3 107.2V99C477.3 99 478.3 100.5 480.2 99C482.1 97.5 485.6 96 485.6 96L481.4 93.8L477.2 91.6L475.1 88.6L486 91.6H490.8H497.2H501.2L492.8 87.9H488.6L485.8 84.9L484.4 77.1Z" fill="url(#paint3_radial)"/>
</g>
<path id="Your Assistant To Consciousness" d="M357.02 228.952L360.296 239.212L366.812 228.952H372.068L362.204 243.496L360.728 253H355.544L357.02 243.496L351.764 228.952H357.02ZM384.534 243.82C384.006 247.156 382.866 249.604 381.114 251.164C379.386 252.7 377.31 253.468 374.886 253.468C372.462 253.468 370.662 252.712 369.486 251.2C368.67 250.144 368.262 248.644 368.262 246.7C368.262 245.836 368.346 244.888 368.514 243.856C369.042 240.52 370.158 238.084 371.862 236.548C373.59 234.988 375.654 234.208 378.054 234.208C382.542 234.208 384.786 236.476 384.786 241.012C384.786 241.876 384.702 242.812 384.534 243.82ZM379.89 241.156C379.89 239.116 379.074 238.096 377.442 238.096C376.41 238.096 375.558 238.492 374.886 239.284C374.238 240.076 373.734 241.6 373.374 243.856C373.23 244.816 373.158 245.644 373.158 246.34C373.158 248.524 373.962 249.616 375.57 249.616C376.578 249.616 377.418 249.196 378.09 248.356C378.786 247.492 379.302 245.992 379.638 243.856C379.806 242.8 379.89 241.9 379.89 241.156ZM397.523 251.308C395.435 252.748 393.347 253.468 391.259 253.468C389.195 253.468 387.863 252.928 387.263 251.848C386.903 251.176 386.723 250.432 386.723 249.616C386.723 248.8 386.783 248.032 386.903 247.312L388.919 234.532H393.959L392.051 246.412C391.979 247.084 391.943 247.612 391.943 247.996C391.943 248.356 392.099 248.68 392.411 248.968C392.747 249.232 393.251 249.364 393.923 249.364C395.243 249.364 396.443 248.992 397.523 248.248L399.719 234.532H404.759L401.735 253.468H397.595L397.523 251.308ZM417.036 238.24C415.092 238.24 413.628 238.804 412.644 239.932L410.592 253H405.552L408.468 234.532H412.644V236.872C414.372 235.048 416.292 234.136 418.404 234.136C419.004 234.136 419.556 234.196 420.06 234.316L418.548 238.456C418.044 238.312 417.54 238.24 417.036 238.24ZM443.116 253H438.004L437.212 247.312H430.264L427.708 253H422.452L433.864 228.952H439.372L443.116 253ZM436.708 243.388L435.808 233.92L431.992 243.388H436.708ZM453.821 238.096C452.165 238.096 451.265 238.636 451.121 239.716C451.097 239.812 451.085 239.908 451.085 240.004C451.085 240.844 451.901 241.6 453.533 242.272C454.277 242.56 455.009 242.896 455.729 243.28C456.449 243.64 457.001 244.12 457.385 244.72C457.769 245.32 457.961 245.848 457.961 246.304C457.961 248.584 457.085 250.408 455.333 251.776C453.941 252.904 452.057 253.468 449.681 253.468C448.601 253.468 447.485 253.348 446.333 253.108C445.205 252.868 444.389 252.592 443.885 252.28L445.685 248.68C447.413 249.304 449.033 249.616 450.545 249.616C452.057 249.616 452.909 249.028 453.101 247.852C453.125 247.78 453.137 247.696 453.137 247.6C453.137 246.88 452.321 246.136 450.689 245.368C449.969 245.008 449.249 244.624 448.529 244.216C447.809 243.808 447.257 243.28 446.873 242.632C446.513 241.984 446.333 241.432 446.333 240.976C446.333 238.648 447.185 236.872 448.889 235.648C450.257 234.664 452.081 234.172 454.361 234.172C456.665 234.172 458.393 234.544 459.545 235.288L457.817 238.852C456.209 238.348 454.877 238.096 453.821 238.096ZM468.868 238.096C467.212 238.096 466.312 238.636 466.168 239.716C466.144 239.812 466.132 239.908 466.132 240.004C466.132 240.844 466.948 241.6 468.58 242.272C469.324 242.56 470.056 242.896 470.776 243.28C471.496 243.64 472.048 244.12 472.432 244.72C472.816 245.32 473.008 245.848 473.008 246.304C473.008 248.584 472.132 250.408 470.38 251.776C468.988 252.904 467.104 253.468 464.728 253.468C463.648 253.468 462.532 253.348 461.38 253.108C460.252 252.868 459.436 252.592 458.932 252.28L460.732 248.68C462.46 249.304 464.08 249.616 465.592 249.616C467.104 249.616 467.956 249.028 468.148 247.852C468.172 247.78 468.184 247.696 468.184 247.6C468.184 246.88 467.368 246.136 465.736 245.368C465.016 245.008 464.296 244.624 463.576 244.216C462.856 243.808 462.304 243.28 461.92 242.632C461.56 241.984 461.38 241.432 461.38 240.976C461.38 238.648 462.232 236.872 463.936 235.648C465.304 234.664 467.128 234.172 469.408 234.172C471.712 234.172 473.44 234.544 474.592 235.288L472.864 238.852C471.256 238.348 469.924 238.096 468.868 238.096ZM482.907 234.136L479.955 253H474.915L477.831 234.568L482.907 234.136ZM479.379 226.648C480.123 226 480.903 225.676 481.719 225.676C482.535 225.676 483.159 225.94 483.591 226.468C484.023 226.972 484.239 227.524 484.239 228.124C484.239 229.132 483.867 229.972 483.123 230.644C482.379 231.292 481.599 231.616 480.783 231.616C479.967 231.616 479.343 231.352 478.911 230.824C478.479 230.296 478.263 229.72 478.263 229.096C478.263 228.088 478.635 227.272 479.379 226.648ZM492.704 238.096C491.048 238.096 490.148 238.636 490.004 239.716C489.98 239.812 489.968 239.908 489.968 240.004C489.968 240.844 490.784 241.6 492.416 242.272C493.16 242.56 493.892 242.896 494.612 243.28C495.332 243.64 495.884 244.12 496.268 244.72C496.652 245.32 496.844 245.848 496.844 246.304C496.844 248.584 495.968 250.408 494.216 251.776C492.824 252.904 490.94 253.468 488.564 253.468C487.484 253.468 486.368 253.348 485.216 253.108C484.088 252.868 483.272 252.592 482.768 252.28L484.568 248.68C486.296 249.304 487.916 249.616 489.428 249.616C490.94 249.616 491.792 249.028 491.984 247.852C492.008 247.78 492.02 247.696 492.02 247.6C492.02 246.88 491.204 246.136 489.572 245.368C488.852 245.008 488.132 244.624 487.412 244.216C486.692 243.808 486.14 243.28 485.756 242.632C485.396 241.984 485.216 241.432 485.216 240.976C485.216 238.648 486.068 236.872 487.772 235.648C489.14 234.664 490.964 234.172 493.244 234.172C495.548 234.172 497.276 234.544 498.428 235.288L496.7 238.852C495.092 238.348 493.76 238.096 492.704 238.096ZM506.563 247.528C506.515 247.816 506.491 248.092 506.491 248.356C506.491 248.62 506.551 248.872 506.671 249.112C506.815 249.352 507.235 249.472 507.931 249.472C508.627 249.472 509.419 249.364 510.307 249.148L510.523 252.712C509.275 253.216 507.955 253.468 506.563 253.468C505.195 253.468 504.151 253.324 503.431 253.036C502.735 252.772 502.231 252.472 501.919 252.136C501.463 251.656 501.235 250.744 501.235 249.4C501.235 248.944 501.331 248.164 501.523 247.06L502.927 238.024L499.723 237.808L500.191 234.856L503.611 234.568L504.259 230.356L509.371 229.924L508.651 234.532H513.907L513.043 238.024H508.039L506.563 247.528ZM529.941 252.388C528.597 253.06 527.193 253.396 525.729 253.396C524.289 253.396 523.317 252.844 522.813 251.74C521.253 252.892 519.405 253.468 517.269 253.468C515.637 253.468 514.425 253 513.633 252.064C513.009 251.344 512.697 250.432 512.697 249.328C512.697 248.008 512.961 246.928 513.489 246.088C514.017 245.248 514.533 244.648 515.037 244.288C515.565 243.904 516.153 243.592 516.801 243.352C517.857 242.968 519.045 242.776 520.365 242.776C521.685 242.776 522.777 242.812 523.641 242.884L523.929 241.12C523.977 240.736 524.001 240.304 524.001 239.824C524.001 239.32 523.809 238.924 523.425 238.636C523.065 238.324 522.273 238.168 521.049 238.168C519.849 238.168 518.445 238.42 516.837 238.924L516.297 235.756C517.281 235.228 518.433 234.832 519.753 234.568C521.073 234.28 522.189 234.136 523.101 234.136C525.549 234.136 527.217 234.664 528.105 235.72C528.705 236.44 529.005 237.52 529.005 238.96C529.005 239.584 528.945 240.28 528.825 241.048L527.637 248.608C527.613 248.728 527.601 248.836 527.601 248.932C527.601 249.388 527.853 249.616 528.357 249.616C528.693 249.616 529.149 249.544 529.725 249.4L529.941 252.388ZM523.245 245.404C522.573 245.356 521.985 245.332 521.481 245.332C518.817 245.332 517.485 246.316 517.485 248.284C517.485 249.508 518.169 250.12 519.537 250.12C520.569 250.12 521.601 249.808 522.633 249.184L523.245 245.404ZM544.911 234.208C546.999 234.208 548.331 234.736 548.907 235.792C549.315 236.512 549.519 237.292 549.519 238.132C549.519 238.948 549.459 239.692 549.339 240.364L547.359 253H542.319L544.155 241.264C544.227 240.736 544.263 240.256 544.263 239.824C544.263 239.368 544.095 239.008 543.759 238.744C543.447 238.456 542.955 238.312 542.283 238.312C540.939 238.312 539.727 238.756 538.647 239.644L536.559 253H531.411L534.327 234.532H538.575L538.683 236.584C539.499 235.936 540.471 235.384 541.599 234.928C542.727 234.448 543.831 234.208 544.911 234.208ZM558.665 247.528C558.617 247.816 558.593 248.092 558.593 248.356C558.593 248.62 558.653 248.872 558.773 249.112C558.917 249.352 559.337 249.472 560.033 249.472C560.729 249.472 561.521 249.364 562.409 249.148L562.625 252.712C561.377 253.216 560.057 253.468 558.665 253.468C557.297 253.468 556.253 253.324 555.533 253.036C554.837 252.772 554.333 252.472 554.021 252.136C553.565 251.656 553.337 250.744 553.337 249.4C553.337 248.944 553.433 248.164 553.625 247.06L555.029 238.024L551.825 237.808L552.293 234.856L555.713 234.568L556.361 230.356L561.473 229.924L560.753 234.532H566.009L565.145 238.024H560.141L558.665 247.528ZM579.092 233.092H572.828L573.476 228.952H591.296L590.648 233.092H584.276L581.144 253H575.96L579.092 233.092ZM604.331 243.82C603.803 247.156 602.663 249.604 600.911 251.164C599.183 252.7 597.107 253.468 594.683 253.468C592.259 253.468 590.459 252.712 589.283 251.2C588.467 250.144 588.059 248.644 588.059 246.7C588.059 245.836 588.143 244.888 588.311 243.856C588.839 240.52 589.955 238.084 591.659 236.548C593.387 234.988 595.451 234.208 597.851 234.208C602.339 234.208 604.583 236.476 604.583 241.012C604.583 241.876 604.499 242.812 604.331 243.82ZM599.687 241.156C599.687 239.116 598.871 238.096 597.239 238.096C596.207 238.096 595.355 238.492 594.683 239.284C594.035 240.076 593.531 241.6 593.171 243.856C593.027 244.816 592.955 245.644 592.955 246.34C592.955 248.524 593.759 249.616 595.367 249.616C596.375 249.616 597.215 249.196 597.887 248.356C598.583 247.492 599.099 245.992 599.435 243.856C599.603 242.8 599.687 241.9 599.687 241.156ZM628.173 252.82C626.253 253.252 624.465 253.468 622.809 253.468C621.177 253.468 619.797 253.264 618.669 252.856C617.565 252.448 616.581 251.752 615.717 250.768C614.469 249.424 613.845 247.324 613.845 244.468C613.845 243.412 613.929 242.224 614.097 240.904C614.457 238.624 615.081 236.656 615.969 235C616.857 233.32 617.901 232.024 619.101 231.112C621.429 229.408 624.009 228.556 626.841 228.556C628.641 228.556 630.417 228.82 632.169 229.348L630.729 233.056C629.409 232.792 628.161 232.66 626.985 232.66C625.041 232.66 623.409 233.272 622.089 234.496C620.769 235.696 619.869 237.796 619.389 240.796C619.221 241.828 619.137 242.764 619.137 243.604C619.137 245.236 619.461 246.472 620.109 247.312C621.045 248.56 622.533 249.184 624.573 249.184C626.013 249.184 627.321 249.088 628.497 248.896L628.173 252.82ZM647.362 243.82C646.834 247.156 645.694 249.604 643.942 251.164C642.214 252.7 640.138 253.468 637.714 253.468C635.29 253.468 633.49 252.712 632.314 251.2C631.498 250.144 631.09 248.644 631.09 246.7C631.09 245.836 631.174 244.888 631.342 243.856C631.87 240.52 632.986 238.084 634.69 236.548C636.418 234.988 638.482 234.208 640.882 234.208C645.37 234.208 647.614 236.476 647.614 241.012C647.614 241.876 647.53 242.812 647.362 243.82ZM642.718 241.156C642.718 239.116 641.902 238.096 640.27 238.096C639.238 238.096 638.386 238.492 637.714 239.284C637.066 240.076 636.562 241.6 636.202 243.856C636.058 244.816 635.986 245.644 635.986 246.34C635.986 248.524 636.79 249.616 638.398 249.616C639.406 249.616 640.246 249.196 640.918 248.356C641.614 247.492 642.13 245.992 642.466 243.856C642.634 242.8 642.718 241.9 642.718 241.156ZM662.439 234.208C664.527 234.208 665.859 234.736 666.435 235.792C666.843 236.512 667.047 237.292 667.047 238.132C667.047 238.948 666.987 239.692 666.867 240.364L664.887 253H659.847L661.683 241.264C661.755 240.736 661.791 240.256 661.791 239.824C661.791 239.368 661.623 239.008 661.287 238.744C660.975 238.456 660.483 238.312 659.811 238.312C658.467 238.312 657.255 238.756 656.175 239.644L654.087 253H648.939L651.855 234.532H656.103L656.211 236.584C657.027 235.936 657.999 235.384 659.127 234.928C660.255 234.448 661.359 234.208 662.439 234.208ZM677.521 238.096C675.865 238.096 674.965 238.636 674.821 239.716C674.797 239.812 674.785 239.908 674.785 240.004C674.785 240.844 675.601 241.6 677.233 242.272C677.977 242.56 678.709 242.896 679.429 243.28C680.149 243.64 680.701 244.12 681.085 244.72C681.469 245.32 681.661 245.848 681.661 246.304C681.661 248.584 680.785 250.408 679.033 251.776C677.641 252.904 675.757 253.468 673.381 253.468C672.301 253.468 671.185 253.348 670.033 253.108C668.905 252.868 668.089 252.592 667.585 252.28L669.385 248.68C671.113 249.304 672.733 249.616 674.245 249.616C675.757 249.616 676.609 249.028 676.801 247.852C676.825 247.78 676.837 247.696 676.837 247.6C676.837 246.88 676.021 246.136 674.389 245.368C673.669 245.008 672.949 244.624 672.229 244.216C671.509 243.808 670.957 243.28 670.573 242.632C670.213 241.984 670.033 241.432 670.033 240.976C670.033 238.648 670.885 236.872 672.589 235.648C673.957 234.664 675.781 234.172 678.061 234.172C680.365 234.172 682.093 234.544 683.245 235.288L681.517 238.852C679.909 238.348 678.577 238.096 677.521 238.096ZM691.308 253.468C688.836 253.468 686.916 252.664 685.548 251.056C684.54 249.904 684.036 248.308 684.036 246.268C684.036 245.524 684.108 244.72 684.252 243.856C684.756 240.616 685.932 238.204 687.78 236.62C689.652 235.012 691.848 234.208 694.368 234.208C695.856 234.208 697.512 234.484 699.336 235.036L697.788 238.672C696.372 238.336 695.22 238.168 694.332 238.168C692.916 238.168 691.752 238.6 690.84 239.464C689.952 240.304 689.352 241.78 689.04 243.892C688.92 244.636 688.86 245.452 688.86 246.34C688.86 247.204 689.088 247.912 689.544 248.464C690.24 249.304 691.332 249.724 692.82 249.724C693.612 249.724 694.8 249.604 696.384 249.364L696.492 252.64C694.524 253.192 692.796 253.468 691.308 253.468ZM707.204 234.136L704.252 253H699.212L702.128 234.568L707.204 234.136ZM703.676 226.648C704.42 226 705.2 225.676 706.016 225.676C706.832 225.676 707.456 225.94 707.888 226.468C708.32 226.972 708.536 227.524 708.536 228.124C708.536 229.132 708.164 229.972 707.42 230.644C706.676 231.292 705.896 231.616 705.08 231.616C704.264 231.616 703.64 231.352 703.208 230.824C702.776 230.296 702.56 229.72 702.56 229.096C702.56 228.088 702.932 227.272 703.676 226.648ZM724.741 243.82C724.213 247.156 723.073 249.604 721.321 251.164C719.593 252.7 717.517 253.468 715.093 253.468C712.669 253.468 710.869 252.712 709.693 251.2C708.877 250.144 708.469 248.644 708.469 246.7C708.469 245.836 708.553 244.888 708.721 243.856C709.249 240.52 710.365 238.084 712.069 236.548C713.797 234.988 715.861 234.208 718.261 234.208C722.749 234.208 724.993 236.476 724.993 241.012C724.993 241.876 724.909 242.812 724.741 243.82ZM720.097 241.156C720.097 239.116 719.281 238.096 717.649 238.096C716.617 238.096 715.765 238.492 715.093 239.284C714.445 240.076 713.941 241.6 713.581 243.856C713.437 244.816 713.365 245.644 713.365 246.34C713.365 248.524 714.169 249.616 715.777 249.616C716.785 249.616 717.625 249.196 718.297 248.356C718.993 247.492 719.509 245.992 719.845 243.856C720.013 242.8 720.097 241.9 720.097 241.156ZM737.73 251.308C735.642 252.748 733.554 253.468 731.466 253.468C729.402 253.468 728.07 252.928 727.47 251.848C727.11 251.176 726.93 250.432 726.93 249.616C726.93 248.8 726.99 248.032 727.11 247.312L729.126 234.532H734.166L732.258 246.412C732.186 247.084 732.15 247.612 732.15 247.996C732.15 248.356 732.306 248.68 732.618 248.968C732.954 249.232 733.458 249.364 734.13 249.364C735.45 249.364 736.65 248.992 737.73 248.248L739.926 234.532H744.966L741.942 253.468H737.802L737.73 251.308ZM754.759 238.096C753.103 238.096 752.203 238.636 752.059 239.716C752.035 239.812 752.023 239.908 752.023 240.004C752.023 240.844 752.839 241.6 754.471 242.272C755.215 242.56 755.947 242.896 756.667 243.28C757.387 243.64 757.939 244.12 758.323 244.72C758.707 245.32 758.899 245.848 758.899 246.304C758.899 248.584 758.023 250.408 756.271 251.776C754.879 252.904 752.995 253.468 750.619 253.468C749.539 253.468 748.423 253.348 747.271 253.108C746.143 252.868 745.327 252.592 744.823 252.28L746.623 248.68C748.351 249.304 749.971 249.616 751.483 249.616C752.995 249.616 753.847 249.028 754.039 247.852C754.063 247.78 754.075 247.696 754.075 247.6C754.075 246.88 753.259 246.136 751.627 245.368C750.907 245.008 750.187 244.624 749.467 244.216C748.747 243.808 748.195 243.28 747.811 242.632C747.451 241.984 747.271 241.432 747.271 240.976C747.271 238.648 748.123 236.872 749.827 235.648C751.195 234.664 753.019 234.172 755.299 234.172C757.603 234.172 759.331 234.544 760.483 235.288L758.755 238.852C757.147 238.348 755.815 238.096 754.759 238.096ZM774.306 234.208C776.394 234.208 777.726 234.736 778.302 235.792C778.71 236.512 778.914 237.292 778.914 238.132C778.914 238.948 778.854 239.692 778.734 240.364L776.754 253H771.714L773.55 241.264C773.622 240.736 773.658 240.256 773.658 239.824C773.658 239.368 773.49 239.008 773.154 238.744C772.842 238.456 772.35 238.312 771.678 238.312C770.334 238.312 769.122 238.756 768.042 239.644L765.954 253H760.806L763.722 234.532H767.97L768.078 236.584C768.894 235.936 769.866 235.384 770.994 234.928C772.122 234.448 773.226 234.208 774.306 234.208ZM795.544 235.936C796.288 236.8 796.66 237.94 796.66 239.356C796.66 240.772 796.276 242.416 795.508 244.288H785.752C785.656 244.84 785.608 245.356 785.608 245.836C785.608 246.94 785.86 247.792 786.364 248.392C787.06 249.256 788.14 249.688 789.604 249.688C791.068 249.688 792.58 249.412 794.14 248.86L794.464 252.28C792.472 253.072 790.348 253.468 788.092 253.468C783.316 253.468 780.928 251.104 780.928 246.376C780.928 242.392 782.068 239.224 784.348 236.872C786.028 235.096 788.2 234.208 790.864 234.208C793 234.208 794.56 234.784 795.544 235.936ZM792.376 241.552C792.472 241.024 792.52 240.568 792.52 240.184C792.52 238.576 791.824 237.772 790.432 237.772C788.464 237.772 787.06 239.032 786.22 241.552H792.376ZM806.509 238.096C804.853 238.096 803.953 238.636 803.809 239.716C803.785 239.812 803.773 239.908 803.773 240.004C803.773 240.844 804.589 241.6 806.221 242.272C806.965 242.56 807.697 242.896 808.417 243.28C809.137 243.64 809.689 244.12 810.073 244.72C810.457 245.32 810.649 245.848 810.649 246.304C810.649 248.584 809.773 250.408 808.021 251.776C806.629 252.904 804.745 253.468 802.369 253.468C801.289 253.468 800.173 253.348 799.021 253.108C797.893 252.868 797.077 252.592 796.573 252.28L798.373 248.68C800.101 249.304 801.721 249.616 803.233 249.616C804.745 249.616 805.597 249.028 805.789 247.852C805.813 247.78 805.825 247.696 805.825 247.6C805.825 246.88 805.009 246.136 803.377 245.368C802.657 245.008 801.937 244.624 801.217 244.216C800.497 243.808 799.945 243.28 799.561 242.632C799.201 241.984 799.021 241.432 799.021 240.976C799.021 238.648 799.873 236.872 801.577 235.648C802.945 234.664 804.769 234.172 807.049 234.172C809.353 234.172 811.081 234.544 812.233 235.288L810.505 238.852C808.897 238.348 807.565 238.096 806.509 238.096ZM821.556 238.096C819.9 238.096 819 238.636 818.856 239.716C818.832 239.812 818.82 239.908 818.82 240.004C818.82 240.844 819.636 241.6 821.268 242.272C822.012 242.56 822.744 242.896 823.464 243.28C824.184 243.64 824.736 244.12 825.12 244.72C825.504 245.32 825.696 245.848 825.696 246.304C825.696 248.584 824.82 250.408 823.068 251.776C821.676 252.904 819.792 253.468 817.416 253.468C816.336 253.468 815.22 253.348 814.068 253.108C812.94 252.868 812.124 252.592 811.62 252.28L813.42 248.68C815.148 249.304 816.768 249.616 818.28 249.616C819.792 249.616 820.644 249.028 820.836 247.852C820.86 247.78 820.872 247.696 820.872 247.6C820.872 246.88 820.056 246.136 818.424 245.368C817.704 245.008 816.984 244.624 816.264 244.216C815.544 243.808 814.992 243.28 814.608 242.632C814.248 241.984 814.068 241.432 814.068 240.976C814.068 238.648 814.92 236.872 816.624 235.648C817.992 234.664 819.816 234.172 822.096 234.172C824.4 234.172 826.128 234.544 827.28 235.288L825.552 238.852C823.944 238.348 822.612 238.096 821.556 238.096Z" fill="white"/>
<defs>
<radialGradient id="paint0_radial" cx="0" cy="0" r="1" gradientUnits="userSpaceOnUse" gradientTransform="translate(217.043 96.4963) scale(66.6313 71.5227)">
<stop offset="0.489583" stop-color="#F8F7F2"/>
<stop offset="0.760417" stop-color="#E6E1DB"/>
<stop offset="0.979167" stop-color="#CDCBC9"/>
</radialGradient>
<radialGradient id="paint1_radial" cx="0" cy="0" r="1" gradientUnits="userSpaceOnUse" gradientTransform="translate(217.005 91.2603) rotate(0.804369) scale(24.1977 25.974)">
<stop offset="0.53125" stop-color="#FAC43E"/>
<stop offset="0.9647" stop-color="#FDEBA0"/>
</radialGradient>
<radialGradient id="paint2_radial" cx="0" cy="0" r="1" gradientUnits="userSpaceOnUse" gradientTransform="translate(515.043 96.4963) scale(66.6313 71.5227)">
<stop offset="0.489583" stop-color="#F8F7F2"/>
<stop offset="0.760417" stop-color="#E6E1DB"/>
<stop offset="0.979167" stop-color="#CDCBC9"/>
</radialGradient>
<radialGradient id="paint3_radial" cx="0" cy="0" r="1" gradientUnits="userSpaceOnUse" gradientTransform="translate(515.005 91.2603) rotate(0.804369) scale(24.1977 25.974)">
<stop offset="0.53125" stop-color="#FAC43E"/>
<stop offset="0.9647" stop-color="#FDEBA0"/>
</radialGradient>
<clipPath id="clip0">
<rect width="1167" height="209.9" fill="white"/>
</clipPath>
</defs>
</svg>
