<svg width="1967" height="2090" viewBox="0 0 1967 2090" fill="none" xmlns="http://www.w3.org/2000/svg">
<g id="Frame">
<path id="Vector" d="M1967 0V2070.11H0V0H1967Z" fill="url(#paint0_linear)"/>
<path id="Vector_2" d="M54 1013.38L39 1024.64V1045.68L28 1060.73V1082.09H41V1094.72V1107.35L34 1119.66L28 1141.02L41 1148.07L54 1160.7V1171.96L68 1180.7L80 1195.74L91 1203.85L106 1210.16L114 1201.74V1221V1243.41H107L91 1252.15L86 1260.57L103 1268.99H114V1291.08V1303.71L95 1321.6V1332.12H108.3H132.3L150 1338.44L159 1325.81L176 1323.71L191 1327.91L197.7 1338.44L198 1371.06L210 1379.48L204 1395.26L210 1413.15V1434.2L222 1441.56H237.7L255 1435.25H275L288.3 1441.56V1456.61V1467.87L296 1481.55H315L346 1468.92L372 1455.24L380 1435.25L416 1447.88L400 1416.31L395 1388.95L406 1374.22V1400.52L408 1413.15H416L422 1386.84L435 1372.11V1380.85C435 1380.85 439 1391.05 435 1396.31C431 1401.58 424 1414.2 424 1414.2L436.8 1418.73L452 1400.63H464L456 1412.2L464 1417.47L434 1426.94L432 1439.57L450 1442.72L464 1432.94V1449.77V1462.4L452 1471.13L456.3 1481.66L454 1493.23L472 1501.65V1517.44V1533.96L478 1563.74V1580.26H489.7L490 1570.05L508 1567.95V1580.26H525H541.7L548 1559.53L525 1542.38L518 1536.38L517.7 1519.54H525H540.3L542 1535.33L555 1530.06L566 1525.85L575 1517.44H595L610 1525.85C610 1525.85 608 1534.27 604 1534.27C600 1534.27 583 1531.12 583 1531.12L568 1535.33L560 1552.16L555 1560.58V1580.26L570 1557.42L594 1559.53L596 1570.05L581.7 1580.26H565.7L563 1586.89L560 1598.46L571 1603.73L574 1611.09V1622.67L590 1611.09L604 1615.3L604.3 1622.67L604 1637.4H564.3L562 1658.45L570 1675.28L610 1695.28L618 1670.02L631 1665.81L639 1682.65L631 1706.85L639 1713.17H657.7H668.4L687.1 1687.91L704.1 1696.33V1713.17H721.8L722.1 1674.23V1656.03L728.1 1635.3L752.1 1626.88V1650.34L759.1 1673.18L766.1 1677.39L752.1 1698.43L739.1 1713.17L747.1 1732.11L739.1 1744.74L746.1 1771.04L772.1 1797.35L804.1 1818.4H841.8C841.8 1818.4 864.1 1854.18 867.1 1860.49C870.1 1866.8 884.1 1911 884.1 1911L907.1 1935.2L952.1 1943.62L1024.8 1953.41L1082.1 1968.88L1103.1 2019.39L1146.1 2032.02L1164.4 2085.69L0 2089.89V949.187H36.3" fill="url(#paint1_linear)"/>
<path id="Vector_3" d="M518 1291.19L511 1309.08V1330.44L497 1340.65L486 1353.28V1368.32V1388V1416.1C486 1416.1 491 1429.04 486 1434.3C481 1439.57 455 1466.93 454 1471.13C453 1475.34 433 1504.81 433 1504.81V1521.33V1497.44L427 1480.61L437 1467.98L427 1462.4L417 1481.66C417 1481.66 421 1490.39 417 1496.07C413 1501.65 417 1526.91 417 1526.91C417 1526.91 410.4 1537.43 415.2 1540.59C420 1543.74 413.5 1563.42 413.5 1563.42L396.7 1540.59L389 1526.91L383 1501.65L397 1479.55L415 1462.72L418 1454.3L391 1473.24L377 1489.02L383 1528.28V1546.48C383 1546.48 385 1558.37 397 1557.32C409 1556.27 401.3 1551.32 404.7 1563.32C408 1575.21 407 1585.73 407 1585.73C407 1585.73 401 1595.2 401 1601.52C401 1607.83 395 1623.61 395 1623.61C395 1623.61 389 1626.77 387 1633.09C385 1639.4 383 1642.87 377 1647.5C371 1652.03 362 1679.39 362 1679.39C362 1679.39 366 1686.02 362 1702.22C358 1718.32 354 1719.38 354 1728.85C354 1738.32 355 1790.93 355 1790.93L354 1809.87C354 1809.87 349 1813.03 354 1825.66C359 1838.29 358 1868.8 358 1868.8C358 1868.8 359 1898.27 359 1908.79C359 1919.31 346.6 1929.1 351.8 1933.73C357 1938.26 347.6 1946.36 351.8 1957.62C356 1968.88 350.5 1977.3 350.5 1977.3L335 1915.21C335 1915.21 337 1878.7 335 1874.91C333 1871.01 335 1837.02 335 1837.02L334.1 1804.72C334.1 1804.72 333.2 1786.83 334.1 1775.25C335 1763.68 349 1737.37 349 1737.37L351 1698.43L329 1738.74V1793.46L318 1834.18C318 1834.18 318 1866.8 318 1873.12C318 1879.43 326 1893.11 326 1893.11L318 1807.56L311 1766.83C311 1766.83 315 1727.16 311 1723.37C307 1719.48 311 1681.28 311 1681.28C311 1681.28 306.4 1663.08 309.2 1656.03C312 1648.98 323.3 1634.24 323.3 1634.24L337 1607.94L359 1567.95L355 1498.49L364.2 1488.39L382 1469.03L393 1451.14L413.2 1434.3V1404.84L433 1376.43L438 1355.38L413.2 1386.63L406 1403.79L394 1424.83L377 1455.35L346 1502.7L342 1522.7L337 1559.53L331 1585.84C331 1585.84 327 1592.15 323 1601.62C319 1611.09 308.3 1623.72 308.3 1623.72L299 1653.18C299 1653.18 294 1662.66 294 1668.97C294 1675.28 291 1688.23 294 1698.12C297 1707.9 291 1717.38 294 1724.74C297 1732.11 299 1750 305 1758.42C311 1766.83 307 1788.93 307 1788.93C307 1788.93 307 1804.72 307 1813.14C307 1821.55 307 1846.81 307 1846.81L309 1876.28L314 1892.06L301 1856.28L282 1825.76C282 1825.76 282 1820.5 282 1814.19C282 1807.87 282 1766.83 282 1766.83V1740.21V1720.53V1705.06V1684.02V1664.34L287.3 1634.14C287.3 1634.14 274 1642.56 274 1656.24C274 1669.92 275 1666.76 274 1682.54C273 1698.33 274 1728.85 274 1728.85C274 1728.85 261 1709.9 261 1702.54C261 1695.17 259 1666.76 259 1666.76C259 1666.76 259 1635.19 259 1634.14C259 1633.09 253 1612.04 253 1612.04L245 1598.36L234 1578.37C234 1578.37 223 1581.52 234 1589.94C245 1598.36 242 1610.99 242 1610.99L245 1624.67L247.3 1634.14C247.3 1634.14 248 1645.71 249 1649.92C250 1654.13 250 1665.71 250 1665.71C250 1665.71 250 1675.18 250 1681.49C250 1687.81 250 1698.33 250 1698.33C250 1698.33 255 1718.32 257 1723.58C259 1728.85 259 1728.85 259 1728.85L261 1746.74C261 1746.74 269 1755.89 267 1759.68C265 1763.57 267 1769.47 267 1769.47L261 1778.2L250 1754L223 1748.73V1725.9L231 1762.41L247 1771.89C247 1771.89 261 1797.14 261 1804.51C261 1811.87 257 1830.82 257 1830.82C257 1830.82 253 1877.12 253 1884.48C253 1891.85 246 1902.37 254 1917.1C258 1924.47 261.2 1932.05 263.5 1937.94C265.8 1943.83 267 1947.62 267 1947.62L283 1977.09L242 1876.06C242 1876.06 233 1832.92 234 1826.61C235 1820.29 233 1778.2 233 1778.2L223 1767.99V1810.08V1880.27C223 1880.27 219 1881.33 223 1888.69C227 1896.06 234 1906.58 234 1906.58L250 1943.41L267 1977.09L289 1992.87C289 1992.87 300 2028.65 301 2036.02C301.4 2039.07 296.8 2034.02 291.3 2026.97C283.5 2017.07 274 2003.39 274 2003.39C274 2003.39 261 2000.24 259 1994.98C257 1989.71 245 1968.67 245 1968.67L231 1927.63C231 1927.63 224 1952.88 229 1968.67C234 1984.45 267 2012.13 267 2012.13C267 2012.13 295 2039.17 298 2047.59C301 2056.01 303 2089.68 303 2089.68L282 2058.11C282 2058.11 268 2046.86 267 2043.07C266 2039.17 250 2020.23 250 2020.23L251 2013.92V2041.28L254 2049.7L267 2068.32L273 2072.85L278 2082.32L280.7 2089.68H379.4H407.4H434L487 2083.37L497 2047.59L526 2009.71L541 1993.92C541 1993.92 553 1984.45 558 1982.35C563 1980.24 583 1971.83 583 1971.83L597 1969.72L615 1967.62L638 1954.99L661 1951.83C661 1951.83 688.4 1949.2 691.9 1947.83C699.7 1944.89 706 1942.36 706 1942.36L727 1936.05C727 1936.05 755 1927.63 741 1931.84C727 1936.05 654 1944.47 654 1944.47H641C641 1944.47 618 1942.36 614 1944.47C610 1946.57 577 1952.88 577 1952.88C577 1952.88 571 1954.99 567 1960.25C563 1965.51 541 1981.3 541 1981.3C541 1981.3 529 1984.45 523 1990.77C517 1997.08 503 1999.19 503 1999.19L515 1982.35L517 1967.62L531 1951.83L543 1946.57C543 1946.57 551 1939.2 553 1934.99C555 1930.79 555 1930.79 555 1930.79C555 1930.79 559 1919.21 566 1915C573 1910.79 583 1906.58 583 1906.58L601 1901.32L615 1885.54L627 1881.33L649 1876.06L674 1866.59L726 1850.81L674 1856.07L639 1866.59L598 1879.22C598 1879.22 589 1885.54 585 1889.74C581 1893.95 562 1904.48 562 1904.48C562 1904.48 546 1908.69 542 1912.9C538 1917.1 523 1946.57 523 1946.57L507 1959.2L483.1 1992.56V2009.39L474 2027.81L475 1973.09L495 1961.51L521 1923.63L529 1913.11L506 1923.63L489 1952.04L467 1964.67L466 1973.09L463 1994.13V1944.68L461 1926.79L449 1918.37L435 1904.69L418 1887.85V1864.7V1838.39L435 1822.61V1801.56L453 1782.62L458 1759.47L463 1737.37L471 1706.85L475 1678.44L483.1 1670.02L509 1636.35L522 1610.04C522 1610.04 524 1584.78 525 1580.58C526 1576.37 536.7 1540.59 536.7 1540.59L543 1527.96L558 1497.44L523 1549.01L514 1573.21L503 1593.2L499 1614.25V1622.67L494 1588.99C494 1588.99 492 1563.74 493 1559.53C494 1555.32 501 1526.91 501 1526.91L494 1555.32L483.1 1574.58C483.1 1574.58 481.2 1581.63 483.1 1590.05C485 1598.46 479.2 1597.73 483.1 1605.51C487 1613.2 479.2 1615.3 483.1 1619.51C487 1623.72 481.2 1629.72 483.1 1633.51C485 1637.4 483.1 1647.5 483.1 1647.5C483.1 1647.5 476 1654.24 473 1658.45C470 1662.66 462 1672.13 462 1677.39C462 1682.65 455 1696.33 455 1696.33L453 1706.85L449 1656.34C449 1656.34 445 1650.03 453 1641.61C461 1633.19 461 1633.19 461 1633.19C461 1633.19 465 1626.88 466 1622.67C467 1618.46 470 1597.41 470 1597.41C470 1597.41 472 1584.78 471 1591.1C470 1597.41 459 1619.51 459 1619.51L450 1628.98L438 1648.98V1660.55L434 1677.39L443 1715.27V1723.69L433 1750L429 1776.31C429 1786.83 422 1795.25 422 1799.46C422 1803.67 417 1812.08 415 1816.29C413 1820.5 394 1835.23 394 1835.23L395 1862.6L397 1879.43L399 1918.37C399 1918.37 408 1917.32 413 1923.63C418 1929.94 427 1935.2 431 1939.41C435 1943.62 437 1965.72 437 1965.72L438 1995.19L430 2015.18L407 1973.09L382 1946.78V1908.9V1885.75L375 1837.34V1822.61C375 1822.61 376 1803.67 379 1799.46C382 1795.25 389 1758.42 389 1758.42C389 1758.42 364 1767.89 369 1755.26C374 1742.63 374 1736.32 374 1736.32L375 1720.53L377 1711.06L410 1699.49L426 1656.34L406 1690.54H391.3L382 1699.49L379 1679.49L382 1658.45L397 1645.82L401 1637.4L415 1611.09L421 1593.2L423 1574.26L431 1560.58L442 1532.17L450 1500.6L462 1480.61C462 1480.61 495 1441.67 497 1437.46C499 1433.25 501 1422.73 501 1422.73L505 1393.26L501 1370.11V1357.48L505 1349.07L519 1332.23L522 1312.24L518 1291.19Z" fill="#1B1450"/>
<path id="Vector_4" d="M0 2079.37L30 2070.95H44.3H67L80 2058.01H95C95 2058.01 94.3 2056.64 101.7 2058.01C109 2059.38 109 2059.38 109 2059.38C109 2059.38 113.7 2054.22 124.3 2057.38C134.9 2060.54 135 2060.43 135 2060.43L158 2062.53L184.3 2056.33H192.3H207H231L248.3 2067.8L284.3 2056.33H291H319H336H373.7L396 2045.7L408 2034.12L430 2045.7L440.3 2034.12V2022.86L450 1996.24H464.3L447 1980.45H459L464.3 1970.98L451 1959.41L446 1946.78H455L475 1967.83V1983.61L474 1952.57L468.3 1946.78L456 1934.15L460 1919.42L488 1949.94L498 1983.61L504.3 1999.4V1951.31L498 1932.05L514 1915.21L555 1904.69L525 1922.58L510 1932.05V1941.52C510 1941.52 513 1944.68 514 1949.94C515 1955.2 515 1955.2 515 1955.2L514 1964.67L525.9 1944.99L528 1934.15L539 1933.1L523 1965.72L517 1973.09L516 1980.45L514.7 1992.03L526 1986.77L533 2002.55L540 1985.72L549 2014.13V2022.55L555 2025.49L569 2027.81L582.2 2011.6L594 1998.34L582.2 1992.03L572 1985.72L570 2000.45L566 2001.5L565.8 1992.03L561 1986.77L560 1974.14H566L582.2 1978.24V1983.61L578 1969.93L582.2 1958.88L587 1970.98L594 1970.67V1977.09V1987.82L605 1985.61L600 1967.72L590 1959.3L600 1952.99L605 1959.83C605 1959.83 594 1959.51 605 1965.2C616 1970.88 612 1982.45 612 1982.45L612.7 1991.92H616.8H625V1978.14V1968.46V1956.67L632 1954.04V1965.2V1971.61L639 1965.51L648 1964.46V1974.77V1980.14L660 1976.03L654 1961.3L641 1952.88L644 1943.41V1931.84L660 1953.3C662 1960.25 662 1960.25 662 1960.25V1969.4C662 1969.4 667 1971.83 667 1974.98C667 1978.14 667 1984.45 667 1984.45L652.6 1991.82C652.6 1991.82 652 1986.56 647.5 1991.82C643 1997.08 634 1997.08 630 1999.19C626 2001.29 615 2000.24 615 2000.24V2004.45L622 2010.76H631L627 2017.07L622 2020.23L635 2022.34L645 2018.13L655 2013.92L658 2003.39L667 1998.45L688 1971.83L680 1966.56L679 1950.78L667 1941.31L672 1927.63L688 1955.41C692 1966.56 693 1976.03 693 1976.03V1981.3L701 1996.03L721 1983.4L714 1971.83L700 1963.41L706 1953.94L721 1945.83L728 1962.35L734 1963.41V1952.25L726 1937.1L725 1929.73L711 1919.21C711 1919.21 730 1911.95 734 1911.42C738 1910.9 724 1896.06 724 1896.06H734.7L750 1926.58V1933.94L765 1922.37L773 1917.1L757 1904.48V1888.69V1881.33C757 1881.33 757 1868.7 754 1867.65C751 1866.59 751 1866.59 751 1866.59L748 1860.28L743 1847.65L744 1841.34C749 1843.44 759 1849.76 759 1849.76L760 1862.38C765 1869.75 774 1872.7 773 1877.01C772 1881.33 772 1881.33 772 1881.33L777 1863.44L769 1856.07L763.9 1841.34H777H781.3V1827.55C781.3 1827.55 755.8 1840.08 786.4 1827.55C804.2 1820.29 802.9 1819.03 798.7 1819.24C795.6 1819.35 791.1 1820.29 791.1 1820.29L807.1 1807.66H821.2L799.1 1832.92L796.1 1844.5C796.1 1844.5 807.1 1850.81 808.1 1855.02C809.1 1859.23 799.1 1869.75 799.1 1869.75L792.1 1862.38L790.1 1855.02L785.1 1869.75L792.1 1879.22L786.1 1890.8L804.1 1889.74L814.1 1881.33V1876.06L815.1 1863.44L821.2 1858.7V1844.71V1835.02V1827.55L828.1 1844.5V1856.6L839.1 1861.33L848.1 1858.18C851.1 1863.44 848.1 1866.28 848.1 1866.28L860.1 1866.59C860.1 1866.59 847.1 1877.12 850.1 1880.27C853.1 1883.43 853.1 1879.22 853.1 1883.43C853.1 1887.64 853.1 1897.11 853.1 1897.11V1906.58L856.1 1912.9C864.1 1918.16 860.1 1925.42 860.1 1925.42L854.1 1933.94L846.7 1943.41C853.1 1946.57 853.1 1946.57 853.1 1946.57L855.1 1953.94L869.2 1943.41V1933.94V1923.21V1915.74V1905L863.1 1898.27L862.1 1882.48H869.2L876.1 1878.27V1868.49L870.1 1861.44L860.1 1854.07L855.1 1851.97L844.1 1842.5L846.1 1829.87L852.1 1839.34L859.1 1831.97L861.1 1845.65L876.1 1847.02C875.1 1853.02 870.1 1835.13 870.1 1835.13L867.1 1825.66L860.1 1819.35L871.1 1813.03L876.1 1807.77H881.4C881.4 1807.77 896.1 1815.14 893.1 1818.29C890.1 1821.45 890.1 1821.45 890.1 1821.45L893.5 1828.71L904.1 1825.66C904.1 1825.66 907.1 1816.19 910.1 1826.71C913.1 1837.23 910.1 1844.92 910.1 1844.92L922.1 1850.91L933.1 1862.49C926.1 1869.86 920.1 1870.91 920.1 1870.91L922.1 1878.27L939.1 1877.22L932.1 1895.11C930.1 1900.37 928.1 1920.37 928.1 1920.37L918.1 1919.31L909.1 1922.47V1930.89L896.1 1931.94L886.1 1934.05L897.8 1943.52C908.1 1943.52 916.2 1943.52 916.2 1943.52L935.1 1922.47L939.7 1911.53L947.1 1922.47L943.1 1925.63L952.1 1924.37L963.1 1923.52L956.1 1937.2C956.1 1937.2 947.4 1941.41 944.8 1943.52C942.1 1945.62 938.1 1950.88 938.1 1950.88L933.1 1957.2L945.1 1961.41L931.1 1968.77L916.1 1971.93L927.1 1975.09H948.1L963.1 1984.56L970.1 1985.61L976.1 1977.19V1969.51C976.1 1969.51 963.1 1964.56 960.1 1964.56C957.1 1964.56 953.1 1967.72 953.1 1963.51C953.1 1959.3 954.1 1951.94 954.1 1951.94L964.1 1947.73L976.1 1959.83C982.1 1971.93 982.1 1958.78 982.1 1958.78V1950.15V1943.52L973.1 1931.94L968.1 1928.79V1922.47L961.1 1917.21C961.1 1917.21 951.1 1902.48 949.1 1899.32C947.1 1896.16 945.1 1890.9 945.1 1890.9L943.1 1870.91L944.1 1864.59L953.1 1849.86L958.1 1838.29L967.1 1829.87V1821.45L970.1 1813.03L971.1 1802.51V1795.14C971.1 1795.14 968.3 1799.35 965.2 1795.14C962.1 1790.93 958 1791.98 958.1 1795.14C958.2 1798.3 945.2 1800.4 945.2 1800.4L934.6 1792.41L930.2 1786.72L928.2 1776.2L934.2 1771.99H941.8H951H964.3H969.4L982.2 1788.93L983.7 1798.61V1772.1V1750.42L968 1730H949.8L935 1725.79H911L912 1711.06L916 1703.7L924 1695.28H933.4L948 1703.7C956 1708.96 956 1708.96 956 1708.96L963 1715.27L968 1719.48L975 1725.79L983.5 1735.37C983.5 1735.37 975 1735.79 983.5 1742.84C992 1750 992 1750 992 1750L999 1744.74V1739.68L1010 1733.16C1010 1733.16 1011 1732.11 1015 1732.11C1019 1732.11 1026 1730 1026 1730C1026 1730 1030 1728.95 1035 1728.95C1040 1728.95 1040 1728.95 1040 1728.95L1050 1734.21V1739.68L1040 1746.1L1031 1745.79L1019 1751.05L1007 1757.36H1000L998 1765.78L994 1776.31L992 1781.57C992 1781.57 992 1782.62 992 1785.78C992 1788.93 992 1782.62 992 1788.93C992 1795.25 989 1801.56 989 1801.56L983.5 1808.4L979 1814.19L976 1820.5L975 1827.87L993 1820.5L1013 1817.35L1021 1815.24L1036 1821.55L1040 1827.76C1040 1827.76 1036 1830.08 1040 1834.18C1044 1838.39 1040 1844.92 1040 1844.92L1030 1846.71L1020 1841.44L999 1831.97H995L983.5 1838.39L979 1838.29C979 1838.29 977 1838.29 974 1840.39C971 1842.5 960 1849.86 960 1849.86H975L983.5 1844.92L992 1844.6L997 1851.97C1000 1860.39 1005 1860.39 1001 1863.54C997 1866.7 997 1866.7 997 1866.7L983.5 1868.49L970 1867.86H958L955 1876.28V1882.59L961 1900.48V1905.74L969 1898.37L971.2 1887.32L983.5 1880.48L993 1874.17L1014 1876.28L1018 1879.43L1018.2 1887.32H1007L1004 1892.06C993 1894.16 983.5 1897.64 983.5 1897.64L978 1902.58L975 1908.9L976 1918.37C976 1918.37 982 1921.21 983.5 1924.47C985 1927.84 989 1937.31 989 1937.31L990 1943.62L999 1942.57L1004 1937.31L1018 1932.05H1027L1032 1934.15L1040 1939.52V1944.89V1952.36L1027 1956.15L1009 1955.09L997 1959.3L989 1970.88L991 1978.24C991 1978.24 1003 1982.45 1009 1982.45C1015 1982.45 1020 1984.56 1020 1984.56L1040 1986.77L1050 1985.72L1059 1984.66L1064 1979.4V1970.67L1054 1960.46V1949.94L1068 1943.62V1937.41V1927.73V1921.31L1072 1909.95L1070.1 1907.11L1067 1902.58C1067 1902.58 1071.4 1887.85 1067.2 1887.32C1063 1886.8 1077 1891.01 1063 1886.8C1049 1882.59 1056 1878.38 1056 1878.38L1063 1875.22C1063 1875.22 1076 1851.76 1072 1875.12C1068 1898.48 1077 1911 1077 1911L1085 1899.43V1882.59V1869.65L1079 1855.23L1078.3 1848.6L1077 1836.29L1080 1818.4L1091 1868.91L1092 1880.48C1092 1880.48 1092 1879.43 1092 1892.06C1092 1904.69 1092 1911.63 1092 1911.63L1087 1921.52L1082 1926.79L1092 1928.79L1104 1929.94C1104 1929.94 1096 1932.68 1104 1923.42C1112 1914.16 1114 1894.16 1114 1894.16V1887.32L1099 1844.71L1114 1840.71L1119 1820.5V1843.86V1851.34L1109 1854.07L1111 1859.33C1111 1859.33 1118 1862.91 1119 1867.44C1120 1871.96 1123 1878.27 1123 1878.27L1138 1870.91L1143 1859.33V1845.97L1149 1837.23L1154 1834.08V1840.6V1850.28V1855.65L1147 1870.91L1142 1877.22L1139 1882.48L1131.6 1887.22L1122 1898.27V1904.58L1120 1911.95L1118 1919.31L1113 1927.73L1117 1934.05C1122 1940.36 1131 1924.58 1131 1924.58L1133 1911.95L1139 1901.43L1140 1896.16L1148 1893.01L1154 1887.22L1164.3 1883.54L1177.5 1887.22L1158 1900.48L1150 1904.69L1144 1918.37L1139 1924.68L1136 1933.1L1134 1937.31L1140 1947.83L1145 1949.94L1154 1944.68L1159 1936.26L1164.3 1927.73L1170 1917.32L1178 1911L1184 1899.43V1887.32V1879.33L1175 1874.17L1170 1867.86C1170 1867.86 1172 1862.6 1175 1858.39C1178 1854.18 1178 1848.92 1178 1848.92L1174 1837.34C1177 1853.12 1183 1856.49 1184 1862.17C1185 1867.86 1185 1867.86 1185 1867.86V1872.91L1192 1880.48L1200 1895.22C1197 1904.69 1191 1909.95 1191 1909.95L1184 1918.37L1174 1927.84L1171 1933.1L1164.3 1940.57V1945.94V1957.72L1179 1967.72C1179 1967.72 1186 1967.72 1190 1967.72C1194 1967.72 1200 1966.35 1200 1966.35L1214 1954.04V1967.41L1227 1970.88L1236 1961.41V1943.73V1936.26L1242 1927.73C1242 1927.73 1242 1922.47 1235 1922.47C1228 1922.47 1217 1921.42 1217 1921.42L1215 1911.95L1226 1904.58L1237 1908.79C1237 1908.79 1239 1905.74 1242 1911.53C1245 1917.32 1245 1917.21 1245 1917.21V1905V1897.53L1232.7 1887.22C1232.7 1887.22 1229 1882.48 1234 1882.48C1239 1882.48 1245 1882.48 1245 1882.48C1245 1882.48 1251.2 1879.33 1254.1 1887.22C1257 1895.11 1257 1895.11 1257 1895.11L1264 1881.43L1256 1870.91H1242L1241 1865.65L1254 1862.49L1246 1849.86L1232 1858.28L1226 1867.75L1214 1864.59L1210 1850.91L1220 1845.65L1229 1844.6L1237 1843.55L1243 1842.5L1242 1827.76L1232 1821.45C1232 1821.45 1230 1820.4 1224 1820.4C1218 1820.4 1218 1820.4 1218 1820.4C1218 1820.4 1209 1820.4 1209 1816.19C1209 1811.98 1209 1807.77 1209 1807.77L1214 1800.4H1219H1228L1233 1802.51L1239 1808.82L1244 1815.14L1255 1808.82L1264 1799.77L1272 1797.25L1286 1796.19L1298 1807.77L1290 1814.08C1290 1814.08 1287 1814.08 1283 1814.08C1279 1814.08 1279 1814.08 1279 1814.08H1267L1260 1817.24L1255 1819.35L1251 1824.61C1251 1833.03 1252 1838.29 1252 1838.29V1844.6L1262 1836.18L1275 1825.66L1284 1826.71L1283 1842.5L1270 1843.55C1270 1843.55 1265 1839.34 1265 1844.6C1265 1849.86 1265 1849.86 1265 1849.86L1263 1855.12L1267 1869.86L1298 1864.17L1305 1868.8V1879.22C1305 1879.22 1305.1 1890.9 1299 1887.22C1293 1883.54 1293 1883.54 1293 1883.54L1282 1878.27C1282 1878.27 1280 1876.17 1277 1878.27C1274 1880.38 1271.9 1883.54 1271.5 1887.22C1271 1890.9 1271 1890.9 1271 1890.9C1271 1890.9 1271 1893.01 1266 1898.27C1261 1903.53 1261 1903.53 1261 1903.53L1267 1906.69L1282 1914.05L1276 1920.37C1276 1920.37 1278 1922.47 1271 1921.42C1264 1920.37 1257 1916.16 1257 1916.16L1252 1922.47C1252 1922.47 1256 1923.52 1256 1927.73C1256 1931.94 1264 1934.05 1264 1934.05C1272 1939.31 1278 1945.62 1278 1945.62L1287 1963.51L1296 1974.04L1305 1968.46C1305 1968.46 1311 1966.67 1314 1966.67C1317 1966.67 1331 1960.36 1331 1960.36L1342 1955.09L1324 1943.52L1322 1937.2L1312 1918.26V1913L1324 1920.37C1324 1920.37 1331 1923.52 1333 1927.73C1335 1931.94 1342 1945.94 1342 1945.94L1349 1948.78V1934.05L1344 1926.68L1343 1914.05L1339 1903.53L1349 1896.48V1903.95C1349 1903.95 1344 1912.26 1349 1916.89C1354 1921.42 1355 1923.52 1356 1926.68C1357 1929.84 1358 1935.1 1358 1935.1V1940.47L1365 1939.31V1923.31V1911.53V1901.85L1370 1897.22C1370 1897.22 1371 1889.85 1375 1901.43C1379 1913 1380 1918.26 1380 1918.26C1380 1918.26 1380 1910.48 1380 1923.31C1380 1936.15 1380 1940.47 1380 1940.47L1385 1942.47L1392 1934.05V1924.37V1910.37V1899.64C1392 1899.64 1391 1896.16 1399 1895.11C1407 1894.06 1407 1894.06 1407 1894.06C1407 1894.06 1404 1892.69 1407 1900.79C1410 1908.9 1410 1916.68 1407 1920.16C1404 1923.63 1409 1915.21 1404 1923.63C1399 1932.05 1399 1932.05 1399 1932.05L1396 1941.52L1398 1945.73C1398 1945.73 1399 1941.52 1404 1939.41C1409 1937.31 1414 1932.05 1414 1932.05V1918.05L1423 1903.64V1915.95V1929.94L1414 1950.04L1412 1955.3L1423 1956.88L1442 1954.25L1455 1946.89L1445 1930.05L1443 1915.32L1438 1893.22L1448.1 1887.43L1455 1912.79L1459 1926.89L1470 1912.16L1461 1893.22C1461 1893.22 1453 1880.59 1460 1880.59C1467 1880.59 1476 1880.59 1476 1880.59V1906.37V1923.52L1489 1917.42V1898.79L1474 1873.22V1854.28C1474 1854.28 1477 1855.33 1482 1854.28C1487 1853.23 1498 1855.33 1498 1855.33L1506 1880.59V1912.79L1522 1892.17L1533 1893.22C1533 1893.22 1538 1901.64 1533 1908.48C1528 1915.32 1516 1925.84 1516 1925.84L1535.2 1920.26C1533 1927.94 1530 1926.89 1526 1933.21C1522 1939.52 1522 1939.52 1522 1939.52L1535.2 1942.89L1569 1945.83L1588 1965.83V1940.68L1626 1941.62C1626 1941.62 1636 1944.78 1636 1948.99C1636 1953.2 1636 1958.78 1636 1966.56C1636 1974.35 1636 1981.61 1636 1981.61L1649 1996.34C1649 1996.34 1658 1998.45 1665 1999.5C1672 2000.55 1678 2011.08 1678 2011.08L1698 2019.5C1698 2019.5 1704 2024.76 1707 2027.91C1710 2031.07 1712 2035.28 1728 2033.18C1744 2031.07 1744 2031.07 1744 2031.07L1760 2021.6C1760 2021.6 1755 2009.71 1760 2002.03C1765 1994.34 1762 1982.66 1768 1978.45C1774 1974.25 1794 1958.46 1799 1956.36C1804 1954.25 1804 1954.25 1804 1954.25L1825 1948.99V1921.63L1816 1914.26L1811.7 1887.43L1803 1880.59C1803 1880.59 1805 1875.33 1795 1875.33C1785 1875.33 1780 1875.33 1780 1875.33L1764 1872.17C1764 1872.17 1769 1863.75 1772 1863.75C1775 1863.75 1788 1863.75 1788 1863.75H1802L1792 1853.23C1792 1853.23 1792 1850.07 1785 1849.02C1778 1847.97 1752 1843.76 1752 1843.76L1742 1841.65C1742 1841.65 1724 1830.08 1741 1831.13C1758 1832.18 1790 1838.5 1790 1838.5C1802 1843.76 1799 1839.55 1805 1850.07C1811 1860.6 1812 1870.07 1812 1870.07C1812 1870.07 1818.8 1885.85 1820.9 1887.43C1823 1889.01 1823 1889.01 1823 1889.01L1825 1874.07V1864.38L1820 1850.07L1811 1843.76L1806 1833.24L1795 1818.5L1791 1799.56C1791 1799.56 1789 1796.4 1785 1793.25C1781 1790.09 1778 1787.99 1778 1783.78C1778 1779.57 1769 1764.84 1769 1764.84L1785 1770.1L1797 1779.57C1797 1779.57 1792 1781.67 1798 1789.04C1804 1796.4 1804 1796.4 1804 1796.4C1804 1796.4 1817 1823.76 1818 1827.97C1819 1832.18 1824 1834.6 1825 1840.81C1826 1846.92 1829 1843.76 1832 1852.18C1835 1860.6 1837 1865.86 1837 1865.86V1871.96L1847 1892.17C1847 1892.17 1846 1918.47 1857 1897.43C1868 1876.38 1863 1856.39 1863 1856.39L1859 1841.65L1850 1811.14L1839 1793.25L1822 1776.41L1803 1759.57C1803 1759.57 1793 1750.1 1790 1749.05C1787 1748 1779 1740.63 1779 1740.63L1767 1734.32L1756 1743.79L1728 1749.05L1742 1717.48L1775 1718.53L1796 1722.74L1802 1728L1810 1737.47L1819 1748L1835 1759.57L1855 1774.31L1859 1785.88L1858 1791.14L1859 1810.08L1869 1822.71V1834.29V1849.34L1874 1859.54V1872.17L1880.1 1887.43L1894 1878.48V1840.81L1899 1818.5L1883 1785.88L1877 1759.57L1862 1750.1L1854 1741.68L1850 1730.11L1845 1722.74L1846 1713.27L1846.8 1702.01L1848 1685.91L1845 1675.39L1847 1671.18C1847 1671.18 1853 1699.59 1855 1709.06C1857 1718.53 1857 1718.53 1857 1718.53C1857 1718.53 1855 1716.43 1860 1723.79C1865 1731.16 1881 1748 1881 1748L1899 1767.68V1775.15C1899 1775.15 1895 1787.25 1899 1790.2C1903 1793.14 1904 1793.14 1906 1798.4C1908 1803.67 1911 1793.14 1911 1815.24C1911 1837.34 1911 1841.76 1911 1841.76C1911 1841.76 1912 1840.08 1911 1847.13C1910 1854.18 1911 1864.28 1911 1864.28L1922 1854.18L1934 1829.97L1938 1805.77L1923 1793.14L1920 1775.25V1765.78L1904 1754.21C1918 1753.15 1946 1761.57 1946 1761.57C1946 1769.99 1946 1770.2 1946 1785.88C1946 1801.56 1942 1795.25 1946 1801.56C1950 1807.87 1946 1819.13 1946 1819.13C1946 1819.13 1952 1826.82 1953 1823.66C1954 1820.5 1963 1787.88 1963 1787.88L1958 1758.42L1942 1730C1942 1730 1943 1722.64 1936 1719.48C1929 1716.32 1907 1701.59 1907 1701.59C1907 1701.59 1896 1696.33 1895 1690.02C1894 1683.7 1892 1678.44 1892 1678.44C1892 1678.44 1891 1671.07 1888 1665.81C1885 1660.55 1877 1642.66 1877 1642.66V1633.19C1877 1633.19 1884 1624.77 1871 1621.62C1858 1618.46 1863.1 1624.77 1852.6 1621.62C1842.1 1618.46 1834 1616.35 1834 1616.35L1830 1608.99C1830 1608.99 1837 1615.3 1825 1590.05C1813 1564.79 1811 1559.53 1811 1559.53L1813 1550.06L1823 1540.59L1832 1524.8C1832 1524.8 1846.1 1521.65 1852.6 1524.8C1859.1 1527.96 1859.7 1523.43 1859.7 1523.43L1820 1497.44C1812 1502.7 1794.4 1497.44 1794.4 1497.44C1794.4 1497.44 1790 1466.93 1806 1472.19C1822 1477.45 1827 1471.56 1827 1471.56L1832 1457.45H1851.6C1851.6 1457.45 1861 1467.98 1867 1470.08C1873 1472.19 1866 1471.13 1876 1477.45C1886 1483.76 1894 1485.87 1894 1485.87H1914L1935 1490.08L1947 1482.71L1949 1470.08L1948 1449.04L1929 1438.51L1923 1418.52L1899 1391.16L1883 1366.96C1883 1366.96 1893 1379.58 1873 1366.96C1853 1354.33 1833 1341.7 1833 1341.7C1833 1341.7 1832 1320.65 1839 1320.65C1846 1320.65 1862 1315.39 1862 1315.39L1868 1302.76L1846 1281.72C1850 1274.35 1850 1264.88 1862 1264.88C1874 1264.88 1877 1265.93 1879 1261.72C1881 1257.51 1890 1215.42 1890 1215.42L1925 1241.73L1926 1222.79L1939 1236.47V1258.57C1939 1258.57 1947 1261.72 1939 1269.09C1931 1276.46 1916 1279.61 1916 1279.61L1936 1295.4L1952 1296.45L1958 1298.56L1963 1337.7V1343.07L1967 2079.37L0 2090V2079.37Z" fill="#1B143A"/>
</g>
<defs>
<linearGradient id="paint0_linear" x1="983.5" y1="2070.16" x2="983.5" y2="0.0888377" gradientUnits="userSpaceOnUse">
<stop offset="0.06257" stop-color="#013263"/>
<stop offset="0.8096" stop-color="#00BBE8"/>
<stop offset="1" stop-color="#7CF1FA"/>
</linearGradient>
<linearGradient id="paint1_linear" x1="0" y1="1519.54" x2="1164.33" y2="1519.54" gradientUnits="userSpaceOnUse">
<stop offset="0.0586592" stop-color="#013263"/>
<stop offset="1" stop-color="#0579BD"/>
</linearGradient>
</defs>
</svg>
